<?xml version="1.0" encoding="utf-8"?>
<!-- Generator: Adobe Illustrator 22.0.1, SVG Export Plug-In . SVG Version: 6.00 Build 0)  -->
<svg version="1.1" id="Layer_1" xmlns="http://www.w3.org/2000/svg" xmlns:xlink="http://www.w3.org/1999/xlink" x="0px" y="0px"
	 viewBox="0 0 850 500" style="enable-background:new 0 0 850 500;" xml:space="preserve">
<style type="text/css">
	.st0{fill:#FFFFFF;}
</style>
<path class="st0" d="M502.4,254.7c0.4,0.3,0.7,0,0.7-0.5c0-0.4-0.2-0.6-0.3-0.9c-0.6-1.3-0.5-1.6,0.6-2.3c1.1-0.7,1.2-1,0.6-2.1
	c-0.2-0.3-0.4-0.6-0.7-0.9c-1.1-1.3-1.1-1.4,0-2.9c0.8-1.1,0.7-1.3,0-2.3c-0.6-0.8-1.5-1.1-2.2-1.8c0.8-1.1,1.6-0.9,2.4-0.8
	c0.6,0.1,1.2,0.3,1.9,0.5c0.8,0.1,1.9,0.8,2.4-0.2c0.5-0.8-0.3-1.8-0.7-2.5c-0.2-0.4-0.6-0.7-0.1-1.2c0.5-0.6,0.9-0.3,1.2,0.1
	c1.3,1.5,2.6,2.9,3.2,5c0.2,0.7,0.6,1.3,1,1.9c1.5,2.5,3.2,4.9,4.3,7.8c0.4,1,1,2,1.5,2.9c0.2,0.3,0.4,0.5,0.7,0.3
	c0.3-0.1,0.2-0.5,0.3-0.8c0-0.3,0-0.6,0-0.9c0.1-1.1,0.4-1.4,1.3-1.3c0.8,0.1,1.4,0.6,2,1c1.2,0.9,1.2,0.9,2.3-0.6
	c0.7-0.9,1.1-0.9,1.4,0.1c0.3,0.8,0.5,1.7,0.7,2.5c0.1,0.6,0.2,1,0.9,0.7c0.8-0.4,1.2,0.2,1.1,1c-0.1,0.8,0.2,1.5,0.3,2.2
	c0.2,1.2,0.4,1.2,1.5,0.6c0.2-0.1,0.4-0.3,0.7-0.1c0.3,1.7-0.1,3.5-0.1,5.2c0,0.7,0.1,1.2,0.8,1.3c0.7,0,0.7,0.7,0.6,1.4
	c-0.2,1.1-0.5,2.1-0.8,3.2c-0.5,2.3-0.4,2.4,1.5,2.2c0.3,0,0.6,0,0.8,0.3c0.1,0.3-0.1,0.7-0.3,1c-0.6,0.7-0.9,1.6-1.6,2.2
	c-1,0.9-1.5,2.2-1.8,3.6c-0.1,0.4-0.2,0.9,0.2,1.1c0.3,0.2,0.7,0,1-0.2c0.4-0.3,0.9-0.6,1.1-1.2c0.2-0.5,0.6-0.8,1.1-0.6
	c0.4,0.2,0.2,0.7,0.1,1.1c-0.2,0.9-0.3,1.7-0.3,2.6c0,1.7,0,1.7,1.5,1.3c1-0.3,1.2-0.1,0.9,1.1c-0.2,1-0.4,2-1.1,2.8
	c-0.6,0.8-0.7,1.7-0.9,2.6c-0.2,0.7-0.1,1.1,0.6,1.1c0.7-0.1,0.8,0.4,0.5,1.1c-0.5,1.5-1,3-1.6,4.5c-0.6,1.5-0.7,2.7,0,4
	c0.7,1.3,1.4,2.8,1.1,4.6c-0.2,1.7-0.1,3.4-0.8,5c-1.5,3.3-2.8,6.7-3.7,10.2c-0.7,3-1.1,6-0.8,8.9c0.1,0.6-0.1,1.1-0.4,1.6
	c-1,0.1-1.9,0.1-1.7-1.6c0-0.1-0.1-0.3-0.1-0.4c-1.4-4.6-4.5-6.7-8.3-7.6c-0.6-0.2-1,0.3-1.5,0.6c-1.1,0.7-2.1,1.6-3.2,2.1
	c-0.2-0.6-0.3-1.2-0.2-1.8c0.1-0.9-0.3-1.2-1.1-1c-0.9,0.2-1.8,0.3-2.6,0.6c-1.1,0.3-1.1,0.3-0.9-1.1c0.3-1.9,0.2-2.2-1.3-2.7
	c-0.8-0.3-1.6-0.6-2.3-1.3c1-1.5,1.5-2.9,1.5-4.7c0-2.4,1.3-4,3.3-4.9c0.9-0.4,1-0.6,0.5-1.5c-1.3-2.2-2.7-4.1-5-4.8
	c-1.2-0.4-1.1-0.5-0.8-2c0.1-0.4,0.3-0.9-0.1-1.2c-0.3-0.3-0.7-0.3-1.2,0c-0.6,0.4-1.3,0.8-2,1.1c-0.5,0.2-0.8-0.1-0.7-0.7
	c0-0.4,0.1-0.7,0.3-1.1c0.3-0.9,0.1-1.3-0.5-1.9c-1.1-1.1-2.5-1.5-3.9-2c-0.8-0.2-1.2-0.7-0.6-1.6c0.8-1.2,0.4-1.8-0.4-2.4
	c-1-0.8-1.9-1.8-2.7-2.7c0.4-0.8,0.9-0.8,1.3-1.1c0.8-0.5,1-1.1,0.5-1.9c-0.6-1-1.2-2.1-1.8-3.1c-0.3-0.5-0.6-0.9-0.6-1.5
	c0.1-0.1,0.2-0.3,0.3-0.3c1.7-0.5,1.7-0.5,2-2.7c0.1-0.4,0.1-0.7,0.2-1.1c0.4-0.9,0.7-2.1,1.8-2.5c0,1.5,0.6,2.4,1.6,3
	c0.6,0.4,1.2,0.3,1.6-0.4c0.5-0.8,0.8-1.7,0.5-2.6c-0.3-0.9-0.6-2-1.2-2.6c-2.3-2.4-4.2-5.4-7.4-6.2c-0.1,0-0.1-0.2-0.2-0.3
	c0-0.1,0-0.3,0.1-0.4c0.9-1.7,0.9-1.7-0.3-2.5c-0.7-0.5-1.1-1.3-1.8-1.7c-0.4-0.2-0.5-0.8-0.1-1.2c1-1.2,0.6-2.3,0.2-3.3
	c-0.4-1-0.7-2-0.9-3.1c-0.6-3.6-0.8-7.3-0.3-11.1c0.2-1.4-0.3-2.2-1-3.1c-0.2-0.3-0.7-0.1-0.7-0.7c0.2-0.3,0.4-0.4,0.6-0.4
	c1,0.3,1.2-0.4,1.5-1.4c0.5-1.8,0.5-3.4-0.1-4.9c-0.3-0.7-0.6-1.5-0.8-2.2c-0.1-0.3-0.3-0.6,0-1c0.3-0.3,0.6-0.2,0.8-0.1
	c1.4,0.7,2.8,1.7,3.1,3.7c0.2,1.7,0.9,3.2,0.6,5.1c-0.2,1.5,0.3,2.9,0.5,4.3c0.1,0.6,0.4,0.8,0.8,0.8c0.6-0.1,0.6-0.7,0.7-1.1
	c0.1-1.1,0.3-2.1,0-3.2c-0.1-0.3-0.1-0.8,0.3-0.9c0.3-0.1,0.6,0.1,0.7,0.5c0.2,1.3,0.6,2.5,0.6,3.8c-0.1,2.1-0.3,4.2,0.2,6.3
	c0.4,1.8,0.2,1.9,1.7,1.1c1.5-0.8,1.5-0.8,1.1,1.2c0,0.1,0,0.3,0,0.4c0,0,0,0,0,0c0.1,0.3,0.1,0.6,0.2,0.9c-0.1,0.2-0.1,0.5-0.2,0.7
	c0,0,0,0.2,0,0.2c0,0.2,0.1,0.4,0.1,0.5c0,0-0.1,0.1-0.1,0.1C499.7,253,500.5,254.4,502.4,254.7z M510.7,265.6c1-1.5,2.1-3,2.7-4.8
	c0.4-1.3,0.8-2.6,0.1-3.6c-0.8-1.1-2-1-3.3-0.4c-1,0.5-2,1.2-2.5,2.5c-0.7,1.7-1.9,2.5-3.4,2.5c-0.9,0-1.9-0.1-2.8-0.1
	c-0.3,0-0.6,0-0.7,0.5c-0.1,0.3,0.1,0.5,0.3,0.7c0.9,1.1,1.9,2,3.1,2.7c1,0.6,2,1.1,3.1,1.7C508.6,267.5,509.7,267.1,510.7,265.6z
	 M524.3,300.9c-0.1,2.4,0.7,4.1,1.9,5.7c0.3,0.4,0.6,0.5,1,0.7c1,0.4,1.6-0.1,1.5-1.5c-0.1-1.2-0.4-2.3-1.1-3.2
	c-0.2-0.3-0.5-0.6-0.3-1.1c0.3-0.5,0.7-0.5,1.1-0.4c0.5,0,1.1,0.8,1.6-0.2c0.4-1,0.7-2.1,0.2-3.1c-0.3-0.7-0.8-1.1-1.3-1.6
	c-0.7-0.8-0.7-1.2,0.2-1.9c0.7-0.5,1.4-0.9,1.2-1.9c-0.2-1.2-0.5-2.3-1.6-2.7c-0.9-0.3-1.6,0.2-2.3,1c-0.6,0.8-1.1,1.7-1.3,2.5
	C524.9,295.9,524.4,298.4,524.3,300.9z M522.8,281.3c0.3,0.3,0.5,0.8,1,0.4c0.5-0.4,0.9-1,0.9-1.8c0-0.8-0.3-1.4-0.7-2
	c-0.4-0.7-0.7-1.5-0.9-2.4c-0.1-0.5,0-1,0.6-1c0.7,0,1.3-0.1,2-0.4c0.8-0.3,1.4-0.9,1.3-1.9c-0.2-1.9-0.5-3.7-1.9-4.8
	c-1.5-1.1-2.7-0.8-3.9,1c-0.3,0.4-0.5,0.9-0.7,1.3c-0.7,1.8-0.7,1.8-2.2,1.7C518.6,275.8,520.3,278.9,522.8,281.3z M510.5,296.2
	c0.1-0.3,0.1-0.6,0.1-0.8c-0.3-3.8-0.3-7.7-1.1-11.4c-0.4-2.1-1.5-3.9-2.5-5.6c-0.2-0.4-0.5-0.8-1-0.5c-0.4,0.3-0.2,0.8-0.2,1.2
	c0,1.2,0.2,2.4,0.2,3.6c0.1,1.9,0.1,3.8-0.1,5.7c-0.2,1.7,0,3.3,1.1,4.6c0.9,1,1.6,2.2,2.4,3.3c0.1,0.2,0.3,0.3,0.5,0.5
	C510.3,296.6,510.5,296.5,510.5,296.2z M510.7,273.1c-0.7,1.4-0.5,1.8,0.8,1.7c2.1-0.1,4-1.9,4.7-4.3c0.6-2.1,0.7-4.3,0.4-6.3
	c-0.1-0.6-0.2-1.2-0.9-1.5C514.1,266.4,512.4,269.8,510.7,273.1z M517.7,301.4c0-0.4,0-0.8-0.1-1.2c-0.5-2.7-1.4-5.2-2.2-7.7
	c-0.2-0.5-0.3-1.1-1-0.8c-0.6,0.2-0.7,0.8-0.7,1.4c0,1.1,0,2.3,0,3.4c0.1,1.9,0,3.8-0.1,5.7c-0.1,1.5,0.2,2,1.2,2.3
	C516.1,304.8,517.6,303.1,517.7,301.4z M522.3,293.4c0-0.3-0.1-0.5-0.3-0.7c-1.1-1.7-2.4-3.1-3.9-4.4c-0.6-0.5-1.1,0-1.2,0.9
	c-0.1,0.6-0.1,1.2,0.1,1.6c1.3,2.4,1.6,5.4,2.7,7.9c0.1,0.3,0.2,0.7,0.4,0.9c0.6,0.7,1.4,0.3,1.8-1.1
	C522,297.1,522.2,295.2,522.3,293.4z M521.2,266.4c1.4-1.2,2.7-2.5,4.5-2.3c0.5,0.1,0.8-0.3,0.7-0.9c-0.6-2.3-1.8-4-3.4-5.4
	c-0.4-0.4-1-0.3-1.2,0.3c-1.2,3.1-2.4,6.2-2.4,9.5C520.3,267.7,520.7,266.8,521.2,266.4z M520,283.3c-0.1-1.1-0.6-1.7-0.9-2.2
	c-1.1-1.4-1.8-3-2.2-4.9c-0.3-1.2-0.4-1.3-1.3-0.5c-1.3,1-2.6,1.6-4.3,2.3C513.5,281.3,516.5,282.6,520,283.3z M508.2,253.5
	c0.1,0.8,0.5,1,1.1,0.6c0.9-0.5,1.8-1,2.7-1.6c0.6-0.3,0.8-1,0.5-1.4c-1.4-2.1-2.7-4.5-5.2-5.3C507.7,248.5,508,251,508.2,253.5z
	 M517.3,313.4c-0.3-2.2,0-4.3,0.3-6.6c0-0.3,0.1-0.6,0.1-0.9c0-0.3,0-0.6-0.3-0.7c-0.3-0.1-0.4,0.1-0.6,0.3c-1.2,1.3-1.4,3-1.3,4.6
	c0.2,1.7,0.5,3.4,0.9,5.2C517.4,314.8,517.4,314.1,517.3,313.4z M519.5,312.3c0,0.7,0.3,1.1,0.7,1.6c0.7,0.7,1.6,1.2,2.7,1.9
	c0.2-3.9-2-5.8-3-8.6C519.4,309,519.5,310.7,519.5,312.3z M503.8,286.5c-0.1-0.8-0.4-1.4-0.8-2c-0.4-0.5-0.8-0.7-1.4-0.4
	c-0.6,0.3-0.7,1-0.7,1.7c0,1.3,0.4,2.3,0.9,3.2c0.4,0.7,0.8,1.2,1.4,2.1C503.9,289.3,504,287.9,503.8,286.5z M522.8,290.6
	c0.9-0.8,1.3-1.8,1.7-2.8c0.5-1.1,0.4-1.5-0.5-1.6c-1.3-0.1-2.6-0.3-4.1-0.1C520.5,288.2,522,289,522.8,290.6z M523.6,307.9
	c-0.8-1.2-0.9-2.7-1.1-4.2c-0.1-0.5-0.2-1-0.4-1.3c-0.3-0.5-0.8-0.5-1.2-0.1c-0.4,0.4-0.2,0.8-0.1,1.1c0.8,2,1.6,3.9,2.4,5.9
	C523.8,308.8,523.9,308.3,523.6,307.9z"/>
<path class="st0" d="M760.8,322.7c-1.1-2.5-2.6-4.7-3.5-7.1c-0.1-0.3-0.3-0.6-0.3-0.9c-0.1-0.6,0.1-1,0.9-0.7c1.3,0.6,1.2,0,1.1-0.8
	c-0.4-3-0.8-5.9-1.1-8.9c-0.2-1.9-0.4-3.8,0-5.6c0.4-1.8,0.6-1.8,2.4-0.4c0.3-0.1,0.5-0.3,0.6-0.6c1-2.8,2.6-5.3,4.5-7.5
	c1.4-1.7,2.6-3.5,3.5-5.6c0.5-1.1,0.8-1.1,1.8-0.1c0.6,0.7,1.2,1.3,2,0.7c3.1-2.1,6.4-4,8.1-7.4c0.6-1.2,1.2-2.4,0.8-3.9
	c-0.1-0.3-0.1-0.5,0.2-0.6c0.3-0.1,0.6,0,1,0.2c0.8,0.6,1.3,1.4,1.5,2.2c1.6,5,3.3,10,3.9,15c0.4,3.1,1,6.2,1,9.2
	c0.2,6.3-1.1,12.2-3.6,17.7c-1.4,3-2.9,5.9-5.1,8.4c-1,1.1-2.1,2.1-3.2,3.2c-2,1.8-4.1,3.5-6.1,5.3c-0.7,0.7-1.3,1.5-1.8,2.3
	c-0.3,0.5-0.7,1-1.1,1.6c-0.2,0.3-0.4,0.5-0.8,0.4c-0.4-0.1-0.6-0.4-0.6-0.7c-0.7-3.4-2.5-6.6-4.1-9.8c-0.8-1.5-1.9-2.9-3.1-4.2
	c-0.3-0.3-0.7-0.7-0.6-1c0.2-0.5,0.8-0.2,1.2-0.2C760.4,322.8,760.5,322.8,760.8,322.7z M767,300.1c-0.3,0.7-0.6,1.1-0.8,1.7
	c-0.3,1.2,0.3,1.9,1.8,1.9c0.3,0,0.7,0,1-0.1c3.1-0.3,5.5-1.7,7.7-3.3c0.8-0.5,1.5-1.3,1.9-2.2c0.3-0.6,0.5-1.3-0.2-2.1
	c-1.2-1.2-4.4-1.8-5.7-1.2C770.2,296.1,768.7,298.2,767,300.1z M762.5,317.5c0.8,0.4,1.7,0.8,2.6,1c1.3,0.3,1.4,0.2,1.5-0.9
	c0.4-3.7-0.6-7.4-2.2-11.2c-0.6-1.4-1.5-2-2.6-2c-1,0-1.4,0.6-1.6,2c-0.3,2.1,0,4.2,0.4,6.4c0.2,1.1,0.3,2.2,0.8,3.3
	C761.6,316.7,761.9,317.2,762.5,317.5z M771.7,307.4c-0.9-0.6-1.8-0.6-2.7-0.2c-1,0.4-1.7,1.1-1.5,2.2c0.5,2.3,1.2,4.7,1.2,7
	c0,0.8,0.6,1.5,1.5,1.8c0.8,0.3,1.7-0.1,2.1-0.8c0.2-0.4,0.3-0.9,0.4-1.3c0.4-2.2,0.3-4.4,0.4-6.6
	C773.2,308.6,772.5,308,771.7,307.4z M773.5,290.4c0.5,0.5,1.2,0.4,1.7-0.1c0.8-0.6,1.6-1.3,2.2-2c1.2-1.3,2.1-2.8,2.8-4.3
	c0.2-0.4,0.4-1-0.3-1.3c-0.6-0.3-1.1,0-1.3,0.4c-0.5,0.9-1.5,1.3-2.3,1.9c-1.1,0.8-2.4,1.4-3.5,2.2
	C771.7,288.1,771.9,289.2,773.5,290.4z M769.7,293.5c0.6-0.8,0.3-1.3-0.9-1.5c-1.3-0.3-2.5-0.1-3.1,0.8c-1.3,1.8-2.3,3.7-3.2,5.7
	c-0.2,0.5-0.2,1,0.4,1.3c0.5,0.3,0.8-0.1,1.1-0.4c0.1-0.1,0.2-0.3,0.3-0.4c0.7-1.4,1.9-2.4,3.2-3.4
	C768.4,294.9,769,294.2,769.7,293.5z M782.1,291.1c0.5-1.8,0.7-3.9,1-6c0-0.2-0.1-0.5-0.4-0.6c-0.2,0-0.4,0-0.5,0.1
	c-0.2,0.1-0.3,0.4-0.4,0.6c-1.1,2-2.6,3.6-4.3,5.1c-0.3,0.2-0.5,0.5-0.7,0.8c-0.2,0.3,0,0.6,0.4,0.8
	C778.5,292.7,781.4,292.4,782.1,291.1z M765.8,322.5c-0.4-0.2-0.9-0.4-1.4-0.1c-0.3,0.2-0.3,0.6-0.2,1c0.1,0.4,0.3,0.7,0.4,1.1
	c0.2,0.6,0.2,1.6,1.1,1.7c0.9,0.1,0.7-0.9,0.8-1.5c0.1-0.3,0.1-0.7,0-1.1C766.5,323.2,766.3,322.9,765.8,322.5z"/>
<path class="st0" d="M183.5,346.6c0.2,0.1,0.4,0.2,0.5,0.3c1.4,0.9,2.7,1.9,4.1,2.8c0,0-0.1-0.1-0.1-0.1c1,0.9,2,1.8,3.1,2.6
	c0,0,0,0,0,0c0.4,0.6,0.8,1.2,1.4,1.7l0-0.1c0,0.4,0.3,0.7,0.7,1l0-0.1c0.1,0.3,0.4,0.6,0.8,0.7c0,0,0-0.1,0-0.1
	c0.1,0.8,0.7,1.4,1.4,2c0,0,0-0.1,0-0.1c0.4,0.7,0.7,1.4,1.1,2.2c1.8,4.1,3.2,8.3,2.9,12.6c-0.2,3.6,0.5,7.2,2.2,10.7
	c0.9,1.8,1.9,3.6,3,5.3c1.5,2.4,1.8,4.8,0.9,7.1c-0.1,0.4-0.2,0.9-1,0.7c-0.5-0.1-0.7-0.6-0.7-0.9c0-1.6-1.2-2.9-2.1-4.3
	c-0.6-0.9-1.3-1.5-2.5-1.5c-0.9,0-1.5-0.3-1.4-1.2c0.1-0.7-0.3-1.2-1-1.7c-3.3-2.3-6.5-4.7-9.9-6.9c-7.7-5-14.9-10.5-21.8-16.3
	c-0.2-0.1-0.4-0.3-0.5-0.4c-0.6-0.6-1.1-0.8-1.6-0.1c-0.3,0.4-0.4,1.1-1.2,0.7c-0.6-0.3-0.7-0.8-0.6-1.4c0-0.4-0.1-0.9-0.2-1.3
	c-0.3-0.8-0.6-1.6-1.8-1.9c-1.4-0.4-1.6-1.1-1.1-2.1c0.2-0.4,0.3-0.9,0-1.5c-2-3.2-3.6-6.6-6.7-9.4c-0.3-0.3-0.6-0.6-1.2-0.7
	c-1,0.9,0.1,2.5-1.2,3.4c-1.4-1.1-0.6-2.5-1.5-3.6c0,0-0.1-0.2-0.1-0.2c-0.1-0.1-0.1-0.2-0.2-0.3c0-0.1-0.1-0.1-0.1-0.2
	c-0.1-0.1-0.1-0.2-0.2-0.3c0-0.1-0.1-0.1-0.1-0.2c0-0.1-0.1-0.2-0.1-0.2c-0.1-0.1-0.2-0.3-0.3-0.4c0,0-0.1-0.2-0.1-0.2
	c0-0.1-0.1-0.1-0.1-0.2c-0.1-0.1-0.3-0.3-0.4-0.4c-1.5-1.9-3.5-2.6-6-2.6c-0.3,0-0.6-0.1-0.8-0.1c-1.8-0.4-2.2-0.7-1.5-1.6
	c2.3-2.5,5-4.4,9.3-4.3c1.3,0,1.4-0.2,0.6-1.2c-0.3-0.4-1.2-0.7-0.7-1.2c0.4-0.5,1.1,0,1.7,0.1c0.2,0.1,0.4,0.2,0.6,0.3
	c2.4,0.9,2.5,0.9,2.3-1.2c0-0.2,0-0.4,0-0.6c0-1.8,0.6-1.9,2.6-0.9c0.2,0.3,0.4,0.5,0.7,0.8c-0.1,0.3,0,0.6,0.2,0.9
	c1,1.8,2.6,3.2,4.6,4.2c0.9,0.4,1.7,1.3,2.7,1.1c0.9-0.2,0.3-1.2,0.5-1.8c0.3-0.6,0.4-1.2,1.5-0.6c0,0,0-0.1,0-0.1
	c0.1,0.1,0.1,0.3,0.2,0.4c0,0.2,0.1,0.5,0.1,0.7c0,0,0,0,0,0c0.2,0.2,0.5,0.3,0.7,0.5c-0.2,0.5,0.1,0.9,0.5,1.3c0,0,0-0.1,0-0.1
	c0.2,0.4,0.3,0.8,0.6,1.1c2.2,2.2,4.8,4.1,8.1,5.1C177.3,343.8,180.6,344.8,183.5,346.6z M172.7,365.8c-0.7-0.9-1.5-1.7-2.2-2.6
	c-3.4-4.2-6.6-8.5-8.6-13.2c-0.9-2.2-2.3-4.2-4-6.1c-0.3-0.4-0.7-0.9-1.3-0.7c-0.7,0.2-0.7,0.8-0.5,1.2c0.3,0.7,0.7,1.5,1.1,2.2
	c1.8,2.9,3.5,5.8,5.4,8.6C165.2,359.2,168.5,362.8,172.7,365.8C172.7,365.8,172.7,365.9,172.7,365.8c0,0.1-0.1,0.1-0.1,0
	C172.5,365.6,172.4,365.9,172.7,365.8z M185.6,372.3c-1.3-3-1.1-5.9-0.9-8.7c0.2-2.4-0.1-4.8-0.8-7.2c-0.6-2.3-1.8-4.4-3.4-6.5
	c-0.6-0.7-1.2-1.1-2.1-1c-1,0-1.2,0.7-1.4,1.4c-0.2,0.8,0.1,1.6,0.4,2.4c0.7,2,1.4,4,1.7,6c0.4,2.7,0.8,5.4,1.9,8.1
	C181.9,369,183.5,370.8,185.6,372.3z M179.4,368.2c0.2-0.4-0.1-0.7-0.3-0.9c-1.6-2.4-2.5-4.8-2.9-7.4c-0.6-4.7-2.2-9.2-5.1-13.5
	c-0.2-0.3-0.3-0.6-0.6-0.9c-0.8-0.8-1.6-0.8-2.1,0c-0.6,0.9-0.5,1.9-0.1,2.9c1.9,4.5,3.7,9,5.7,13.5
	C175.1,364.4,176.8,366.6,179.4,368.2z M191,376c0.6-0.3,0.6-0.7,0.6-1.1c-0.1-1.8,0.3-3.6,0.6-5.4c0.8-4.8-1.4-9.4-4.3-13.8
	c-0.2-0.3-0.4-0.6-0.8-0.7c-0.3,0.9-0.4,0.9-0.2,1.3c1,2.8,1.2,5.5,0.5,8.2c-0.3,1.1-0.4,2.2,0,3.3c0.6,2,1.3,4,2.2,6
	C189.8,374.6,190.2,375.4,191,376z M196,370.2c-1.6,4.2-0.5,11.5,1.9,13.3C197.8,381.5,196.4,370.9,196,370.2z M160.6,342.8
	c1,2.8,4.9,9.2,6.3,10.2c-0.5-3.3-2.5-6-4.3-8.7C162.2,343.7,161.8,343,160.6,342.8z"/>
<path class="st0" d="M324.4,358.5c0.1-0.2,0.2-0.4,0.2-0.6c0.1-0.1,0.1-0.3,0.1-0.4c0.1-0.3,0.2-0.6,0.2-1c0-0.2,0-0.4,0-0.5
	c0-0.1,0.1-0.2,0.1-0.4c0.1-0.4,0.2-0.8,0.3-1.2c0,0,0-0.1,0-0.1c0-0.2,0-0.4,0-0.6c0.1-0.5,0.1-1.1,0.2-1.6c0,0,0.1-0.2,0.1-0.2
	l0.1,0.1c-0.2-1.6-0.3-3.1-0.5-4.7c0.2-2.1-0.5-3.5-1.8-4.7c-0.3-0.3-0.7-0.3-1.1,0.1c-0.3,0.3-0.3,0.6-0.2,0.9
	c0.4,0.8,0.7,1.6,0,2.6c-0.2,0.2-0.5,0.3-0.7,0.5c-2.8-0.5-4.9-2-6.6-4.1c0-0.1-0.1-0.3-0.2-0.4c-0.8-3-0.4-6.1,0.6-9.3
	c0.9-2.7,1.8-5.5,2.8-8.2c0.3-0.8,0.9-1.6,1.4-2.3c0.4-0.6,1.2-1,1.6-0.5c1.6,2,4.1,2,6.3,2.4c0.9,0.2,1.4,0.6,1.5,1.7
	c0.1,1.6,1.2,2.5,2.1,3.6c1.2,1.3,3.1,1.6,4,3c-0.1,1.2-2.7,1.6-1.2,2.9c2,1.9,3.5,4.3,5.9,5.7c0.9,0.5,2,0.9,1.2,2.8
	c-0.5,1.1,0.3,1.9,1.1,2.4c1,0.7,2,1.3,2.9,2.1c0.6,0.5,0.8,1.4-0.4,2c-1.7,0.9-1.1,1.7-0.3,2.3c1.7,1.4,3.6,2.5,5.6,3.5
	c2.2,1.1,4.8,1.5,7.2,2.1c0.8,0.2,1.6,0.7,0.7,1.7c-1.7,1.8-0.5,2.2,0.4,2.7c1.2,0.7,2.5,1.2,3.7,1.9c6.7,3.4,10.8,10.2,17.3,13.8
	c0.4,0.2,0.7,0.8,0.2,1.3c-2,2.5-0.7,4.2,0,6l0-0.1c0.1,1.2,0.1,2.6,1,3.4l0-0.1c0,2.5,2.9,2.9,3,5.7c-2.5-0.3-4.8-0.7-6.9,1.8
	c0,0,0.1,0,0.1,0c-1.4,0.5-2.5,0.5-2.8-1.2l0,0.1c0-0.3,0.1-0.6,0.1-1c0.1-2.7,0.1-2.8-2.4-2.5c-1,0.1-1.4-0.2-1.8-0.9
	c0-0.2,0-0.3-0.1-0.5c0.1-0.9,0.1-1.7-0.8-2c-1.9,2.8-1.9,2.8-4,0.9c-0.1-0.1-0.1-0.1-0.2-0.2c-1-0.7-2-1.4-3.1,0.7
	c-0.5,1-1.4,1-2.1,0.6c-0.9-0.6-1.7-1.4-2.6-2c-0.6-0.4-1.1-0.4-1.8,0.4c-1.9,2.5-1.9,2.5-3.6,0.6c-0.3-0.3-0.6-0.7-1-1
	c-0.5-0.4-1.1-0.5-1.6,0.1c-1.4,1.7-2.3,0.9-3.2,0c-0.8-0.8-1.7-1.6-2.4-2.6c-0.5-0.9-1.4-1.9-2.5-1.5c-2.3,0.9-3.2-0.5-4.3-1.8
	c-0.7-0.8-1.4-1.7-2-2.6c-0.5-0.7-1.1-1.3-2.1-1.1c-2.3,0.6-2.9-0.8-3-2.7c0-0.8-0.2-1.6-0.2-2.5c-0.1-1.3-0.2-2.5-2.1-1.7
	c-0.9,0.4-1.4-0.4-1.8-1c0-0.3,0-0.7,0-1c0.2-0.4,0.4-0.8,0.5-1.2c0.1-1.3,0.4-2.8,0.2-4c-0.3-1.2-2,0.1-2.7-0.6
	c-0.1-0.1-0.3-0.2-0.4-0.3c0-0.3,0-0.6,0.1-0.9c0.1-0.4,0.3-0.7,0.4-1.1c0.1-0.2,0.2-0.5,0.3-0.7c0.3-0.6,0.6-1.3,0.9-1.9
	c0,0-0.1,0.1-0.1,0.1C324.3,359.2,324.4,358.8,324.4,358.5z M354.6,383.3c-0.8-6.5-1.2-6.8-6.9-4.9c-0.5,0.2-1.1,0.2-1.3,0.8
	c-0.3,0.7,0.1,1.2,0.5,1.5C349,382.5,351.4,383.4,354.6,383.3z M330.6,359.6c1.8-1.1,2.9-2.6,3.9-4.1c0.4-0.6,0.6-1.2,0.4-1.8
	c-0.4-1.8-1.1-3.5-2.1-5.1C331.5,351.5,330.6,355.8,330.6,359.6z M335.8,372c1.5,1.3,2.4,1.1,3.5-1c1.6-3.1,1.1-4.1-1.9-3.7
	c-1.2,0.2-2.7,0.2-3.2,1.6c-0.4,1.1,0.5,2,1.2,2.7C335.5,371.8,335.6,371.9,335.8,372z M359.7,378.6c0.7,4.2,3.1,5.8,6.4,4.2
	c1.1-0.5,1.3-1.3,0.6-1.9C364.7,379.4,362.4,378.6,359.7,378.6z M347.9,370c-1.9-1.4-2.5-1.2-3.6,0.9c-0.4,0.8-1.6,1.7-1.1,2.6
	c0.5,0.9,1.8,0.2,2.7,0.1c0.7-0.1,1.4-0.4,2.1-0.6c1-0.4,1.3-1.1,0.8-2C348.5,370.6,348.1,370.3,347.9,370z M338.1,358.9
	c-0.2-0.1-0.4-0.2-0.5-0.2c-0.8,0.1-1.3,0.8-1.7,1.4c-0.5,0.8-1.4,1.5-1.2,2.6c0,0.2,0.2,0.3,0.4,0.4c0.6,0.3,3.4-0.7,4-1.3
	c0.3-0.4,0.6-0.8,0.4-1.1C339,360,338.5,359.5,338.1,358.9z"/>
<path class="st0" d="M304.7,360.8c1.1-1.7,2.1-3.3,4.4-3.7c2.5-0.4,3,1.3,3.8,2.6c0.8,1.1-0.1,2.4-1.1,3.6c-2.7,3.1-6.1,4.2-9.2,3.4
	c-3.6-1-7.6-0.3-11.4-0.5c-3.9-0.1-8,1-12,2c-2.1,0.5-3.6,0.4-5-0.9c0.6-1.5,2.2-1.4,3.2-2.1c0.5,0.1,1,0.1,1.6-0.3l-0.1,0
	c1.7-0.3,3.3-0.8,4.9-1.6c-0.4-1.2-1.4-0.8-2.2-0.7c-2.4,0.5-4.7,1.1-7.1,1.6c-3.2,0.7-6.3,1.3-9.1,0.1c0.1-0.6,0.3-1.1,0.4-1.7
	c0.5-0.4,1.2-0.2,1.7-1c-0.9-1-2.3-1.4-3.5-1.9c-4.6-1.8-8.6-4.3-11.8-7.8c-1.7-1.8-3.8-3.2-6-4.5c-0.6-0.4-1.2-1-2.3-0.2l0.1,0
	c-0.3-0.5-0.7-0.8-1.4-0.6c0,0,0.1,0.1,0.1,0.1c0.2-0.6-0.3-0.6-0.7-0.6c0,0,0.1,0,0.1,0c-0.3,0-0.5-0.1-0.8-0.1
	c-0.5,0.1-1,0.2-1.5,0.2c-0.1-0.7-0.6-0.5-1.2-0.4c-0.8-0.9-2.4-1.9-1.5-3.3c1-1.5,2.6-0.5,4-0.4c0.2,0,0.4,0,0.6,0
	c3-0.1,4,0.6,3.9-3.6c-0.1-2,0.3-4.1,0.9-6.2c0.9-3.5,0.3-6.5-0.4-9.5c-0.3-1.2-1.4-1.9-2.1-2.9c-0.2-0.3-0.7-0.7-0.2-1.2
	c0.6-0.6,1.1-0.2,1.4,0.2c1.3,1.8,3.3,2.8,4.6,4.5c0.8,1,1.8,1.2,3.3,0.5c1.4-0.7,1.8-1.9,1.8-3c0-2.7,0.4-5.5-1.8-7.2
	c0.7-0.9,1.3-0.8,1.9-0.4c2.8,1.8,3.6,4.8,3.6,8.2c0,2.3-0.4,4.6-0.2,6.9c0.4,4.1,3.2,5.8,6.6,6.9c2,0.7,4.4,0.8,6.6,1.1
	c2.4,0.3,3.1-0.3,3.3-2.6c0-0.2,0-0.4,0-0.5c0-0.8,0-1.6,1.1-1.9c1-0.2,1.1,0.5,1.1,1.3c0.1,2.1,1.6,3.1,3.4,3.9
	c0.8,0.4,1.8,0.4,2.5,0.9c0.8,0.6,1.5,1.2,0.9,2.5c-0.6,1.3-0.1,2,0.7,2.6c2.1,1.6,3.7,3.7,5.9,5.3c0.8,0.6,1.3,1.6,2,2.3
	c1.1,1.1,1.6,0.9,2.6-0.7c0.2-0.3,0.3-0.5,0.4-0.8c0.3-0.5,0.6-0.9,1.2-1c0.7-0.1,0.9,0.5,1,1c0.3,2.6,1.3,4.7,3.1,6.4
	c0.5,0.4,0.8,1.2,0.8,1.9c0,1.8,0.8,3.1,1.9,4.2c-0.1,1.3,0.6,2,1.8,2.2c1.6,0.2,3.3,0,4.9-1c0.9-0.6,1.1-2,0.4-2.7
	c-0.7-0.7-1.2-0.4-2.1,0.6C307,362.1,306.2,362.1,304.7,360.8z M287.8,354.4c0-0.6,0.1-0.9,0-1.1c-1.5-3.6-4.7-5.3-8-7
	c-0.8-0.4-1.7-0.1-2.5,0.5c-1.1,0.8-1.9,1.8-2.6,2.8c-0.9,1.4-0.8,2,0.5,2.4C279.1,353.3,283.6,353.2,287.8,354.4z M259.1,340.6
	c1.3,3,2.3,4.2,5,6.1c4.2,2.9,3.3,1.9,6.2-1.8c0.8-1.1,0.4-1.6-0.5-1.8c-2.4-0.6-4.8-1.2-7.1-1.9
	C261.6,340.8,260.6,340.5,259.1,340.6z"/>
<path class="st0" d="M77.6,356.9c-0.1,1.3-0.1,2.6-0.2,3.9c0,0.6,0,1.2-0.6,1.5c-0.6,0.3-1-0.3-1.4-0.8c-0.3-0.4-0.4-1-0.5-1.6
	c-0.7-3.1-2.3-5.4-4-7.8c-0.4-0.6-0.9-0.9-1.5-0.7c-0.7,0.2-0.7,1-0.7,1.7c-0.1,1.1-0.1,2.1-0.2,3.2c-0.2,1.2-0.9,1.5-1.6,0.7
	c-0.3-0.3-0.4-0.7-0.6-1.1c-1.2-3.3-2.7-6.4-4.5-9.1c-2.1-3.2-3.9-6.7-6.5-9.2c-1.6-1.5-3-3.3-4.3-5.3c-1.5-2.3-3.7-2.7-5.8-3.7
	c-3.2-1.5-3.2-1.5-5.4,1.7c0,0,0,0,0,0c-0.2,0-0.4,0.1-0.6,0.1c-3.4-1.4-6.6-3.6-9.8-5.5c-0.7-0.4-0.9-1.1-1.1-1.9
	c3.7-0.7,6.9-3.1,10.4-4.4c4.6-1.6,8.7-4.7,13.1-6.8c1.6-0.8,3.3-1.2,5-1.5c1-0.2,2-0.2,3.1-0.6c1.6-0.7,2,0,1.6,2.2
	c-0.4,2.4-0.5,2.5,1.3,2.9c5.2,1,10.2,3,15.2,5c4.7,1.9,8.7,5.3,12.5,9c3,2.9,6.2,5.5,9.8,7.4c2.3,1.2,4.6,1.9,7.1,1.3
	c0.7,0,1.5,0.3,2.1-0.7c0,0-0.1,0.1-0.1,0.1c0.9,0.7,1.7,0.3,2.4-0.7l-0.1,0.1c0.7-0.1,1.3-0.2,2-0.2c1.5-0.1,1.7,0.4,1,2
	c-1.1,2.4-2.9,3.9-4.5,5.4c-1.3,1.2-2.7,2.2-3.8,3.8c0,0,0.1-0.1,0.1-0.1c-0.7,0.4-1.4,0.7-2.1,1.1c-7.3,4.5-15,6.7-23,6.3
	c-1.2-0.1-2.4,0-3.5,1C77.3,355.8,77.2,356.3,77.6,356.9z M53.2,327.3c3.3,3.9,6.5,6.9,9.6,9.9c3.3,3.2,4.6,3.1,8-0.4
	c0.1-0.2,0.3-0.3,0.4-0.5c0.7-0.7,1.4-1.3,1.1-2.6c-0.3-1.3-1.3-1.2-2.1-1.2c-3.2,0-6.1-1.1-9-2.5C58.9,329,56.4,327.9,53.2,327.3z
	 M55.1,319.9c0.1,1.2,0.6,1.4,1,1.6c3.2,1.5,6.3,3.1,9.5,4.3c2.1,0.8,4.4,1.2,6.6,1.6c0.6,0.1,1.4,0.2,1.7-0.8
	c0.3-1.1-0.3-1.8-1.1-2.1c-2.2-1-4.4-2-6.6-2.9C62.7,320.1,58.9,320.3,55.1,319.9z M90.4,337c-0.1-0.9-0.3-2.1-1.3-2.8
	c-1.4-1.1-2.8-2.2-4.3-3.3c-1-0.8-1.8-0.5-2.3,0.9c-0.2,0.5-0.5,1-0.7,1.5c-0.8,1.5-0.7,2.7,0.6,3.5c1.7,1.1,3.5,2.2,5.3,3.1
	C89.1,340.6,90.2,339.4,90.4,337z M83.6,345.2c-1.1-1.9-2.8-1.7-4-2.7c-1.3-1.1-2.4-0.5-3.5,0.9c-1.3,1.6-1.3,2.7,0.4,3.6
	C79,348.4,81.2,346.8,83.6,345.2z M86.9,348.9c2.3,1.1,4.5,0.2,6.6-0.6c0.4-0.1,0.6-0.6,0.5-1.1c-0.1-0.3-0.3-0.6-0.5-0.7
	C91.1,344.7,89.4,345.4,86.9,348.9z M101.3,342.6c-2-1.1-3.5-2.1-5-2.8c-0.9-0.5-2.2,0.4-2.5,1.7c-0.3,1.3,0.6,1.6,1.3,1.8
	C97,343.9,98.9,343.8,101.3,342.6z"/>
<path class="st0" d="M700.2,338.5c0.3-0.1,0.5-0.2,0.8-0.3c0.4-0.2,0.9-0.7,1.2,0c0.3,0.6,0.3,1.2-0.3,1.7c-0.4,0.3-0.8,0.7-0.7,1.5
	c1.1,0.8,2.3,0.8,3.6,0.3c3.3,0.2,6.8-0.4,9.8,1.5c-0.3,1.1-0.9,1.5-1.4,2.1c-0.2,0.2-0.3,0.4-0.5,0.6c-0.6,1.3,0.4,1.5,0.9,1.7
	c1.2,0.7,2.5,1.3,3.6,2.3c0.6,1.2,1.9,1.9,2,3.8c-1.3,0.2-2.3-0.4-3.3-0.6c-3.1-0.8-6.2-0.2-9.3,1.4c-2,1.1-2.3,1.8-1.8,4.2
	c0.9,3.6,0.9,3.6-2.4,3.6c-0.6,0-1.1,0-1.7,0.1c-2.1,0-2.2,0-2.4,2.6c-0.1,1-0.6,1.1-1.1,1.2c-0.8,0.1-1.7-0.1-2.5,0
	c-1.5,0.2-2.1,0.8-1.9,2.6c0.1,1.8-0.4,2.3-1.8,2.6c-1.4,0.2-2.7,0.6-4.1,0.1c-1.7-0.6-3.5-0.6-5.5,0.2c-4.3,1.7-8.7,1.8-13,1.3
	c-3.4-0.4-6.7-0.8-10.1-1.3c-1.3-0.2-2,0.4-2.1,2c0,0.5-0.1,0.9-0.2,1.4c-0.3,1.3-1,1.4-1.7,0.8c-0.6-0.5-1.3-1-1.5-1.7
	c-1-2.8-3.1-2.4-5.2-2.2c-0.5,0.1-1.1,0.4-1.6,0.6c-0.4,0.1-0.6-0.4-0.7-0.7c-0.1-0.3-0.1-0.7,0.2-0.9c2.3-1.8,4-4.5,6.2-6.6
	c1.5-1.4,2.9-2.9,4.4-4.2c1.9-1.7,3.4-3.7,4-6.4c0.4-1.6,1.4-2.3,2.3-2c2.2,0.7,3.5-0.9,4.9-2.6c0.4-0.5,0.8-1,1.2-1.6
	c0.8-1.1,1.6-1.4,2.2,0c0.7,1.7,1.7,1.8,3.2,0.9c5.3-3.1,10.5-6.8,16.4-7.9c0.5-0.1,1.1-0.2,1.5-0.9c1.3,0.4,2.4-0.5,3.6-1
	c0,0-0.1,0-0.1,0C697,338.8,698.6,338.8,700.2,338.5z M687.4,361c0.5,0.5,1.1,0.2,1.7-0.3c1.6-1.3,3.3-2.5,4.9-3.9
	c0.6-0.4,1.2-1.1,0.9-1.9c-0.2-0.7-0.9-0.5-1.5-0.5c-0.4,0-0.7,0.1-1.1,0.2c-5.4,1.5-10.6,3.6-15.8,6.3c-0.8,0.4-1.6,0.7-2.2,1.6
	c-1,1.4-0.8,3,0.3,4.1c1.2,1.2,1.8-0.1,2.4-1.3c0.2-0.4,0.4-0.8,0.7-1.2c0.8-1.1,1.6-1.3,2.5-0.5c0.3,0.3,0.6,0.7,1,1.1
	c0.9,1,1.6,0.5,2.3-0.7c0.3-0.5,0.4-1.1,0.7-1.6C685.1,360,685.1,360,687.4,361z M697.3,348.8c-0.3-1.3-0.8-1.3-1.2-1.4
	c-2.9-0.4-5.9,0.1-8.8,0.3c-0.9,0.1-1.8,0.8-2.3,1.9c-0.5,1.2-0.4,3-1.6,3.5c-1.5,0.7-1.8-1.2-2.7-2.1c-0.8-0.8-1.5-0.8-1.9,0.6
	c-0.7,2-1.3,4-1.3,6.5C684.1,354.4,690.5,350.9,697.3,348.8z M672.6,359.2c0.8,0,1.4,0,2-0.1c0.6,0,1.1-0.3,1.4-1
	c0.3-0.7-0.1-1.3-0.4-1.7c-0.7-0.8-1.4-1.5-2.2-2.2c-0.8-0.7-1.7-0.7-2.5,0.4c-0.8,1.1-0.8,2.4-0.1,3.3
	C671.4,358.5,672.1,358.8,672.6,359.2z"/>
<path class="st0" d="M818.5,340.3c-1.9,0.8-3.9,0.6-5.7-0.1c-1.1-0.4-2.2-0.5-3.4-0.6c-3.8-0.1-7.6-0.3-11.4-0.4
	c-0.7,0-1.3-0.2-2-0.4c-2.5-0.6-4.9-0.8-7.4,0.3c-1.9,0.8-4.1,1-5.8,2.2c-1.3,0.9-2.5,1.8-3.7,2.8c-0.6,0.5-1.3,0.8-2.1,0.5
	c-0.8-0.3-0.7-0.9-0.7-1.5c0-2,0.9-4,2.2-5.6c1.6-2,3.3-4,6.2-5.1c1.4-0.6,2.7-1.4,4-2.1c2-1,4.4-1.5,6-3c0.7-0.7,1.4-0.3,1.4,0.7
	c0,1,0.7,1.3,1.7,1.4c3.3,0.5,5.9-0.4,7.8-2.8c0.6,0.8,0.4,1.3,0,2c-0.3,0.5,0,0.9,0.7,0.9c2,0.1,3.9,0,5.3-1.5
	c0.6-0.7,1.4-1.3,2.2-1.7c0.2,0.1,0.4,0.2,0.5,0.2c1.3,1.8,2,1.9,4.2,1c2-0.8,3.6-1.9,4.5-3.6c0.1-0.2,0.3-0.4,0.6-0.5
	c1.6,1.2,1.5,1.1,3.1-0.2c2-1.6,3.9-3.4,5.6-5.2c1.4-1.5,2.5-3.1,3.8-4.6c0.2-0.3,0.3-0.7,1.1-0.8c0.1,1.2,0.3,2.4,0.4,3.6
	c0.1,0.7,0.1,1.2,1.3,1.2c0.8,0,0.9,0.6,0.9,1.1c-0.1,1.9,0.1,3.9-1.9,5.3c-0.2,0.2-0.6,0.3-0.6,0.5c-0.2,1.9-2.1,3.3-2.2,5.2
	c-0.1,1.2-1,1.9-2.4,2.1c-1.4,0.2-2.2,0.9-3.2,1.6c-3.2,2.3-6.7,4.3-11.1,5c-0.1,0-0.2,0-0.2,0c-0.7,0.2-1.8,0.1-1.8,0.9
	c0,0.8,1.1,0.7,1.8,0.9C818.3,340,818.3,340.1,818.5,340.3z M821.5,331.7c-3.6,0.3-7.3,0.6-11,0.9c-0.3,0-0.6,0.1-0.9,0.2
	c-1.1,0.4-1.4,1.2-0.6,2c1,0.9,1.9,1.8,3.1,2.6c1,0.7,1.9,0.7,3,0.4c2.7-0.8,5.1-2.1,7.6-3.2c1-0.5,2.7-0.9,2.3-1.9
	C824.6,331.7,822.8,331.9,821.5,331.7z M783.4,337.6c0.2,0.1,0.3,0.2,0.3,0.2c0.2,0,0.5,0,0.7-0.1c6.2-1.6,12.5-2,18.9-1.1
	c0.2,0,0.5,0.1,0.7,0.1c0.8,0,1-0.4,0.5-0.9c-1.5-1.4-3.3-2.6-5.6-2.9c-4.2-0.6-8.2,0.2-11.9,1.8
	C785.5,335.4,784.2,336.4,783.4,337.6z M834.3,318.5c-1.5,1-2.2,2.2-3.2,3.2c-1.1,1-2.3,2-3.4,3c-0.4,0.3-1.1,0.7-0.6,1.3
	c0.4,0.5,1.1,0.3,1.7,0.2C833.4,325.2,835.5,323.3,834.3,318.5z"/>
<path class="st0" d="M562.2,357.6c0,0-0.1,0-0.1,0c0.9-0.2,0.5-0.6,0.3-1c0.4-1.6-1.1-2.4-1.1-3.8c1.1-0.6,1.6,0,2,0.5
	c4.1,3.9,6.9,8.8,8,14.8c0.7,3.7,1.7,7.1,3,10.4c1.3,3,3.3,5.5,6.1,6.9c3.6,1.7,7.1,3.6,11.5,3.8c0.6,0,1.1,0.2,1.7,0.4
	c0.4,0.2,0.7,0.6,0.6,1.1c-0.1,0.6-0.6,0.9-1.1,1c-1.2,0.1-2.3,0-3.6,0.5c-4.6,1.6-9,2.4-13.6,2.5c-5.2,0.2-10-1.1-15.2-1.2
	c-1,0-2-0.3-2.8-1c-1.3-1.1-2.7-1.9-4.2-2.7c-7.2-3.9-13.5-8.7-17.2-16.7c-1.9-4.2-5.2-6.9-10.2-6.8c-1.3,0-2.6,0.4-4,0.5
	c-1.1,0.1-1.8-0.6-0.8-1.5c1.9-1.9,0.9-2.7,0-3.7c-0.8-1-1.8-2-2.4-3.2c-1.3-2.7-2.4-5.5-6.3-4.9c-0.8,0.1-1.3-0.5-0.9-1.5
	c0.3-0.7,0.9-1.1,1.5-1c3.1,0.5,6.6,0.4,8,4c0.7,1.8,2.1,2.9,4,3.2c0.7,0.1,1.4,0.2,2.1-0.4c0.9-0.9,0.5-1.8,0.2-2.5
	c-0.5-1.2-1.2-2.2-1.8-3.3c-0.3-0.5-0.5-1.1,0.2-1.7c0.5-0.4,1-0.3,1.3,0c1,0.8,1.9,1.8,3.1,2.5c2.6,1.7,5.3,3.4,8.9,2.3
	c1.7-0.5,3.3-1.3,4.9-1.9c0.6-3.8-3.4-4.9-2.9-8.6c0.8-0.1,1,0.4,1.4,0.6c1.9,1.2,2.4,3.7,4,5.3c2.9,2.8,7,3.2,10.7,4.6
	C559.2,356,560.2,357.6,562.2,357.6z M556.7,380.7c0.9-0.1,1.8-0.6,2-1.7c0.6-4.3,2.1-8.8,1.4-13c-0.8-4.7-4.5-6.3-8.2-7.7
	c-1.3-0.5-2.2,0.6-2.3,1.9c-0.6,5.8-0.7,11.5,0.9,16.7c0.4,1.3,1.5,1.9,2.1,2.5C553.9,380.6,555.2,380.9,556.7,380.7z M567.4,372
	c-1.6,0.3-1.9,1.5-2.2,2.4c-0.3,0.9-0.5,1.8-0.6,2.7c-1.1,7.2,0.8,9.2,8.3,8.1C570.6,380.7,568.3,376.7,567.4,372z M544.6,365.2
	c-0.1-1.4-0.2-2.7-0.4-4c-0.2-1.9-1.3-2.6-3.1-2.2c-0.6,0.1-1.2,0.3-1.8,0.4c-1.1,0.3-2.5,0.4-2.8,1.7c-0.4,1.5,1.2,1.4,1.9,1.9
	c1.5,1.1,3,2.3,4.5,3.4c0.4,0.3,1,0.6,1.6-0.2C544.5,366,544.6,365.6,544.6,365.2z"/>
<path class="st0" d="M500.8,220c0.3,0.4,0.8,0.8,1,1.2c0.5,1.2,0.1,1.8-1,1.6c-4.3-0.9-8.5,0.8-12.8,0.5c-1.8-0.1-3.6,1.9-4.2,4.5
	c-0.3,1.2-0.7,2.2-1,3.3c0,0,0,0,0,0c-0.9-0.7-2.5-0.1-2.9-1.5c-0.6-2.3-2.8-4.1-2-6.9c0.6-2,0.2-2.8-1.3-4
	c-3.6-3.1-7.2-6.3-10.4-10c-2.2-2.5-5-4.4-7.2-7.1c-1.6-1.9-6.1-2.2-8.1-1c-0.9,0.6-1.1,1.4-0.6,2.3c0.7,1.2,1.7,2.2,3,2.6
	c1.6,0.4,3.1,1,4.7,1.5c0.9,0.3,1.5,0.8,1.3,1.9c-0.2,1.1-1.1,1.5-1.9,1.3c-2.2-0.7-4.4-1.1-6.6-1c-0.8,0-1.2-0.8-1.6-1.4
	c-2.7-3.3-6-5-10-5.6c-1-0.1-2-0.6-2.9-0.9c-1.5-0.6-3.2-2-4,1.2c-0.2,0.6-1,1.1-1.8,0.3c-0.8-0.9-2-1.3-2.3-2.5
	c-0.6-2.3-2.2-2.4-3.9-2.4c-0.7,0-1.4,0.1-2.2,0.3c-0.8,0.1-1.8,0.4-2-0.8c-0.2-0.9,0.7-1.4,1.4-1.7c7.6-3.1,15.2-6.8,23.4-6.2
	c4.4,0.3,9.1,0.2,12.9,3.2c1.3,1,2.6,0.5,4.1-0.3c2.7-1.5,5.6-2.5,8.6-1.5c2,0.7,3.5,1.9,4.5,4.1c-1.5,0.2-2.3-1.2-3.6-1.2
	c-1.4,0-3.7,1.1-3.7,1.9c0.1,2.2,1.9,1.7,3.1,1.7c3.1-0.1,5.9,0.5,8.5,2.3c1,0.7,2.3,0.8,3.5,1c0.7,0.1,1.6,0.2,1.4,1.2
	c-0.2,1-1.2,0.8-1.9,0.8c-1.1,0-2.2-0.6-3.3-0.3c-0.8,0.2-1.7,0.2-2.3,1.6c5.9,4.2,11.6,8.9,18,12.5c0.5,0.6,1.1,0.8,1.8,1
	c0,0-0.1-0.1-0.1-0.1c0.5,1,1.5,0.9,2.3,1.3c0,0,0,0,0,0C499.4,219.3,500.1,219.6,500.8,220z M472.2,206.5c0.5,2,1.1,2.9,2,3.6
	c1.4,1.2,2.8,2.6,4.3,3.7c3.6,2.5,7.3,4.7,11.5,6c0.7,0.2,1.5,0.4,1.8-0.7c0.3-0.8-0.3-1.3-0.8-1.6c-4-2.6-7.5-6.1-11.7-8.3
	C477.2,208.1,475.1,207.2,472.2,206.5z M433.2,195.1c0.1,1,0.5,1.1,0.9,1.2c4.4,1.3,8.8,1.8,13.4,1.5c1.8-0.1,3.7-0.8,5.5-1.2
	c0.4-0.1,0.8-0.5,0.8-0.9c0-0.5-0.3-0.8-0.7-0.9c-0.4-0.1-0.8-0.2-1.2-0.3c-3.4-0.5-6.9-1.1-10.4-1
	C438.7,193.4,435.8,193.7,433.2,195.1z"/>
<path class="st0" d="M344.3,240.1c-2.9-1.9-2.8-5.9-1.5-10.3c1.2-4.1,2.7-8.3,3.8-12.4c1.2-4.4,2.7-8.7,4.4-13c0.8-2,1.3-3,3.5-3.5
	c1.9-0.4,3.8-1.8,5.7-3.6c4.3-3.9,9.2-5.7,14.4-6.6c5.3-0.9,10.2-1.1,15.2-0.9c2.7,0.1,4.9,0.7,4.3,4.1c-0.6,3.2-2.9,4.8-5.7,5.3
	c-1.3,0.2-2.5,0.3-3.8,0.5c-2.4,0.3-4.1,1.7-5,4.3c-0.5,1.5-1.3,3.1-1.9,4.6c-3.8,11.1-11.1,18.9-21.3,23.9c-2.8,1.4-4.9,3-6.4,6.3
	C348.4,242.5,347.4,242.6,344.3,240.1z M378.8,195.3c-12.1,1-26.5,16.7-26.8,28.8c4.2-2.3,6.9-5.9,9-10
	C365.1,206,369.9,198.5,378.8,195.3z"/>
<path class="st0" d="M423.5,189.7c0.1,0,0.2,0.1,0.3,0.1c0.3,0.1,0.6,0.1,0.6,0.6c0,0.5-0.3,0.6-0.6,0.6c-0.5,0.1-0.9,0.1-1.4,0.2
	c-1.5,0-2.9,0.1-4.4-0.4c-0.6-0.2-1.4-0.3-1.8,0.8c-0.8,2.2-2.2,2.7-4,2.1c0,0,0.1,0,0.1,0c-0.6-1.2-0.6-2.5-0.5-3.9
	c0.7-1.8,1.9-3,3.3-3.9c0.2,0,0.4-0.1,0.5-0.3c0.1,0,0.2-0.1,0.2-0.1c0.6-0.2,1.1-0.4,1.7-0.5c0.7-0.1,1.4,0.1,1.9,0.8
	c0.5,0.7,0.5,1.9,1.2,2.4c0.6,0.5,1.6,0.2,2.2,1c0,0,0.1,0,0.2,0.1c0,0,0,0,0,0C423.2,189.5,423.4,189.6,423.5,189.7z"/>
<path class="st0" d="M750.3,332.8c1.6-0.9,3.4-0.3,4.4,1.4c1.1,2,1.1,4.6,0,5.4c-1.4,0.9-3.8-0.1-5-2.1
	C748.6,335.5,748.8,333.7,750.3,332.8z"/>
<path class="st0" d="M404.4,193.4c-1.6-1.1-2.2-2.5-1.6-3.4c0.6-0.8,2-1,3.1-0.3c1.4,0.9,1.8,2.4,1,3.7
	C406.2,194.7,405.2,193.9,404.4,193.4z"/>
<path class="st0" d="M846.2,340.6c0,0.4,0,0.8,0,1.2C846.2,341.4,846.2,341,846.2,340.6z"/>
<path class="st0" d="M160.8,296.4c0-0.3,0-0.6-0.1-0.9C160.8,295.8,160.8,296.1,160.8,296.4z"/>
<path class="st0" d="M849.6,334.3c0,0.4-0.1,0.7-0.1,1.1C849.5,335,849.6,334.6,849.6,334.3z"/>
<path class="st0" d="M562.2,403.8c0.2,0.3,0.4,0.5,0.6,0.8"/>
<path class="st0" d="M-12.8,313.4c-0.2,0.1-0.4,0.3-0.5,0.4C-13.2,313.7-13,313.5-12.8,313.4z"/>
<path class="st0" d="M301.6,294.6c0.1,0.2,0.2,0.4,0.2,0.5C301.8,294.9,301.7,294.8,301.6,294.6z"/>
<path class="st0" d="M340,383.8c-0.6,0.2-1.2,0.3-1.8,0.5C338.9,384.2,339.5,384,340,383.8z"/>
<path class="st0" d="M849.2,336.6c0,0.4,0,0.7,0,1.1C849.2,337.3,849.2,337,849.2,336.6z"/>
<path class="st0" d="M849.1,339.3c0,0.3,0.1,0.6,0.1,0.9C849.2,339.9,849.2,339.6,849.1,339.3z"/>
<path class="st0" d="M326.5,226C326.5,226,326.5,226,326.5,226C326.5,226,326.5,226,326.5,226z"/>
<path class="st0" d="M-9.2,309.4c-0.1,0-0.1-0.1-0.1-0.2C-9.3,309.3-9.3,309.3-9.2,309.4z"/>
<path class="st0" d="M153.2,358.1c-0.3-0.1-0.6-0.3-0.8-0.4C152.7,357.8,153,357.9,153.2,358.1z"/>
<path class="st0" d="M556,411.7c-0.1-0.1-0.1-0.3-0.2-0.4C555.9,411.4,556,411.6,556,411.7z"/>
<path class="st0" d="M410,376.2C410,376.2,410,376.2,410,376.2C410,376.2,410,376.2,410,376.2z"/>
<path class="st0" d="M497,439c0.2-0.2,0.3-0.5,0.5-0.7C497.3,438.6,497.2,438.8,497,439z"/>
<path class="st0" d="M561.1,402.8C561.1,402.8,561,402.8,561.1,402.8C561,402.8,561.1,402.8,561.1,402.8z"/>
<path class="st0" d="M227.5,423.4c0.1,0.2,0.3,0.4,0.4,0.7C227.8,423.8,227.6,423.6,227.5,423.4z"/>
<path class="st0" d="M360.6,343.1c-0.1,0.2-0.3,0.4-0.4,0.6C360.3,343.5,360.4,343.3,360.6,343.1z"/>
<path class="st0" d="M490.2,393.7c-0.1,0.2-0.3,0.4-0.4,0.6C489.9,394.1,490.1,393.9,490.2,393.7z"/>
<path class="st0" d="M489.7,394.6c-0.1,0.2-0.3,0.4-0.4,0.5C489.4,394.9,489.6,394.7,489.7,394.6z"/>
<path class="st0" d="M268.6,359.2c-0.1,0.3-0.3,0.5-0.4,0.8C268.3,359.7,268.4,359.5,268.6,359.2z"/>
<path class="st0" d="M452.6,402.4c-0.2,0.3-0.4,0.5-0.6,0.8C452.2,402.9,452.4,402.6,452.6,402.4z"/>
<path class="st0" d="M617.7,284.9c-0.2,0.1-0.5,0.2-0.7,0.3"/>
<path class="st0" d="M415.7,185.7"/>
<path class="st0" d="M125.2,346"/>
<path class="st0" d="M619,355.2c0-0.1,0.1-0.2,0.2-0.3C619.1,355,619,355.1,619,355.2z"/>
<path class="st0" d="M-13.6,314c-0.1,0.1-0.1,0.1-0.2,0.2C-13.7,314.1-13.7,314-13.6,314z"/>
<path class="st0" d="M265.1,375.4c-0.1,0.1-0.2,0.2-0.3,0.2C264.9,375.6,265,375.5,265.1,375.4z"/>
<path class="st0" d="M265.4,375.1c0,0-0.1,0.1-0.1,0.1S265.4,375.1,265.4,375.1z"/>
<path class="st0" d="M402.9,440.3c-0.1,0.1-0.2,0.1-0.4,0.2C402.7,440.4,402.8,440.3,402.9,440.3z"/>
<path class="st0" d="M370.7,203.5c0.1,0.2,0.2,0.5,0.2,0.7C370.9,204,370.8,203.7,370.7,203.5z"/>
<path class="st0" d="M264.6,375.9c0,0-0.2,0.1-0.2,0.1C264.4,375.9,264.6,375.9,264.6,375.9z"/>
<path class="st0" d="M-17,312.1c-0.1,0.1-0.2,0.2-0.2,0.3C-17.2,312.3-17.1,312.2-17,312.1z"/>
<path class="st0" d="M123.8,353.7c0,0.2,0.1,0.4,0.1,0.6C123.9,354.2,123.9,354,123.8,353.7z"/>
<path class="st0" d="M-17.2,312.4c-0.1,0.1-0.2,0.2-0.3,0.4C-17.4,312.6-17.3,312.5-17.2,312.4z"/>
<path class="st0" d="M-17.6,313c-0.1,0.1-0.2,0.2-0.3,0.3C-17.9,313.2-17.7,313.1-17.6,313z"/>
<path class="st0" d="M-17.9,313.3c-0.1,0.1-0.2,0.2-0.3,0.4C-18.1,313.5-18,313.4-17.9,313.3z"/>
<path class="st0" d="M-18.8,314.2c-0.1,0.1-0.2,0.2-0.3,0.3C-19,314.4-18.9,314.3-18.8,314.2z"/>
<path class="st0" d="M849.2,338.5c0,0,0,0.2,0,0.2C849.2,338.7,849.2,338.5,849.2,338.5z"/>
<path class="st0" d="M849.4,335.9c-0.1,0.3-0.1,0.6-0.2,0.8C849.3,336.4,849.3,336.1,849.4,335.9z"/>
<path class="st0" d="M401.7,443.3c-0.1,0.1-0.3,0.3-0.4,0.4C401.4,443.6,401.5,443.4,401.7,443.3z"/>
<path class="st0" d="M614.8,375.6c-0.2,0.1-0.3,0.3-0.5,0.4C614.5,375.9,614.7,375.7,614.8,375.6z"/>
<path class="st0" d="M159.1,362c-0.2-0.1-0.3-0.2-0.5-0.4C158.7,361.7,158.9,361.8,159.1,362z"/>
<path class="st0" d="M160.8,363c-0.2-0.1-0.3-0.2-0.5-0.3C160.5,362.8,160.7,362.9,160.8,363z"/>
<path class="st0" d="M619.5,354.6c0-0.1,0.1-0.2,0.2-0.2C619.6,354.4,619.5,354.5,619.5,354.6z"/>
<path class="st0" d="M620.7,353.2c0.1-0.1,0.2-0.2,0.3-0.3C620.9,353,620.8,353.1,620.7,353.2z"/>
<path class="st0" d="M622,371c-0.2,0.1-0.3,0.2-0.5,0.3C621.6,371.2,621.8,371.1,622,371z"/>
<path class="st0" d="M561.9,403.6c0.1,0.1,0.2,0.2,0.4,0.3C562.1,403.8,562,403.7,561.9,403.6z"/>
<path class="st0" d="M488.8,395.6c-0.1,0.1-0.2,0.2-0.3,0.3C488.6,395.8,488.7,395.7,488.8,395.6z"/>
<path class="st0" d="M561.5,403.2c0.1,0,0.2,0.1,0.2,0.2C561.6,403.3,561.5,403.3,561.5,403.2z"/>
<path class="st0" d="M489.3,395.2c-0.1,0.1-0.3,0.2-0.4,0.4C489,395.4,489.1,395.3,489.3,395.2z"/>
<path class="st0" d="M338.4,384.3c-0.2,0.1-0.4,0.3-0.6,0.4C338,384.6,338.2,384.4,338.4,384.3z"/>
<path class="st0" d="M409.6,375.8c0.1,0,0.2,0.1,0.2,0.2C409.7,375.9,409.6,375.8,409.6,375.8z"/>
<path class="st0" d="M409,375.4c0.1,0.1,0.2,0.1,0.3,0.2C409.2,375.5,409.1,375.5,409,375.4z"/>
<path class="st0" d="M608.7,379.6c-0.2,0.1-0.4,0.2-0.6,0.3C608.3,379.8,608.5,379.7,608.7,379.6z"/>
<path class="st0" d="M327,217c0.2,0,0.3,0.1,0.5,0.1C327.4,217.1,327.2,217.1,327,217z"/>
<path class="st0" d="M640.7,356.4c-0.1,0.2-0.2,0.4-0.4,0.6C640.4,356.7,640.6,356.5,640.7,356.4z"/>
<path class="st0" d="M234.5,411.8c-0.1,0.1-0.3,0.2-0.4,0.3C234.2,412,234.3,411.9,234.5,411.8z"/>
<path class="st0" d="M216.5,375.3c-0.2,0.1-0.3,0.2-0.5,0.3C216.2,375.5,216.3,375.4,216.5,375.3z"/>
<path class="st0" d="M423.5,189.7c-0.2-0.1-0.3-0.2-0.5-0.4C423.2,189.5,423.4,189.6,423.5,189.7z"/>
<path class="st0" d="M-6.6,308.3c-0.1,0.1-0.2,0.2-0.3,0.2C-6.8,308.5-6.7,308.4-6.6,308.3z"/>
<path class="st0" d="M464.1,278c-0.1,0.2-0.3,0.3-0.4,0.5C463.8,278.3,464,278.1,464.1,278z"/>
<path class="st0" d="M622.4,351.1c0.2-0.1,0.3-0.3,0.5-0.4C622.7,350.8,622.5,350.9,622.4,351.1z"/>
<path class="st0" d="M629.9,365.7c0.2-0.1,0.3-0.3,0.5-0.4"/>
<path class="st0" d="M329.9,177c0-0.2,0.1-0.3,0.1-0.5C329.9,176.7,329.9,176.9,329.9,177z"/>
<path class="st0" d="M330,176.5c0.1-0.2,0.1-0.4,0.2-0.6C330.2,176.2,330.1,176.3,330,176.5z"/>
<path class="st0" d="M429.2,409.7c-0.4-1-1.2-2.2-1.1-2.8c0.5-1.8,1.8-1.3,3-0.5C430.5,407.5,429.8,408.6,429.2,409.7z"/>
<path class="st0" d="M767.9,363.1c0.1,0,0.2-0.1,0.2-0.1c0,0.1,0,0.3,0,0.4c-0.1,0-0.2,0-0.3,0C767.9,363.4,767.9,363.2,767.9,363.1
	z"/>
<path class="st0" d="M341.7,231.9c-0.3,0-0.7,0.1-1,0.1c-0.6-0.1-1.1-0.3-0.9-0.9c0.3-0.8,0.9-0.4,1.4-0.4c0.3,0,0.7,0.1,1,0.1
	C342,231.1,341.9,231.5,341.7,231.9z"/>
<path class="st0" d="M247.4,369.6c-0.2-0.1-0.3-0.2-0.2-0.4c0.1-0.1,0.4-0.1,0.6,0C247.7,369.4,247.5,369.5,247.4,369.6z"/>
<path class="st0" d="M-19.6,326.8c-0.1-0.2-0.2-0.3,0-0.5c0.2-0.2,0.4-0.1,0.6,0C-19.2,326.5-19.4,326.7-19.6,326.8z"/>
<path class="st0" d="M39.1,316.7c-0.8,0.5-1.7,0.3-2.4-0.4c-1.3-1.4-2.6-1.3-3.8-0.7c-3.6,1.7-7.6,2.8-11.8,3.6
	c-1.1,0.2-2.2,0.6-3.3,0.9c-0.4,0.1-0.7,0.2-1.1,0.3c-1,0.2-2.4,0.1-2.8-0.7c-0.6-1.2,0.9-1.1,1.8-1.3c2.6-0.6,4.8-1.8,7.2-2.8
	c2.1-0.9,4.4-1.5,5.9-3.1c0.8-0.8,1.6-1.6,0.3-3c-0.8-0.8-0.3-1.4,0.4-1.7c1.1-0.5,2.3-0.9,1.8-2.4c-0.4-1.1-2.7-2.5-4.1-2.5
	c-3.6,0.1-7.7,0.4-8.7,4.6c-0.2,0.8-0.5,1.6-0.8,2.4c-0.3,0.7-0.8,0.5-1.4,0.1c-0.8-0.6-1-1.4-1.2-2.2c-0.6-3-0.4-5.8,0.2-8.6
	c1.1-5,2.5-9.9,5.4-14.2c2.3-3.4,6.1-5.3,9.9-7.1c2.3-1.1,4.8-1.8,7.6-2.1c3.5-0.3,6.5-1.8,9.8-2.6c1-0.3,1.4-1,1.8-1.8
	c0.3-0.5,0.4-1.1,0.7-1.6c0.7-1.1,1.1-1.1,2.5,0c1.6,1.2,1.8,1.2,2.6-0.3c0.4-0.8,0.8-1.5,0.4-2.5c-0.3-0.9,0.2-1.4,0.9-1.6
	c0.7-0.2,0.9,0.6,1.3,1c1.1,0.9,1.7,0.6,2-0.3c0.4-1,0.4-2.2,0.3-3.3c-0.1-1.8,0.2-2.1,2.1-1.9c1.2,0.1,1.6-0.3,2-1
	c0.8-1.4,0.8-2.9,0.8-4.5c0-0.7,0.4-0.9,1-0.9c0.7,0,0.8,0.6,0.9,1c0.2,0.8,0.5,1.6,0.4,2.4c-0.5,3.5,0.5,7.2,0.6,10.8
	c0,1,0.1,2.1,1.2,3.1c-0.3,0.7,0,1.6-0.7,2.1c-3,2.3-4,5.7-4.6,9.3c0,0.4-0.1,0.8-0.1,1.2c-0.2,1.1-0.5,2.2-0.7,3.3
	c-0.1,0.3-0.1,0.7-0.2,1c-0.2,1-0.4,2-0.5,3c-0.1,0.4-0.1,0.7-0.2,1.1c-0.8,1.3-0.5,3.1-1.7,4.3c-0.4,0.1-0.8,0.2-1.2,0.3
	c-1.2,0.4-1.5,1.3-1.9,2.2c-0.7,1.5-1.4,3.1-2.4,4.4c-0.1,0.1-0.2,0.1-0.2,0.2c-1.8-0.5-2.8,0.1-3.2,1.6c-0.4,1.2-1,2.3-1.6,3.4
	c-0.3,0.5-1,1-1.7,0.4c-1.8-1.5-2-0.3-2.4,0.6c-0.3,0.7-0.5,1.4-0.9,2.1c-0.4,0.8-1.1,1.4-2.3,0.5c-1.3-1-1.8-0.5-2.2,0.4
	C40.3,314.5,39.7,315.6,39.1,316.7z M55.3,286c-2-1-3.9-1-5.6-0.7c-4.4,0.7-8.6,1.8-12.4,3.5c-3.3,1.4-6.4,3-9,5.3
	c-0.4,0.3-0.9,0.7-0.5,1.3c0.4,0.6,1.1,0.5,1.7,0.5c0.4,0,0.8,0,1.2-0.1c6.3-1.1,12.8-1.6,19.2-2.4c1.9-0.2,3.5-0.8,5.1-1.6
	c1.3-0.7,1.9-1.7,2.1-3C57.2,287.4,56.5,286.5,55.3,286z M60.3,277.4c0.4-0.7,0.6-1.4-0.2-2.1c-0.8-0.7-1.6-0.4-2.3-0.2
	c-5.3,1.7-10.6,3.2-15.6,5.3c-1.1,0.5-3,0.8-2.1,2.4c0.8,1.4,2.4,0.6,3.6,0.4c5.1-1,9.7-2.8,14.6-4.4
	C59.2,278.5,60,278.1,60.3,277.4z M38.1,299.1c1.3,0.5,2.7,1,4.1,1.4c1.7,0.5,3.4,1,5.1,1.2c1.8,0.2,2.4-0.9,1.4-2.4
	c-0.8-1.1-1.8-1.6-3.1-1.9c-2.6-0.6-5-0.4-7.5-0.4c-0.6,0-1.3,0.1-1.4,0.6C36.5,298.4,37.4,298.7,38.1,299.1z M37.1,304.1
	c-0.5,1.1-0.1,2.4,0,3.6c0.2,1.4,1,1.9,2.4,1.4c0.6-0.2,1-0.6,1.6-0.9c0.9-0.5,1.6-1.1,1.4-2.2c-0.3-1.3-1.5-2-2.8-2.6
	C38.3,302.7,37.5,303.1,37.1,304.1z"/>
<path class="st0" d="M508.7,329.6c-2.5,5.7-3,11.8-7.9,15.5c-3.2,2.4-4.5,7.4-4.9,12.4c-0.8,12.5-5.6,22.8-12.2,31.3
	c-5.1,6.6-12.2,10.2-19.6,11.8c-4.2,0.9-8.7,0.4-12.5,3.8c-0.9,0.8-2.4,0.8-3.2-0.7c-0.7-1.2,0-2.3,0.6-3.2c2.6-4,1.4-7.2-1.6-10.1
	c-0.2-0.2-0.4-0.4-0.5-0.6c-2.1-2.9-5.2-5.3-4-10c1.1-4.4,4.4-4,7.2-4.2c3.9-0.4,6.8-2.5,9.1-6.3c2.2-3.9,4.7-7.5,7-11.3
	c7.4-12.1,16.8-19.9,29.3-21.5c2.3-0.3,3.9-2.1,5.7-3.4C503.4,331.5,505.1,328.6,508.7,329.6z M459.9,392.5c3.9,0,6.4-1.9,8.7-3.9
	c2-1.7,4.4-3.6,3.5-7c-0.9-3.6-4.1-4-6.6-4.9c-1.3-0.4-2.4,0.2-3.4,1c-2.5,1.8-5,3.6-7.3,5.6c-2.4,2.2-2.3,5.3,0.4,7.1
	C456.9,391.5,458.9,392,459.9,392.5z M472.5,366.4c0.2,2.2,1.1,4,3.5,4.2c4.2,0.3,10-10.1,8.2-14.9c-0.3-0.8-0.9-1.3-1.7-1.4
	C478.3,353.9,472.3,360.8,472.5,366.4z"/>
<path class="st0" d="M334.1,224.6c-0.5,2.6-0.9,5.6-0.3,8.3c0.9,4.4,0.2,7.8-1.8,10.8c-1.1,1.6-2,3.4-1.9,5.6
	c0.3,7.7,1.4,15.3,6,22.1c0.5,0.7,1,1.3,1.2,2.2c1.4,6.3,0.4,11.9-2.1,16.9c-0.7,1.5-1.9,2.9-3.6,1.7c-1.6-1.2-0.8-2.9-0.4-4.4
	c0.6-2-0.1-4.1-1.5-5c-1.7-1.1-4-0.7-4.8,0.9c-1.7,3.1-1.3,6.8,1.4,10.1c1.7,2.1,2.9,4.3,3.5,6.9c0.3,1.3,0.4,2.5-0.9,3
	c-1.4,0.6-1.9-0.8-2.3-1.9c-0.8-2.3-1.9-3.7-4.1-4.1c-2.1-0.4-3.6-2.3-5.1-4.6c-3.7-5.8-5.1-12.3-6.3-18.8
	c-0.7-3.9-0.4-7.6-0.4-11.5c0.1-5.1,1-9.7,1.9-14.4c0.4-2.5,1.3-4.7,3.6-5.5c1.2-0.4,1.9-1.3,2.3-2.5c1.1-3.1,2.1-6.2,3.2-9.2
	c0.5-1.4,0.6-3.1,2.7-2.4c0.9,0.3,1.6-0.6,2.1-1.5c1.9-2.9,3.9-5.7,5.7-8.6c0.9-1.4,2-2.1,4.3-2
	C334.8,219.4,334.6,222.1,334.1,224.6z M326,264.7c-2.2-2.6-4.3-5.3-6-8.3c-1.2-2.1-1.9-2.1-2.6-0.2c-2.1,6-2.2,12.6-1.2,19.4
	c0.7,4.4,3.6,5.8,6.3,3.3c2.3-2.1,4.8-3.9,8.3-3.1c1.8,0.4,2.2-0.5,1.4-2.7C330.6,270,328.3,267.4,326,264.7z M323.8,254.1
	c0.2,0.4,0.3,0.8,0.5,1.1c0.6,1,1.3,2.1,2.3,1.8c1.1-0.3,0.3-1.6,0.2-2.5c-1.1-6.1-1.1-12-0.7-18.3
	C321.5,239.2,321.6,249.6,323.8,254.1z"/>
</svg>
