<?xml version="1.0" encoding="utf-8"?>
<!-- Generator: Adobe Illustrator 22.0.1, SVG Export Plug-In . SVG Version: 6.00 Build 0)  -->
<svg version="1.1" id="Layer_1" xmlns="http://www.w3.org/2000/svg" xmlns:xlink="http://www.w3.org/1999/xlink" x="0px" y="0px"
	 viewBox="0 0 850 500" style="enable-background:new 0 0 850 500;" xml:space="preserve">
<style type="text/css">
	.st0{fill:#FFFFFF;}
</style>
<path class="st0" d="M519.6,84.5c2.7,0.4,5.2,0.7,7.4-0.3c1.5-0.6,3.2-1,4.8-1.5c2.2-0.7,2.2-0.8,3.1,1.6c0.4,1,1,1,1.7,1.1
	c2.7,0.3,5.1,0.1,7.4-0.7c1.7-0.6,3.4-1.4,5.1-2c1.6-0.6,2.1-0.3,2.5,1.6c0.1,0.5,0.1,1,0.1,1.5c0,0.4,0,0.7,0,1.4
	c3.3,0.6,6.1-0.3,8.8-1c1.5-0.4,2.9-1.1,4.5-1.4c2.2-0.5,2.3-0.4,2.2,1.9c0,0.3-0.1,0.6,0.3,0.9c1.4,0.7,2.6,0.1,3.8-0.3
	c2.2-0.7,4.4-1.4,6.6-2.2c0.6-0.2,1.1-0.7,1.9-0.1c0.8,0.6,0.8,1.5,0.9,2.3c0,0.2,0,0.4,0,0.6c-0.3,2.6,0,3,2.7,2.8
	c4.2-0.3,7.8-1.8,11.5-3.4c0.6-0.3,1.2-0.8,2.2-0.6c0.2,2-1.7,2.6-2,4.3c2.2,1,4.2,0.8,6,0.4c2.9-0.6,5.6-1.5,8.1-2.7
	c0.3-0.2,0.7-0.3,1.1,0c0.6,0.5,0.3,0.9,0.1,1.3c-0.2,0.3-0.5,0.5-0.6,0.9c-0.5,0.8,0.2,1.3,1,1.5c1.3,0.3,2.6,0.2,3.8,0
	c3.5-0.7,6.7-2.2,10-3.4c0.5-0.2,0.9-0.9,1.5-0.2c0.7,0.8,0,1.2-0.4,1.7c-0.5,0.6-1.2,1-1.4,1.9c0.5,0.9,1.3,0.7,1.9,0.8
	c3.4,0.2,6.6-0.2,9.7-1.2c0.7-0.2,1.5-0.4,2.2-0.6c0.5-0.2,1.1-0.4,1.6,0.3c0.5,0.6,0.3,1.1,0,1.6c-0.2,0.3-0.6,0.7-0.3,1.6
	c6,0.8,10.6-2,15.7-3.4c0.4,1.4-0.6,1.8-1.1,2.4c-0.5,0.7-0.8,1.6-1.6,2c0.5,1,1.1,0.7,1.7,0.6c4.4-0.2,7.8-2.3,11.2-4.3
	c0.8-0.5,1.7-1.1,2.5-1.6c0.3-0.2,0.7-0.2,1.1,0.1c0.5,0.4,0.6,0.9,0.4,1.4c-0.6,1.3-1.8,2.2-2,3.8c0.6,0.9,1.3,0.5,1.9,0.4
	c4.1-0.4,7.2-2.2,10.1-4.6c0.7-0.5,1.3-1.8,2.3-1.1c1.3,0.9-0.1,1.7-0.2,2.5c-0.3,1.6-0.8,3-1.2,4.6c-0.5,2.4,0.8,3.9,3.4,3.8
	c2.7-0.2,5-0.9,7-2.4c3.8-2.7,7.2-5.9,10.8-8.8c1.7-1.4,3.7-2.3,5.6-3.3c0.7-0.4,1.7-0.7,3.3-0.3c-2.1,1.3-3.6,2.8-4.9,4.4
	c-0.9,1.1-1.7,2.3-2.2,3.7c-0.5,1.5,0,2.2,1.7,2.7c4.8,1.5,9,1,12.5-1.4c1.6-1.1,2.4-2.8,3.1-4.7c1.4-4.1,2-8.5,3-12.7
	c0.8-3.1,2.1-5.8,3.4-8.5c0.2,0.1,0.4,0.2,0.6,0.3c-0.4,2.5-0.8,5-1.2,7.6c-0.2,1.5-0.2,3.1-0.5,4.6c-0.4,1.7,0.8,2.4,2.1,3.1
	c1.2,0.7,2.3,0.9,3.1-0.2c1.6-2.1,2.5-4.7,3.4-7.3c1.6-5,2.2-10.4,5-14.7c1.2-1.9,2.5-3.7,3.7-5.6c1.7-2.9,3.9-5.4,4.9-8.7
	c0.1-0.4,0.5-0.7,0.8-1.1c0.2-0.2,0.4-0.4,0.7-0.1c0.2,0.2,0.4,0.5,0.5,0.8c0.2,0.8-0.1,1.3-0.4,1.9c-0.7,1.5-1,3.2-1.2,4.9
	c-0.1,0.4,0,0.8,0.4,1.1c0.6,0.5,1,0.1,1.3-0.2c1.2-1.1,2.1-2.5,2.7-4c2.1-4.6,5.7-7.8,9.6-10.6c1.3-1,2.3-2.4,3.9-3
	c0.2,0.2,0.3,0.3,0.5,0.5c-1,1-2,2.1-3,3.1c-1.4,1.3-2.2,3-2.8,4.9c-0.5,1.6,0,2.3,1.7,2.1c1.2-0.1,2.3-0.3,3.5-0.1
	c0.5,0.9-0.1,1-0.6,1.2c-2.4,1.1-4.2,2.8-6.1,4.4c-1.9,1.7-2.4,4.4-3.4,6.7c-2.4,5.5-4.5,11.2-5.9,17.2c-1.1,4.7-1.7,9.6-1.6,14.8
	c1.6,0.3,1.8-0.8,2.2-1.5c0.9-1.7,2.2-3,3.5-4.4c0.3-0.3,0.6-0.7,1.2-0.2c0.5,0.4,0.4,1.1,0.1,1.4c-1.6,1.9-2.7,4.2-4,6.4
	c-0.4,0.6-0.8,1.2-1,1.9c-1.1,3.8-3.2,6.9-5.4,9.9c-2.1,2.9-4.9,5.1-8,7c-2.8,1.7-5.6,3.5-8.5,5.1c-1.4,0.8-3,1.3-4.7,1.7
	c-3.8,0.9-7.6,1.8-11.4,2.9c-2.6,0.7-4.6,2.4-7.1,3.3c-5.7,1.9-10.2,5.6-15.1,8.8c-3.3,2.2-5.8,5-8.6,7.6
	c-4.8,4.6-9.9,8.9-14.5,13.8c-6.4,6.8-13,13.5-20.1,19.7c-5.3,4.6-10.5,9.1-16.6,12.7c-2.4,1.4-5.1,2.6-7.6,4
	c-2.6,1.5-4.9,3.6-7.7,4.7c-4.7,1.9-8.9,4.6-14.1,5.7c-2,0.4-4.1,0.8-5.6,2.2c-0.4,0.4-1.2,0.5-1.8,0.6c-3.5,0.6-7,1.2-10.8,1
	c-2-0.1-4-0.4-5.9,0.1c-0.3,0.1-0.6,0-0.9,0c-6.9-1.2-13.6-1-20.4-1.9c-5.2-0.6-10.4-1.7-15.7-2.4c-4.4-0.6-8.8-1.3-13.2-2.5
	c-2.8-0.8-5.6-1.4-8.4-2c-3.8-0.7-7.7-1.7-11.5-2.4c-3.6-0.7-7.2-1.4-10.8-1.7c-1.9-0.2-3.8-0.4-5.5,0c-2.1,0.5-4.5,0.1-6.7,0.3
	c-4.3,0.5-8.2,2-12.3,2.7c-3.7,0.7-6.9,2.1-10,3.6c-8.4,4.2-17.2,7.9-24,14.2c-0.3,0.2-0.6,0.4-0.8,0.7c-0.7,0.7-0.3,1.4,0.7,1.8
	c1.7,0.7,3.2,0.7,4.7,0.3c1-0.2,2.2-1,2.9,0.4c0.8,1.6-1,1.5-1.8,1.6c-4,0.5-6.3,3.4-9.3,5.4c-4.1,2.7-7.6,6-11,9.4
	c-2.7,2.7-5.1,5.6-6.6,9.4c-0.7,1.8-1.7,3.2-1.6,5.4c0,1.8-1.2,3-2.4,2.9c-1.4-0.1-3.3-2.1-3.9-4c-1.5-4.8-1.3-9.6-2-14.3
	c-0.5-3.8-0.1-7.4-0.1-11.1c0-4.4,0.2-8.9,0.3-13.3c0.1-2.6,0-5.2,0.4-7.7c1-5.5,1.1-11.3,1.9-16.9c1.1-6.9,2.7-13.5,4-20.3
	c0.3-1.6,0.3-3.4,0.5-5c0.5-2.8,1.3-5.5,1.7-8.4c0.6-3.7,1.6-7.4,2.8-10.9c1.4-4.3,2.9-8.6,3.4-13.4c0.3-2.7,1.3-5,1.4-7.8
	c0-1.2,0.1-2.3,0-3.5c-0.2-2.1,0.5-3.9,1.9-5.3c2-1.9,4.2-3.6,5.8-5.9c0.2-0.2,0.4-0.4,0.6-0.6c0.4-0.3,0.9-0.7,1.5-0.2
	c0.6,0.5,0.4,1,0.1,1.4c-0.6,1-0.8,2.2-1.5,3.1c-1.7,2.2-1.8,5.3-2.7,7.9c1,0.8,1.4,0.3,1.7-0.1c1.9-3.1,4.3-5.7,7-8
	c2.5-2.1,3.2-5.4,3.7-8.6c0.4-2.3,1.2-4.2,2.3-6c0.6-1,1.4-1.8,2.1-2.8c1.2-1.6,2.3-3.2,1-5.8c-0.1-0.3-0.1-0.6-0.1-0.9
	c0-0.4,0.1-0.8,0.6-0.6c0.2,0.1,0.6,0.4,0.7,0.6c0.4,1.2,0.9,2.4,0.9,3.6c0,2,0,4-0.7,5.9c-0.7,1.7-1.3,3.6-0.7,5.8
	c0.7,0.2,1.1-0.1,1.4-0.4c4-3.4,9-5.7,12.4-9.7c2.3-2.7,4.2-5.7,6.3-8.6c0.3-0.4,0.5-0.8,0.8-1c0.7-0.5,1.6,0,1.7,1
	c0.1,1.4-0.1,2.7-0.1,4c0,2.5,0.8,3.2,2.9,2.3c3.4-1.5,7.2-2.5,10.3-4.4c0.9-0.6,1.9-1.1,2.8-1.6c1.4-0.8,1.9-0.6,2.8,1
	c0,0.1,0.1,0.2,0.1,0.3c0.6,1,0.4,2.5,1.6,2.9c0.9,0.3,1.9-0.2,2.7-0.5c3.4-1,6.7-2.1,10.1-3.2c1.2-0.4,2.1-0.8,2.8,1.2
	c0.3,1,1.2,0.9,1.8,0.7c2.7-1,5.4-1.8,7.8-3.4c1-0.6,2-1.7,3.3-0.8c1.3,1,0.6,2.4,0.3,3.6C519.5,83.8,519.5,84,519.6,84.5z
	 M451.9,122.4c-0.2-0.1-0.4-0.2-0.6-0.3c-0.5,0.5-1,1-1.4,1.5c-2.4,2.9-4.8,5.7-7,8.8c-1.9,2.6-3.8,5.2-5,8.3
	c-2.8,7.3-5.7,14.6-7.2,22.6c-1.6,8.7-0.8,17.8,0.3,27c0.5,4.2,3.6,6.1,7.3,4.8c1.5-0.5,2.8-1.3,3.9-2.4c5.4-5.5,8.2-12.6,9.6-20.5
	c0.9-5.1,0.9-10.5,1.1-15.9c0.3-9.3,0.1-18.8-0.3-28.2C452.3,126.1,452.1,124.2,451.9,122.4z M606.9,102.5c-1.4-0.4-2.3-0.4-3,0
	c-3.7,1.9-7.5,3.9-10,7.1c-3.3,4.1-5.5,9-6.9,14.4c-2.4,9.2-2.7,19.2-3.6,28.9c-0.6,6.5-0.7,13.1-1.1,19.7
	c-0.4,6.7-1.5,13.1-4.2,18.8c-0.6,1.1-0.1,1.9,1.4,2c5.1,0.4,9.6-0.7,12.2-4.6c3.2-4.8,4.3-10.6,5.1-16.6c0.9-7,0.6-14.3,0.9-21.5
	c0.3-5.9,0.7-11.8,1.3-17.6c0.9-8.7,2.2-17.2,5.7-24.8C605.4,106.5,606,104.6,606.9,102.5z M509.5,101.3c-2.2,2.1-3.8,4.7-5.4,7.3
	c-1.5,2.5-2.8,5.3-3.4,8.4c-1.4,7.1-2.2,14.4-1.7,22.1c0.7,9.2,1.1,18.4,1.6,27.6c0.1,2.2,0.8,4.4,1.5,6.6c0.8,2.3,2.4,3,4.3,2.1
	c1.1-0.5,2-1.3,2.4-2.4c1.6-4.1,3.3-8.2,3.9-12.7c0.9-6.3,1.6-12.6,2.1-19.1c0.5-8.1,0.6-16.3,1-24.4c0.3-6.6,1-13.1,4.1-18.5
	c0.2-0.4,0.4-0.8,0.6-1.2c0.3-0.5,0.5-1.1,0.1-1.6c-0.7-0.9-1.3-0.3-1.8-0.1C515.1,96.6,512.3,98.9,509.5,101.3z M643.5,106.3
	c-2.3-0.3-3.4,1-5,1.6c-5.9,2.1-9.6,6.5-12.8,11.4c-2.7,4.2-3.7,9.3-4.9,14.3c-1.2,4.7-1.1,9.9-1.7,14.8c-0.6,4.8-0.3,9.7,1,14.8
	c1,4,2.9,5.9,7,6.4c3.9,0.5,6.5-1.2,8.2-4c2.8-4.8,4.2-10.3,4.1-16.4c0-5.4-0.7-10.9-0.7-16.3c0-7.7,0.7-15.3,3.1-22.2
	C642.4,109.2,643.2,108,643.5,106.3z M530.6,183.9c0.2-0.3,0.8-1,1.2-1.7c2.9-5.1,4.1-11,5.1-17c0.8-4.9-0.2-10.2-1.1-15.4
	c-1.7-9.1-3.2-18.3-2.9-27.2c0.1-2.7,0.4-5.4,0.5-8.1c0.1-1,0.2-2-1.1-2.7c-1.4-0.7-2.1,0-2.7,0.8c-0.6,0.8-0.9,1.7-1.3,2.7
	c-2.4,6.8-3.2,14.3-4,21.7c-1.1,8.8-2,17.7-4.5,26c-1.1,3.6-2.2,7.1-2.7,10.9c-0.4,3.3-0.3,6.8,1.8,10.3c1.9,3.1,4.9,4.3,7.6,2.9
	C527.9,186.3,529.2,185.4,530.6,183.9z M619.5,111.3c-1.3,0.1-2,0.5-2.5,1.2c-1.9,2.5-3.9,4.8-5.2,7.8c-4.1,9.7-6,20.2-7,31.1
	c-0.3,3.8-0.4,7.7-0.7,11.6c-0.3,4.6-0.9,9.2-0.5,14c0.1,1.2,0.1,2.4,0.7,3.6c1.4,2.9,3.5,3.8,5.9,2.7c4.8-2.3,6.7-6.5,6.1-12.2
	c-0.5-5-0.9-9.9-1.4-14.9c-0.6-6-1-11.9-0.5-17.7c0.4-4.8,0.3-9.7,1.4-14.3C617.1,119.9,618.4,115.8,619.5,111.3z M548.6,184.1
	c0.6-0.5,1.1-1.2,1.5-1.9c4.5-8,6.5-17.1,6.4-27.1c-0.2-9-0.5-17.9,0-26.7c0.1-2.1,0.1-4.3,0.2-6.4c0-1.1-0.3-2-1.5-2.5
	c-1.4-0.6-2.1,0.1-2.4,1.1c-0.2,1-0.7,1.8-0.7,2.9c-0.2,3.2-0.9,6.3-1.3,9.4c-1,7.2-1.8,14.4-3.6,21.3c-0.4,1.4-0.6,3-0.7,4.5
	c-0.3,4.1-1,8.1-1.5,12.2c-0.5,3.5-0.7,7-0.9,10.6c-0.1,1.4-0.2,3.3,1.5,4.2C547,186.4,547.7,184.8,548.6,184.1z M576.1,147.4
	c-1.4-0.2-1.8,0.8-2.4,1.4c-3.6,3.3-5.5,7.9-8.1,12c-3.7,5.8-5.2,12.9-7.1,19.7c-0.8,2.8,0.3,5.9,2.1,8.8c1,1.7,2.3,2.3,4,2
	c2.3-0.4,4.2-1.4,5.3-3.4c1.5-2.8,2.7-5.7,3.6-8.9c1.8-7,3-14.2,3-21.7C576.4,153.9,576.7,150.7,576.1,147.4z M660.3,107.6
	c-0.8-0.1-1.2-0.2-1.4-0.1c-3.7,1.5-6.7,3.9-8.4,7.6c-2,4.4-3,9.3-4.4,14c-0.7,2.2-0.2,4.8-0.8,7.1c-0.9,3.6-0.5,7.5-0.2,11.3
	c0.1,2,1,3.8,2.1,5.6c1.7,2.6,3.2,3,5.1,1.3c3-2.7,3.6-6.6,3.6-10.8c-0.1-5.4-0.6-10.9-0.3-16.2c0.2-3.5,0.7-6.8,1.7-10
	C658.1,114.2,659.1,111.1,660.3,107.6z M674.1,109.2c-0.4-0.1-0.6-0.2-0.8-0.2c-0.3,0-0.5,0.1-0.8,0.3c-3.2,1.6-5.9,3.7-7.7,6.8
	c-3.4,5.9-6,12.1-5.8,19.7c0.1,3.1,0.5,6.4,1.4,9.6c0.3,1.2,0.8,2.5,2.1,3.1c1.4,0.6,1.9-0.5,2.6-1.1c0.5-0.5,1-1,1.4-1.6
	c2.9-5,4.3-10.6,4.7-16.8c0.3-4.8,0.9-9.5,1.9-14.1C673.5,113.1,673.8,111.2,674.1,109.2z M571.4,109c-1-0.3-1.2,0.2-1.5,0.5
	c-1.3,1.5-2.2,3.3-2.9,5.1c-2.1,5.1-3.4,10.5-3.8,16.3c-0.2,3.4,0.5,7,3.5,10.1c2.2,2.2,3.2,2.2,4.5,0.1c2.6-4.1,4-8.7,2.9-14.4
	C572.9,120.8,571.7,114.9,571.4,109z M481,177.6c0.8-0.9,1.1-2.2,1-3.8c-0.4-4.9-0.2-9.6,0.2-14.3c0.5-6,1-12,1.6-18.1
	c0.1-1.5,0.2-3.1-0.4-4.7c-0.3-0.7-0.4-1.4-1.3-1.7c-1.1-0.3-1.3,0.3-1.6,1c-1.1,2.4-1.8,5-2.1,7.8c-0.3,2.4-0.5,4.8-0.9,7.1
	c-1.3,7-1.9,14.1-1.2,21.6c0.1,1.5,0.5,3,1.4,4.4C478.7,178.8,479.7,179,481,177.6z M460.3,140.2c2.6,0.3,3.2-1.6,4.3-2.6
	c2.3-2.3,4.9-4.5,5.8-7.9c0.8-3.1,1.6-6.1,2.5-9.1c0.6-2.1,1.5-4.2,1.3-6.6c-0.1-1.3-0.4-2.5-1.7-3.2c-1.1-0.6-2.2-0.3-3,0.4
	c-1.6,1.3-3,2.8-3.8,4.8c-1,2.6-2.2,5.2-3,8C461.4,129,460.9,134.5,460.3,140.2z M463.2,145.6c-0.5,0.7-1,1.4-1.5,2.2
	c-1.4,2.4-2.3,5.1-2.6,8.1c-0.5,4.7-1.5,9.3-1,14.4c0.1,1.4,0.4,2.8,1.1,4.2c0.7,1.2,1.5,1.4,2.5,0.8c1-0.7,1.5-1.6,1.8-2.9
	c0.8-4.5,1.1-9.3,2-13.8c0.7-3.7,1.1-7.5,1.6-11.3c0.1-0.8,0.4-1.8-0.6-2.5c-1-0.7-1.9-0.3-2.7,0.3
	C463.6,145.1,463.4,145.4,463.2,145.6z M675.6,138.6c1.7-0.7,2.6-1.7,3.4-2.7c3.1-4,5-8.7,5.7-14c0.4-3,0.7-6,0-9.3
	c-0.2-0.8,0-2-1.2-2.3c-1-0.2-1.4,0.7-1.7,1.5c-0.7,1.7-1.5,3.3-2.1,5c-1.5,4.3-2.5,8.9-2.9,13.7
	C676.7,133.1,676.1,135.7,675.6,138.6z M732.5,110.7c3.1-1,6.4-3.7,8.5-6.7c2.4-3.4,1.4-7.3-2.6-10.6c-1.1-0.9-1.8-1-2.5-0.1
	c-0.9,1.2-2,2.3-2.9,3.5c-0.7,0.8-1,1.9-0.7,3.2c0.5,2.1,0.4,4.2,0.3,6.2C732.3,107.5,732.1,108.9,732.5,110.7z M704.8,121.2
	c2.5-0.2,4-1.5,6.1-1.8c2.2-0.2,3.2-1.6,3.5-3.6c0.5-3.1,0.1-6.4,0.2-9.6c0-0.9-0.6-1.4-1.4-1.2c-3,0.8-5.9,1.7-8,3.9
	c-0.7,0.8-1.1,1.7-0.9,2.8C705,114.9,705.1,118,704.8,121.2z M492.3,106.9c-1.8,0-2.2,1.4-2.8,2.5c-2,3.9-3.9,8-5.8,11.9
	c-0.6,1.2-0.6,2.5-0.1,4c0.6,1.8,1.4,2.3,3,1.8c2-0.5,3.2-2,4-3.8c1.9-4.7,2.1-10.1,2.3-15.4C492.9,107.7,492.7,107.3,492.3,106.9z
	 M491.3,169.9c0.2-0.6,0.7-1.4,1-2.2c1-2.9,1.4-6,1.7-9.1c0.3-2.3,0.3-4.6,0.4-6.9c0.1-1.1-1-2.9-1.8-3.1c-1.1-0.2-1.5,0.6-1.8,1.4
	c-0.5,1.6-0.9,3.2-1.4,4.8c-1.1,4-1.7,8.3-1.4,12.8c0,0.7,0,1.3,0.5,2C489.5,170.6,490.3,170.8,491.3,169.9z M541.3,135.8
	c0.9-1.2,1.3-2.3,1.3-3.4c0.3-5.1,0.3-10.3-1-15.6c-0.2-0.7-0.1-1.5-0.9-1.9c-1-0.5-1.3,0.4-1.7,0.9c-0.3,0.4-0.7,0.9-0.7,1.4
	c-0.3,3.9-1.5,7.5-1.4,11.6c0.1,2.1,0.4,4.2,1.7,6.2C539.6,136.3,540.7,136.6,541.3,135.8z M578,125.8c1.5-2.5,1.2-5,1.9-7.1
	c1.1-3.4,2.1-6.9,3-10.4c0.4-1.6-0.8-3.3-2.8-4.1c-2.3-0.9-3.6-0.6-3.8,1.3C575.7,111.9,576.2,118.4,578,125.8z M720.2,104.7
	c-2.3,1.4-2.2,3.8-2.1,6.2c0.2,3.8,0.4,3.9,4,3.3c3-0.5,4.7-2.1,4.7-5.4c0-1.9-0.2-3.7-0.5-5.6c-0.3-1.5-0.8-1.8-2-1.1
	C722.8,102.8,721.3,103.6,720.2,104.7z M695.6,112.7c-1.5-1.6-3-0.9-4.4-0.7c-1.3,0.1-1.4,1.2-1.3,2.4c0.3,2.4,0.7,4.8,1.1,7.2
	c0.2,1.2,0.7,2.2,2.1,2.6c1.6,0.5,4.4-0.4,5-1.6C699.2,120.2,697.9,115,695.6,112.7z M421.2,175.4c-0.5-0.1-0.7,0.2-0.7,0.5
	c-0.9,3.4-1.8,6.8-2.6,10.3c-0.4,1.7-0.8,3.5-1,5.2c-0.3,2,0.6,3.1,2.7,3.4c2,0.3,2.8-0.2,2.8-2.4c0.1-2.7-0.1-5.5,0-8.2
	C422.4,181.3,422.3,178.3,421.2,175.4z M743.7,88.6c-1.1-0.9-2.7-1.7-4.3-2.3c-0.9-0.3-1.4,0-1,1c1,2.4,2.4,4.5,4.4,6.3
	c0.5,0.5,1.1,0.7,1.6,0.3C745.6,92.9,745.3,90.1,743.7,88.6z M742.9,78.5c1.5,1.5,3,2.1,3.5,1.5c0.6-0.7,0.2-2.4-0.7-3.3
	c-1.2-1.1-2.4-1.5-2.9-0.7C742.3,76.6,741.7,77.5,742.9,78.5z M744.4,82.5c-0.6-0.5-1.1-0.9-1.7-1.3c-1.1-0.8-1.9-0.6-2.4,0.4
	c-0.5,1,0,1.6,1,2.2c0.8,0.5,1.7,1.1,2.5,1.6c0.5,0.3,1,1.1,1.6,0.6c0.7-0.5,0.7-1.3,0.2-2.1C745.2,83.4,744.7,82.9,744.4,82.5z
	 M746.9,69.8c-0.6-0.6-1-0.7-1.1-0.5c-0.6,0.9-1.1,1.8-1.3,2.9c-0.1,0.5,0.2,1,0.8,1.2c0.5,0.2,0.9,0.6,1.4,0.4
	C747.3,73.4,747.3,70.2,746.9,69.8z"/>
<path class="st0" d="M206.7,128.2c-2.5-3.5-4.9-7-8.7-9.7c-2.7-1.9-4.4-4.6-6.9-6.7c-0.4-0.3-0.7-0.8-0.4-1.2
	c0.4-0.5,1.1-0.8,1.7-0.8c0.7,0,1.5,0.2,2.2,0.4c3.3,0.6,4.2,0.1,5-2.8c1.4-5.1-0.2-9.5-3.3-13.4c-2-2.5-4.6-4.7-6.8-7.1
	c-2.9-3.1-6.8-5.3-10-8.1c-1.8-1.6-3.7-3.3-6.2-4.3c-0.6-0.2-1.1-0.7-0.7-1.3c0.5-0.6,1.2-0.3,1.7-0.1c1.2,0.4,2.3,0.9,3.5,1.3
	c0.5,0.2,1.1,0.2,1.5-0.2c0.3-0.4,0.1-0.7-0.1-1c-0.3-0.4-0.7-0.9-1.2-1.2c-10.1-8.4-21.3-15.6-33.6-21.8c-3.4-1.7-7.1-3-10.6-4.5
	c-10.7-4.5-22-8-33.5-11.1c-6.8-1.8-13.5-3.7-20.5-4.9c-4.4-0.8-8.8-1.4-13.2-2.3c-4.4-0.9-8.5-2.3-12.6-3.6
	c-3.5-1.1-6.3-3.2-7.8-6.3c-1.1-2.3-0.6-4.7,1-6.8c1.6-2.2,3.9-4,6.6-5.2c1.6-0.7,3.3-0.6,4.5,0.5c1.2,1,1.5,2.5,1.2,4
	c-0.3,1.1-2.7,2.5-4.2,2.6c-0.8,0-1.8,0.2-2.1-0.7c-0.3-0.8,0.1-1.4,1-1.9c0.6-0.3,1.3-0.5,1.5-1.1c-2.2-0.7-3.6-0.4-4.5,1.2
	c-1.1,1.7-1.6,4.3,1,6.1c3.8,2.6,8.3,3.8,13.2,4.1c6.9,0.4,13.8,0.9,20.8,0.6c4.7-0.2,9.4-0.2,14.1-0.6c6.8-0.5,13.5-0.4,20.1,0.2
	c8.3,0.7,16.8,0.9,25,2.3c6.4,1,12.8,1.9,19.2,2.7c1.7,0.2,3.4,0.9,5.8,0.3c-1.3-2.5-1.4-5.2-3-7.5c-0.3-0.4-0.8-0.9,0-1.4
	c0.7-0.4,1.1,0.2,1.6,0.5c1.5,0.9,2.3,2.2,3.4,3.3c4.4,4.4,9.3,8,16.8,8.6c2.9,0.3,2.9,0.3,3.3-2c0.3-1.7-0.1-3.4,0.8-5.2
	c1.5,0.2,1.6,1.1,2,1.9c1.9,3.4,4.6,6.3,8.8,8c0.8,0.3,1.8,0.9,2.7,0.4c1.1-0.5,0.5-1.5,0.4-2.3c0-0.3,0-0.5,0.1-1.1
	c1.8,1.1,2.9,2.6,4.5,3.6c4.1,2.7,8.7,4.4,13.8,5.6c4.4,1,8.4,2.7,12.5,4.3c5.3,2.1,10.7,4.1,15.8,6.5c3.4,1.6,6.9,3.2,9.7,5.6
	c3.3,2.7,7.6,4.2,12,5.4c1.4,0.4,2.7,1,3,2c1,3,3.6,5,5.7,7.4c3.1,3.6,6.4,7,9.3,10.5c2.4,2.9,4.5,5.9,6.5,9.1
	c1.4,2.2,3.2,4.2,4.4,6.4c1.8,3.6,3.8,7.2,4.6,11.2c0.7,3.6,1.8,7.1,3.1,10.5c0.7,1.8,0.8,3.8,1.4,5.7c1,3.4,1,7,1.8,10.4
	c0.9,3.5,1,7.1,2,10.6c1,3.4,1.9,6.9,3.2,10.3c1.2,3.2,2.1,6.5,4,9.6c1.6,2.6,2.6,5.5,4.1,8.2c2.9,5.1,6.3,10,10.2,14.7
	c2.9,3.4,6,6.4,9.7,9.2c1.5,1.1,1.6,1.1,3.1-0.2c0.2-0.2,0.4-0.4,0.6-0.7c0.4-0.4,0.7-1.1,1.5-0.8c0.6,0.2,0.4,0.7,0.3,1.2
	c-0.6,4.2,1.7,7.3,4.8,10.1c2.2,2,4.3,4.2,6.3,6.4c0.7,0.8,1.4,1.5,2.5,1.8c0.7-0.3,0.8-1,1.1-1.4c0.4-0.6,0.5-1.5,1.7-1.6
	c1.2-0.1,1.1,0.9,1.4,1.5c0.7,1.3,0.9,2.7,1.1,4.1c0.5,4.7,2,9,4.3,13.2c2.3,4.1,4.9,8,7.9,11.8c3.6,4.6,9.1,7.1,14.4,9.9
	c3.4,1.8,6.7,3.8,9.7,6c0.5,0.3,0.9,0.7,1.2,1.2c0.4,0.5,0.7,1.2,0.1,1.8c-0.5,0.5-1.2,0.3-1.8,0.1c-4.7-0.9-9.7-0.5-14.4-0.9
	c-3.9-0.3-7.8,0.3-11.6,0.1c-7-0.2-14.1,1-21.2,1.1c-2,0-4.1,0.8-6.2,0.6c-4.3-0.4-8.8,0.9-13-0.1c-3.2-0.3-6.4-0.7-9.6-1
	c0,0,0.1,0,0.1,0c-1.7-0.5-3.5-1-5.2-1.6c0,0,0.1,0,0.1,0c-0.3-0.1-0.5-0.2-0.8-0.3c0,0-0.1,0-0.1,0c-1-0.2-1.9-0.4-2.9-0.5
	c-0.3,0-0.7,0-1-0.1c-2.3-0.9-4.5-0.6-7.1,0.1c-4.6,1.2-8.8,0.1-12.2-2.3c-2.2-1.6-4.9-2.6-7.8-3.3c-4.5-1.7-9-3.4-13.5-5.1
	c0,0,0.1,0,0.1,0c-0.3-0.1-0.6-0.3-0.9-0.4c0,0,0.1,0,0.1,0c-2.6-1.3-4.9-2.9-7.8-3.7c0,0,0.1,0,0.1,0c-0.5-0.8-1.4-1.3-2.4-1.7
	c0,0-0.2-0.1-0.2-0.1c-0.2-0.1-0.4-0.1-0.7-0.2c0,0,0,0,0,0c-0.9-1.1-2.1-1.8-3.5-2.4c0,0,0.1,0.1,0.1,0.1c-1.4-1-2.8-1.9-4.2-2.9
	c0,0,0.1,0.1,0.1,0.1c-0.7-0.6-1.5-1.1-2.2-1.7c-0.2-0.1-0.4-0.2-0.6-0.4c-0.5-0.3-0.9-0.7-1.4-1c0,0,0,0.1,0,0.1
	c-0.3-0.3-0.6-0.5-0.9-0.8c-0.1-0.1-0.3-0.3-0.4-0.4c-0.4-0.3-0.8-0.5-1.1-0.8c-4.3-3.2-8.3-6.7-12-10.5c-2.6-2.7-3.8-6-5.8-8.9
	c-3.8-5.7-6.9-11.7-12-16.7c-0.9-0.8-1-1.6-0.2-2.7c0.4-0.6,0.5-1.2,0.8-1.8c1.1-5.8-0.7-11-2.1-16.3c-0.6-2.1-1-4.2-1.9-6.1
	c-3-6.9-5.5-13.9-7.8-21.1c-0.6-1.8-1.5-3.5-1.5-5.4c-0.2-0.3-0.4-0.6-0.6-0.8c-1-3.7-3.4-6.8-5.6-10.1c-0.2-0.4-0.4-0.7-0.6-1.1
	C207.1,128.7,206.9,128.5,206.7,128.2z M339.7,213.7c1.4-0.1,3.3-1.1,5.3-1.8c3.9-1.3,5-3.9,2.9-6.6c-0.5-0.7-1.1-1.3-1.8-1.8
	c-4.8-2.8-10.1-5.1-16.1-5.9c-6.8-0.9-13.7-1.4-20.6-1.9c-8.3-0.6-16.4-1.8-24.5-3c-3.6-0.5-7.1-1.2-10.6-1.9
	c-7.7-1.5-15.3-3-23.4-3.4c-3.8-0.2-5.2,1.1-4.8,4.3c0.4,3.3,2.7,5.7,4.9,8.1c3.6,3.9,8.4,6.8,13.1,9.9c5.5,3.6,11.6,5.7,18.8,6.3
	c7,0.5,14,0.9,21.1,1C315.7,217.3,327.4,216,339.7,213.7z M231.1,141.8c0.3,0.6,0.6,1.7,1.1,2.6c1.3,2.7,3.1,3,5.9,0.7
	c2.4-2,4.7-4.1,6.6-6.5c2.8-3.3,6.2-6.3,8.8-9.8c7.8-10.5,15.3-21,19.7-32.7c2.4-6.3,3.3-12.5,3.3-18.9c0-2.4-0.4-4.8-1.3-7.1
	c-1.2-3.1-4.5-4.4-8.7-1.2c-5.2,3.8-9.3,8.4-12.7,13.3c-5.1,7.2-8.5,15-12.6,22.5c-1.2,2.2-2.6,4.4-3.4,6.7
	c-1.1,3.1-2.4,6.2-3.7,9.3c-1.9,4.5-2.8,9.1-3.4,13.8C230.4,136.7,230.6,139.1,231.1,141.8z M318.7,242.3c4.7-1.3,9.4-2.6,13.7-4.8
	c2.5-1.3,5.2-2.4,7.9-3.4c3.9-1.5,7.2-3.6,10.5-5.9c1.4-0.9,2.1-2.2,2.4-3.7c0.3-1.8-0.5-2.8-2.7-2.7c-5.1,0.1-10.3,0-15.4,0.6
	c-12.6,1.3-24.9,1-37.3,0.3c-9.5-0.5-18.7-2.1-28-3.5c-1.8-0.3-3.6-0.4-5.5-0.5c-2.3-0.1-3.3,1-2.7,2.8c0.3,0.9,0.9,1.8,1.6,2.5
	c1.9,2.4,4.5,4.2,7.1,6.1c5.9,4.3,12.4,7.8,19.7,10.4c4.1,1.5,8.3,2.9,12.8,3.1C307.9,243.9,313.3,243.8,318.7,242.3z M286.5,103.6
	c-0.2-0.7-0.2-0.9-0.3-1.1c-0.4-1.1-0.2-2.4-2.2-2.5c-1.8-0.1-2.9,0.5-3.8,1.8c-0.6,0.9-1.4,1.7-2,2.6c-2.8,4.3-5.4,8.7-8.5,12.9
	c-5.4,7.3-10.7,14.6-16.7,21.5c-3.5,4-6.3,8.3-8.4,12.9c-1.5,3.2-0.5,5.4,3.3,6.3c5.7,1.4,11.5,1.2,17.4-0.9c1.6-0.6,2.9-1.4,4-2.6
	c4.8-5,8.1-10.5,10.6-16.4c1.3-3.2,2.1-6.4,3.3-9.6c1.5-3.8,2.6-7.7,3-11.6C286.7,112.3,286.9,107.6,286.5,103.6z M233.3,56.3
	c-0.5-3.9-3.7-6.8-6-8.2c-6.3-3.9-13.6-6.3-21.4-8c-2.5-0.5-4.9-1.1-7.4-1.6c-2.5-0.5-5-1-7.6-1c-1.6,0-2.1,0.6-1.6,1.7
	c0.8,1.8,1.5,3.7,2.8,5.3c2.9,3.7,5.4,7.6,8,11.4c4.9,7.1,9.8,14.1,14.5,21.2c1.8,2.8,3.6,5.7,5.6,8.4c1.9,2.6,4.5,2.3,6.4-0.6
	c0.9-1.4,1.4-2.9,1.9-4.5c1.6-5.8,3.1-11.7,4.8-17.5C234,60.6,234.2,58.4,233.3,56.3z M360.1,230.8c-2.3,0.5-4.2,1.2-5.9,2.1
	c-4.4,2.4-8.9,4.7-13.4,6.8c-8.6,4.1-17.5,7.7-26.8,10.2c-0.9,0.2-1.7,0.5-2.5,0.8c-1,0.4-0.8,1-0.3,1.5c0.4,0.4,1.1,0.5,1.7,0.5
	c2,0.1,3.9-0.1,5.8-0.9c1.2-0.5,1.9-0.4,2.1,0.7c0.3,1.6,1.7,1.4,2.9,0.9c3.9-1.6,7.5-1.3,11.1-0.2c0.6,0.2,1.3,0.2,1.9,0.4
	c1.7,0.4,3.4,0.3,5-0.7c2.1-1.3,4.4-1.5,6.6-0.8c1.7,0.5,3.4,0.4,5.1-0.3c3.8-1.4,7.5-1.9,11.1-0.5c0.7,0.3,1.4,0.3,2.2,0
	c2.5-1,4.7-2.3,5.8-4.6c2.3-4.8,1.3-9.1-1.2-13.2c-1.6-2.7-4.3-3.6-7.9-3.4C362.2,230.4,361,230.7,360.1,230.8z M256.7,58.6
	c-1.3-4.5-4.8-6.2-9.2-6.8c-4.2-0.6-5.8,0.2-7.5,3.6c-1.7,3.4-3,6.8-4,10.3c-2.6,9.1-5.1,18.1-7.8,27.2c-0.8,2.6-0.1,4.8,2,6.3
	c3.2,2.4,8,2.7,10.1-1.7c0.6-1.3,1.4-2.5,2-3.8c1.6-3.4,2.9-6.9,4.9-10.2c3.8-6.6,6.1-13.4,8.3-20.3
	C256.1,61.7,257.1,59.8,256.7,58.6z M248.3,164.3c-2.4,0.6-3.3,2.2-2.1,3.6c1.6,1.8,3.3,3.5,5.4,4.9c7.4,5.2,16.1,8.7,24.9,12
	c2.4,0.9,4.9,1.6,7.4,2.4c4.3,1.3,9,1.3,13.6,1.7c0.9,0.1,1.7,0.1,2.6,0.1c3-0.2,4-1.5,2.9-3.7c-0.5-1-1.3-1.8-2.2-2.5
	c-3.1-2.7-6.9-4.7-10.8-6.6c-5.6-2.7-11.3-5.3-17.3-7.5c-5.5-2-11.3-3.4-17.2-4.4C253.3,163.9,250.7,163.9,248.3,164.3z M155.4,38.3
	c-4.3,1.2-8.6,2.5-13,3.8c-1.5,0.4-1.6,0.9-0.7,2c1,1.1,2.6,1.8,3.9,2.6c6.5,4.1,13.9,5.2,22.4,2.9c1.5-0.4,3.1-0.7,4.5-1.3
	c2.5-1.1,5-1.6,7.7-1.8c2.8-0.2,3.3-1,2-3c-1.5-2.2-3.3-4.2-6.2-5.3c-4.1-1.6-8.4-2.4-13.2-1.4C160.3,37.3,157.9,37.8,155.4,38.3z
	 M130.7,27.9c-1.3,0.3-2.6,0.6-3.9,1c-3.1,0.8-6.1,1.9-8.9,3.4c-1.8,1-1.8,1.8,0,2.5c0.3,0.1,0.6,0.2,0.9,0.2
	c3.1,0.8,6.2,1.8,9.2,2.7c7.1,2.1,5.1,2.4,13,0c6.9-2.2,13.4-5.7,20.9-6.1c0.2,0,0.4-0.1,0.6-0.1c1.5-0.4,1.9-1.3,1-2.2
	c-0.5-0.5-1.2-0.7-1.9-0.9c-5-1.4-10.1-2.5-15.6-2.6C140.9,25.7,135.8,26.8,130.7,27.9z M309.1,183.1c-1.3-2.2-1.9-4.2-2.5-6.1
	c-1.5-4.9-1.4-9.9-0.5-15c1-5.4,1.9-10.9,1.9-16.3c0-2.1-0.3-4.1-1-6.1c-0.2-0.5-0.1-1.1-1-1c-0.5,0.2-0.6,0.6-0.7,0.9
	c-1.3,5.6-3.7,11-6.5,16.4c-1.7,3.4-3.5,6.7-5.3,10c-1.9,3.6-0.3,6.7,2.5,8.8c3.1,2.3,6.3,4.5,9.4,6.7
	C306.4,182.1,307.1,182.9,309.1,183.1z M294.7,125.8c-1.1,0.9-1.3,1.8-1.7,2.6c-2,4.9-3.5,9.9-6.1,14.8c-2.1,3.9-4,8-5,12.1
	c-0.5,2.1-0.1,4,1,5.7c0.9,1.5,2.4,1.6,4,0.4c1.4-1,2.6-2.1,3.5-3.5c2.1-3.3,3.6-6.7,4.6-10.2c1.4-5.2,1-10.3,0.8-15.4
	C295.8,130.2,295.1,128,294.7,125.8z M109.5,31.2c3.8-0.9,6.5-2.4,9-4c2-1.3,1.9-2.7,0.4-4.1c-1.2-1.1-2.7-1.3-4.4-1.3
	c-3.7-0.1-7.4-0.6-11,0.8c-2.3,0.9-4.6,2.1-6.8,3.3c-2.3,1.2-2.5,2.6-0.2,3.5C100.8,30.9,105.1,32.5,109.5,31.2z M204.4,80.9
	c-0.4-1.8-3.4-5.4-5.4-6.2c-1.5-0.6-3.3-0.8-5.1-0.4c-2,0.4-2.8,1.3-2.4,3.1c0.9,4.3,4,7.2,8.5,9c1.6,0.7,2.9,0.2,3.8-1.3
	C204.7,83.8,204.7,82.4,204.4,80.9z M191.6,66.7c-0.3-1.1-1.2-1.9-2-2.6c-2.5-2.1-5.8-3-9.4-3.3c-1.7-0.2-4.1-1.2-5.1,0.3
	c-0.9,1.4,1.2,2.8,2.2,4.1c0.1,0.1,0.3,0.2,0.5,0.3c2.5,2.2,5.6,3.7,8.6,5.4c2.5,1.4,4.3,0.7,5-1.8
	C191.6,68.4,191.5,67.5,191.6,66.7z M221.1,125.4c0.4,1.6,1.4,1.8,2.7,0.8c0.3-0.3,0.6-0.6,0.8-0.9c3-3.1,4.7-6.6,5.7-10.3
	c0.5-2-0.5-3.3-2.4-3.6c-1.7-0.3-3,0.5-3.9,2.4c-1.2,2.6-2.1,5.3-2.5,8C221.3,123,220.7,124.3,221.1,125.4z M215.9,110.1
	c-0.3-2.1-1.7-3.5-3.8-4.4c-1.2-0.6-2-0.3-2,0.8c0,3,0,5.9,0.2,8.8c0.1,1.3,0.8,1.4,2.2,0.8C215.2,115,216.4,112.8,215.9,110.1z
	 M65.4,23.2c0.9,0.3,1.5,0.8,2.3,0.9c3.5,0.5,6.8,1.5,10.4,1.7c1.8,0.1,3.6,0.5,5.5,0.2c1.3-0.2,3-0.4,3-1.7c0-1.3-1.7-1-2.8-1
	C78.2,23,72.5,23.3,67,22.6C66.6,22.5,66.1,22.5,65.4,23.2z"/>
<path class="st0" d="M-5.2,353.7c0,0.2,0,0.4,0.1,0.6C-5.2,354.1-5.2,353.9-5.2,353.7z"/>
<path class="st0" d="M-5,353C-5,353-4.9,353-5,353C-4.9,353-5,353-5,353z"/>
<path class="st0" d="M-5.2,354.4c-0.1,0.1-0.1,0.3-0.2,0.4C-5.3,354.7-5.3,354.5-5.2,354.4z"/>
<path class="st0" d="M32.2,399.5c0,0.2,0,0.3,0,0.5C32.2,399.9,32.2,399.7,32.2,399.5z"/>
<path class="st0" d="M32.3,392.9c0,0.1,0,0.2,0.1,0.4C32.3,393.1,32.3,393,32.3,392.9z"/>
<path class="st0" d="M379.7,381.3c-2.7-0.1-5.2-0.1-7.3,1.1c-1.4,0.8-3.1,1.3-4.6,2c-2.1,1-2.1,1-3.3-1.2c-0.5-0.9-1.1-0.9-1.8-0.9
	c-2.7,0-5.1,0.5-7.3,1.6c-1.7,0.8-3.2,1.8-4.8,2.6c-1.5,0.8-2.1,0.5-2.6-1.3c-0.1-0.5-0.2-1-0.3-1.5c-0.1-0.4-0.1-0.7-0.1-1.4
	c-3.4-0.2-6,1-8.7,2c-1.5,0.6-2.8,1.4-4.3,1.9c-2.1,0.7-2.2,0.7-2.4-1.7c0-0.3,0-0.6-0.4-0.9c-1.5-0.5-2.6,0.2-3.8,0.7
	c-2.1,0.9-4.2,1.9-6.3,2.9c-0.6,0.3-1,0.8-1.9,0.3c-0.9-0.6-1-1.4-1.1-2.2c0-0.2,0-0.4,0-0.6c0-2.6-0.3-3-3-2.5
	c-4.2,0.7-7.6,2.7-11,4.6c-0.6,0.3-1.1,0.9-2.1,0.9c-0.4-2,1.4-2.8,1.5-4.5c-2.3-0.8-4.2-0.3-6.1,0.3c-2.8,0.9-5.4,2.1-7.8,3.6
	c-0.3,0.2-0.7,0.4-1.1,0.1c-0.6-0.4-0.4-0.9-0.2-1.3c0.2-0.3,0.4-0.6,0.5-0.9c0.4-0.9-0.3-1.3-1.1-1.4c-1.4-0.2-2.6,0.1-3.8,0.4
	c-3.4,1.1-6.4,2.9-9.5,4.4c-0.5,0.2-0.8,1-1.5,0.4c-0.8-0.7-0.1-1.2,0.2-1.7c0.4-0.7,1.1-1.2,1.2-2.1c-0.6-0.8-1.3-0.6-2-0.6
	c-3.4,0.2-6.6,0.9-9.5,2.3c-0.7,0.3-1.4,0.5-2.1,0.8c-0.5,0.2-1.1,0.5-1.7-0.1c-0.5-0.5-0.4-1.1-0.1-1.6c0.2-0.4,0.5-0.7,0.1-1.6
	c-6.1-0.1-10.3,3.1-15.2,5.1c-0.6-1.3,0.4-1.8,0.8-2.5c0.4-0.8,0.6-1.7,1.4-2.2c-0.6-1-1.2-0.5-1.7-0.5c-4.4,0.7-7.5,3.1-10.7,5.6
	c-0.8,0.6-1.5,1.2-2.3,1.9c-0.3,0.2-0.7,0.3-1.1,0c-0.6-0.3-0.7-0.8-0.6-1.3c0.4-1.4,1.5-2.4,1.6-4c-0.7-0.8-1.3-0.3-1.9-0.2
	c-4,0.8-7,3-9.5,5.7c-0.6,0.6-1.1,1.9-2.1,1.4c-1.4-0.7-0.1-1.7,0-2.5c0.1-1.6,0.5-3.1,0.7-4.7c0.3-2.5-1.2-3.8-3.8-3.4
	c-2.6,0.5-4.9,1.5-6.7,3.1c-3.5,3.1-6.5,6.7-9.7,10c-1.5,1.5-3.4,2.7-5.2,3.9c-0.7,0.5-1.6,0.9-3.2,0.7c2-1.6,3.3-3.2,4.4-4.9
	c0.8-1.2,1.4-2.5,1.7-3.9c0.3-1.5-0.2-2.1-1.9-2.5c-4.9-0.9-9,0-12.3,2.8c-1.5,1.3-2.1,3-2.5,5c-0.9,4.2-1,8.7-1.6,13
	c-0.4,3.1-1.4,6-2.5,8.8c-0.2-0.1-0.4-0.1-0.6-0.2c0.1-2.6,0.2-5.1,0.3-7.7c0-1.5-0.2-3.1,0-4.6c0.2-1.8-1.1-2.3-2.4-2.8
	c-1.3-0.5-2.4-0.6-3.1,0.6c-1.4,2.3-2,4.9-2.5,7.6c-1,5.1-1.1,10.6-3.3,15.2c-1,2-2.1,4-3,6c-1.4,3-3.3,5.8-3.9,9.2
	c-0.1,0.4-0.4,0.8-0.7,1.1c-0.2,0.2-0.4,0.4-0.7,0.2c-0.2-0.2-0.5-0.4-0.6-0.7c-0.3-0.7-0.1-1.3,0.2-1.9c0.6-1.5,0.6-3.3,0.7-5
	c0-0.4-0.1-0.8-0.5-1.1c-0.6-0.4-1,0-1.2,0.3c-1,1.3-1.8,2.7-2.3,4.3c-1.5,4.8-4.8,8.3-8.4,11.6c-1.2,1.1-2,2.6-3.6,3.4
	c-0.2-0.2-0.4-0.3-0.6-0.5c0.9-1.1,1.7-2.3,2.6-3.4c1.3-1.5,1.9-3.3,2.2-5.2c0.3-1.7-0.2-2.2-1.9-1.9c-1.1,0.2-2.2,0.6-3.5,0.5
	c-0.6-0.8,0-1,0.5-1.3c2.2-1.3,3.9-3.2,5.5-5.1c1.7-1.9,1.9-4.6,2.6-7c1.8-5.7,3.3-11.6,3.9-17.8c0.5-4.8,0.6-9.7-0.1-14.9
	c-1.6-0.1-1.7,1-2,1.7c-0.7,1.8-1.9,3.2-3,4.7c-0.3,0.3-0.6,0.8-1.2,0.4c-0.5-0.4-0.5-1-0.3-1.4c1.4-2.1,2.2-4.5,3.2-6.8
	c0.3-0.7,0.7-1.3,0.8-2c0.6-3.9,2.4-7.2,4.3-10.5c1.8-3.1,4.3-5.6,7.2-7.8c2.6-2,5.2-4.1,7.8-6c1.3-1,2.9-1.6,4.4-2.2
	c3.7-1.4,7.4-2.6,11-4.1c2.5-1,4.3-2.9,6.7-4.1c5.5-2.6,9.6-6.7,14-10.4c3-2.5,5.2-5.6,7.7-8.5c4.3-5.1,8.9-10,12.9-15.3
	c5.6-7.5,11.4-14.9,17.7-21.8c4.7-5.1,9.5-10.2,15.1-14.5c2.3-1.7,4.8-3.2,7.1-4.9c2.4-1.8,4.4-4.1,7.1-5.5
	c4.5-2.4,8.3-5.6,13.4-7.2c1.9-0.6,4-1.3,5.3-2.8c0.4-0.4,1.1-0.6,1.7-0.8c3.4-1,6.9-2,10.6-2.2c2-0.1,4.1,0,5.9-0.7
	c0.3-0.1,0.6-0.1,0.9-0.1c7,0.4,13.6-0.5,20.5-0.4c5.3,0.1,10.6,0.5,15.8,0.6c4.4,0.1,8.9,0.3,13.4,1c2.9,0.5,5.7,0.8,8.5,1
	c3.9,0.3,7.8,0.8,11.7,1.1c3.7,0.3,7.3,0.6,10.9,0.5c1.9,0,3.8,0,5.5-0.6c2-0.7,4.5-0.6,6.6-1c4.2-0.9,7.9-2.9,12-4.1
	c3.6-1.1,6.6-2.8,9.5-4.7c7.9-5.1,16.2-9.7,22.3-16.8c0.2-0.3,0.5-0.5,0.8-0.8c0.6-0.8,0.2-1.4-0.9-1.8c-1.7-0.6-3.3-0.3-4.7,0.2
	c-1,0.4-2.1,1.2-2.9-0.1c-1-1.5,0.8-1.6,1.6-1.8c4-1,5.9-4.1,8.6-6.4c3.7-3.1,6.9-6.8,9.9-10.5c2.4-3,4.4-6.1,5.5-10
	c0.5-1.8,1.3-3.4,1-5.6c-0.2-1.8,0.9-3.1,2-3.1c1.4,0,3.5,1.8,4.3,3.5c2,4.7,2.4,9.3,3.6,14c0.9,3.7,0.9,7.3,1.3,11
	c0.5,4.4,0.8,8.8,1.2,13.2c0.2,2.6,0.6,5.2,0.5,7.7c-0.3,5.6,0.2,11.3-0.1,17c-0.3,7-1.2,13.8-1.7,20.6c-0.1,1.7,0.1,3.4,0,5
	c-0.2,2.9-0.6,5.6-0.8,8.5c-0.2,3.8-0.8,7.5-1.6,11.2c-0.9,4.4-1.9,8.9-1.9,13.6c0,2.7-0.8,5.2-0.5,7.9c0.1,1.1,0.1,2.3,0.4,3.5
	c0.4,2.1-0.1,3.9-1.3,5.4c-1.7,2.1-3.8,4.1-5.1,6.5c-0.1,0.2-0.3,0.4-0.5,0.6c-0.4,0.4-0.8,0.8-1.5,0.3c-0.6-0.4-0.5-1-0.3-1.3
	c0.5-1,0.5-2.3,1.1-3.3c1.5-2.4,1.2-5.5,1.8-8.1c-1.1-0.7-1.5-0.2-1.7,0.3c-1.5,3.3-3.6,6.2-6.1,8.8c-2.3,2.4-2.6,5.7-2.7,9
	c-0.1,2.3-0.7,4.3-1.6,6.2c-0.5,1-1.2,2-1.8,3c-1,1.7-1.9,3.5-0.4,5.9c0.2,0.2,0.2,0.6,0.2,0.9c0,0.4,0,0.8-0.6,0.7
	c-0.3,0-0.6-0.3-0.7-0.5c-0.5-1.1-1.2-2.3-1.3-3.4c-0.2-2-0.5-4,0-5.9c0.5-1.8,0.9-3.7,0.1-5.8c-0.7-0.1-1.1,0.2-1.4,0.5
	c-3.6,3.8-8.3,6.6-11.3,11c-2,3-3.6,6.2-5.3,9.3c-0.2,0.4-0.4,0.8-0.7,1.1c-0.6,0.6-1.6,0.2-1.8-0.8c-0.2-1.3-0.2-2.7-0.4-4
	c-0.3-2.5-1.1-3.1-3.2-1.9c-3.2,1.9-6.8,3.3-9.8,5.6c-0.9,0.7-1.7,1.3-2.6,1.9c-1.3,1-1.9,0.8-2.9-0.7c-0.1-0.1-0.1-0.2-0.2-0.3
	c-0.7-0.9-0.6-2.4-1.9-2.7c-0.9-0.2-1.8,0.4-2.7,0.8c-3.2,1.4-6.4,2.9-9.6,4.3c-1.1,0.5-2,1.1-2.9-0.9c-0.4-0.9-1.3-0.8-1.9-0.5
	c-2.5,1.3-5.2,2.4-7.3,4.2c-0.9,0.8-1.8,2-3.2,1.1c-1.4-0.8-0.8-2.3-0.7-3.5C379.8,382,379.7,381.8,379.7,381.3z M442.7,336.2
	c0.2,0.1,0.4,0.2,0.6,0.3c0.4-0.5,0.9-1.1,1.2-1.6c2-3.2,4.1-6.2,6-9.5c1.6-2.8,3.2-5.6,4.1-8.8c2-7.6,4.1-15.1,4.7-23.3
	c0.6-8.8-1.2-17.8-3.3-26.8c-0.9-4.1-4.3-5.7-7.8-4c-1.4,0.7-2.6,1.6-3.6,2.8c-4.8,6-6.7,13.4-7.3,21.4c-0.4,5.2,0.3,10.6,0.7,15.9
	c0.7,9.3,2,18.7,3.4,28C441.8,332.5,442.3,334.4,442.7,336.2z M290.9,373.2c1.5,0.3,2.4,0.1,3-0.3c3.5-2.3,7-4.7,9.2-8.2
	c2.8-4.5,4.5-9.6,5.3-15.1c1.3-9.4,0.6-19.3,0.4-29.1c-0.1-6.5-0.8-13.1-1.1-19.7c-0.4-6.7,0-13.2,2.1-19.2c0.4-1.2-0.1-1.9-1.6-1.8
	c-5.2,0.2-9.4,1.7-11.6,5.9c-2.6,5.1-3.1,11-3.2,17c-0.1,7.1,1,14.3,1.5,21.5c0.4,5.9,0.6,11.8,0.6,17.6c0.1,8.7-0.3,17.3-2.9,25.3
	C292,369.1,291.5,371,290.9,373.2z M387.8,363.6c1.9-2.4,3.3-5.1,4.5-7.9c1.2-2.7,2.2-5.6,2.4-8.7c0.5-7.2,0.6-14.6-0.8-22.2
	c-1.7-9.1-3.2-18.2-4.6-27.3c-0.4-2.2-1.3-4.3-2.3-6.4c-1.1-2.2-2.7-2.7-4.5-1.6c-1.1,0.6-1.8,1.5-2.1,2.7
	c-1.1,4.2-2.3,8.5-2.5,13.1c-0.2,6.4-0.2,12.7,0.1,19.2c0.4,8.1,1.2,16.3,1.8,24.4c0.4,6.6,0.5,13.1-2,18.9
	c-0.2,0.4-0.3,0.9-0.5,1.3c-0.2,0.5-0.4,1.1,0.1,1.6c0.8,0.8,1.3,0.2,1.8-0.1C382.7,368.9,385.3,366.3,387.8,363.6z M254.1,373.6
	c2.4,0.1,3.3-1.4,4.7-2.1c5.6-2.7,8.8-7.5,11.4-12.8c2.2-4.5,2.6-9.7,3.3-14.8c0.6-4.8,0-9.9,0-14.9c0-4.8-0.8-9.7-2.7-14.6
	c-1.5-3.9-3.6-5.5-7.7-5.5c-3.9,0-6.4,1.9-7.7,4.9c-2.3,5.1-3,10.7-2.3,16.7c0.6,5.3,1.9,10.8,2.5,16.1c0.8,7.7,1,15.3-0.6,22.4
	C254.9,370.5,254.2,371.8,254.1,373.6z M357.6,283.9c-0.2,0.3-0.6,1-1,1.9c-2.3,5.4-2.9,11.4-3.2,17.4c-0.3,5,1.3,10.1,2.8,15.2
	c2.7,8.9,5.2,17.8,6,26.7c0.2,2.7,0.2,5.4,0.4,8.1c0,1,0.1,2,1.4,2.5c1.4,0.5,2.1-0.2,2.6-1.1c0.5-0.9,0.7-1.8,1-2.8
	c1.6-7.1,1.5-14.5,1.6-22c0.1-8.9,0-17.8,1.5-26.3c0.7-3.6,1.4-7.3,1.4-11.1c0-3.4-0.4-6.8-2.9-10c-2.3-2.9-5.4-3.7-7.9-2
	C360.1,281.2,358.9,282.2,357.6,283.9z M277.4,365.9c1.3-0.3,1.9-0.7,2.4-1.5c1.6-2.7,3.4-5.2,4.3-8.3c3-10,3.7-20.7,3.5-31.7
	c-0.1-3.8-0.4-7.7-0.6-11.6c-0.2-4.6-0.1-9.2-1.1-13.9c-0.2-1.2-0.4-2.3-1.1-3.5c-1.7-2.7-3.9-3.4-6.2-2c-4.5,2.9-5.9,7.2-4.7,12.8
	c1,4.9,2,9.8,3.1,14.7c1.3,5.9,2.3,11.7,2.4,17.5c0.1,4.8,0.8,9.7,0.2,14.4C278.9,357.1,278,361.3,277.4,365.9z M339.7,285.7
	c-0.6,0.6-0.9,1.3-1.2,2.1c-3.6,8.4-4.6,17.7-3.3,27.6c1.2,8.9,2.5,17.8,3,26.6c0.1,2.1,0.4,4.3,0.5,6.4c0.1,1.1,0.5,2,1.8,2.4
	c1.5,0.5,2.1-0.4,2.2-1.4c0.1-1,0.5-1.9,0.4-3c-0.2-3.2,0.2-6.3,0.3-9.5c0.2-7.2,0.2-14.5,1.3-21.5c0.2-1.5,0.3-3,0.2-4.5
	c-0.2-4.2,0.1-8.2,0.2-12.3c0.1-3.5-0.1-7.1-0.3-10.6c-0.1-1.4-0.2-3.3-2-4C341.1,283.2,340.6,284.9,339.7,285.7z M316.5,325.2
	c1.4,0,1.7-1,2.2-1.6c3.2-3.7,4.6-8.5,6.7-12.8c3-6.2,3.7-13.4,4.8-20.3c0.5-2.9-0.9-5.8-3.1-8.5c-1.2-1.5-2.6-2-4.2-1.5
	c-2.2,0.7-4,1.8-4.9,4c-1.1,3-2.1,6-2.5,9.2c-1,7.1-1.4,14.4-0.6,21.9C315.4,318.8,315.5,321.9,316.5,325.2z M237.3,374.1
	c0.8,0,1.2,0,1.4-0.1c3.5-2,6.3-4.6,7.5-8.4c1.5-4.6,1.9-9.6,2.8-14.4c0.4-2.3-0.3-4.8,0-7.1c0.5-3.7-0.4-7.5-1-11.3
	c-0.3-2-1.4-3.7-2.7-5.3c-1.9-2.4-3.5-2.7-5.2-0.7c-2.6,3-2.9,7-2.3,11.1c0.7,5.3,1.8,10.7,2.1,16.1c0.2,3.5,0.1,6.9-0.6,10.1
	C238.6,367.3,238,370.5,237.3,374.1z M223.3,374c0.4,0,0.6,0.1,0.8,0.1c0.3-0.1,0.5-0.2,0.7-0.3c3-2,5.4-4.3,6.9-7.7
	c2.7-6.3,4.6-12.7,3.6-20.2c-0.4-3.1-1.2-6.3-2.5-9.4c-0.5-1.2-1-2.4-2.4-2.9c-1.4-0.5-1.8,0.7-2.5,1.4c-0.5,0.5-0.9,1.1-1.2,1.8
	c-2.3,5.3-3.1,11-2.8,17.2c0.3,4.8,0.2,9.6-0.3,14.2C223.5,370.1,223.5,372.1,223.3,374z M325.4,362.8c1,0.1,1.2-0.3,1.5-0.7
	c1.1-1.6,1.8-3.5,2.4-5.4c1.5-5.3,2.2-10.9,2-16.7c-0.1-3.4-1.3-6.9-4.6-9.6c-2.4-1.9-3.4-1.8-4.5,0.4c-2.2,4.4-3,9.1-1.3,14.6
	C322.6,351.2,324.5,357,325.4,362.8z M407.6,284.5c-0.7,1-0.9,2.3-0.6,3.9c1,4.8,1.3,9.5,1.4,14.3c0.2,6.1,0.3,12.1,0.5,18.1
	c0,1.5,0.1,3.1,0.9,4.6c0.4,0.7,0.6,1.3,1.5,1.5c1.1,0.2,1.3-0.5,1.5-1.2c0.8-2.5,1.2-5.2,1.3-7.9c0-2.4,0-4.8,0.1-7.1
	c0.5-7.1,0.3-14.2-1.3-21.6c-0.3-1.5-0.8-2.9-1.9-4.3C409.8,283.2,408.8,283,407.6,284.5z M432.3,319.4c-2.6,0-3,1.9-4,3.1
	c-2.1,2.6-4.4,5-4.9,8.5c-0.5,3.1-0.9,6.2-1.5,9.3c-0.4,2.2-1,4.3-0.6,6.7c0.2,1.2,0.7,2.5,2.1,3c1.2,0.5,2.2,0.1,2.9-0.7
	c1.4-1.5,2.6-3.1,3.2-5.2c0.7-2.7,1.6-5.4,2.1-8.2C432.5,330.7,432.4,325.1,432.3,319.4z M428.9,314.4c0.4-0.7,0.9-1.5,1.2-2.3
	c1.1-2.6,1.7-5.3,1.7-8.3c0-4.8,0.5-9.4-0.6-14.4c-0.3-1.4-0.7-2.8-1.6-4c-0.8-1.1-1.7-1.2-2.6-0.5c-0.9,0.8-1.4,1.8-1.4,3.1
	c-0.3,4.6-0.1,9.3-0.5,13.9c-0.3,3.7-0.2,7.6-0.3,11.4c0,0.8-0.2,1.9,0.8,2.4c1.1,0.5,2,0,2.6-0.6
	C428.6,314.9,428.7,314.7,428.9,314.4z M218.5,345c-1.6,0.8-2.4,1.9-3.1,3.1c-2.7,4.3-4,9.2-4.1,14.6c-0.1,3-0.1,6.1,1,9.2
	c0.3,0.8,0.2,2,1.5,2.2c1,0.1,1.3-0.9,1.5-1.7c0.5-1.7,1.1-3.4,1.5-5.2c1-4.5,1.5-9.1,1.4-13.9C218.1,350.5,218.4,348,218.5,345z
	 M165.2,379c-3,1.4-6,4.4-7.7,7.6c-2,3.7-0.6,7.4,3.8,10.3c1.2,0.8,1.9,0.8,2.5-0.2c0.8-1.3,1.7-2.5,2.5-3.8c0.6-0.9,0.8-2,0.3-3.2
	c-0.8-2.1-0.9-4.1-0.9-6.1C165.7,382.2,165.7,380.8,165.2,379z M191.5,365.5c-2.5,0.5-3.8,2-5.8,2.4c-2.1,0.5-3,2-3.1,4
	c-0.1,3.1,0.6,6.4,0.8,9.6c0.1,0.9,0.7,1.3,1.5,1c2.9-1.1,5.7-2.3,7.5-4.8c0.6-0.8,0.9-1.8,0.6-2.9
	C192,371.8,191.6,368.8,191.5,365.5z M404.3,356.1c1.8-0.2,2.1-1.6,2.5-2.8c1.5-4.1,3-8.3,4.5-12.5c0.4-1.3,0.3-2.6-0.4-4
	c-0.8-1.7-1.7-2.1-3.2-1.5c-1.9,0.8-3,2.3-3.5,4.2c-1.4,4.9-0.9,10.2-0.6,15.6C403.6,355.4,403.9,355.7,404.3,356.1z M398.2,293.4
	c-0.2,0.6-0.5,1.4-0.7,2.3c-0.7,3-0.7,6.1-0.7,9.3c0,2.3,0.2,4.6,0.3,6.9c0.1,1.1,1.3,2.8,2.2,2.9c1.1,0.1,1.4-0.8,1.6-1.6
	c0.4-1.6,0.6-3.3,0.8-4.9c0.7-4.1,0.7-8.4,0-12.8c-0.1-0.7-0.1-1.3-0.8-2C399.9,292.5,399.1,292.3,398.2,293.4z M352.4,332.8
	c-0.8,1.3-1,2.4-0.9,3.5c0.3,5.1,0.8,10.3,2.7,15.4c0.2,0.7,0.3,1.5,1.1,1.8c1.1,0.4,1.2-0.6,1.6-1.1c0.3-0.4,0.6-1,0.6-1.5
	c-0.1-3.9,0.6-7.6,0.1-11.6c-0.3-2-0.9-4.1-2.4-5.9C354,332.1,352.9,332,352.4,332.8z M317,346.9c-1.2,2.6-0.7,5.1-1.1,7.2
	c-0.7,3.5-1.3,7.1-1.9,10.7c-0.3,1.7,1.1,3.2,3.2,3.7c2.4,0.6,3.6,0.2,3.6-1.8C320.9,360.4,319.6,354,317,346.9z M178,383.7
	c2.1-1.7,1.7-4,1.3-6.4c-0.6-3.7-0.8-3.8-4.4-2.8c-2.9,0.9-4.4,2.6-4.1,5.9c0.2,1.9,0.6,3.7,1.2,5.5c0.5,1.5,1,1.7,2.2,0.9
	C175.7,385.8,177.1,384.9,178,383.7z M201.6,372.9c1.6,1.4,3,0.6,4.5,0.2c1.3-0.3,1.3-1.4,1-2.5c-0.6-2.3-1.2-4.7-1.9-7
	c-0.3-1.2-0.9-2.1-2.3-2.3c-1.7-0.3-4.3,0.8-4.8,2.2C197.2,365.9,199.1,371,201.6,372.9z M467.3,280.1c0.5,0,0.6-0.3,0.7-0.6
	c0.5-3.5,1-7,1.4-10.5c0.2-1.8,0.4-3.5,0.4-5.3c0.1-2.1-1-3-3.1-3.1c-2-0.1-2.7,0.5-2.5,2.7c0.2,2.7,0.7,5.4,0.9,8.1
	C465.4,274.4,465.9,277.3,467.3,280.1z M156.5,402.3c1.2,0.8,2.8,1.4,4.5,1.8c1,0.2,1.4-0.2,0.9-1.1c-1.2-2.3-2.9-4.2-5.1-5.8
	c-0.6-0.4-1.2-0.6-1.6-0.1C154.1,398.2,154.7,400.9,156.5,402.3z M158.4,412.2c-1.6-1.3-3.2-1.7-3.6-1.1c-0.5,0.8,0,2.4,1.1,3.2
	c1.3,1,2.5,1.2,3,0.4C159.2,414,159.7,413.1,158.4,412.2z M156.5,408.4c0.7,0.4,1.2,0.8,1.8,1.1c1.2,0.7,2,0.4,2.4-0.6
	c0.4-1-0.2-1.6-1.2-2.1c-0.9-0.4-1.8-0.9-2.7-1.3c-0.5-0.3-1.1-0.9-1.7-0.4c-0.6,0.5-0.5,1.4,0.1,2.1
	C155.5,407.6,156.1,408,156.5,408.4z M155.4,421.3c0.7,0.5,1.1,0.6,1.2,0.4c0.5-0.9,0.9-1.9,1-3c0-0.5-0.3-0.9-0.9-1.2
	c-0.5-0.2-1-0.5-1.4-0.2C154.6,417.8,155,421,155.4,421.3z"/>
<path class="st0" d="M665,354.4c2.1,3.7,4.1,7.5,7.6,10.6c2.5,2.2,3.9,5,6.2,7.3c0.3,0.4,0.6,0.8,0.2,1.2c-0.4,0.5-1.2,0.7-1.8,0.6
	c-0.7-0.1-1.4-0.4-2.1-0.6c-3.2-1-4.2-0.6-5.3,2.3c-1.9,4.9-0.8,9.5,1.9,13.7c1.7,2.7,4.1,5.1,6,7.7c2.5,3.4,6.2,6,9.1,9.2
	c1.7,1.8,3.4,3.6,5.7,4.9c0.5,0.3,1.1,0.8,0.6,1.3c-0.5,0.6-1.2,0.2-1.7-0.1c-1.1-0.5-2.2-1.1-3.3-1.6c-0.5-0.2-1-0.3-1.5,0.1
	c-0.4,0.3-0.2,0.7,0,1c0.3,0.5,0.6,0.9,1,1.3c9.1,9.4,19.6,17.8,31.1,25.2c3.2,2.1,6.7,3.7,10.1,5.6c10.2,5.6,21,10.3,32.1,14.6
	c6.5,2.5,13,5.1,19.9,7c4.3,1.2,8.6,2.4,12.9,3.7c4.2,1.3,8.2,3.2,12.1,4.9c3.4,1.4,6,3.9,7.1,7.1c0.8,2.4,0.1,4.7-1.7,6.7
	c-1.8,2-4.3,3.6-7.1,4.5c-1.7,0.5-3.4,0.2-4.4-1c-1.1-1.2-1.3-2.6-0.8-4.1c0.4-1.1,3-2.2,4.5-2.1c0.8,0.1,1.9,0,2.1,1
	c0.2,0.8-0.2,1.4-1.1,1.8c-0.6,0.2-1.3,0.4-1.6,0.9c2.1,0.9,3.5,0.7,4.6-0.7c1.3-1.6,2-4.1-0.4-6.2c-3.5-2.9-7.9-4.7-12.7-5.4
	c-6.8-1.1-13.6-2.4-20.6-2.8c-4.7-0.3-9.3-0.7-14.1-0.9c-6.8-0.2-13.4-1.1-20-2.3c-8.2-1.6-16.6-2.7-24.6-4.9
	c-6.2-1.7-12.5-3.2-18.8-4.7c-1.7-0.4-3.3-1.3-5.7-0.9c1.1,2.6,0.9,5.3,2.1,7.8c0.2,0.5,0.7,1-0.1,1.4c-0.8,0.4-1.1-0.3-1.6-0.6
	c-1.4-1-2-2.4-3-3.7c-3.9-4.8-8.4-8.9-15.8-10.4c-2.9-0.6-2.9-0.6-3.5,1.7c-0.4,1.6-0.2,3.4-1.4,5.1c-1.4-0.3-1.5-1.3-1.8-2.1
	c-1.6-3.6-3.9-6.8-7.9-8.9c-0.8-0.4-1.7-1.1-2.6-0.7c-1.1,0.4-0.6,1.4-0.7,2.2c0,0.3-0.1,0.5-0.2,1.1c-1.7-1.3-2.6-2.9-4.1-4
	c-3.8-3.1-8.2-5.3-13.1-7c-4.3-1.5-8.1-3.6-11.9-5.6c-5.1-2.6-10.2-5.2-15-8.2c-3.2-2-6.5-3.9-9.1-6.6c-3-3-7.1-5-11.4-6.7
	c-1.4-0.5-2.6-1.3-2.8-2.4c-0.7-3.1-3.1-5.4-4.9-7.9c-2.7-3.9-5.6-7.6-8.2-11.5c-2.1-3.1-3.9-6.4-5.5-9.7c-1.2-2.3-2.8-4.6-3.7-6.9
	c-1.5-3.7-3-7.5-3.4-11.6c-0.3-3.6-1-7.2-2-10.8c-0.5-1.9-0.4-3.9-0.8-5.8c-0.7-3.5-0.2-7-0.7-10.5c-0.5-3.5-0.2-7.2-0.9-10.7
	c-0.7-3.5-1.2-7.1-2.1-10.5c-0.9-3.3-1.4-6.7-3-10c-1.3-2.7-2-5.8-3.2-8.6c-2.4-5.4-5.2-10.6-8.6-15.6c-2.5-3.6-5.3-7-8.7-10.2
	c-1.3-1.2-1.5-1.3-3.1-0.2c-0.3,0.2-0.5,0.4-0.7,0.6c-0.4,0.4-0.8,1-1.6,0.7c-0.6-0.3-0.3-0.8-0.2-1.2c1-4.1-0.9-7.4-3.7-10.5
	c-2-2.2-3.8-4.6-5.5-7c-0.6-0.8-1.2-1.6-2.3-2.1c-0.8,0.3-0.9,0.9-1.3,1.3c-0.5,0.6-0.7,1.5-1.8,1.4c-1.3,0-1-1-1.2-1.6
	c-0.5-1.4-0.7-2.8-0.7-4.2c0-4.7-1.1-9.2-2.9-13.6c-1.8-4.3-4-8.5-6.6-12.6c-3.1-5-8.3-8.1-13.3-11.4c-3.2-2.2-6.3-4.4-9-7
	c-0.4-0.4-0.8-0.8-1-1.3c-0.3-0.6-0.6-1.2,0-1.8c0.6-0.5,1.3-0.1,1.8,0c4.6,1.3,9.5,1.5,14.2,2.4c3.8,0.7,7.8,0.6,11.6,1.1
	c7,1,14.2,0.5,21.2,1.1c2,0.2,4.1-0.4,6.2,0c4.2,0.8,8.8,0.1,12.9,1.4c3.1,0.7,6.3,1.3,9.4,2c0,0-0.1,0-0.1,0c1.7,0.7,3.4,1.4,5,2.1
	c0,0-0.1,0-0.1,0c0.3,0.1,0.5,0.3,0.8,0.4c0,0,0.1,0,0.1,0c0.9,0.3,1.9,0.6,2.8,0.9c0.3,0.1,0.7,0.1,0.9,0.2c2.2,1.1,4.4,1,7.1,0.7
	c4.7-0.7,8.8,0.8,11.9,3.6c2.1,1.8,4.6,3.1,7.4,4.1c4.3,2.2,8.6,4.3,12.9,6.5c0,0-0.1-0.1-0.1-0.1c0.3,0.2,0.5,0.3,0.8,0.5
	c0,0-0.1,0-0.1,0c2.4,1.5,4.6,3.4,7.4,4.5c0,0-0.1-0.1-0.1-0.1c0.4,0.9,1.3,1.5,2.2,2c0,0,0.2,0.2,0.2,0.2c0.2,0.1,0.4,0.2,0.6,0.3
	c0,0,0,0,0,0c0.8,1.2,1.9,2,3.2,2.8c0,0-0.1-0.1-0.1-0.1c1.3,1.1,2.6,2.2,3.9,3.3c0,0-0.1-0.1-0.1-0.1c0.7,0.6,1.3,1.3,2,1.9
	c0.2,0.1,0.3,0.3,0.5,0.4c0.4,0.4,0.8,0.8,1.3,1.1c0,0,0-0.1,0-0.1c0.3,0.3,0.5,0.6,0.8,0.9c0.1,0.2,0.3,0.3,0.4,0.5
	c0.3,0.3,0.7,0.6,1,0.9c3.9,3.7,7.5,7.6,10.8,11.7c2.3,2.9,3.2,6.3,4.8,9.5c3.1,6.1,5.6,12.4,10.1,17.9c0.8,0.9,0.8,1.7,0,2.7
	c-0.4,0.5-0.6,1.2-0.9,1.7c-1.7,5.6-0.5,11,0.4,16.5c0.3,2.1,0.6,4.3,1.2,6.3c2.3,7.2,4,14.4,5.5,21.8c0.4,1.8,1.1,3.6,0.9,5.5
	c0.2,0.3,0.3,0.6,0.5,0.9c0.6,3.8,2.7,7.2,4.5,10.6c0.2,0.4,0.3,0.8,0.5,1.2C664.7,353.9,664.8,354.1,665,354.4z M541.7,255.4
	c-1.4-0.1-3.4,0.7-5.4,1.2c-4,0.9-5.4,3.3-3.6,6.2c0.4,0.7,0.9,1.4,1.6,1.9c4.5,3.3,9.5,6.1,15.4,7.5c6.6,1.6,13.5,2.8,20.3,4
	c8.2,1.5,16.1,3.6,24.1,5.6c3.5,0.9,6.9,2,10.3,3.1c7.5,2.3,14.9,4.6,22.9,5.8c3.8,0.6,5.3-0.6,5.2-3.8c-0.1-3.3-2.1-5.9-4-8.5
	c-3.2-4.3-7.7-7.7-12-11.2c-5.1-4.1-11-6.9-18-8.2c-6.9-1.3-13.8-2.3-20.8-3.2C565.9,254.4,554.2,254.4,541.7,255.4z M642.1,338.3
	c-0.2-0.7-0.4-1.7-0.8-2.7c-1.1-2.9-2.8-3.3-5.8-1.3c-2.6,1.7-5.1,3.6-7.3,5.7c-3.1,3-6.9,5.6-9.8,8.8c-8.8,9.6-17.5,19.3-23.1,30.5
	c-3,6-4.6,12.1-5.3,18.4c-0.2,2.4-0.1,4.8,0.5,7.2c0.9,3.2,4,4.8,8.5,2.1c5.6-3.3,10.1-7.4,14.1-11.9c5.8-6.7,10-14,14.9-21
	c1.4-2.1,3-4.1,4.1-6.3c1.5-3,3-5.9,4.6-8.8c2.4-4.3,3.7-8.8,4.8-13.3C642.3,343.4,642.4,341.1,642.1,338.3z M565.7,229.2
	c-4.8,0.8-9.6,1.6-14.1,3.3c-2.7,1-5.4,1.8-8.2,2.6c-4,1.1-7.5,2.9-11,4.7c-1.5,0.8-2.3,2-2.7,3.4c-0.5,1.8,0.2,2.8,2.4,3
	c5.1,0.4,10.2,1,15.4,1c12.6,0,24.9,1.6,37.1,3.6c9.4,1.5,18.4,4.1,27.5,6.4c1.8,0.4,3.6,0.8,5.4,1.1c2.2,0.3,3.4-0.7,3-2.5
	c-0.2-0.9-0.7-1.9-1.3-2.7c-1.7-2.6-4.1-4.7-6.4-6.8c-5.4-4.9-11.5-9.1-18.5-12.5c-3.9-1.9-7.9-3.7-12.4-4.4
	C576.5,228.7,571.1,228.2,565.7,229.2z M583,370.5c0.1,0.8,0.1,0.9,0.2,1.1c0.3,1.1,0,2.4,1.9,2.7c1.8,0.3,3-0.2,4-1.4
	c0.7-0.8,1.6-1.6,2.3-2.4c3.3-4,6.3-8.1,9.8-11.9c6.1-6.7,12.1-13.4,18.9-19.7c3.9-3.6,7.2-7.6,9.7-11.9c1.8-3,1-5.3-2.6-6.6
	c-5.5-2-11.3-2.4-17.4-0.9c-1.6,0.4-3,1.1-4.3,2.1c-5.3,4.4-9.2,9.6-12.3,15.1c-1.7,3-2.8,6.2-4.3,9.2c-1.9,3.6-3.4,7.3-4.2,11.2
	C583.8,361.8,583.1,366.4,583,370.5z M631,423.1c0,3.9,3,7.2,5.1,8.8c5.9,4.6,12.9,7.7,20.4,10.2c2.4,0.8,4.8,1.6,7.2,2.3
	c2.4,0.7,4.8,1.5,7.4,1.8c1.6,0.1,2.1-0.3,1.7-1.5c-0.6-1.9-1.2-3.8-2.2-5.5c-2.5-4-4.5-8.1-6.8-12.2c-4.1-7.5-8.3-15-12.2-22.7
	c-1.5-3-2.9-6.1-4.6-9c-1.6-2.8-4.2-2.8-6.5,0c-1.1,1.3-1.7,2.8-2.3,4.2c-2.2,5.6-4.4,11.3-6.7,16.9
	C630.8,418.7,630.3,420.9,631,423.1z M523.3,236.2c2.3-0.3,4.3-0.7,6.1-1.5c4.6-2,9.3-3.7,14-5.4c9-3.2,18.2-5.8,27.8-7.3
	c0.9-0.1,1.8-0.3,2.6-0.5c1.1-0.3,0.9-0.9,0.5-1.5c-0.4-0.5-1-0.6-1.7-0.7c-2-0.3-3.9-0.4-5.9,0.3c-1.2,0.4-1.9,0.1-2-1
	c-0.1-1.6-1.5-1.6-2.8-1.2c-4,1.2-7.6,0.6-11-1c-0.6-0.2-1.2-0.4-1.8-0.6c-1.7-0.6-3.4-0.6-5.1,0.2c-2.3,1.1-4.5,1-6.6,0.1
	c-1.7-0.7-3.3-0.7-5.1-0.2c-3.9,1-7.7,1.1-11.1-0.7c-0.7-0.3-1.4-0.5-2.2-0.2c-2.6,0.7-4.9,1.8-6.2,4c-2.8,4.6-2.3,8.9-0.2,13.3
	c1.3,2.8,3.9,4,7.5,4.2C521.2,236.4,522.4,236.2,523.3,236.2z M607.9,418.3c0.8,4.6,4.1,6.7,8.5,7.8c4.1,1,5.8,0.4,7.9-2.8
	c2-3.2,3.7-6.5,5-9.9c3.5-8.8,7-17.5,10.6-26.2c1-2.5,0.6-4.7-1.3-6.5c-3-2.7-7.7-3.5-10.2,0.6c-0.8,1.2-1.6,2.4-2.4,3.6
	c-2,3.2-3.7,6.5-5.9,9.6c-4.5,6.1-7.4,12.7-10.4,19.3C608.8,415.4,607.7,417.1,607.9,418.3z M627.4,314.1c2.4-0.3,3.5-1.8,2.4-3.4
	c-1.4-1.9-3-3.8-4.9-5.5c-6.8-6-15.1-10.3-23.5-14.6c-2.3-1.2-4.7-2.1-7.1-3.2c-4.1-1.8-8.8-2.3-13.4-3.2c-0.8-0.2-1.7-0.3-2.6-0.4
	c-3-0.1-4.2,1.1-3.3,3.4c0.4,1,1.1,1.9,1.9,2.7c2.8,3,6.4,5.4,10,7.7c5.3,3.3,10.6,6.5,16.4,9.3c5.3,2.6,10.9,4.6,16.7,6.2
	C622.4,314,625,314.2,627.4,314.1z M706.6,449.2c4.4-0.8,8.8-1.6,13.3-2.4c1.5-0.3,1.7-0.8,0.9-1.9c-0.9-1.2-2.4-2-3.6-3
	c-6-4.7-13.3-6.6-21.9-5.2c-1.5,0.2-3.1,0.4-4.6,0.8c-2.6,0.8-5.1,1.1-7.8,1c-2.8-0.1-3.4,0.7-2.3,2.8c1.3,2.3,2.9,4.5,5.7,5.9
	c3.9,2,8.1,3.2,13,2.7C701.6,449.7,704,449.4,706.6,449.2z M730,462.1c1.3-0.2,2.6-0.3,3.9-0.5c3.2-0.5,6.3-1.2,9.2-2.4
	c1.9-0.8,2-1.6,0.3-2.5c-0.3-0.1-0.6-0.2-0.9-0.3c-3-1.1-5.9-2.4-8.9-3.7c-6.8-2.9-4.8-3-12.9-1.3c-7.1,1.4-13.9,4.2-21.4,3.8
	c-0.2,0-0.4,0-0.7,0.1c-1.5,0.3-2,1.1-1.2,2.1c0.4,0.6,1.1,0.8,1.8,1.1c4.8,1.9,9.8,3.6,15.2,4.2C719.7,463.2,724.8,462.7,730,462.1
	z M568.9,289c1.1,2.3,1.4,4.3,1.8,6.3c1,5,0.4,10-1.1,15c-1.6,5.3-3,10.6-3.6,16c-0.2,2.1-0.1,4.1,0.4,6.1c0.1,0.5,0,1.1,0.9,1.1
	c0.5-0.2,0.7-0.5,0.8-0.9c1.9-5.4,4.9-10.6,8.1-15.6c2.1-3.2,4.2-6.3,6.3-9.4c2.3-3.3,1.1-6.7-1.6-9c-2.9-2.6-5.8-5.1-8.7-7.7
	C571.6,290.3,571,289.4,568.9,289z M577.3,347.5c1.1-0.7,1.5-1.6,1.9-2.4c2.5-4.7,4.5-9.5,7.6-14c2.5-3.7,4.8-7.5,6.3-11.5
	c0.7-2,0.5-4-0.4-5.8c-0.7-1.6-2.2-1.8-4-0.8c-1.5,0.9-2.9,1.8-3.9,3.1c-2.4,3-4.3,6.3-5.6,9.7c-2,5-2.1,10.2-2.4,15.3
	C576.6,343.1,577.1,345.3,577.3,347.5z M751.4,461.1c-3.9,0.4-6.7,1.7-9.4,3c-2.2,1-2.2,2.5-0.8,4.1c1,1.2,2.6,1.5,4.2,1.7
	c3.6,0.4,7.3,1.4,11,0.3c2.4-0.7,4.8-1.6,7.1-2.6c2.4-1,2.7-2.3,0.6-3.4C760.1,462.3,755.9,460.3,751.4,461.1z M662.3,401.6
	c0.2,1.8,2.9,5.7,4.7,6.7c1.5,0.8,3.2,1.1,5,0.9c2.1-0.2,2.9-1,2.7-2.8c-0.4-4.4-3.2-7.6-7.5-9.9c-1.5-0.8-2.9-0.5-3.9,0.8
	C662.3,398.8,662.1,400.2,662.3,401.6z M673.6,417.1c0.2,1.2,0.9,2,1.8,2.8c2.3,2.4,5.5,3.6,9,4.3c1.7,0.3,3.9,1.7,5.1,0.2
	c1-1.3-0.9-2.9-1.7-4.3c-0.1-0.1-0.3-0.2-0.4-0.4c-2.2-2.5-5.2-4.3-8-6.3c-2.3-1.6-4.2-1.2-5.2,1.3
	C673.7,415.5,673.7,416.3,673.6,417.1z M650.4,355.6c-0.2-1.6-1.2-2-2.7-1.1c-0.4,0.2-0.6,0.5-0.9,0.8c-3.3,2.8-5.3,6.1-6.7,9.7
	c-0.7,1.9,0.1,3.3,2.1,3.8c1.6,0.4,3-0.2,4.1-2c1.5-2.5,2.6-5,3.3-7.7C649.9,358,650.7,356.8,650.4,355.6z M653.9,371.4
	c0,2.1,1.4,3.6,3.3,4.8c1.1,0.7,1.9,0.5,2.1-0.6c0.3-2.9,0.6-5.9,0.7-8.8c0-1.3-0.6-1.5-2.1-1C655.2,366.6,653.7,368.7,653.9,371.4z
	 M794.4,473.7c-0.8-0.4-1.4-0.9-2.2-1.1c-3.4-0.9-6.6-2.2-10.2-2.8c-1.8-0.3-3.5-0.9-5.5-0.8c-1.3,0.1-3,0.1-3.2,1.4
	c-0.2,1.3,1.6,1.2,2.7,1.3c5.6,0.8,11.3,1.1,16.7,2.4C793.2,474.2,793.7,474.3,794.4,473.7z"/>
</svg>
