<?xml version="1.0" encoding="utf-8"?>
<!-- Generator: Adobe Illustrator 22.0.1, SVG Export Plug-In . SVG Version: 6.00 Build 0)  -->
<svg version="1.1" id="Layer_1" xmlns="http://www.w3.org/2000/svg" xmlns:xlink="http://www.w3.org/1999/xlink" x="0px" y="0px"
	 viewBox="0 0 850 500" style="enable-background:new 0 0 850 500;" xml:space="preserve">
<style type="text/css">
	.st0{fill:#FFFFFF;}
</style>
<path class="st0" d="M504.4,341.7c0.4,0.3,0.7,0,0.7-0.5c0-0.4-0.2-0.6-0.3-0.9c-0.6-1.3-0.5-1.6,0.6-2.3c1.1-0.7,1.2-1,0.6-2.1
	c-0.2-0.3-0.4-0.6-0.7-0.9c-1.1-1.3-1.1-1.4,0-2.9c0.8-1.1,0.7-1.3,0-2.3c-0.6-0.8-1.5-1.1-2.2-1.8c0.8-1.1,1.6-0.9,2.4-0.8
	c0.6,0.1,1.2,0.3,1.9,0.5c0.8,0.1,1.9,0.8,2.4-0.2c0.5-0.8-0.3-1.8-0.7-2.5c-0.2-0.4-0.6-0.7-0.1-1.2c0.5-0.6,0.9-0.3,1.2,0.1
	c1.3,1.5,2.6,2.9,3.2,5c0.2,0.7,0.6,1.3,1,1.9c1.5,2.5,3.2,4.9,4.3,7.8c0.4,1,1,2,1.5,2.9c0.2,0.3,0.4,0.5,0.7,0.3
	c0.3-0.1,0.2-0.5,0.3-0.8c0-0.3,0-0.6,0-0.9c0.1-1.1,0.4-1.4,1.3-1.3c0.8,0.1,1.4,0.6,2,1c1.2,0.9,1.2,0.9,2.3-0.6
	c0.7-0.9,1.1-0.9,1.4,0.1c0.3,0.8,0.5,1.7,0.7,2.5c0.1,0.6,0.2,1,0.9,0.7c0.8-0.4,1.2,0.2,1.1,1c-0.1,0.8,0.2,1.5,0.3,2.2
	c0.2,1.2,0.4,1.2,1.5,0.6c0.2-0.1,0.4-0.3,0.7-0.1c0.3,1.7-0.1,3.5-0.1,5.2c0,0.7,0.1,1.2,0.8,1.3c0.7,0,0.7,0.7,0.6,1.4
	c-0.2,1.1-0.5,2.1-0.8,3.2c-0.5,2.3-0.4,2.4,1.5,2.2c0.3,0,0.6,0,0.8,0.3c0.1,0.3-0.1,0.7-0.3,1c-0.6,0.7-0.9,1.6-1.6,2.2
	c-1,0.9-1.5,2.2-1.8,3.6c-0.1,0.4-0.2,0.9,0.2,1.1c0.3,0.2,0.7,0,1-0.2c0.4-0.3,0.9-0.6,1.1-1.2c0.2-0.5,0.6-0.8,1.1-0.6
	c0.4,0.2,0.2,0.7,0.1,1.1c-0.2,0.9-0.3,1.7-0.3,2.6c0,1.7,0,1.7,1.5,1.3c1-0.3,1.2-0.1,0.9,1.1c-0.2,1-0.4,2-1.1,2.8
	c-0.6,0.8-0.7,1.7-0.9,2.6c-0.2,0.7-0.1,1.1,0.6,1.1c0.7-0.1,0.8,0.4,0.5,1.1c-0.5,1.5-1,3-1.6,4.5s-0.7,2.7,0,4s1.4,2.8,1.1,4.6
	c-0.2,1.7-0.1,3.4-0.8,5c-1.5,3.3-2.8,6.7-3.7,10.2c-0.7,3-1.1,6-0.8,8.9c0.1,0.6-0.1,1.1-0.4,1.6c-1,0.1-1.9,0.1-1.7-1.6
	c0-0.1-0.1-0.3-0.1-0.4c-1.4-4.6-4.5-6.7-8.3-7.6c-0.6-0.2-1,0.3-1.5,0.6c-1.1,0.7-2.1,1.6-3.2,2.1c-0.2-0.6-0.3-1.2-0.2-1.8
	c0.1-0.9-0.3-1.2-1.1-1c-0.9,0.2-1.8,0.3-2.6,0.6c-1.1,0.3-1.1,0.3-0.9-1.1c0.3-1.9,0.2-2.2-1.3-2.7c-0.8-0.3-1.6-0.6-2.3-1.3
	c1-1.5,1.5-2.9,1.5-4.7c0-2.4,1.3-4,3.3-4.9c0.9-0.4,1-0.6,0.5-1.5c-1.3-2.2-2.7-4.1-5-4.8c-1.2-0.4-1.1-0.5-0.8-2
	c0.1-0.4,0.3-0.9-0.1-1.2c-0.3-0.3-0.7-0.3-1.2,0c-0.6,0.4-1.3,0.8-2,1.1c-0.5,0.2-0.8-0.1-0.7-0.7c0-0.4,0.1-0.7,0.3-1.1
	c0.3-0.9,0.1-1.3-0.5-1.9c-1.1-1.1-2.5-1.5-3.9-2c-0.8-0.2-1.2-0.7-0.6-1.6c0.8-1.2,0.4-1.8-0.4-2.4c-1-0.8-1.9-1.8-2.7-2.7
	c0.4-0.8,0.9-0.8,1.3-1.1c0.8-0.5,1-1.1,0.5-1.9c-0.6-1-1.2-2.1-1.8-3.1c-0.3-0.5-0.6-0.9-0.6-1.5c0.1-0.1,0.2-0.3,0.3-0.3
	c1.7-0.5,1.7-0.5,2-2.7c0.1-0.4,0.1-0.7,0.2-1.1c0.4-0.9,0.7-2.1,1.8-2.5c0,1.5,0.6,2.4,1.6,3c0.6,0.4,1.2,0.3,1.6-0.4
	c0.5-0.8,0.8-1.7,0.5-2.6s-0.6-2-1.2-2.6c-2.3-2.4-4.2-5.4-7.4-6.2c-0.1,0-0.1-0.2-0.2-0.3c0-0.1,0-0.3,0.1-0.4
	c0.9-1.7,0.9-1.7-0.3-2.5c-0.7-0.5-1.1-1.3-1.8-1.7c-0.4-0.2-0.5-0.8-0.1-1.2c1-1.2,0.6-2.3,0.2-3.3s-0.7-2-0.9-3.1
	c-0.6-3.6-0.8-7.3-0.3-11.1c0.2-1.4-0.3-2.2-1-3.1c-0.2-0.3-0.7-0.1-0.7-0.7c0.2-0.3,0.4-0.4,0.6-0.4c1,0.3,1.2-0.4,1.5-1.4
	c0.5-1.8,0.5-3.4-0.1-4.9c-0.3-0.7-0.6-1.5-0.8-2.2c-0.1-0.3-0.3-0.6,0-1c0.3-0.3,0.6-0.2,0.8-0.1c1.4,0.7,2.8,1.7,3.1,3.7
	c0.2,1.7,0.9,3.2,0.6,5.1c-0.2,1.5,0.3,2.9,0.5,4.3c0.1,0.6,0.4,0.8,0.8,0.8c0.6-0.1,0.6-0.7,0.7-1.1c0.1-1.1,0.3-2.1,0-3.2
	c-0.1-0.3-0.1-0.8,0.3-0.9c0.3-0.1,0.6,0.1,0.7,0.5c0.2,1.3,0.6,2.5,0.6,3.8c-0.1,2.1-0.3,4.2,0.2,6.3c0.4,1.8,0.2,1.9,1.7,1.1
	s1.5-0.8,1.1,1.2c0,0.1,0,0.3,0,0.4l0,0c0.1,0.3,0.1,0.6,0.2,0.9c-0.1,0.2-0.1,0.5-0.2,0.7v0.2c0,0.2,0.1,0.4,0.1,0.5l-0.1,0.1
	C501.7,340,502.5,341.4,504.4,341.7z M512.7,352.6c1-1.5,2.1-3,2.7-4.8c0.4-1.3,0.8-2.6,0.1-3.6c-0.8-1.1-2-1-3.3-0.4
	c-1,0.5-2,1.2-2.5,2.5c-0.7,1.7-1.9,2.5-3.4,2.5c-0.9,0-1.9-0.1-2.8-0.1c-0.3,0-0.6,0-0.7,0.5c-0.1,0.3,0.1,0.5,0.3,0.7
	c0.9,1.1,1.9,2,3.1,2.7c1,0.6,2,1.1,3.1,1.7C510.6,354.5,511.7,354.1,512.7,352.6z M526.3,387.9c-0.1,2.4,0.7,4.1,1.9,5.7
	c0.3,0.4,0.6,0.5,1,0.7c1,0.4,1.6-0.1,1.5-1.5c-0.1-1.2-0.4-2.3-1.1-3.2c-0.2-0.3-0.5-0.6-0.3-1.1c0.3-0.5,0.7-0.5,1.1-0.4
	c0.5,0,1.1,0.8,1.6-0.2c0.4-1,0.7-2.1,0.2-3.1c-0.3-0.7-0.8-1.1-1.3-1.6c-0.7-0.8-0.7-1.2,0.2-1.9c0.7-0.5,1.4-0.9,1.2-1.9
	c-0.2-1.2-0.5-2.3-1.6-2.7c-0.9-0.3-1.6,0.2-2.3,1c-0.6,0.8-1.1,1.7-1.3,2.5C526.9,382.9,526.4,385.4,526.3,387.9z M524.8,368.3
	c0.3,0.3,0.5,0.8,1,0.4s0.9-1,0.9-1.8s-0.3-1.4-0.7-2c-0.4-0.7-0.7-1.5-0.9-2.4c-0.1-0.5,0-1,0.6-1c0.7,0,1.3-0.1,2-0.4
	c0.8-0.3,1.4-0.9,1.3-1.9c-0.2-1.9-0.5-3.7-1.9-4.8c-1.5-1.1-2.7-0.8-3.9,1c-0.3,0.4-0.5,0.9-0.7,1.3c-0.7,1.8-0.7,1.8-2.2,1.7
	C520.6,362.8,522.3,365.9,524.8,368.3z M512.5,383.2c0.1-0.3,0.1-0.6,0.1-0.8c-0.3-3.8-0.3-7.7-1.1-11.4c-0.4-2.1-1.5-3.9-2.5-5.6
	c-0.2-0.4-0.5-0.8-1-0.5c-0.4,0.3-0.2,0.8-0.2,1.2c0,1.2,0.2,2.4,0.2,3.6c0.1,1.9,0.1,3.8-0.1,5.7c-0.2,1.7,0,3.3,1.1,4.6
	c0.9,1,1.6,2.2,2.4,3.3c0.1,0.2,0.3,0.3,0.5,0.5C512.3,383.6,512.5,383.5,512.5,383.2z M512.7,360.1c-0.7,1.4-0.5,1.8,0.8,1.7
	c2.1-0.1,4-1.9,4.7-4.3c0.6-2.1,0.7-4.3,0.4-6.3c-0.1-0.6-0.2-1.2-0.9-1.5C516.1,353.4,514.4,356.8,512.7,360.1z M519.7,388.4
	c0-0.4,0-0.8-0.1-1.2c-0.5-2.7-1.4-5.2-2.2-7.7c-0.2-0.5-0.3-1.1-1-0.8c-0.6,0.2-0.7,0.8-0.7,1.4c0,1.1,0,2.3,0,3.4
	c0.1,1.9,0,3.8-0.1,5.7c-0.1,1.5,0.2,2,1.2,2.3C518.1,391.8,519.6,390.1,519.7,388.4z M524.3,380.4c0-0.3-0.1-0.5-0.3-0.7
	c-1.1-1.7-2.4-3.1-3.9-4.4c-0.6-0.5-1.1,0-1.2,0.9c-0.1,0.6-0.1,1.2,0.1,1.6c1.3,2.4,1.6,5.4,2.7,7.9c0.1,0.3,0.2,0.7,0.4,0.9
	c0.6,0.7,1.4,0.3,1.8-1.1C524,384.1,524.2,382.2,524.3,380.4z M523.2,353.4c1.4-1.2,2.7-2.5,4.5-2.3c0.5,0.1,0.8-0.3,0.7-0.9
	c-0.6-2.3-1.8-4-3.4-5.4c-0.4-0.4-1-0.3-1.2,0.3c-1.2,3.1-2.4,6.2-2.4,9.5C522.3,354.7,522.7,353.8,523.2,353.4z M522,370.3
	c-0.1-1.1-0.6-1.7-0.9-2.2c-1.1-1.4-1.8-3-2.2-4.9c-0.3-1.2-0.4-1.3-1.3-0.5c-1.3,1-2.6,1.6-4.3,2.3
	C515.5,368.3,518.5,369.6,522,370.3z M510.2,340.5c0.1,0.8,0.5,1,1.1,0.6c0.9-0.5,1.8-1,2.7-1.6c0.6-0.3,0.8-1,0.5-1.4
	c-1.4-2.1-2.7-4.5-5.2-5.3C509.7,335.5,510,338,510.2,340.5z M519.3,400.4c-0.3-2.2,0-4.3,0.3-6.6c0-0.3,0.1-0.6,0.1-0.9
	s0-0.6-0.3-0.7s-0.4,0.1-0.6,0.3c-1.2,1.3-1.4,3-1.3,4.6c0.2,1.7,0.5,3.4,0.9,5.2C519.4,401.8,519.4,401.1,519.3,400.4z
	 M521.5,399.3c0,0.7,0.3,1.1,0.7,1.6c0.7,0.7,1.6,1.2,2.7,1.9c0.2-3.9-2-5.8-3-8.6C521.4,396,521.5,397.7,521.5,399.3z M505.8,373.5
	c-0.1-0.8-0.4-1.4-0.8-2c-0.4-0.5-0.8-0.7-1.4-0.4c-0.6,0.3-0.7,1-0.7,1.7c0,1.3,0.4,2.3,0.9,3.2c0.4,0.7,0.8,1.2,1.4,2.1
	C505.9,376.3,506,374.9,505.8,373.5z M524.8,377.6c0.9-0.8,1.3-1.8,1.7-2.8c0.5-1.1,0.4-1.5-0.5-1.6c-1.3-0.1-2.6-0.3-4.1-0.1
	C522.5,375.2,524,376,524.8,377.6z M525.6,394.9c-0.8-1.2-0.9-2.7-1.1-4.2c-0.1-0.5-0.2-1-0.4-1.3c-0.3-0.5-0.8-0.5-1.2-0.1
	s-0.2,0.8-0.1,1.1c0.8,2,1.6,3.9,2.4,5.9C525.8,395.8,525.9,395.3,525.6,394.9z"/>
<path class="st0" d="M762.8,409.7c-1.1-2.5-2.6-4.7-3.5-7.1c-0.1-0.3-0.3-0.6-0.3-0.9c-0.1-0.6,0.1-1,0.9-0.7c1.3,0.6,1.2,0,1.1-0.8
	c-0.4-3-0.8-5.9-1.1-8.9c-0.2-1.9-0.4-3.8,0-5.6c0.4-1.8,0.6-1.8,2.4-0.4c0.3-0.1,0.5-0.3,0.6-0.6c1-2.8,2.6-5.3,4.5-7.5
	c1.4-1.7,2.6-3.5,3.5-5.6c0.5-1.1,0.8-1.1,1.8-0.1c0.6,0.7,1.2,1.3,2,0.7c3.1-2.1,6.4-4,8.1-7.4c0.6-1.2,1.2-2.4,0.8-3.9
	c-0.1-0.3-0.1-0.5,0.2-0.6s0.6,0,1,0.2c0.8,0.6,1.3,1.4,1.5,2.2c1.6,5,3.3,10,3.9,15c0.4,3.1,1,6.2,1,9.2c0.2,6.3-1.1,12.2-3.6,17.7
	c-1.4,3-2.9,5.9-5.1,8.4c-1,1.1-2.1,2.1-3.2,3.2c-2,1.8-4.1,3.5-6.1,5.3c-0.7,0.7-1.3,1.5-1.8,2.3c-0.3,0.5-0.7,1-1.1,1.6
	c-0.2,0.3-0.4,0.5-0.8,0.4c-0.4-0.1-0.6-0.4-0.6-0.7c-0.7-3.4-2.5-6.6-4.1-9.8c-0.8-1.5-1.9-2.9-3.1-4.2c-0.3-0.3-0.7-0.7-0.6-1
	c0.2-0.5,0.8-0.2,1.2-0.2C762.4,409.8,762.5,409.8,762.8,409.7z M769,387.1c-0.3,0.7-0.6,1.1-0.8,1.7c-0.3,1.2,0.3,1.9,1.8,1.9
	c0.3,0,0.7,0,1-0.1c3.1-0.3,5.5-1.7,7.7-3.3c0.8-0.5,1.5-1.3,1.9-2.2c0.3-0.6,0.5-1.3-0.2-2.1c-1.2-1.2-4.4-1.8-5.7-1.2
	C772.2,383.1,770.7,385.2,769,387.1z M764.5,404.5c0.8,0.4,1.7,0.8,2.6,1c1.3,0.3,1.4,0.2,1.5-0.9c0.4-3.7-0.6-7.4-2.2-11.2
	c-0.6-1.4-1.5-2-2.6-2c-1,0-1.4,0.6-1.6,2c-0.3,2.1,0,4.2,0.4,6.4c0.2,1.1,0.3,2.2,0.8,3.3C763.6,403.7,763.9,404.2,764.5,404.5z
	 M773.7,394.4c-0.9-0.6-1.8-0.6-2.7-0.2c-1,0.4-1.7,1.1-1.5,2.2c0.5,2.3,1.2,4.7,1.2,7c0,0.8,0.6,1.5,1.5,1.8
	c0.8,0.3,1.7-0.1,2.1-0.8c0.2-0.4,0.3-0.9,0.4-1.3c0.4-2.2,0.3-4.4,0.4-6.6C775.2,395.6,774.5,395,773.7,394.4z M775.5,377.4
	c0.5,0.5,1.2,0.4,1.7-0.1c0.8-0.6,1.6-1.3,2.2-2c1.2-1.3,2.1-2.8,2.8-4.3c0.2-0.4,0.4-1-0.3-1.3c-0.6-0.3-1.1,0-1.3,0.4
	c-0.5,0.9-1.5,1.3-2.3,1.9c-1.1,0.8-2.4,1.4-3.5,2.2C773.7,375.1,773.9,376.2,775.5,377.4z M771.7,380.5c0.6-0.8,0.3-1.3-0.9-1.5
	c-1.3-0.3-2.5-0.1-3.1,0.8c-1.3,1.8-2.3,3.7-3.2,5.7c-0.2,0.5-0.2,1,0.4,1.3c0.5,0.3,0.8-0.1,1.1-0.4c0.1-0.1,0.2-0.3,0.3-0.4
	c0.7-1.4,1.9-2.4,3.2-3.4C770.4,381.9,771,381.2,771.7,380.5z M784.1,378.1c0.5-1.8,0.7-3.9,1-6c0-0.2-0.1-0.5-0.4-0.6
	c-0.2,0-0.4,0-0.5,0.1c-0.2,0.1-0.3,0.4-0.4,0.6c-1.1,2-2.6,3.6-4.3,5.1c-0.3,0.2-0.5,0.5-0.7,0.8s0,0.6,0.4,0.8
	C780.5,379.7,783.4,379.4,784.1,378.1z M767.8,409.5c-0.4-0.2-0.9-0.4-1.4-0.1c-0.3,0.2-0.3,0.6-0.2,1s0.3,0.7,0.4,1.1
	c0.2,0.6,0.2,1.6,1.1,1.7c0.9,0.1,0.7-0.9,0.8-1.5c0.1-0.3,0.1-0.7,0-1.1C768.5,410.2,768.3,409.9,767.8,409.5z"/>
<path class="st0" d="M185.5,433.6c0.2,0.1,0.4,0.2,0.5,0.3c1.4,0.9,2.7,1.9,4.1,2.8l-0.1-0.1c1,0.9,2,1.8,3.1,2.6l0,0
	c0.4,0.6,0.8,1.2,1.4,1.7v-0.1c0,0.4,0.3,0.7,0.7,1v-0.1c0.1,0.3,0.4,0.6,0.8,0.7v-0.1c0.1,0.8,0.7,1.4,1.4,2v-0.1
	c0.4,0.7,0.7,1.4,1.1,2.2c1.8,4.1,3.2,8.3,2.9,12.6c-0.2,3.6,0.5,7.2,2.2,10.7c0.9,1.8,1.9,3.6,3,5.3c1.5,2.4,1.8,4.8,0.9,7.1
	c-0.1,0.4-0.2,0.9-1,0.7c-0.5-0.1-0.7-0.6-0.7-0.9c0-1.6-1.2-2.9-2.1-4.3c-0.6-0.9-1.3-1.5-2.5-1.5c-0.9,0-1.5-0.3-1.4-1.2
	c0.1-0.7-0.3-1.2-1-1.7c-3.3-2.3-6.5-4.7-9.9-6.9c-7.7-5-14.9-10.5-21.8-16.3c-0.2-0.1-0.4-0.3-0.5-0.4c-0.6-0.6-1.1-0.8-1.6-0.1
	c-0.3,0.4-0.4,1.1-1.2,0.7c-0.6-0.3-0.7-0.8-0.6-1.4c0-0.4-0.1-0.9-0.2-1.3c-0.3-0.8-0.6-1.6-1.8-1.9c-1.4-0.4-1.6-1.1-1.1-2.1
	c0.2-0.4,0.3-0.9,0-1.5c-2-3.2-3.6-6.6-6.7-9.4c-0.3-0.3-0.6-0.6-1.2-0.7c-1,0.9,0.1,2.5-1.2,3.4c-1.4-1.1-0.6-2.5-1.5-3.6l-0.1-0.2
	c-0.1-0.1-0.1-0.2-0.2-0.3c0-0.1-0.1-0.1-0.1-0.2c-0.1-0.1-0.1-0.2-0.2-0.3c0-0.1-0.1-0.1-0.1-0.2s-0.1-0.2-0.1-0.2
	c-0.1-0.1-0.2-0.3-0.3-0.4l-0.1-0.2c0-0.1-0.1-0.1-0.1-0.2c-0.1-0.1-0.3-0.3-0.4-0.4c-1.5-1.9-3.5-2.6-6-2.6c-0.3,0-0.6-0.1-0.8-0.1
	c-1.8-0.4-2.2-0.7-1.5-1.6c2.3-2.5,5-4.4,9.3-4.3c1.3,0,1.4-0.2,0.6-1.2c-0.3-0.4-1.2-0.7-0.7-1.2c0.4-0.5,1.1,0,1.7,0.1
	c0.2,0.1,0.4,0.2,0.6,0.3c2.4,0.9,2.5,0.9,2.3-1.2c0-0.2,0-0.4,0-0.6c0-1.8,0.6-1.9,2.6-0.9c0.2,0.3,0.4,0.5,0.7,0.8
	c-0.1,0.3,0,0.6,0.2,0.9c1,1.8,2.6,3.2,4.6,4.2c0.9,0.4,1.7,1.3,2.7,1.1c0.9-0.2,0.3-1.2,0.5-1.8c0.3-0.6,0.4-1.2,1.5-0.6v-0.1
	c0.1,0.1,0.1,0.3,0.2,0.4c0,0.2,0.1,0.5,0.1,0.7l0,0c0.2,0.2,0.5,0.3,0.7,0.5c-0.2,0.5,0.1,0.9,0.5,1.3v-0.1
	c0.2,0.4,0.3,0.8,0.6,1.1c2.2,2.2,4.8,4.1,8.1,5.1C179.3,430.8,182.6,431.8,185.5,433.6z M174.7,452.8c-0.7-0.9-1.5-1.7-2.2-2.6
	c-3.4-4.2-6.6-8.5-8.6-13.2c-0.9-2.2-2.3-4.2-4-6.1c-0.3-0.4-0.7-0.9-1.3-0.7c-0.7,0.2-0.7,0.8-0.5,1.2c0.3,0.7,0.7,1.5,1.1,2.2
	c1.8,2.9,3.5,5.8,5.4,8.6C167.2,446.2,170.5,449.8,174.7,452.8C174.7,452.8,174.7,452.9,174.7,452.8c0,0.1-0.1,0.1-0.1,0
	C174.5,452.6,174.4,452.9,174.7,452.8z M187.6,459.3c-1.3-3-1.1-5.9-0.9-8.7c0.2-2.4-0.1-4.8-0.8-7.2c-0.6-2.3-1.8-4.4-3.4-6.5
	c-0.6-0.7-1.2-1.1-2.1-1c-1,0-1.2,0.7-1.4,1.4c-0.2,0.8,0.1,1.6,0.4,2.4c0.7,2,1.4,4,1.7,6c0.4,2.7,0.8,5.4,1.9,8.1
	C183.9,456,185.5,457.8,187.6,459.3z M181.4,455.2c0.2-0.4-0.1-0.7-0.3-0.9c-1.6-2.4-2.5-4.8-2.9-7.4c-0.6-4.7-2.2-9.2-5.1-13.5
	c-0.2-0.3-0.3-0.6-0.6-0.9c-0.8-0.8-1.6-0.8-2.1,0c-0.6,0.9-0.5,1.9-0.1,2.9c1.9,4.5,3.7,9,5.7,13.5
	C177.1,451.4,178.8,453.6,181.4,455.2z M193,463c0.6-0.3,0.6-0.7,0.6-1.1c-0.1-1.8,0.3-3.6,0.6-5.4c0.8-4.8-1.4-9.4-4.3-13.8
	c-0.2-0.3-0.4-0.6-0.8-0.7c-0.3,0.9-0.4,0.9-0.2,1.3c1,2.8,1.2,5.5,0.5,8.2c-0.3,1.1-0.4,2.2,0,3.3c0.6,2,1.3,4,2.2,6
	C191.8,461.6,192.2,462.4,193,463z M198,457.2c-1.6,4.2-0.5,11.5,1.9,13.3C199.8,468.5,198.4,457.9,198,457.2z M162.6,429.8
	c1,2.8,4.9,9.2,6.3,10.2c-0.5-3.3-2.5-6-4.3-8.7C164.2,430.7,163.8,430,162.6,429.8z"/>
<path class="st0" d="M326.4,445.5c0.1-0.2,0.2-0.4,0.2-0.6c0.1-0.1,0.1-0.3,0.1-0.4c0.1-0.3,0.2-0.6,0.2-1c0-0.2,0-0.4,0-0.5
	s0.1-0.2,0.1-0.4c0.1-0.4,0.2-0.8,0.3-1.2v-0.1c0-0.2,0-0.4,0-0.6c0.1-0.5,0.1-1.1,0.2-1.6l0.1-0.2l0.1,0.1
	c-0.2-1.6-0.3-3.1-0.5-4.7c0.2-2.1-0.5-3.5-1.8-4.7c-0.3-0.3-0.7-0.3-1.1,0.1c-0.3,0.3-0.3,0.6-0.2,0.9c0.4,0.8,0.7,1.6,0,2.6
	c-0.2,0.2-0.5,0.3-0.7,0.5c-2.8-0.5-4.9-2-6.6-4.1c0-0.1-0.1-0.3-0.2-0.4c-0.8-3-0.4-6.1,0.6-9.3c0.9-2.7,1.8-5.5,2.8-8.2
	c0.3-0.8,0.9-1.6,1.4-2.3c0.4-0.6,1.2-1,1.6-0.5c1.6,2,4.1,2,6.3,2.4c0.9,0.2,1.4,0.6,1.5,1.7c0.1,1.6,1.2,2.5,2.1,3.6
	c1.2,1.3,3.1,1.6,4,3c-0.1,1.2-2.7,1.6-1.2,2.9c2,1.9,3.5,4.3,5.9,5.7c0.9,0.5,2,0.9,1.2,2.8c-0.5,1.1,0.3,1.9,1.1,2.4
	c1,0.7,2,1.3,2.9,2.1c0.6,0.5,0.8,1.4-0.4,2c-1.7,0.9-1.1,1.7-0.3,2.3c1.7,1.4,3.6,2.5,5.6,3.5c2.2,1.1,4.8,1.5,7.2,2.1
	c0.8,0.2,1.6,0.7,0.7,1.7c-1.7,1.8-0.5,2.2,0.4,2.7c1.2,0.7,2.5,1.2,3.7,1.9c6.7,3.4,10.8,10.2,17.3,13.8c0.4,0.2,0.7,0.8,0.2,1.3
	c-2,2.5-0.7,4.2,0,6v-0.1c0.1,1.2,0.1,2.6,1,3.4V476c0,2.5,2.9,2.9,3,5.7c-2.5-0.3-4.8-0.7-6.9,1.8h0.1c-1.4,0.5-2.5,0.5-2.8-1.2
	v0.1c0-0.3,0.1-0.6,0.1-1c0.1-2.7,0.1-2.8-2.4-2.5c-1,0.1-1.4-0.2-1.8-0.9c0-0.2,0-0.3-0.1-0.5c0.1-0.9,0.1-1.7-0.8-2
	c-1.9,2.8-1.9,2.8-4,0.9c-0.1-0.1-0.1-0.1-0.2-0.2c-1-0.7-2-1.4-3.1,0.7c-0.5,1-1.4,1-2.1,0.6c-0.9-0.6-1.7-1.4-2.6-2
	c-0.6-0.4-1.1-0.4-1.8,0.4c-1.9,2.5-1.9,2.5-3.6,0.6c-0.3-0.3-0.6-0.7-1-1c-0.5-0.4-1.1-0.5-1.6,0.1c-1.4,1.7-2.3,0.9-3.2,0
	c-0.8-0.8-1.7-1.6-2.4-2.6c-0.5-0.9-1.4-1.9-2.5-1.5c-2.3,0.9-3.2-0.5-4.3-1.8c-0.7-0.8-1.4-1.7-2-2.6c-0.5-0.7-1.1-1.3-2.1-1.1
	c-2.3,0.6-2.9-0.8-3-2.7c0-0.8-0.2-1.6-0.2-2.5c-0.1-1.3-0.2-2.5-2.1-1.7c-0.9,0.4-1.4-0.4-1.8-1c0-0.3,0-0.7,0-1
	c0.2-0.4,0.4-0.8,0.5-1.2c0.1-1.3,0.4-2.8,0.2-4c-0.3-1.2-2,0.1-2.7-0.6c-0.1-0.1-0.3-0.2-0.4-0.3c0-0.3,0-0.6,0.1-0.9
	c0.1-0.4,0.3-0.7,0.4-1.1c0.1-0.2,0.2-0.5,0.3-0.7c0.3-0.6,0.6-1.3,0.9-1.9l-0.1,0.1C326.3,446.2,326.4,445.8,326.4,445.5z
	 M356.6,470.3c-0.8-6.5-1.2-6.8-6.9-4.9c-0.5,0.2-1.1,0.2-1.3,0.8c-0.3,0.7,0.1,1.2,0.5,1.5C351,469.5,353.4,470.4,356.6,470.3z
	 M332.6,446.6c1.8-1.1,2.9-2.6,3.9-4.1c0.4-0.6,0.6-1.2,0.4-1.8c-0.4-1.8-1.1-3.5-2.1-5.1C333.5,438.5,332.6,442.8,332.6,446.6z
	 M337.8,459c1.5,1.3,2.4,1.1,3.5-1c1.6-3.1,1.1-4.1-1.9-3.7c-1.2,0.2-2.7,0.2-3.2,1.6c-0.4,1.1,0.5,2,1.2,2.7
	C337.5,458.8,337.6,458.9,337.8,459z M361.7,465.6c0.7,4.2,3.1,5.8,6.4,4.2c1.1-0.5,1.3-1.3,0.6-1.9
	C366.7,466.4,364.4,465.6,361.7,465.6z M349.9,457c-1.9-1.4-2.5-1.2-3.6,0.9c-0.4,0.8-1.6,1.7-1.1,2.6s1.8,0.2,2.7,0.1
	c0.7-0.1,1.4-0.4,2.1-0.6c1-0.4,1.3-1.1,0.8-2C350.5,457.6,350.1,457.3,349.9,457z M340.1,445.9c-0.2-0.1-0.4-0.2-0.5-0.2
	c-0.8,0.1-1.3,0.8-1.7,1.4c-0.5,0.8-1.4,1.5-1.2,2.6c0,0.2,0.2,0.3,0.4,0.4c0.6,0.3,3.4-0.7,4-1.3c0.3-0.4,0.6-0.8,0.4-1.1
	C341,447,340.5,446.5,340.1,445.9z"/>
<path class="st0" d="M306.7,447.8c1.1-1.7,2.1-3.3,4.4-3.7c2.5-0.4,3,1.3,3.8,2.6c0.8,1.1-0.1,2.4-1.1,3.6c-2.7,3.1-6.1,4.2-9.2,3.4
	c-3.6-1-7.6-0.3-11.4-0.5c-3.9-0.1-8,1-12,2c-2.1,0.5-3.6,0.4-5-0.9c0.6-1.5,2.2-1.4,3.2-2.1c0.5,0.1,1,0.1,1.6-0.3h-0.1
	c1.7-0.3,3.3-0.8,4.9-1.6c-0.4-1.2-1.4-0.8-2.2-0.7c-2.4,0.5-4.7,1.1-7.1,1.6c-3.2,0.7-6.3,1.3-9.1,0.1c0.1-0.6,0.3-1.1,0.4-1.7
	c0.5-0.4,1.2-0.2,1.7-1c-0.9-1-2.3-1.4-3.5-1.9c-4.6-1.8-8.6-4.3-11.8-7.8c-1.7-1.8-3.8-3.2-6-4.5c-0.6-0.4-1.2-1-2.3-0.2h0.1
	c-0.3-0.5-0.7-0.8-1.4-0.6l0.1,0.1c0.2-0.6-0.3-0.6-0.7-0.6h0.1c-0.3,0-0.5-0.1-0.8-0.1c-0.5,0.1-1,0.2-1.5,0.2
	c-0.1-0.7-0.6-0.5-1.2-0.4c-0.8-0.9-2.4-1.9-1.5-3.3c1-1.5,2.6-0.5,4-0.4c0.2,0,0.4,0,0.6,0c3-0.1,4,0.6,3.9-3.6
	c-0.1-2,0.3-4.1,0.9-6.2c0.9-3.5,0.3-6.5-0.4-9.5c-0.3-1.2-1.4-1.9-2.1-2.9c-0.2-0.3-0.7-0.7-0.2-1.2c0.6-0.6,1.1-0.2,1.4,0.2
	c1.3,1.8,3.3,2.8,4.6,4.5c0.8,1,1.8,1.2,3.3,0.5c1.4-0.7,1.8-1.9,1.8-3c0-2.7,0.4-5.5-1.8-7.2c0.7-0.9,1.3-0.8,1.9-0.4
	c2.8,1.8,3.6,4.8,3.6,8.2c0,2.3-0.4,4.6-0.2,6.9c0.4,4.1,3.2,5.8,6.6,6.9c2,0.7,4.4,0.8,6.6,1.1c2.4,0.3,3.1-0.3,3.3-2.6
	c0-0.2,0-0.4,0-0.5c0-0.8,0-1.6,1.1-1.9c1-0.2,1.1,0.5,1.1,1.3c0.1,2.1,1.6,3.1,3.4,3.9c0.8,0.4,1.8,0.4,2.5,0.9
	c0.8,0.6,1.5,1.2,0.9,2.5s-0.1,2,0.7,2.6c2.1,1.6,3.7,3.7,5.9,5.3c0.8,0.6,1.3,1.6,2,2.3c1.1,1.1,1.6,0.9,2.6-0.7
	c0.2-0.3,0.3-0.5,0.4-0.8c0.3-0.5,0.6-0.9,1.2-1c0.7-0.1,0.9,0.5,1,1c0.3,2.6,1.3,4.7,3.1,6.4c0.5,0.4,0.8,1.2,0.8,1.9
	c0,1.8,0.8,3.1,1.9,4.2c-0.1,1.3,0.6,2,1.8,2.2c1.6,0.2,3.3,0,4.9-1c0.9-0.6,1.1-2,0.4-2.7s-1.2-0.4-2.1,0.6
	C309,449.1,308.2,449.1,306.7,447.8z M289.8,441.4c0-0.6,0.1-0.9,0-1.1c-1.5-3.6-4.7-5.3-8-7c-0.8-0.4-1.7-0.1-2.5,0.5
	c-1.1,0.8-1.9,1.8-2.6,2.8c-0.9,1.4-0.8,2,0.5,2.4C281.1,440.3,285.6,440.2,289.8,441.4z M261.1,427.6c1.3,3,2.3,4.2,5,6.1
	c4.2,2.9,3.3,1.9,6.2-1.8c0.8-1.1,0.4-1.6-0.5-1.8c-2.4-0.6-4.8-1.2-7.1-1.9C263.6,427.8,262.6,427.5,261.1,427.6z"/>
<path class="st0" d="M79.6,443.9c-0.1,1.3-0.1,2.6-0.2,3.9c0,0.6,0,1.2-0.6,1.5s-1-0.3-1.4-0.8c-0.3-0.4-0.4-1-0.5-1.6
	c-0.7-3.1-2.3-5.4-4-7.8c-0.4-0.6-0.9-0.9-1.5-0.7c-0.7,0.2-0.7,1-0.7,1.7c-0.1,1.1-0.1,2.1-0.2,3.2c-0.2,1.2-0.9,1.5-1.6,0.7
	c-0.3-0.3-0.4-0.7-0.6-1.1c-1.2-3.3-2.7-6.4-4.5-9.1c-2.1-3.2-3.9-6.7-6.5-9.2c-1.6-1.5-3-3.3-4.3-5.3c-1.5-2.3-3.7-2.7-5.8-3.7
	c-3.2-1.5-3.2-1.5-5.4,1.7l0,0c-0.2,0-0.4,0.1-0.6,0.1c-3.4-1.4-6.6-3.6-9.8-5.5c-0.7-0.4-0.9-1.1-1.1-1.9c3.7-0.7,6.9-3.1,10.4-4.4
	c4.6-1.6,8.7-4.7,13.1-6.8c1.6-0.8,3.3-1.2,5-1.5c1-0.2,2-0.2,3.1-0.6c1.6-0.7,2,0,1.6,2.2c-0.4,2.4-0.5,2.5,1.3,2.9
	c5.2,1,10.2,3,15.2,5c4.7,1.9,8.7,5.3,12.5,9c3,2.9,6.2,5.5,9.8,7.4c2.3,1.2,4.6,1.9,7.1,1.3c0.7,0,1.5,0.3,2.1-0.7l-0.1,0.1
	c0.9,0.7,1.7,0.3,2.4-0.7l-0.1,0.1c0.7-0.1,1.3-0.2,2-0.2c1.5-0.1,1.7,0.4,1,2c-1.1,2.4-2.9,3.9-4.5,5.4c-1.3,1.2-2.7,2.2-3.8,3.8
	l0.1-0.1c-0.7,0.4-1.4,0.7-2.1,1.1c-7.3,4.5-15,6.7-23,6.3c-1.2-0.1-2.4,0-3.5,1C79.3,442.8,79.2,443.3,79.6,443.9z M55.2,414.3
	c3.3,3.9,6.5,6.9,9.6,9.9c3.3,3.2,4.6,3.1,8-0.4c0.1-0.2,0.3-0.3,0.4-0.5c0.7-0.7,1.4-1.3,1.1-2.6c-0.3-1.3-1.3-1.2-2.1-1.2
	c-3.2,0-6.1-1.1-9-2.5C60.9,416,58.4,414.9,55.2,414.3z M57.1,406.9c0.1,1.2,0.6,1.4,1,1.6c3.2,1.5,6.3,3.1,9.5,4.3
	c2.1,0.8,4.4,1.2,6.6,1.6c0.6,0.1,1.4,0.2,1.7-0.8c0.3-1.1-0.3-1.8-1.1-2.1c-2.2-1-4.4-2-6.6-2.9C64.7,407.1,60.9,407.3,57.1,406.9z
	 M92.4,424c-0.1-0.9-0.3-2.1-1.3-2.8c-1.4-1.1-2.8-2.2-4.3-3.3c-1-0.8-1.8-0.5-2.3,0.9c-0.2,0.5-0.5,1-0.7,1.5
	c-0.8,1.5-0.7,2.7,0.6,3.5c1.7,1.1,3.5,2.2,5.3,3.1C91.1,427.6,92.2,426.4,92.4,424z M85.6,432.2c-1.1-1.9-2.8-1.7-4-2.7
	c-1.3-1.1-2.4-0.5-3.5,0.9c-1.3,1.6-1.3,2.7,0.4,3.6C81,435.4,83.2,433.8,85.6,432.2z M88.9,435.9c2.3,1.1,4.5,0.2,6.6-0.6
	c0.4-0.1,0.6-0.6,0.5-1.1c-0.1-0.3-0.3-0.6-0.5-0.7C93.1,431.7,91.4,432.4,88.9,435.9z M103.3,429.6c-2-1.1-3.5-2.1-5-2.8
	c-0.9-0.5-2.2,0.4-2.5,1.7c-0.3,1.3,0.6,1.6,1.3,1.8C99,430.9,100.9,430.8,103.3,429.6z"/>
<path class="st0" d="M702.2,425.5c0.3-0.1,0.5-0.2,0.8-0.3c0.4-0.2,0.9-0.7,1.2,0c0.3,0.6,0.3,1.2-0.3,1.7c-0.4,0.3-0.8,0.7-0.7,1.5
	c1.1,0.8,2.3,0.8,3.6,0.3c3.3,0.2,6.8-0.4,9.8,1.5c-0.3,1.1-0.9,1.5-1.4,2.1c-0.2,0.2-0.3,0.4-0.5,0.6c-0.6,1.3,0.4,1.5,0.9,1.7
	c1.2,0.7,2.5,1.3,3.6,2.3c0.6,1.2,1.9,1.9,2,3.8c-1.3,0.2-2.3-0.4-3.3-0.6c-3.1-0.8-6.2-0.2-9.3,1.4c-2,1.1-2.3,1.8-1.8,4.2
	c0.9,3.6,0.9,3.6-2.4,3.6c-0.6,0-1.1,0-1.7,0.1c-2.1,0-2.2,0-2.4,2.6c-0.1,1-0.6,1.1-1.1,1.2c-0.8,0.1-1.7-0.1-2.5,0
	c-1.5,0.2-2.1,0.8-1.9,2.6c0.1,1.8-0.4,2.3-1.8,2.6c-1.4,0.2-2.7,0.6-4.1,0.1c-1.7-0.6-3.5-0.6-5.5,0.2c-4.3,1.7-8.7,1.8-13,1.3
	c-3.4-0.4-6.7-0.8-10.1-1.3c-1.3-0.2-2,0.4-2.1,2c0,0.5-0.1,0.9-0.2,1.4c-0.3,1.3-1,1.4-1.7,0.8c-0.6-0.5-1.3-1-1.5-1.7
	c-1-2.8-3.1-2.4-5.2-2.2c-0.5,0.1-1.1,0.4-1.6,0.6c-0.4,0.1-0.6-0.4-0.7-0.7c-0.1-0.3-0.1-0.7,0.2-0.9c2.3-1.8,4-4.5,6.2-6.6
	c1.5-1.4,2.9-2.9,4.4-4.2c1.9-1.7,3.4-3.7,4-6.4c0.4-1.6,1.4-2.3,2.3-2c2.2,0.7,3.5-0.9,4.9-2.6c0.4-0.5,0.8-1,1.2-1.6
	c0.8-1.1,1.6-1.4,2.2,0c0.7,1.7,1.7,1.8,3.2,0.9c5.3-3.1,10.5-6.8,16.4-7.9c0.5-0.1,1.1-0.2,1.5-0.9c1.3,0.4,2.4-0.5,3.6-1h-0.1
	C699,425.8,700.6,425.8,702.2,425.5z M689.4,448c0.5,0.5,1.1,0.2,1.7-0.3c1.6-1.3,3.3-2.5,4.9-3.9c0.6-0.4,1.2-1.1,0.9-1.9
	c-0.2-0.7-0.9-0.5-1.5-0.5c-0.4,0-0.7,0.1-1.1,0.2c-5.4,1.5-10.6,3.6-15.8,6.3c-0.8,0.4-1.6,0.7-2.2,1.6c-1,1.4-0.8,3,0.3,4.1
	c1.2,1.2,1.8-0.1,2.4-1.3c0.2-0.4,0.4-0.8,0.7-1.2c0.8-1.1,1.6-1.3,2.5-0.5c0.3,0.3,0.6,0.7,1,1.1c0.9,1,1.6,0.5,2.3-0.7
	c0.3-0.5,0.4-1.1,0.7-1.6C687.1,447,687.1,447,689.4,448z M699.3,435.8c-0.3-1.3-0.8-1.3-1.2-1.4c-2.9-0.4-5.9,0.1-8.8,0.3
	c-0.9,0.1-1.8,0.8-2.3,1.9c-0.5,1.2-0.4,3-1.6,3.5c-1.5,0.7-1.8-1.2-2.7-2.1c-0.8-0.8-1.5-0.8-1.9,0.6c-0.7,2-1.3,4-1.3,6.5
	C686.1,441.4,692.5,437.9,699.3,435.8z M674.6,446.2c0.8,0,1.4,0,2-0.1c0.6,0,1.1-0.3,1.4-1c0.3-0.7-0.1-1.3-0.4-1.7
	c-0.7-0.8-1.4-1.5-2.2-2.2s-1.7-0.7-2.5,0.4s-0.8,2.4-0.1,3.3C673.4,445.5,674.1,445.8,674.6,446.2z"/>
<path class="st0" d="M820.5,427.3c-1.9,0.8-3.9,0.6-5.7-0.1c-1.1-0.4-2.2-0.5-3.4-0.6c-3.8-0.1-7.6-0.3-11.4-0.4
	c-0.7,0-1.3-0.2-2-0.4c-2.5-0.6-4.9-0.8-7.4,0.3c-1.9,0.8-4.1,1-5.8,2.2c-1.3,0.9-2.5,1.8-3.7,2.8c-0.6,0.5-1.3,0.8-2.1,0.5
	s-0.7-0.9-0.7-1.5c0-2,0.9-4,2.2-5.6c1.6-2,3.3-4,6.2-5.1c1.4-0.6,2.7-1.4,4-2.1c2-1,4.4-1.5,6-3c0.7-0.7,1.4-0.3,1.4,0.7
	s0.7,1.3,1.7,1.4c3.3,0.5,5.9-0.4,7.8-2.8c0.6,0.8,0.4,1.3,0,2c-0.3,0.5,0,0.9,0.7,0.9c2,0.1,3.9,0,5.3-1.5c0.6-0.7,1.4-1.3,2.2-1.7
	c0.2,0.1,0.4,0.2,0.5,0.2c1.3,1.8,2,1.9,4.2,1c2-0.8,3.6-1.9,4.5-3.6c0.1-0.2,0.3-0.4,0.6-0.5c1.6,1.2,1.5,1.1,3.1-0.2
	c2-1.6,3.9-3.4,5.6-5.2c1.4-1.5,2.5-3.1,3.8-4.6c0.2-0.3,0.3-0.7,1.1-0.8c0.1,1.2,0.3,2.4,0.4,3.6c0.1,0.7,0.1,1.2,1.3,1.2
	c0.8,0,0.9,0.6,0.9,1.1c-0.1,1.9,0.1,3.9-1.9,5.3c-0.2,0.2-0.6,0.3-0.6,0.5c-0.2,1.9-2.1,3.3-2.2,5.2c-0.1,1.2-1,1.9-2.4,2.1
	s-2.2,0.9-3.2,1.6c-3.2,2.3-6.7,4.3-11.1,5c-0.1,0-0.2,0-0.2,0c-0.7,0.2-1.8,0.1-1.8,0.9s1.1,0.7,1.8,0.9
	C820.3,427,820.3,427.1,820.5,427.3z M823.5,418.7c-3.6,0.3-7.3,0.6-11,0.9c-0.3,0-0.6,0.1-0.9,0.2c-1.1,0.4-1.4,1.2-0.6,2
	c1,0.9,1.9,1.8,3.1,2.6c1,0.7,1.9,0.7,3,0.4c2.7-0.8,5.1-2.1,7.6-3.2c1-0.5,2.7-0.9,2.3-1.9C826.6,418.7,824.8,418.9,823.5,418.7z
	 M785.4,424.6c0.2,0.1,0.3,0.2,0.3,0.2c0.2,0,0.5,0,0.7-0.1c6.2-1.6,12.5-2,18.9-1.1c0.2,0,0.5,0.1,0.7,0.1c0.8,0,1-0.4,0.5-0.9
	c-1.5-1.4-3.3-2.6-5.6-2.9c-4.2-0.6-8.2,0.2-11.9,1.8C787.5,422.4,786.2,423.4,785.4,424.6z M836.3,405.5c-1.5,1-2.2,2.2-3.2,3.2
	c-1.1,1-2.3,2-3.4,3c-0.4,0.3-1.1,0.7-0.6,1.3c0.4,0.5,1.1,0.3,1.7,0.2C835.4,412.2,837.5,410.3,836.3,405.5z"/>
<path class="st0" d="M564.2,444.6L564.2,444.6c0.8-0.2,0.4-0.6,0.2-1c0.4-1.6-1.1-2.4-1.1-3.8c1.1-0.6,1.6,0,2,0.5
	c4.1,3.9,6.9,8.8,8,14.8c0.7,3.7,1.7,7.1,3,10.4c1.3,3,3.3,5.5,6.1,6.9c3.6,1.7,7.1,3.6,11.5,3.8c0.6,0,1.1,0.2,1.7,0.4
	c0.4,0.2,0.7,0.6,0.6,1.1c-0.1,0.6-0.6,0.9-1.1,1c-1.2,0.1-2.3,0-3.6,0.5c-4.6,1.6-9,2.4-13.6,2.5c-5.2,0.2-10-1.1-15.2-1.2
	c-1,0-2-0.3-2.8-1c-1.3-1.1-2.7-1.9-4.2-2.7c-7.2-3.9-13.5-8.7-17.2-16.7c-1.9-4.2-5.2-6.9-10.2-6.8c-1.3,0-2.6,0.4-4,0.5
	c-1.1,0.1-1.8-0.6-0.8-1.5c1.9-1.9,0.9-2.7,0-3.7c-0.8-1-1.8-2-2.4-3.2c-1.3-2.7-2.4-5.5-6.3-4.9c-0.8,0.1-1.3-0.5-0.9-1.5
	c0.3-0.7,0.9-1.1,1.5-1c3.1,0.5,6.6,0.4,8,4c0.7,1.8,2.1,2.9,4,3.2c0.7,0.1,1.4,0.2,2.1-0.4c0.9-0.9,0.5-1.8,0.2-2.5
	c-0.5-1.2-1.2-2.2-1.8-3.3c-0.3-0.5-0.5-1.1,0.2-1.7c0.5-0.4,1-0.3,1.3,0c1,0.8,1.9,1.8,3.1,2.5c2.6,1.7,5.3,3.4,8.9,2.3
	c1.7-0.5,3.3-1.3,4.9-1.9c0.6-3.8-3.4-4.9-2.9-8.6c0.8-0.1,1,0.4,1.4,0.6c1.9,1.2,2.4,3.7,4,5.3c2.9,2.8,7,3.2,10.7,4.6
	C561.2,443,562.2,444.6,564.2,444.6z M558.7,467.7c0.9-0.1,1.8-0.6,2-1.7c0.6-4.3,2.1-8.8,1.4-13c-0.8-4.7-4.5-6.3-8.2-7.7
	c-1.3-0.5-2.2,0.6-2.3,1.9c-0.6,5.8-0.7,11.5,0.9,16.7c0.4,1.3,1.5,1.9,2.1,2.5C555.9,467.6,557.2,467.9,558.7,467.7z M569.4,459
	c-1.6,0.3-1.9,1.5-2.2,2.4s-0.5,1.8-0.6,2.7c-1.1,7.2,0.8,9.2,8.3,8.1C572.6,467.7,570.3,463.7,569.4,459z M546.6,452.2
	c-0.1-1.4-0.2-2.7-0.4-4c-0.2-1.9-1.3-2.6-3.1-2.2c-0.6,0.1-1.2,0.3-1.8,0.4c-1.1,0.3-2.5,0.4-2.8,1.7c-0.4,1.5,1.2,1.4,1.9,1.9
	c1.5,1.1,3,2.3,4.5,3.4c0.4,0.3,1,0.6,1.6-0.2C546.5,453,546.6,452.6,546.6,452.2z"/>
<path class="st0" d="M502.8,307c0.3,0.4,0.8,0.8,1,1.2c0.5,1.2,0.1,1.8-1,1.6c-4.3-0.9-8.5,0.8-12.8,0.5c-1.8-0.1-3.6,1.9-4.2,4.5
	c-0.3,1.2-0.7,2.2-1,3.3l0,0c-0.9-0.7-2.5-0.1-2.9-1.5c-0.6-2.3-2.8-4.1-2-6.9c0.6-2,0.2-2.8-1.3-4c-3.6-3.1-7.2-6.3-10.4-10
	c-2.2-2.5-5-4.4-7.2-7.1c-1.6-1.9-6.1-2.2-8.1-1c-0.9,0.6-1.1,1.4-0.6,2.3c0.7,1.2,1.7,2.2,3,2.6c1.6,0.4,3.1,1,4.7,1.5
	c0.9,0.3,1.5,0.8,1.3,1.9s-1.1,1.5-1.9,1.3c-2.2-0.7-4.4-1.1-6.6-1c-0.8,0-1.2-0.8-1.6-1.4c-2.7-3.3-6-5-10-5.6
	c-1-0.1-2-0.6-2.9-0.9c-1.5-0.6-3.2-2-4,1.2c-0.2,0.6-1,1.1-1.8,0.3c-0.8-0.9-2-1.3-2.3-2.5c-0.6-2.3-2.2-2.4-3.9-2.4
	c-0.7,0-1.4,0.1-2.2,0.3c-0.8,0.1-1.8,0.4-2-0.8c-0.2-0.9,0.7-1.4,1.4-1.7c7.6-3.1,15.2-6.8,23.4-6.2c4.4,0.3,9.1,0.2,12.9,3.2
	c1.3,1,2.6,0.5,4.1-0.3c2.7-1.5,5.6-2.5,8.6-1.5c2,0.7,3.5,1.9,4.5,4.1c-1.5,0.2-2.3-1.2-3.6-1.2c-1.4,0-3.7,1.1-3.7,1.9
	c0.1,2.2,1.9,1.7,3.1,1.7c3.1-0.1,5.9,0.5,8.5,2.3c1,0.7,2.3,0.8,3.5,1c0.7,0.1,1.6,0.2,1.4,1.2s-1.2,0.8-1.9,0.8
	c-1.1,0-2.2-0.6-3.3-0.3c-0.8,0.2-1.7,0.2-2.3,1.6c5.9,4.2,11.6,8.9,18,12.5c0.5,0.6,1.1,0.8,1.8,1l-0.1-0.1c0.5,1,1.5,0.9,2.3,1.3
	l0,0C501.4,306.3,502.1,306.6,502.8,307z M474.2,293.5c0.5,2,1.1,2.9,2,3.6c1.4,1.2,2.8,2.6,4.3,3.7c3.6,2.5,7.3,4.7,11.5,6
	c0.7,0.2,1.5,0.4,1.8-0.7c0.3-0.8-0.3-1.3-0.8-1.6c-4-2.6-7.5-6.1-11.7-8.3C479.2,295.1,477.1,294.2,474.2,293.5z M435.2,282.1
	c0.1,1,0.5,1.1,0.9,1.2c4.4,1.3,8.8,1.8,13.4,1.5c1.8-0.1,3.7-0.8,5.5-1.2c0.4-0.1,0.8-0.5,0.8-0.9c0-0.5-0.3-0.8-0.7-0.9
	c-0.4-0.1-0.8-0.2-1.2-0.3c-3.4-0.5-6.9-1.1-10.4-1C440.7,280.4,437.8,280.7,435.2,282.1z"/>
<path class="st0" d="M346.3,327.1c-2.9-1.9-2.8-5.9-1.5-10.3c1.2-4.1,2.7-8.3,3.8-12.4c1.2-4.4,2.7-8.7,4.4-13c0.8-2,1.3-3,3.5-3.5
	c1.9-0.4,3.8-1.8,5.7-3.6c4.3-3.9,9.2-5.7,14.4-6.6c5.3-0.9,10.2-1.1,15.2-0.9c2.7,0.1,4.9,0.7,4.3,4.1c-0.6,3.2-2.9,4.8-5.7,5.3
	c-1.3,0.2-2.5,0.3-3.8,0.5c-2.4,0.3-4.1,1.7-5,4.3c-0.5,1.5-1.3,3.1-1.9,4.6c-3.8,11.1-11.1,18.9-21.3,23.9c-2.8,1.4-4.9,3-6.4,6.3
	C350.4,329.5,349.4,329.6,346.3,327.1z M380.8,282.3c-12.1,1-26.5,16.7-26.8,28.8c4.2-2.3,6.9-5.9,9-10
	C367.1,293,371.9,285.5,380.8,282.3z"/>
<path class="st0" d="M425.5,276.7c0.1,0,0.2,0.1,0.3,0.1c0.3,0.1,0.6,0.1,0.6,0.6s-0.3,0.6-0.6,0.6c-0.5,0.1-0.9,0.1-1.4,0.2
	c-1.5,0-2.9,0.1-4.4-0.4c-0.6-0.2-1.4-0.3-1.8,0.8c-0.8,2.2-2.2,2.7-4,2.1h0.1c-0.6-1.2-0.6-2.5-0.5-3.9c0.7-1.8,1.9-3,3.3-3.9
	c0.2,0,0.4-0.1,0.5-0.3c0.1,0,0.2-0.1,0.2-0.1c0.6-0.2,1.1-0.4,1.7-0.5c0.7-0.1,1.4,0.1,1.9,0.8c0.5,0.7,0.5,1.9,1.2,2.4
	c0.6,0.5,1.6,0.2,2.2,1c0,0,0.1,0,0.2,0.1l0,0C425.2,276.5,425.4,276.6,425.5,276.7z"/>
<path class="st0" d="M752.3,419.8c1.6-0.9,3.4-0.3,4.4,1.4c1.1,2,1.1,4.6,0,5.4c-1.4,0.9-3.8-0.1-5-2.1
	C750.6,422.5,750.8,420.7,752.3,419.8z"/>
<path class="st0" d="M406.4,280.4c-1.6-1.1-2.2-2.5-1.6-3.4c0.6-0.8,2-1,3.1-0.3c1.4,0.9,1.8,2.4,1,3.7
	C408.2,281.7,407.2,280.9,406.4,280.4z"/>
<path class="st0" d="M848.2,427.6c0,0.4,0,0.8,0,1.2C848.2,428.4,848.2,428,848.2,427.6z"/>
<path class="st0" d="M162.8,383.4c0-0.3,0-0.6-0.1-0.9C162.8,382.8,162.8,383.1,162.8,383.4z"/>
<path class="st0" d="M851.6,421.3c0,0.4-0.1,0.7-0.1,1.1C851.5,422,851.6,421.6,851.6,421.3z"/>
<path class="st0" d="M564.2,490.8c0.2,0.3,0.4,0.5,0.6,0.8"/>
<path class="st0" d="M-10.8,400.4c-0.2,0.1-0.4,0.3-0.5,0.4C-11.2,400.7-11,400.5-10.8,400.4z"/>
<path class="st0" d="M303.6,381.6c0.1,0.2,0.2,0.4,0.2,0.5C303.8,381.9,303.7,381.8,303.6,381.6z"/>
<path class="st0" d="M342,470.8c-0.6,0.2-1.2,0.3-1.8,0.5C340.9,471.2,341.5,471,342,470.8z"/>
<path class="st0" d="M851.2,423.6c0,0.4,0,0.7,0,1.1C851.2,424.3,851.2,424,851.2,423.6z"/>
<path class="st0" d="M851.1,426.3c0,0.3,0.1,0.6,0.1,0.9C851.2,426.9,851.2,426.6,851.1,426.3z"/>
<path class="st0" d="M328.5,313L328.5,313L328.5,313z"/>
<path class="st0" d="M-7.2,396.4c-0.1,0-0.1-0.1-0.1-0.2C-7.3,396.3-7.3,396.3-7.2,396.4z"/>
<path class="st0" d="M155.2,445.1c-0.3-0.1-0.6-0.3-0.8-0.4C154.7,444.8,155,444.9,155.2,445.1z"/>
<path class="st0" d="M558,498.7c-0.1-0.1-0.1-0.3-0.2-0.4C557.9,498.4,558,498.6,558,498.7z"/>
<path class="st0" d="M412,463.2L412,463.2L412,463.2z"/>
<path class="st0" d="M499,526c0.2-0.2,0.3-0.5,0.5-0.7C499.3,525.6,499.2,525.8,499,526z"/>
<path class="st0" d="M563.1,489.8C563.1,489.8,563,489.8,563.1,489.8C563,489.8,563.1,489.8,563.1,489.8z"/>
<path class="st0" d="M229.5,510.4c0.1,0.2,0.3,0.4,0.4,0.7C229.8,510.8,229.6,510.6,229.5,510.4z"/>
<path class="st0" d="M362.6,430.1c-0.1,0.2-0.3,0.4-0.4,0.6C362.3,430.5,362.4,430.3,362.6,430.1z"/>
<path class="st0" d="M492.2,480.7c-0.1,0.2-0.3,0.4-0.4,0.6C491.9,481.1,492.1,480.9,492.2,480.7z"/>
<path class="st0" d="M491.7,481.6c-0.1,0.2-0.3,0.4-0.4,0.5C491.4,481.9,491.6,481.7,491.7,481.6z"/>
<path class="st0" d="M270.6,446.2c-0.1,0.3-0.3,0.5-0.4,0.8C270.3,446.7,270.4,446.5,270.6,446.2z"/>
<path class="st0" d="M454.6,489.4c-0.2,0.3-0.4,0.5-0.6,0.8C454.2,489.9,454.4,489.6,454.6,489.4z"/>
<path class="st0" d="M619.7,371.9c-0.2,0.1-0.5,0.2-0.7,0.3"/>
<path class="st0" d="M417.7,272.7"/>
<path class="st0" d="M127.2,433"/>
<path class="st0" d="M621,442.2c0-0.1,0.1-0.2,0.2-0.3C621.1,442,621,442.1,621,442.2z"/>
<path class="st0" d="M-11.6,401c-0.1,0.1-0.1,0.1-0.2,0.2C-11.7,401.1-11.7,401-11.6,401z"/>
<path class="st0" d="M267.1,462.4c-0.1,0.1-0.2,0.2-0.3,0.2C266.9,462.6,267,462.5,267.1,462.4z"/>
<path class="st0" d="M267.4,462.1l-0.1,0.1L267.4,462.1z"/>
<path class="st0" d="M404.9,527.3c-0.1,0.1-0.2,0.1-0.4,0.2C404.7,527.4,404.8,527.3,404.9,527.3z"/>
<path class="st0" d="M372.7,290.5c0.1,0.2,0.2,0.5,0.2,0.7C372.9,291,372.8,290.7,372.7,290.5z"/>
<path class="st0" d="M266.6,462.9l-0.2,0.1C266.4,462.9,266.6,462.9,266.6,462.9z"/>
<path class="st0" d="M-15,399.1c-0.1,0.1-0.2,0.2-0.2,0.3C-15.2,399.3-15.1,399.2-15,399.1z"/>
<path class="st0" d="M125.8,440.7c0,0.2,0.1,0.4,0.1,0.6C125.9,441.2,125.9,441,125.8,440.7z"/>
<path class="st0" d="M-15.2,399.4c-0.1,0.1-0.2,0.2-0.3,0.4C-15.4,399.6-15.3,399.5-15.2,399.4z"/>
<path class="st0" d="M-15.6,400c-0.1,0.1-0.2,0.2-0.3,0.3C-15.9,400.2-15.7,400.1-15.6,400z"/>
<path class="st0" d="M-15.9,400.3c-0.1,0.1-0.2,0.2-0.3,0.4C-16.1,400.5-16,400.4-15.9,400.3z"/>
<path class="st0" d="M-16.8,401.2c-0.1,0.1-0.2,0.2-0.3,0.3C-17,401.4-16.9,401.3-16.8,401.2z"/>
<path class="st0" d="M851.2,425.5v0.2V425.5z"/>
<path class="st0" d="M851.4,422.9c-0.1,0.3-0.1,0.6-0.2,0.8C851.3,423.4,851.3,423.1,851.4,422.9z"/>
<path class="st0" d="M403.7,530.3c-0.1,0.1-0.3,0.3-0.4,0.4C403.4,530.6,403.5,530.4,403.7,530.3z"/>
<path class="st0" d="M616.8,462.6c-0.2,0.1-0.3,0.3-0.5,0.4C616.5,462.9,616.7,462.7,616.8,462.6z"/>
<path class="st0" d="M161.1,449c-0.2-0.1-0.3-0.2-0.5-0.4C160.7,448.7,160.9,448.8,161.1,449z"/>
<path class="st0" d="M162.8,450c-0.2-0.1-0.3-0.2-0.5-0.3C162.5,449.8,162.7,449.9,162.8,450z"/>
<path class="st0" d="M621.5,441.6c0-0.1,0.1-0.2,0.2-0.2C621.6,441.4,621.5,441.5,621.5,441.6z"/>
<path class="st0" d="M622.7,440.2c0.1-0.1,0.2-0.2,0.3-0.3C622.9,440,622.8,440.1,622.7,440.2z"/>
<path class="st0" d="M624,458c-0.2,0.1-0.3,0.2-0.5,0.3C623.6,458.2,623.8,458.1,624,458z"/>
<path class="st0" d="M563.9,490.6c0.1,0.1,0.2,0.2,0.4,0.3C564.1,490.8,564,490.7,563.9,490.6z"/>
<path class="st0" d="M490.8,482.6c-0.1,0.1-0.2,0.2-0.3,0.3C490.6,482.8,490.7,482.7,490.8,482.6z"/>
<path class="st0" d="M563.5,490.2c0.1,0,0.2,0.1,0.2,0.2C563.6,490.3,563.5,490.3,563.5,490.2z"/>
<path class="st0" d="M491.3,482.2c-0.1,0.1-0.3,0.2-0.4,0.4C491,482.4,491.1,482.3,491.3,482.2z"/>
<path class="st0" d="M340.4,471.3c-0.2,0.1-0.4,0.3-0.6,0.4C340,471.6,340.2,471.4,340.4,471.3z"/>
<path class="st0" d="M411.6,462.8c0.1,0,0.2,0.1,0.2,0.2C411.7,462.9,411.6,462.8,411.6,462.8z"/>
<path class="st0" d="M411,462.4c0.1,0.1,0.2,0.1,0.3,0.2C411.2,462.5,411.1,462.5,411,462.4z"/>
<path class="st0" d="M610.7,466.6c-0.2,0.1-0.4,0.2-0.6,0.3C610.3,466.8,610.5,466.7,610.7,466.6z"/>
<path class="st0" d="M329,304c0.2,0,0.3,0.1,0.5,0.1C329.4,304.1,329.2,304.1,329,304z"/>
<path class="st0" d="M642.7,443.4c-0.1,0.2-0.2,0.4-0.4,0.6C642.4,443.7,642.6,443.5,642.7,443.4z"/>
<path class="st0" d="M236.5,498.8c-0.1,0.1-0.3,0.2-0.4,0.3C236.2,499,236.3,498.9,236.5,498.8z"/>
<path class="st0" d="M218.5,462.3c-0.2,0.1-0.3,0.2-0.5,0.3C218.2,462.5,218.3,462.4,218.5,462.3z"/>
<path class="st0" d="M425.5,276.7c-0.2-0.1-0.3-0.2-0.5-0.4C425.2,276.5,425.4,276.6,425.5,276.7z"/>
<path class="st0" d="M-4.6,395.3c-0.1,0.1-0.2,0.2-0.3,0.2C-4.8,395.5-4.7,395.4-4.6,395.3z"/>
<path class="st0" d="M466.1,365c-0.1,0.2-0.3,0.3-0.4,0.5C465.8,365.3,466,365.1,466.1,365z"/>
<path class="st0" d="M624.4,438.1c0.2-0.1,0.3-0.3,0.5-0.4C624.7,437.8,624.5,437.9,624.4,438.1z"/>
<path class="st0" d="M631.9,452.7c0.2-0.1,0.3-0.3,0.5-0.4"/>
<path class="st0" d="M331.9,264c0-0.2,0.1-0.3,0.1-0.5C331.9,263.7,331.9,263.9,331.9,264z"/>
<path class="st0" d="M332,263.5c0.1-0.2,0.1-0.4,0.2-0.6C332.2,263.2,332.1,263.3,332,263.5z"/>
<path class="st0" d="M431.2,496.7c-0.4-1-1.2-2.2-1.1-2.8c0.5-1.8,1.8-1.3,3-0.5C432.5,494.5,431.8,495.6,431.2,496.7z"/>
<path class="st0" d="M769.9,450.1c0.1,0,0.2-0.1,0.2-0.1c0,0.1,0,0.3,0,0.4c-0.1,0-0.2,0-0.3,0C769.9,450.4,769.9,450.2,769.9,450.1
	z"/>
<path class="st0" d="M343.7,318.9c-0.3,0-0.7,0.1-1,0.1c-0.6-0.1-1.1-0.3-0.9-0.9c0.3-0.8,0.9-0.4,1.4-0.4c0.3,0,0.7,0.1,1,0.1
	C344,318.1,343.9,318.5,343.7,318.9z"/>
<path class="st0" d="M249.4,456.6c-0.2-0.1-0.3-0.2-0.2-0.4c0.1-0.1,0.4-0.1,0.6,0C249.7,456.4,249.5,456.5,249.4,456.6z"/>
<path class="st0" d="M-17.6,413.8c-0.1-0.2-0.2-0.3,0-0.5s0.4-0.1,0.6,0C-17.2,413.5-17.4,413.7-17.6,413.8z"/>
<path class="st0" d="M41.1,403.7c-0.8,0.5-1.7,0.3-2.4-0.4c-1.3-1.4-2.6-1.3-3.8-0.7c-3.6,1.7-7.6,2.8-11.8,3.6
	c-1.1,0.2-2.2,0.6-3.3,0.9c-0.4,0.1-0.7,0.2-1.1,0.3c-1,0.2-2.4,0.1-2.8-0.7c-0.6-1.2,0.9-1.1,1.8-1.3c2.6-0.6,4.8-1.8,7.2-2.8
	c2.1-0.9,4.4-1.5,5.9-3.1c0.8-0.8,1.6-1.6,0.3-3c-0.8-0.8-0.3-1.4,0.4-1.7c1.1-0.5,2.3-0.9,1.8-2.4c-0.4-1.1-2.7-2.5-4.1-2.5
	c-3.6,0.1-7.7,0.4-8.7,4.6c-0.2,0.8-0.5,1.6-0.8,2.4c-0.3,0.7-0.8,0.5-1.4,0.1c-0.8-0.6-1-1.4-1.2-2.2c-0.6-3-0.4-5.8,0.2-8.6
	c1.1-5,2.5-9.9,5.4-14.2c2.3-3.4,6.1-5.3,9.9-7.1c2.3-1.1,4.8-1.8,7.6-2.1c3.5-0.3,6.5-1.8,9.8-2.6c1-0.3,1.4-1,1.8-1.8
	c0.3-0.5,0.4-1.1,0.7-1.6c0.7-1.1,1.1-1.1,2.5,0c1.6,1.2,1.8,1.2,2.6-0.3c0.4-0.8,0.8-1.5,0.4-2.5c-0.3-0.9,0.2-1.4,0.9-1.6
	s0.9,0.6,1.3,1c1.1,0.9,1.7,0.6,2-0.3c0.4-1,0.4-2.2,0.3-3.3c-0.1-1.8,0.2-2.1,2.1-1.9c1.2,0.1,1.6-0.3,2-1c0.8-1.4,0.8-2.9,0.8-4.5
	c0-0.7,0.4-0.9,1-0.9c0.7,0,0.8,0.6,0.9,1c0.2,0.8,0.5,1.6,0.4,2.4c-0.5,3.5,0.5,7.2,0.6,10.8c0,1,0.1,2.1,1.2,3.1
	c-0.3,0.7,0,1.6-0.7,2.1c-3,2.3-4,5.7-4.6,9.3c0,0.4-0.1,0.8-0.1,1.2c-0.2,1.1-0.5,2.2-0.7,3.3c-0.1,0.3-0.1,0.7-0.2,1
	c-0.2,1-0.4,2-0.5,3c-0.1,0.4-0.1,0.7-0.2,1.1c-0.8,1.3-0.5,3.1-1.7,4.3c-0.4,0.1-0.8,0.2-1.2,0.3c-1.2,0.4-1.5,1.3-1.9,2.2
	c-0.7,1.5-1.4,3.1-2.4,4.4c-0.1,0.1-0.2,0.1-0.2,0.2c-1.8-0.5-2.8,0.1-3.2,1.6c-0.4,1.2-1,2.3-1.6,3.4c-0.3,0.5-1,1-1.7,0.4
	c-1.8-1.5-2-0.3-2.4,0.6c-0.3,0.7-0.5,1.4-0.9,2.1c-0.4,0.8-1.1,1.4-2.3,0.5c-1.3-1-1.8-0.5-2.2,0.4
	C42.3,401.5,41.7,402.6,41.1,403.7z M57.3,373c-2-1-3.9-1-5.6-0.7c-4.4,0.7-8.6,1.8-12.4,3.5c-3.3,1.4-6.4,3-9,5.3
	c-0.4,0.3-0.9,0.7-0.5,1.3c0.4,0.6,1.1,0.5,1.7,0.5c0.4,0,0.8,0,1.2-0.1c6.3-1.1,12.8-1.6,19.2-2.4c1.9-0.2,3.5-0.8,5.1-1.6
	c1.3-0.7,1.9-1.7,2.1-3C59.2,374.4,58.5,373.5,57.3,373z M62.3,364.4c0.4-0.7,0.6-1.4-0.2-2.1s-1.6-0.4-2.3-0.2
	c-5.3,1.7-10.6,3.2-15.6,5.3c-1.1,0.5-3,0.8-2.1,2.4c0.8,1.4,2.4,0.6,3.6,0.4c5.1-1,9.7-2.8,14.6-4.4
	C61.2,365.5,62,365.1,62.3,364.4z M40.1,386.1c1.3,0.5,2.7,1,4.1,1.4c1.7,0.5,3.4,1,5.1,1.2c1.8,0.2,2.4-0.9,1.4-2.4
	c-0.8-1.1-1.8-1.6-3.1-1.9c-2.6-0.6-5-0.4-7.5-0.4c-0.6,0-1.3,0.1-1.4,0.6C38.5,385.4,39.4,385.7,40.1,386.1z M39.1,391.1
	c-0.5,1.1-0.1,2.4,0,3.6c0.2,1.4,1,1.9,2.4,1.4c0.6-0.2,1-0.6,1.6-0.9c0.9-0.5,1.6-1.1,1.4-2.2c-0.3-1.3-1.5-2-2.8-2.6
	C40.3,389.7,39.5,390.1,39.1,391.1z"/>
<path class="st0" d="M510.7,416.6c-2.5,5.7-3,11.8-7.9,15.5c-3.2,2.4-4.5,7.4-4.9,12.4c-0.8,12.5-5.6,22.8-12.2,31.3
	c-5.1,6.6-12.2,10.2-19.6,11.8c-4.2,0.9-8.7,0.4-12.5,3.8c-0.9,0.8-2.4,0.8-3.2-0.7c-0.7-1.2,0-2.3,0.6-3.2c2.6-4,1.4-7.2-1.6-10.1
	c-0.2-0.2-0.4-0.4-0.5-0.6c-2.1-2.9-5.2-5.3-4-10c1.1-4.4,4.4-4,7.2-4.2c3.9-0.4,6.8-2.5,9.1-6.3c2.2-3.9,4.7-7.5,7-11.3
	c7.4-12.1,16.8-19.9,29.3-21.5c2.3-0.3,3.9-2.1,5.7-3.4C505.4,418.5,507.1,415.6,510.7,416.6z M461.9,479.5c3.9,0,6.4-1.9,8.7-3.9
	c2-1.7,4.4-3.6,3.5-7c-0.9-3.6-4.1-4-6.6-4.9c-1.3-0.4-2.4,0.2-3.4,1c-2.5,1.8-5,3.6-7.3,5.6c-2.4,2.2-2.3,5.3,0.4,7.1
	C458.9,478.5,460.9,479,461.9,479.5z M474.5,453.4c0.2,2.2,1.1,4,3.5,4.2c4.2,0.3,10-10.1,8.2-14.9c-0.3-0.8-0.9-1.3-1.7-1.4
	C480.3,440.9,474.3,447.8,474.5,453.4z"/>
<path class="st0" d="M336.1,311.6c-0.5,2.6-0.9,5.6-0.3,8.3c0.9,4.4,0.2,7.8-1.8,10.8c-1.1,1.6-2,3.4-1.9,5.6
	c0.3,7.7,1.4,15.3,6,22.1c0.5,0.7,1,1.3,1.2,2.2c1.4,6.3,0.4,11.9-2.1,16.9c-0.7,1.5-1.9,2.9-3.6,1.7c-1.6-1.2-0.8-2.9-0.4-4.4
	c0.6-2-0.1-4.1-1.5-5c-1.7-1.1-4-0.7-4.8,0.9c-1.7,3.1-1.3,6.8,1.4,10.1c1.7,2.1,2.9,4.3,3.5,6.9c0.3,1.3,0.4,2.5-0.9,3
	c-1.4,0.6-1.9-0.8-2.3-1.9c-0.8-2.3-1.9-3.7-4.1-4.1c-2.1-0.4-3.6-2.3-5.1-4.6c-3.7-5.8-5.1-12.3-6.3-18.8
	c-0.7-3.9-0.4-7.6-0.4-11.5c0.1-5.1,1-9.7,1.9-14.4c0.4-2.5,1.3-4.7,3.6-5.5c1.2-0.4,1.9-1.3,2.3-2.5c1.1-3.1,2.1-6.2,3.2-9.2
	c0.5-1.4,0.6-3.1,2.7-2.4c0.9,0.3,1.6-0.6,2.1-1.5c1.9-2.9,3.9-5.7,5.7-8.6c0.9-1.4,2-2.1,4.3-2
	C336.8,306.4,336.6,309.1,336.1,311.6z M328,351.7c-2.2-2.6-4.3-5.3-6-8.3c-1.2-2.1-1.9-2.1-2.6-0.2c-2.1,6-2.2,12.6-1.2,19.4
	c0.7,4.4,3.6,5.8,6.3,3.3c2.3-2.1,4.8-3.9,8.3-3.1c1.8,0.4,2.2-0.5,1.4-2.7C332.6,357,330.3,354.4,328,351.7z M325.8,341.1
	c0.2,0.4,0.3,0.8,0.5,1.1c0.6,1,1.3,2.1,2.3,1.8c1.1-0.3,0.3-1.6,0.2-2.5c-1.1-6.1-1.1-12-0.7-18.3
	C323.5,326.2,323.6,336.6,325.8,341.1z"/>
</svg>
