<?xml version="1.0" encoding="utf-8"?>
<!-- Generator: Adobe Illustrator 22.0.1, SVG Export Plug-In . SVG Version: 6.00 Build 0)  -->
<svg version="1.1" id="Layer_1" xmlns="http://www.w3.org/2000/svg" xmlns:xlink="http://www.w3.org/1999/xlink" x="0px" y="0px"
	 viewBox="0 0 850 500" style="enable-background:new 0 0 850 500;" xml:space="preserve">
<style type="text/css">
	.st0{fill:#31271E;}
	.st1{fill:#BAAF9E;}
</style>
<path class="st0" d="M512.4,194.7c0.4,0.3,0.7,0,0.7-0.5c0-0.4-0.2-0.6-0.3-0.9c-0.6-1.3-0.5-1.6,0.6-2.3c1.1-0.7,1.2-1,0.6-2.1
	c-0.2-0.3-0.4-0.6-0.7-0.9c-1.1-1.3-1.1-1.4,0-2.9c0.8-1.1,0.7-1.3,0-2.3c-0.6-0.8-1.5-1.1-2.2-1.8c0.8-1.1,1.6-0.9,2.4-0.8
	c0.6,0.1,1.2,0.3,1.9,0.5c0.8,0.1,1.9,0.8,2.4-0.2c0.5-0.8-0.3-1.8-0.7-2.5c-0.2-0.4-0.6-0.7-0.1-1.2c0.5-0.6,0.9-0.3,1.2,0.1
	c1.3,1.5,2.6,2.9,3.2,5c0.2,0.7,0.6,1.3,1,1.9c1.5,2.5,3.2,4.9,4.3,7.8c0.4,1,1,2,1.5,2.9c0.2,0.3,0.4,0.5,0.7,0.3
	c0.3-0.1,0.2-0.5,0.3-0.8c0-0.3,0-0.6,0-0.9c0.1-1.1,0.4-1.4,1.3-1.3c0.8,0.1,1.4,0.6,2,1c1.2,0.9,1.2,0.9,2.3-0.6
	c0.7-0.9,1.1-0.9,1.4,0.1c0.3,0.8,0.5,1.7,0.7,2.5c0.1,0.6,0.2,1,0.9,0.7c0.8-0.4,1.2,0.2,1.1,1c-0.1,0.8,0.2,1.5,0.3,2.2
	c0.2,1.2,0.4,1.2,1.5,0.6c0.2-0.1,0.4-0.3,0.7-0.1c0.3,1.7-0.1,3.5-0.1,5.2c0,0.7,0.1,1.2,0.8,1.3c0.7,0,0.7,0.7,0.6,1.4
	c-0.2,1.1-0.5,2.1-0.8,3.2c-0.5,2.3-0.4,2.4,1.5,2.2c0.3,0,0.6,0,0.8,0.3c0.1,0.3-0.1,0.7-0.3,1c-0.6,0.7-0.9,1.6-1.6,2.2
	c-1,0.9-1.5,2.2-1.8,3.6c-0.1,0.4-0.2,0.9,0.2,1.1c0.3,0.2,0.7,0,1-0.2c0.4-0.3,0.9-0.6,1.1-1.2c0.2-0.5,0.6-0.8,1.1-0.6
	c0.4,0.2,0.2,0.7,0.1,1.1c-0.2,0.9-0.3,1.7-0.3,2.6c0,1.7,0,1.7,1.5,1.3c1-0.3,1.2-0.1,0.9,1.1c-0.2,1-0.4,2-1.1,2.8
	c-0.6,0.8-0.7,1.7-0.9,2.6c-0.2,0.7-0.1,1.1,0.6,1.1c0.7-0.1,0.8,0.4,0.5,1.1c-0.5,1.5-1,3-1.6,4.5c-0.6,1.5-0.7,2.7,0,4
	c0.7,1.3,1.4,2.8,1.1,4.6c-0.2,1.7-0.1,3.4-0.8,5c-1.5,3.3-2.8,6.7-3.7,10.2c-0.7,3-1.1,6-0.8,8.9c0.1,0.6-0.1,1.1-0.4,1.6
	c-1,0.1-1.9,0.1-1.7-1.6c0-0.1-0.1-0.3-0.1-0.4c-1.4-4.6-4.5-6.7-8.3-7.6c-0.6-0.2-1,0.3-1.5,0.6c-1.1,0.7-2.1,1.6-3.2,2.1
	c-0.2-0.6-0.3-1.2-0.2-1.8c0.1-0.9-0.3-1.2-1.1-1c-0.9,0.2-1.8,0.3-2.6,0.6c-1.1,0.3-1.1,0.3-0.9-1.1c0.3-1.9,0.2-2.2-1.3-2.7
	c-0.8-0.3-1.6-0.6-2.3-1.3c1-1.5,1.5-2.9,1.5-4.7c0-2.4,1.3-4,3.3-4.9c0.9-0.4,1-0.6,0.5-1.5c-1.3-2.2-2.7-4.1-5-4.8
	c-1.2-0.4-1.1-0.5-0.8-2c0.1-0.4,0.3-0.9-0.1-1.2c-0.3-0.3-0.7-0.3-1.2,0c-0.6,0.4-1.3,0.8-2,1.1c-0.5,0.2-0.8-0.1-0.7-0.7
	c0-0.4,0.1-0.7,0.3-1.1c0.3-0.9,0.1-1.3-0.5-1.9c-1.1-1.1-2.5-1.5-3.9-2c-0.8-0.2-1.2-0.7-0.6-1.6c0.8-1.2,0.4-1.8-0.4-2.4
	c-1-0.8-1.9-1.8-2.7-2.7c0.4-0.8,0.9-0.8,1.3-1.1c0.8-0.5,1-1.1,0.5-1.9c-0.6-1-1.2-2.1-1.8-3.1c-0.3-0.5-0.6-0.9-0.6-1.5
	c0.1-0.1,0.2-0.3,0.3-0.3c1.7-0.5,1.7-0.5,2-2.7c0.1-0.4,0.1-0.7,0.2-1.1c0.4-0.9,0.7-2.1,1.8-2.5c0,1.5,0.6,2.4,1.6,3
	c0.6,0.4,1.2,0.3,1.6-0.4c0.5-0.8,0.8-1.7,0.5-2.6c-0.3-0.9-0.6-2-1.2-2.6c-2.3-2.4-4.2-5.4-7.4-6.2c-0.1,0-0.1-0.2-0.2-0.3
	c0-0.1,0-0.3,0.1-0.4c0.9-1.7,0.9-1.7-0.3-2.5c-0.7-0.5-1.1-1.3-1.8-1.7c-0.4-0.2-0.5-0.8-0.1-1.2c1-1.2,0.6-2.3,0.2-3.3
	c-0.4-1-0.7-2-0.9-3.1c-0.6-3.6-0.8-7.3-0.3-11.1c0.2-1.4-0.3-2.2-1-3.1c-0.2-0.3-0.7-0.1-0.7-0.7c0.2-0.3,0.4-0.4,0.6-0.4
	c1,0.3,1.2-0.4,1.5-1.4c0.5-1.8,0.5-3.4-0.1-4.9c-0.3-0.7-0.6-1.5-0.8-2.2c-0.1-0.3-0.3-0.6,0-1c0.3-0.3,0.6-0.2,0.8-0.1
	c1.4,0.7,2.8,1.7,3.1,3.7c0.2,1.7,0.9,3.2,0.6,5.1c-0.2,1.5,0.3,2.9,0.5,4.3c0.1,0.6,0.4,0.8,0.8,0.8c0.6-0.1,0.6-0.7,0.7-1.1
	c0.1-1.1,0.3-2.1,0-3.2c-0.1-0.3-0.1-0.8,0.3-0.9c0.3-0.1,0.6,0.1,0.7,0.5c0.2,1.3,0.6,2.5,0.6,3.8c-0.1,2.1-0.3,4.2,0.2,6.3
	c0.4,1.8,0.2,1.9,1.7,1.1c1.5-0.8,1.5-0.8,1.1,1.2c0,0.1,0,0.3,0,0.4c0,0,0,0,0,0c0.1,0.3,0.1,0.6,0.2,0.9c-0.1,0.2-0.1,0.5-0.2,0.7
	c0,0,0,0.2,0,0.2c0,0.2,0.1,0.4,0.1,0.5c0,0-0.1,0.1-0.1,0.1C509.7,193,510.5,194.4,512.4,194.7z M520.7,205.6c1-1.5,2.1-3,2.7-4.8
	c0.4-1.3,0.8-2.6,0.1-3.6c-0.8-1.1-2-1-3.3-0.4c-1,0.5-2,1.2-2.5,2.5c-0.7,1.7-1.9,2.5-3.4,2.5c-0.9,0-1.9-0.1-2.8-0.1
	c-0.3,0-0.6,0-0.7,0.5c-0.1,0.3,0.1,0.5,0.3,0.7c0.9,1.1,1.9,2,3.1,2.7c1,0.6,2,1.1,3.1,1.7C518.6,207.5,519.7,207.1,520.7,205.6z
	 M534.3,240.9c-0.1,2.4,0.7,4.1,1.9,5.7c0.3,0.4,0.6,0.5,1,0.7c1,0.4,1.6-0.1,1.5-1.5c-0.1-1.2-0.4-2.3-1.1-3.2
	c-0.2-0.3-0.5-0.6-0.3-1.1c0.3-0.5,0.7-0.5,1.1-0.4c0.5,0,1.1,0.8,1.6-0.2c0.4-1,0.7-2.1,0.2-3.1c-0.3-0.7-0.8-1.1-1.3-1.6
	c-0.7-0.8-0.7-1.2,0.2-1.9c0.7-0.5,1.4-0.9,1.2-1.9c-0.2-1.2-0.5-2.3-1.6-2.7c-0.9-0.3-1.6,0.2-2.3,1c-0.6,0.8-1.1,1.7-1.3,2.5
	C534.9,235.9,534.4,238.4,534.3,240.9z M532.8,221.3c0.3,0.3,0.5,0.8,1,0.4c0.5-0.4,0.9-1,0.9-1.8c0-0.8-0.3-1.4-0.7-2
	c-0.4-0.7-0.7-1.5-0.9-2.4c-0.1-0.5,0-1,0.6-1c0.7,0,1.3-0.1,2-0.4c0.8-0.3,1.4-0.9,1.3-1.9c-0.2-1.9-0.5-3.7-1.9-4.8
	c-1.5-1.1-2.7-0.8-3.9,1c-0.3,0.4-0.5,0.9-0.7,1.3c-0.7,1.8-0.7,1.8-2.2,1.7C528.6,215.8,530.3,218.9,532.8,221.3z M520.5,236.2
	c0.1-0.3,0.1-0.6,0.1-0.8c-0.3-3.8-0.3-7.7-1.1-11.4c-0.4-2.1-1.5-3.9-2.5-5.6c-0.2-0.4-0.5-0.8-1-0.5c-0.4,0.3-0.2,0.8-0.2,1.2
	c0,1.2,0.2,2.4,0.2,3.6c0.1,1.9,0.1,3.8-0.1,5.7c-0.2,1.7,0,3.3,1.1,4.6c0.9,1,1.6,2.2,2.4,3.3c0.1,0.2,0.3,0.3,0.5,0.5
	C520.3,236.6,520.5,236.5,520.5,236.2z M520.7,213.1c-0.7,1.4-0.5,1.8,0.8,1.7c2.1-0.1,4-1.9,4.7-4.3c0.6-2.1,0.7-4.3,0.4-6.3
	c-0.1-0.6-0.2-1.2-0.9-1.5C524.1,206.4,522.4,209.8,520.7,213.1z M527.7,241.4c0-0.4,0-0.8-0.1-1.2c-0.5-2.7-1.4-5.2-2.2-7.7
	c-0.2-0.5-0.3-1.1-1-0.8c-0.6,0.2-0.7,0.8-0.7,1.4c0,1.1,0,2.3,0,3.4c0.1,1.9,0,3.8-0.1,5.7c-0.1,1.5,0.2,2,1.2,2.3
	C526.1,244.8,527.6,243.1,527.7,241.4z M532.3,233.4c0-0.3-0.1-0.5-0.3-0.7c-1.1-1.7-2.4-3.1-3.9-4.4c-0.6-0.5-1.1,0-1.2,0.9
	c-0.1,0.6-0.1,1.2,0.1,1.6c1.3,2.4,1.6,5.4,2.7,7.9c0.1,0.3,0.2,0.7,0.4,0.9c0.6,0.7,1.4,0.3,1.8-1.1
	C532,237.1,532.2,235.2,532.3,233.4z M531.2,206.4c1.4-1.2,2.7-2.5,4.5-2.3c0.5,0.1,0.8-0.3,0.7-0.9c-0.6-2.3-1.8-4-3.4-5.4
	c-0.4-0.4-1-0.3-1.2,0.3c-1.2,3.1-2.4,6.2-2.4,9.5C530.3,207.7,530.7,206.8,531.2,206.4z M530,223.3c-0.1-1.1-0.6-1.7-0.9-2.2
	c-1.1-1.4-1.8-3-2.2-4.9c-0.3-1.2-0.4-1.3-1.3-0.5c-1.3,1-2.6,1.6-4.3,2.3C523.5,221.3,526.5,222.6,530,223.3z M518.2,193.5
	c0.1,0.8,0.5,1,1.1,0.6c0.9-0.5,1.8-1,2.7-1.6c0.6-0.3,0.8-1,0.5-1.4c-1.4-2.1-2.7-4.5-5.2-5.3C517.7,188.5,518,191,518.2,193.5z
	 M527.3,253.4c-0.3-2.2,0-4.3,0.3-6.6c0-0.3,0.1-0.6,0.1-0.9c0-0.3,0-0.6-0.3-0.7c-0.3-0.1-0.4,0.1-0.6,0.3c-1.2,1.3-1.4,3-1.3,4.6
	c0.2,1.7,0.5,3.4,0.9,5.2C527.4,254.8,527.4,254.1,527.3,253.4z M529.5,252.3c0,0.7,0.3,1.1,0.7,1.6c0.7,0.7,1.6,1.2,2.7,1.9
	c0.2-3.9-2-5.8-3-8.6C529.4,249,529.5,250.7,529.5,252.3z M513.8,226.5c-0.1-0.8-0.4-1.4-0.8-2c-0.4-0.5-0.8-0.7-1.4-0.4
	c-0.6,0.3-0.7,1-0.7,1.7c0,1.3,0.4,2.3,0.9,3.2c0.4,0.7,0.8,1.2,1.4,2.1C513.9,229.3,514,227.9,513.8,226.5z M532.8,230.6
	c0.9-0.8,1.3-1.8,1.7-2.8c0.5-1.1,0.4-1.5-0.5-1.6c-1.3-0.1-2.6-0.3-4.1-0.1C530.5,228.2,532,229,532.8,230.6z M533.6,247.9
	c-0.8-1.2-0.9-2.7-1.1-4.2c-0.1-0.5-0.2-1-0.4-1.3c-0.3-0.5-0.8-0.5-1.2-0.1c-0.4,0.4-0.2,0.8-0.1,1.1c0.8,2,1.6,3.9,2.4,5.9
	C533.8,248.8,533.9,248.3,533.6,247.9z"/>
<path class="st0" d="M770.8,262.7c-1.1-2.5-2.6-4.7-3.5-7.1c-0.1-0.3-0.3-0.6-0.3-0.9c-0.1-0.6,0.1-1,0.9-0.7c1.3,0.6,1.2,0,1.1-0.8
	c-0.4-3-0.8-5.9-1.1-8.9c-0.2-1.9-0.4-3.8,0-5.6c0.4-1.8,0.6-1.8,2.4-0.4c0.3-0.1,0.5-0.3,0.6-0.6c1-2.8,2.6-5.3,4.5-7.5
	c1.4-1.7,2.6-3.5,3.5-5.6c0.5-1.1,0.8-1.1,1.8-0.1c0.6,0.7,1.2,1.3,2,0.7c3.1-2.1,6.4-4,8.1-7.4c0.6-1.2,1.2-2.4,0.8-3.9
	c-0.1-0.3-0.1-0.5,0.2-0.6c0.3-0.1,0.6,0,1,0.2c0.8,0.6,1.3,1.4,1.5,2.2c1.6,5,3.3,10,3.9,15c0.4,3.1,1,6.2,1,9.2
	c0.2,6.3-1.1,12.2-3.6,17.7c-1.4,3-2.9,5.9-5.1,8.4c-1,1.1-2.1,2.1-3.2,3.2c-2,1.8-4.1,3.5-6.1,5.3c-0.7,0.7-1.3,1.5-1.8,2.3
	c-0.3,0.5-0.7,1-1.1,1.6c-0.2,0.3-0.4,0.5-0.8,0.4c-0.4-0.1-0.6-0.4-0.6-0.7c-0.7-3.4-2.5-6.6-4.1-9.8c-0.8-1.5-1.9-2.9-3.1-4.2
	c-0.3-0.3-0.7-0.7-0.6-1c0.2-0.5,0.8-0.2,1.2-0.2C770.4,262.8,770.5,262.8,770.8,262.7z M777,240.1c-0.3,0.7-0.6,1.1-0.8,1.7
	c-0.3,1.2,0.3,1.9,1.8,1.9c0.3,0,0.7,0,1-0.1c3.1-0.3,5.5-1.7,7.7-3.3c0.8-0.5,1.5-1.3,1.9-2.2c0.3-0.6,0.5-1.3-0.2-2.1
	c-1.2-1.2-4.4-1.8-5.7-1.2C780.2,236.1,778.7,238.2,777,240.1z M772.5,257.5c0.8,0.4,1.7,0.8,2.6,1c1.3,0.3,1.4,0.2,1.5-0.9
	c0.4-3.7-0.6-7.4-2.2-11.2c-0.6-1.4-1.5-2-2.6-2c-1,0-1.4,0.6-1.6,2c-0.3,2.1,0,4.2,0.4,6.4c0.2,1.1,0.3,2.2,0.8,3.3
	C771.6,256.7,771.9,257.2,772.5,257.5z M781.7,247.4c-0.9-0.6-1.8-0.6-2.7-0.2c-1,0.4-1.7,1.1-1.5,2.2c0.5,2.3,1.2,4.7,1.2,7
	c0,0.8,0.6,1.5,1.5,1.8c0.8,0.3,1.7-0.1,2.1-0.8c0.2-0.4,0.3-0.9,0.4-1.3c0.4-2.2,0.3-4.4,0.4-6.6
	C783.2,248.6,782.5,248,781.7,247.4z M783.5,230.4c0.5,0.5,1.2,0.4,1.7-0.1c0.8-0.6,1.6-1.3,2.2-2c1.2-1.3,2.1-2.8,2.8-4.3
	c0.2-0.4,0.4-1-0.3-1.3c-0.6-0.3-1.1,0-1.3,0.4c-0.5,0.9-1.5,1.3-2.3,1.9c-1.1,0.8-2.4,1.4-3.5,2.2
	C781.7,228.1,781.9,229.2,783.5,230.4z M779.7,233.5c0.6-0.8,0.3-1.3-0.9-1.5c-1.3-0.3-2.5-0.1-3.1,0.8c-1.3,1.8-2.3,3.7-3.2,5.7
	c-0.2,0.5-0.2,1,0.4,1.3c0.5,0.3,0.8-0.1,1.1-0.4c0.1-0.1,0.2-0.3,0.3-0.4c0.7-1.4,1.9-2.4,3.2-3.4
	C778.4,234.9,779,234.2,779.7,233.5z M792.1,231.1c0.5-1.8,0.7-3.9,1-6c0-0.2-0.1-0.5-0.4-0.6c-0.2,0-0.4,0-0.5,0.1
	c-0.2,0.1-0.3,0.4-0.4,0.6c-1.1,2-2.6,3.6-4.3,5.1c-0.3,0.2-0.5,0.5-0.7,0.8c-0.2,0.3,0,0.6,0.4,0.8
	C788.5,232.7,791.4,232.4,792.1,231.1z M775.8,262.5c-0.4-0.2-0.9-0.4-1.4-0.1c-0.3,0.2-0.3,0.6-0.2,1c0.1,0.4,0.3,0.7,0.4,1.1
	c0.2,0.6,0.2,1.6,1.1,1.7c0.9,0.1,0.7-0.9,0.8-1.5c0.1-0.3,0.1-0.7,0-1.1C776.5,263.2,776.3,262.9,775.8,262.5z"/>
<path class="st0" d="M193.5,286.6c0.2,0.1,0.4,0.2,0.5,0.3c1.4,0.9,2.7,1.9,4.1,2.8c0,0-0.1-0.1-0.1-0.1c1,0.9,2,1.8,3.1,2.6
	c0,0,0,0,0,0c0.4,0.6,0.8,1.2,1.4,1.7l0-0.1c0,0.4,0.3,0.7,0.7,1l0-0.1c0.1,0.3,0.4,0.6,0.8,0.7c0,0,0-0.1,0-0.1
	c0.1,0.8,0.7,1.4,1.4,2c0,0,0-0.1,0-0.1c0.4,0.7,0.7,1.4,1.1,2.2c1.8,4.1,3.2,8.3,2.9,12.6c-0.2,3.6,0.5,7.2,2.2,10.7
	c0.9,1.8,1.9,3.6,3,5.3c1.5,2.4,1.8,4.8,0.9,7.1c-0.1,0.4-0.2,0.9-1,0.7c-0.5-0.1-0.7-0.6-0.7-0.9c0-1.6-1.2-2.9-2.1-4.3
	c-0.6-0.9-1.3-1.5-2.5-1.5c-0.9,0-1.5-0.3-1.4-1.2c0.1-0.7-0.3-1.2-1-1.7c-3.3-2.3-6.5-4.7-9.9-6.9c-7.7-5-14.9-10.5-21.8-16.3
	c-0.2-0.1-0.4-0.3-0.5-0.4c-0.6-0.6-1.1-0.8-1.6-0.1c-0.3,0.4-0.4,1.1-1.2,0.7c-0.6-0.3-0.7-0.8-0.6-1.4c0-0.4-0.1-0.9-0.2-1.3
	c-0.3-0.8-0.6-1.6-1.8-1.9c-1.4-0.4-1.6-1.1-1.1-2.1c0.2-0.4,0.3-0.9,0-1.5c-2-3.2-3.6-6.6-6.7-9.4c-0.3-0.3-0.6-0.6-1.2-0.7
	c-1,0.9,0.1,2.5-1.2,3.4c-1.4-1.1-0.6-2.5-1.5-3.6c0,0-0.1-0.2-0.1-0.2c-0.1-0.1-0.1-0.2-0.2-0.3c0-0.1-0.1-0.1-0.1-0.2
	c-0.1-0.1-0.1-0.2-0.2-0.3c0-0.1-0.1-0.1-0.1-0.2c0-0.1-0.1-0.2-0.1-0.2c-0.1-0.1-0.2-0.3-0.3-0.4c0,0-0.1-0.2-0.1-0.2
	c0-0.1-0.1-0.1-0.1-0.2c-0.1-0.1-0.3-0.3-0.4-0.4c-1.5-1.9-3.5-2.6-6-2.6c-0.3,0-0.6-0.1-0.8-0.1c-1.8-0.4-2.2-0.7-1.5-1.6
	c2.3-2.5,5-4.4,9.3-4.3c1.3,0,1.4-0.2,0.6-1.2c-0.3-0.4-1.2-0.7-0.7-1.2c0.4-0.5,1.1,0,1.7,0.1c0.2,0.1,0.4,0.2,0.6,0.3
	c2.4,0.9,2.5,0.9,2.3-1.2c0-0.2,0-0.4,0-0.6c0-1.8,0.6-1.9,2.6-0.9c0.2,0.3,0.4,0.5,0.7,0.8c-0.1,0.3,0,0.6,0.2,0.9
	c1,1.8,2.6,3.2,4.6,4.2c0.9,0.4,1.7,1.3,2.7,1.1c0.9-0.2,0.3-1.2,0.5-1.8c0.3-0.6,0.4-1.2,1.5-0.6c0,0,0-0.1,0-0.1
	c0.1,0.1,0.1,0.3,0.2,0.4c0,0.2,0.1,0.5,0.1,0.7c0,0,0,0,0,0c0.2,0.2,0.5,0.3,0.7,0.5c-0.2,0.5,0.1,0.9,0.5,1.3c0,0,0-0.1,0-0.1
	c0.2,0.4,0.3,0.8,0.6,1.1c2.2,2.2,4.8,4.1,8.1,5.1C187.3,283.8,190.6,284.8,193.5,286.6z M182.7,305.8c-0.7-0.9-1.5-1.7-2.2-2.6
	c-3.4-4.2-6.6-8.5-8.6-13.2c-0.9-2.2-2.3-4.2-4-6.1c-0.3-0.4-0.7-0.9-1.3-0.7c-0.7,0.2-0.7,0.8-0.5,1.2c0.3,0.7,0.7,1.5,1.1,2.2
	c1.8,2.9,3.5,5.8,5.4,8.6C175.2,299.2,178.5,302.8,182.7,305.8C182.7,305.8,182.7,305.9,182.7,305.8c0,0.1-0.1,0.1-0.1,0
	C182.5,305.6,182.4,305.9,182.7,305.8z M195.6,312.3c-1.3-3-1.1-5.9-0.9-8.7c0.2-2.4-0.1-4.8-0.8-7.2c-0.6-2.3-1.8-4.4-3.4-6.5
	c-0.6-0.7-1.2-1.1-2.1-1c-1,0-1.2,0.7-1.4,1.4c-0.2,0.8,0.1,1.6,0.4,2.4c0.7,2,1.4,4,1.7,6c0.4,2.7,0.8,5.4,1.9,8.1
	C191.9,309,193.5,310.8,195.6,312.3z M189.4,308.2c0.2-0.4-0.1-0.7-0.3-0.9c-1.6-2.4-2.5-4.8-2.9-7.4c-0.6-4.7-2.2-9.2-5.1-13.5
	c-0.2-0.3-0.3-0.6-0.6-0.9c-0.8-0.8-1.6-0.8-2.1,0c-0.6,0.9-0.5,1.9-0.1,2.9c1.9,4.5,3.7,9,5.7,13.5
	C185.1,304.4,186.8,306.6,189.4,308.2z M201,316c0.6-0.3,0.6-0.7,0.6-1.1c-0.1-1.8,0.3-3.6,0.6-5.4c0.8-4.8-1.4-9.4-4.3-13.8
	c-0.2-0.3-0.4-0.6-0.8-0.7c-0.3,0.9-0.4,0.9-0.2,1.3c1,2.8,1.2,5.5,0.5,8.2c-0.3,1.1-0.4,2.2,0,3.3c0.6,2,1.3,4,2.2,6
	C199.8,314.6,200.2,315.4,201,316z M206,310.2c-1.6,4.2-0.5,11.5,1.9,13.3C207.8,321.5,206.4,310.9,206,310.2z M170.6,282.8
	c1,2.8,4.9,9.2,6.3,10.2c-0.5-3.3-2.5-6-4.3-8.7C172.2,283.7,171.8,283,170.6,282.8z"/>
<path class="st0" d="M334.4,298.5c0.1-0.2,0.2-0.4,0.2-0.6c0.1-0.1,0.1-0.3,0.1-0.4c0.1-0.3,0.2-0.6,0.2-1c0-0.2,0-0.4,0-0.5
	c0-0.1,0.1-0.2,0.1-0.4c0.1-0.4,0.2-0.8,0.3-1.2c0,0,0-0.1,0-0.1c0-0.2,0-0.4,0-0.6c0.1-0.5,0.1-1.1,0.2-1.6c0,0,0.1-0.2,0.1-0.2
	l0.1,0.1c-0.2-1.6-0.3-3.1-0.5-4.7c0.2-2.1-0.5-3.5-1.8-4.7c-0.3-0.3-0.7-0.3-1.1,0.1c-0.3,0.3-0.3,0.6-0.2,0.9
	c0.4,0.8,0.7,1.6,0,2.6c-0.2,0.2-0.5,0.3-0.7,0.5c-2.8-0.5-4.9-2-6.6-4.1c0-0.1-0.1-0.3-0.2-0.4c-0.8-3-0.4-6.1,0.6-9.3
	c0.9-2.7,1.8-5.5,2.8-8.2c0.3-0.8,0.9-1.6,1.4-2.3c0.4-0.6,1.2-1,1.6-0.5c1.6,2,4.1,2,6.3,2.4c0.9,0.2,1.4,0.6,1.5,1.7
	c0.1,1.6,1.2,2.5,2.1,3.6c1.2,1.3,3.1,1.6,4,3c-0.1,1.2-2.7,1.6-1.2,2.9c2,1.9,3.5,4.3,5.9,5.7c0.9,0.5,2,0.9,1.2,2.8
	c-0.5,1.1,0.3,1.9,1.1,2.4c1,0.7,2,1.3,2.9,2.1c0.6,0.5,0.8,1.4-0.4,2c-1.7,0.9-1.1,1.7-0.3,2.3c1.7,1.4,3.6,2.5,5.6,3.5
	c2.2,1.1,4.8,1.5,7.2,2.1c0.8,0.2,1.6,0.7,0.7,1.7c-1.7,1.8-0.5,2.2,0.4,2.7c1.2,0.7,2.5,1.2,3.7,1.9c6.7,3.4,10.8,10.2,17.3,13.8
	c0.4,0.2,0.7,0.8,0.2,1.3c-2,2.5-0.7,4.2,0,6l0-0.1c0.1,1.2,0.1,2.6,1,3.4l0-0.1c0,2.5,2.9,2.9,3,5.7c-2.5-0.3-4.8-0.7-6.9,1.8
	c0,0,0.1,0,0.1,0c-1.4,0.5-2.5,0.5-2.8-1.2l0,0.1c0-0.3,0.1-0.6,0.1-1c0.1-2.7,0.1-2.8-2.4-2.5c-1,0.1-1.4-0.2-1.8-0.9
	c0-0.2,0-0.3-0.1-0.5c0.1-0.9,0.1-1.7-0.8-2c-1.9,2.8-1.9,2.8-4,0.9c-0.1-0.1-0.1-0.1-0.2-0.2c-1-0.7-2-1.4-3.1,0.7
	c-0.5,1-1.4,1-2.1,0.6c-0.9-0.6-1.7-1.4-2.6-2c-0.6-0.4-1.1-0.4-1.8,0.4c-1.9,2.5-1.9,2.5-3.6,0.6c-0.3-0.3-0.6-0.7-1-1
	c-0.5-0.4-1.1-0.5-1.6,0.1c-1.4,1.7-2.3,0.9-3.2,0c-0.8-0.8-1.7-1.6-2.4-2.6c-0.5-0.9-1.4-1.9-2.5-1.5c-2.3,0.9-3.2-0.5-4.3-1.8
	c-0.7-0.8-1.4-1.7-2-2.6c-0.5-0.7-1.1-1.3-2.1-1.1c-2.3,0.6-2.9-0.8-3-2.7c0-0.8-0.2-1.6-0.2-2.5c-0.1-1.3-0.2-2.5-2.1-1.7
	c-0.9,0.4-1.4-0.4-1.8-1c0-0.3,0-0.7,0-1c0.2-0.4,0.4-0.8,0.5-1.2c0.1-1.3,0.4-2.8,0.2-4c-0.3-1.2-2,0.1-2.7-0.6
	c-0.1-0.1-0.3-0.2-0.4-0.3c0-0.3,0-0.6,0.1-0.9c0.1-0.4,0.3-0.7,0.4-1.1c0.1-0.2,0.2-0.5,0.3-0.7c0.3-0.6,0.6-1.3,0.9-1.9
	c0,0-0.1,0.1-0.1,0.1C334.3,299.2,334.4,298.8,334.4,298.5z M364.6,323.3c-0.8-6.5-1.2-6.8-6.9-4.9c-0.5,0.2-1.1,0.2-1.3,0.8
	c-0.3,0.7,0.1,1.2,0.5,1.5C359,322.5,361.4,323.4,364.6,323.3z M340.6,299.6c1.8-1.1,2.9-2.6,3.9-4.1c0.4-0.6,0.6-1.2,0.4-1.8
	c-0.4-1.8-1.1-3.5-2.1-5.1C341.5,291.5,340.6,295.8,340.6,299.6z M345.8,312c1.5,1.3,2.4,1.1,3.5-1c1.6-3.1,1.1-4.1-1.9-3.7
	c-1.2,0.2-2.7,0.2-3.2,1.6c-0.4,1.1,0.5,2,1.2,2.7C345.5,311.8,345.6,311.9,345.8,312z M369.7,318.6c0.7,4.2,3.1,5.8,6.4,4.2
	c1.1-0.5,1.3-1.3,0.6-1.9C374.7,319.4,372.4,318.6,369.7,318.6z M357.9,310c-1.9-1.4-2.5-1.2-3.6,0.9c-0.4,0.8-1.6,1.7-1.1,2.6
	c0.5,0.9,1.8,0.2,2.7,0.1c0.7-0.1,1.4-0.4,2.1-0.6c1-0.4,1.3-1.1,0.8-2C358.5,310.6,358.1,310.3,357.9,310z M348.1,298.9
	c-0.2-0.1-0.4-0.2-0.5-0.2c-0.8,0.1-1.3,0.8-1.7,1.4c-0.5,0.8-1.4,1.5-1.2,2.6c0,0.2,0.2,0.3,0.4,0.4c0.6,0.3,3.4-0.7,4-1.3
	c0.3-0.4,0.6-0.8,0.4-1.1C349,300,348.5,299.5,348.1,298.9z"/>
<path class="st0" d="M314.7,300.8c1.1-1.7,2.1-3.3,4.4-3.7c2.5-0.4,3,1.3,3.8,2.6c0.8,1.1-0.1,2.4-1.1,3.6c-2.7,3.1-6.1,4.2-9.2,3.4
	c-3.6-1-7.6-0.3-11.4-0.5c-3.9-0.1-8,1-12,2c-2.1,0.5-3.6,0.4-5-0.9c0.6-1.5,2.2-1.4,3.2-2.1c0.5,0.1,1,0.1,1.6-0.3l-0.1,0
	c1.7-0.3,3.3-0.8,4.9-1.6c-0.4-1.2-1.4-0.8-2.2-0.7c-2.4,0.5-4.7,1.1-7.1,1.6c-3.2,0.7-6.3,1.3-9.1,0.1c0.1-0.6,0.3-1.1,0.4-1.7
	c0.5-0.4,1.2-0.2,1.7-1c-0.9-1-2.3-1.4-3.5-1.9c-4.6-1.8-8.6-4.3-11.8-7.8c-1.7-1.8-3.8-3.2-6-4.5c-0.6-0.4-1.2-1-2.3-0.2l0.1,0
	c-0.3-0.5-0.7-0.8-1.4-0.6c0,0,0.1,0.1,0.1,0.1c0.2-0.6-0.3-0.6-0.7-0.6c0,0,0.1,0,0.1,0c-0.3,0-0.5-0.1-0.8-0.1
	c-0.5,0.1-1,0.2-1.5,0.2c-0.1-0.7-0.6-0.5-1.2-0.4c-0.8-0.9-2.4-1.9-1.5-3.3c1-1.5,2.6-0.5,4-0.4c0.2,0,0.4,0,0.6,0
	c3-0.1,4,0.6,3.9-3.6c-0.1-2,0.3-4.1,0.9-6.2c0.9-3.5,0.3-6.5-0.4-9.5c-0.3-1.2-1.4-1.9-2.1-2.9c-0.2-0.3-0.7-0.7-0.2-1.2
	c0.6-0.6,1.1-0.2,1.4,0.2c1.3,1.8,3.3,2.8,4.6,4.5c0.8,1,1.8,1.2,3.3,0.5c1.4-0.7,1.8-1.9,1.8-3c0-2.7,0.4-5.5-1.8-7.2
	c0.7-0.9,1.3-0.8,1.9-0.4c2.8,1.8,3.6,4.8,3.6,8.2c0,2.3-0.4,4.6-0.2,6.9c0.4,4.1,3.2,5.8,6.6,6.9c2,0.7,4.4,0.8,6.6,1.1
	c2.4,0.3,3.1-0.3,3.3-2.6c0-0.2,0-0.4,0-0.5c0-0.8,0-1.6,1.1-1.9c1-0.2,1.1,0.5,1.1,1.3c0.1,2.1,1.6,3.1,3.4,3.9
	c0.8,0.4,1.8,0.4,2.5,0.9c0.8,0.6,1.5,1.2,0.9,2.5c-0.6,1.3-0.1,2,0.7,2.6c2.1,1.6,3.7,3.7,5.9,5.3c0.8,0.6,1.3,1.6,2,2.3
	c1.1,1.1,1.6,0.9,2.6-0.7c0.2-0.3,0.3-0.5,0.4-0.8c0.3-0.5,0.6-0.9,1.2-1c0.7-0.1,0.9,0.5,1,1c0.3,2.6,1.3,4.7,3.1,6.4
	c0.5,0.4,0.8,1.2,0.8,1.9c0,1.8,0.8,3.1,1.9,4.2c-0.1,1.3,0.6,2,1.8,2.2c1.6,0.2,3.3,0,4.9-1c0.9-0.6,1.1-2,0.4-2.7
	c-0.7-0.7-1.2-0.4-2.1,0.6C317,302.1,316.2,302.1,314.7,300.8z M297.8,294.4c0-0.6,0.1-0.9,0-1.1c-1.5-3.6-4.7-5.3-8-7
	c-0.8-0.4-1.7-0.1-2.5,0.5c-1.1,0.8-1.9,1.8-2.6,2.8c-0.9,1.4-0.8,2,0.5,2.4C289.1,293.3,293.6,293.2,297.8,294.4z M269.1,280.6
	c1.3,3,2.3,4.2,5,6.1c4.2,2.9,3.3,1.9,6.2-1.8c0.8-1.1,0.4-1.6-0.5-1.8c-2.4-0.6-4.8-1.2-7.1-1.9
	C271.6,280.8,270.6,280.5,269.1,280.6z"/>
<path class="st0" d="M87.6,296.9c-0.1,1.3-0.1,2.6-0.2,3.9c0,0.6,0,1.2-0.6,1.5c-0.6,0.3-1-0.3-1.4-0.8c-0.3-0.4-0.4-1-0.5-1.6
	c-0.7-3.1-2.3-5.4-4-7.8c-0.4-0.6-0.9-0.9-1.5-0.7c-0.7,0.2-0.7,1-0.7,1.7c-0.1,1.1-0.1,2.1-0.2,3.2c-0.2,1.2-0.9,1.5-1.6,0.7
	c-0.3-0.3-0.4-0.7-0.6-1.1c-1.2-3.3-2.7-6.4-4.5-9.1c-2.1-3.2-3.9-6.7-6.5-9.2c-1.6-1.5-3-3.3-4.3-5.3c-1.5-2.3-3.7-2.7-5.8-3.7
	c-3.2-1.5-3.2-1.5-5.4,1.7c0,0,0,0,0,0c-0.2,0-0.4,0.1-0.6,0.1c-3.4-1.4-6.6-3.6-9.8-5.5c-0.7-0.4-0.9-1.1-1.1-1.9
	c3.7-0.7,6.9-3.1,10.4-4.4c4.6-1.6,8.7-4.7,13.1-6.8c1.6-0.8,3.3-1.2,5-1.5c1-0.2,2-0.2,3.1-0.6c1.6-0.7,2,0,1.6,2.2
	c-0.4,2.4-0.5,2.5,1.3,2.9c5.2,1,10.2,3,15.2,5c4.7,1.9,8.7,5.3,12.5,9c3,2.9,6.2,5.5,9.8,7.4c2.3,1.2,4.6,1.9,7.1,1.3
	c0.7,0,1.5,0.3,2.1-0.7c0,0-0.1,0.1-0.1,0.1c0.9,0.7,1.7,0.3,2.4-0.7l-0.1,0.1c0.7-0.1,1.3-0.2,2-0.2c1.5-0.1,1.7,0.4,1,2
	c-1.1,2.4-2.9,3.9-4.5,5.4c-1.3,1.2-2.7,2.2-3.8,3.8c0,0,0.1-0.1,0.1-0.1c-0.7,0.4-1.4,0.7-2.1,1.1c-7.3,4.5-15,6.7-23,6.3
	c-1.2-0.1-2.4,0-3.5,1C87.3,295.8,87.2,296.3,87.6,296.9z M63.2,267.3c3.3,3.9,6.5,6.9,9.6,9.9c3.3,3.2,4.6,3.1,8-0.4
	c0.1-0.2,0.3-0.3,0.4-0.5c0.7-0.7,1.4-1.3,1.1-2.6c-0.3-1.3-1.3-1.2-2.1-1.2c-3.2,0-6.1-1.1-9-2.5C68.9,269,66.4,267.9,63.2,267.3z
	 M65.1,259.9c0.1,1.2,0.6,1.4,1,1.6c3.2,1.5,6.3,3.1,9.5,4.3c2.1,0.8,4.4,1.2,6.6,1.6c0.6,0.1,1.4,0.2,1.7-0.8
	c0.3-1.1-0.3-1.8-1.1-2.1c-2.2-1-4.4-2-6.6-2.9C72.7,260.1,68.9,260.3,65.1,259.9z M100.4,277c-0.1-0.9-0.3-2.1-1.3-2.8
	c-1.4-1.1-2.8-2.2-4.3-3.3c-1-0.8-1.8-0.5-2.3,0.9c-0.2,0.5-0.5,1-0.7,1.5c-0.8,1.5-0.7,2.7,0.6,3.5c1.7,1.1,3.5,2.2,5.3,3.1
	C99.1,280.6,100.2,279.4,100.4,277z M93.6,285.2c-1.1-1.9-2.8-1.7-4-2.7c-1.3-1.1-2.4-0.5-3.5,0.9c-1.3,1.6-1.3,2.7,0.4,3.6
	C89,288.4,91.2,286.8,93.6,285.2z M96.9,288.9c2.3,1.1,4.5,0.2,6.6-0.6c0.4-0.1,0.6-0.6,0.5-1.1c-0.1-0.3-0.3-0.6-0.5-0.7
	C101.1,284.7,99.4,285.4,96.9,288.9z M111.3,282.6c-2-1.1-3.5-2.1-5-2.8c-0.9-0.5-2.2,0.4-2.5,1.7c-0.3,1.3,0.6,1.6,1.3,1.8
	C107,283.9,108.9,283.8,111.3,282.6z"/>
<path class="st0" d="M710.2,278.5c0.3-0.1,0.5-0.2,0.8-0.3c0.4-0.2,0.9-0.7,1.2,0c0.3,0.6,0.3,1.2-0.3,1.7c-0.4,0.3-0.8,0.7-0.7,1.5
	c1.1,0.8,2.3,0.8,3.6,0.3c3.3,0.2,6.8-0.4,9.8,1.5c-0.3,1.1-0.9,1.5-1.4,2.1c-0.2,0.2-0.3,0.4-0.5,0.6c-0.6,1.3,0.4,1.5,0.9,1.7
	c1.2,0.7,2.5,1.3,3.6,2.3c0.6,1.2,1.9,1.9,2,3.8c-1.3,0.2-2.3-0.4-3.3-0.6c-3.1-0.8-6.2-0.2-9.3,1.4c-2,1.1-2.3,1.8-1.8,4.2
	c0.9,3.6,0.9,3.6-2.4,3.6c-0.6,0-1.1,0-1.7,0.1c-2.1,0-2.2,0-2.4,2.6c-0.1,1-0.6,1.1-1.1,1.2c-0.8,0.1-1.7-0.1-2.5,0
	c-1.5,0.2-2.1,0.8-1.9,2.6c0.1,1.8-0.4,2.3-1.8,2.6c-1.4,0.2-2.7,0.6-4.1,0.1c-1.7-0.6-3.5-0.6-5.5,0.2c-4.3,1.7-8.7,1.8-13,1.3
	c-3.4-0.4-6.7-0.8-10.1-1.3c-1.3-0.2-2,0.4-2.1,2c0,0.5-0.1,0.9-0.2,1.4c-0.3,1.3-1,1.4-1.7,0.8c-0.6-0.5-1.3-1-1.5-1.7
	c-1-2.8-3.1-2.4-5.2-2.2c-0.5,0.1-1.1,0.4-1.6,0.6c-0.4,0.1-0.6-0.4-0.7-0.7c-0.1-0.3-0.1-0.7,0.2-0.9c2.3-1.8,4-4.5,6.2-6.6
	c1.5-1.4,2.9-2.9,4.4-4.2c1.9-1.7,3.4-3.7,4-6.4c0.4-1.6,1.4-2.3,2.3-2c2.2,0.7,3.5-0.9,4.9-2.6c0.4-0.5,0.8-1,1.2-1.6
	c0.8-1.1,1.6-1.4,2.2,0c0.7,1.7,1.7,1.8,3.2,0.9c5.3-3.1,10.5-6.8,16.4-7.9c0.5-0.1,1.1-0.2,1.5-0.9c1.3,0.4,2.4-0.5,3.6-1
	c0,0-0.1,0-0.1,0C707,278.8,708.6,278.8,710.2,278.5z M697.4,301c0.5,0.5,1.1,0.2,1.7-0.3c1.6-1.3,3.3-2.5,4.9-3.9
	c0.6-0.4,1.2-1.1,0.9-1.9c-0.2-0.7-0.9-0.5-1.5-0.5c-0.4,0-0.7,0.1-1.1,0.2c-5.4,1.5-10.6,3.6-15.8,6.3c-0.8,0.4-1.6,0.7-2.2,1.6
	c-1,1.4-0.8,3,0.3,4.1c1.2,1.2,1.8-0.1,2.4-1.3c0.2-0.4,0.4-0.8,0.7-1.2c0.8-1.1,1.6-1.3,2.5-0.5c0.3,0.3,0.6,0.7,1,1.1
	c0.9,1,1.6,0.5,2.3-0.7c0.3-0.5,0.4-1.1,0.7-1.6C695.1,300,695.1,300,697.4,301z M707.3,288.8c-0.3-1.3-0.8-1.3-1.2-1.4
	c-2.9-0.4-5.9,0.1-8.8,0.3c-0.9,0.1-1.8,0.8-2.3,1.9c-0.5,1.2-0.4,3-1.6,3.5c-1.5,0.7-1.8-1.2-2.7-2.1c-0.8-0.8-1.5-0.8-1.9,0.6
	c-0.7,2-1.3,4-1.3,6.5C694.1,294.4,700.5,290.9,707.3,288.8z M682.6,299.2c0.8,0,1.4,0,2-0.1c0.6,0,1.1-0.3,1.4-1
	c0.3-0.7-0.1-1.3-0.4-1.7c-0.7-0.8-1.4-1.5-2.2-2.2c-0.8-0.7-1.7-0.7-2.5,0.4c-0.8,1.1-0.8,2.4-0.1,3.3
	C681.4,298.5,682.1,298.8,682.6,299.2z"/>
<path class="st0" d="M828.5,280.3c-1.9,0.8-3.9,0.6-5.7-0.1c-1.1-0.4-2.2-0.5-3.4-0.6c-3.8-0.1-7.6-0.3-11.4-0.4
	c-0.7,0-1.3-0.2-2-0.4c-2.5-0.6-4.9-0.8-7.4,0.3c-1.9,0.8-4.1,1-5.8,2.2c-1.3,0.9-2.5,1.8-3.7,2.8c-0.6,0.5-1.3,0.8-2.1,0.5
	c-0.8-0.3-0.7-0.9-0.7-1.5c0-2,0.9-4,2.2-5.6c1.6-2,3.3-4,6.2-5.1c1.4-0.6,2.7-1.4,4-2.1c2-1,4.4-1.5,6-3c0.7-0.7,1.4-0.3,1.4,0.7
	c0,1,0.7,1.3,1.7,1.4c3.3,0.5,5.9-0.4,7.8-2.8c0.6,0.8,0.4,1.3,0,2c-0.3,0.5,0,0.9,0.7,0.9c2,0.1,3.9,0,5.3-1.5
	c0.6-0.7,1.4-1.3,2.2-1.7c0.2,0.1,0.4,0.2,0.5,0.2c1.3,1.8,2,1.9,4.2,1c2-0.8,3.6-1.9,4.5-3.6c0.1-0.2,0.3-0.4,0.6-0.5
	c1.6,1.2,1.5,1.1,3.1-0.2c2-1.6,3.9-3.4,5.6-5.2c1.4-1.5,2.5-3.1,3.8-4.6c0.2-0.3,0.3-0.7,1.1-0.8c0.1,1.2,0.3,2.4,0.4,3.6
	c0.1,0.7,0.1,1.2,1.3,1.2c0.8,0,0.9,0.6,0.9,1.1c-0.1,1.9,0.1,3.9-1.9,5.3c-0.2,0.2-0.6,0.3-0.6,0.5c-0.2,1.9-2.1,3.3-2.2,5.2
	c-0.1,1.2-1,1.9-2.4,2.1c-1.4,0.2-2.2,0.9-3.2,1.6c-3.2,2.3-6.7,4.3-11.1,5c-0.1,0-0.2,0-0.2,0c-0.7,0.2-1.8,0.1-1.8,0.9
	c0,0.8,1.1,0.7,1.8,0.9C828.3,280,828.3,280.1,828.5,280.3z M831.5,271.7c-3.6,0.3-7.3,0.6-11,0.9c-0.3,0-0.6,0.1-0.9,0.2
	c-1.1,0.4-1.4,1.2-0.6,2c1,0.9,1.9,1.8,3.1,2.6c1,0.7,1.9,0.7,3,0.4c2.7-0.8,5.1-2.1,7.6-3.2c1-0.5,2.7-0.9,2.3-1.9
	C834.6,271.7,832.8,271.9,831.5,271.7z M793.4,277.6c0.2,0.1,0.3,0.2,0.3,0.2c0.2,0,0.5,0,0.7-0.1c6.2-1.6,12.5-2,18.9-1.1
	c0.2,0,0.5,0.1,0.7,0.1c0.8,0,1-0.4,0.5-0.9c-1.5-1.4-3.3-2.6-5.6-2.9c-4.2-0.6-8.2,0.2-11.9,1.8
	C795.5,275.4,794.2,276.4,793.4,277.6z M844.3,258.5c-1.5,1-2.2,2.2-3.2,3.2c-1.1,1-2.3,2-3.4,3c-0.4,0.3-1.1,0.7-0.6,1.3
	c0.4,0.5,1.1,0.3,1.7,0.2C843.4,265.2,845.5,263.3,844.3,258.5z"/>
<path class="st0" d="M572.2,297.6c0,0-0.1,0-0.1,0c0.9-0.2,0.5-0.6,0.3-1c0.4-1.6-1.1-2.4-1.1-3.8c1.1-0.6,1.6,0,2,0.5
	c4.1,3.9,6.9,8.8,8,14.8c0.7,3.7,1.7,7.1,3,10.4c1.3,3,3.3,5.5,6.1,6.9c3.6,1.7,7.1,3.6,11.5,3.8c0.6,0,1.1,0.2,1.7,0.4
	c0.4,0.2,0.7,0.6,0.6,1.1c-0.1,0.6-0.6,0.9-1.1,1c-1.2,0.1-2.3,0-3.6,0.5c-4.6,1.6-9,2.4-13.6,2.5c-5.2,0.2-10-1.1-15.2-1.2
	c-1,0-2-0.3-2.8-1c-1.3-1.1-2.7-1.9-4.2-2.7c-7.2-3.9-13.5-8.7-17.2-16.7c-1.9-4.2-5.2-6.9-10.2-6.8c-1.3,0-2.6,0.4-4,0.5
	c-1.1,0.1-1.8-0.6-0.8-1.5c1.9-1.9,0.9-2.7,0-3.7c-0.8-1-1.8-2-2.4-3.2c-1.3-2.7-2.4-5.5-6.3-4.9c-0.8,0.1-1.3-0.5-0.9-1.5
	c0.3-0.7,0.9-1.1,1.5-1c3.1,0.5,6.6,0.4,8,4c0.7,1.8,2.1,2.9,4,3.2c0.7,0.1,1.4,0.2,2.1-0.4c0.9-0.9,0.5-1.8,0.2-2.5
	c-0.5-1.2-1.2-2.2-1.8-3.3c-0.3-0.5-0.5-1.1,0.2-1.7c0.5-0.4,1-0.3,1.3,0c1,0.8,1.9,1.8,3.1,2.5c2.6,1.7,5.3,3.4,8.9,2.3
	c1.7-0.5,3.3-1.3,4.9-1.9c0.6-3.8-3.4-4.9-2.9-8.6c0.8-0.1,1,0.4,1.4,0.6c1.9,1.2,2.4,3.7,4,5.3c2.9,2.8,7,3.2,10.7,4.6
	C569.2,296,570.2,297.6,572.2,297.6z M566.7,320.7c0.9-0.1,1.8-0.6,2-1.7c0.6-4.3,2.1-8.8,1.4-13c-0.8-4.7-4.5-6.3-8.2-7.7
	c-1.3-0.5-2.2,0.6-2.3,1.9c-0.6,5.8-0.7,11.5,0.9,16.7c0.4,1.3,1.5,1.9,2.1,2.5C563.9,320.6,565.2,320.9,566.7,320.7z M577.4,312
	c-1.6,0.3-1.9,1.5-2.2,2.4c-0.3,0.9-0.5,1.8-0.6,2.7c-1.1,7.2,0.8,9.2,8.3,8.1C580.6,320.7,578.3,316.7,577.4,312z M554.6,305.2
	c-0.1-1.4-0.2-2.7-0.4-4c-0.2-1.9-1.3-2.6-3.1-2.2c-0.6,0.1-1.2,0.3-1.8,0.4c-1.1,0.3-2.5,0.4-2.8,1.7c-0.4,1.5,1.2,1.4,1.9,1.9
	c1.5,1.1,3,2.3,4.5,3.4c0.4,0.3,1,0.6,1.6-0.2C554.5,306,554.6,305.6,554.6,305.2z"/>
<path class="st0" d="M510.8,160c0.3,0.4,0.8,0.8,1,1.2c0.5,1.2,0.1,1.8-1,1.6c-4.3-0.9-8.5,0.8-12.8,0.5c-1.8-0.1-3.6,1.9-4.2,4.5
	c-0.3,1.2-0.7,2.2-1,3.3c0,0,0,0,0,0c-0.9-0.7-2.5-0.1-2.9-1.5c-0.6-2.3-2.8-4.1-2-6.9c0.6-2,0.2-2.8-1.3-4
	c-3.6-3.1-7.2-6.3-10.4-10c-2.2-2.5-5-4.4-7.2-7.1c-1.6-1.9-6.1-2.2-8.1-1c-0.9,0.6-1.1,1.4-0.6,2.3c0.7,1.2,1.7,2.2,3,2.6
	c1.6,0.4,3.1,1,4.7,1.5c0.9,0.3,1.5,0.8,1.3,1.9c-0.2,1.1-1.1,1.5-1.9,1.3c-2.2-0.7-4.4-1.1-6.6-1c-0.8,0-1.2-0.8-1.6-1.4
	c-2.7-3.3-6-5-10-5.6c-1-0.1-2-0.6-2.9-0.9c-1.5-0.6-3.2-2-4,1.2c-0.2,0.6-1,1.1-1.8,0.3c-0.8-0.9-2-1.3-2.3-2.5
	c-0.6-2.3-2.2-2.4-3.9-2.4c-0.7,0-1.4,0.1-2.2,0.3c-0.8,0.1-1.8,0.4-2-0.8c-0.2-0.9,0.7-1.4,1.4-1.7c7.6-3.1,15.2-6.8,23.4-6.2
	c4.4,0.3,9.1,0.2,12.9,3.2c1.3,1,2.6,0.5,4.1-0.3c2.7-1.5,5.6-2.5,8.6-1.5c2,0.7,3.5,1.9,4.5,4.1c-1.5,0.2-2.3-1.2-3.6-1.2
	c-1.4,0-3.7,1.1-3.7,1.9c0.1,2.2,1.9,1.7,3.1,1.7c3.1-0.1,5.9,0.5,8.5,2.3c1,0.7,2.3,0.8,3.5,1c0.7,0.1,1.6,0.2,1.4,1.2
	c-0.2,1-1.2,0.8-1.9,0.8c-1.1,0-2.2-0.6-3.3-0.3c-0.8,0.2-1.7,0.2-2.3,1.6c5.9,4.2,11.6,8.9,18,12.5c0.5,0.6,1.1,0.8,1.8,1
	c0,0-0.1-0.1-0.1-0.1c0.5,1,1.5,0.9,2.3,1.3c0,0,0,0,0,0C509.4,159.3,510.1,159.6,510.8,160z M482.2,146.5c0.5,2,1.1,2.9,2,3.6
	c1.4,1.2,2.8,2.6,4.3,3.7c3.6,2.5,7.3,4.7,11.5,6c0.7,0.2,1.5,0.4,1.8-0.7c0.3-0.8-0.3-1.3-0.8-1.6c-4-2.6-7.5-6.1-11.7-8.3
	C487.2,148.1,485.1,147.2,482.2,146.5z M443.2,135.1c0.1,1,0.5,1.1,0.9,1.2c4.4,1.3,8.8,1.8,13.4,1.5c1.8-0.1,3.7-0.8,5.5-1.2
	c0.4-0.1,0.8-0.5,0.8-0.9c0-0.5-0.3-0.8-0.7-0.9c-0.4-0.1-0.8-0.2-1.2-0.3c-3.4-0.5-6.9-1.1-10.4-1
	C448.7,133.4,445.8,133.7,443.2,135.1z"/>
<path class="st0" d="M354.3,180.1c-2.9-1.9-2.8-5.9-1.5-10.3c1.2-4.1,2.7-8.3,3.8-12.4c1.2-4.4,2.7-8.7,4.4-13c0.8-2,1.3-3,3.5-3.5
	c1.9-0.4,3.8-1.8,5.7-3.6c4.3-3.9,9.2-5.7,14.4-6.6c5.3-0.9,10.2-1.1,15.2-0.9c2.7,0.1,4.9,0.7,4.3,4.1c-0.6,3.2-2.9,4.8-5.7,5.3
	c-1.3,0.2-2.5,0.3-3.8,0.5c-2.4,0.3-4.1,1.7-5,4.3c-0.5,1.5-1.3,3.1-1.9,4.6c-3.8,11.1-11.1,18.9-21.3,23.9c-2.8,1.4-4.9,3-6.4,6.3
	C358.4,182.5,357.4,182.6,354.3,180.1z M388.8,135.3c-12.1,1-26.5,16.7-26.8,28.8c4.2-2.3,6.9-5.9,9-10
	C375.1,146,379.9,138.5,388.8,135.3z"/>
<path class="st0" d="M433.5,129.7c0.1,0,0.2,0.1,0.3,0.1c0.3,0.1,0.6,0.1,0.6,0.6c0,0.5-0.3,0.6-0.6,0.6c-0.5,0.1-0.9,0.1-1.4,0.2
	c-1.5,0-2.9,0.1-4.4-0.4c-0.6-0.2-1.4-0.3-1.8,0.8c-0.8,2.2-2.2,2.7-4,2.1c0,0,0.1,0,0.1,0c-0.6-1.2-0.6-2.5-0.5-3.9
	c0.7-1.8,1.9-3,3.3-3.9c0.2,0,0.4-0.1,0.5-0.3c0.1,0,0.2-0.1,0.2-0.1c0.6-0.2,1.1-0.4,1.7-0.5c0.7-0.1,1.4,0.1,1.9,0.8
	c0.5,0.7,0.5,1.9,1.2,2.4c0.6,0.5,1.6,0.2,2.2,1c0,0,0.1,0,0.2,0.1c0,0,0,0,0,0C433.2,129.5,433.4,129.6,433.5,129.7z"/>
<path class="st0" d="M760.3,272.8c1.6-0.9,3.4-0.3,4.4,1.4c1.1,2,1.1,4.6,0,5.4c-1.4,0.9-3.8-0.1-5-2.1
	C758.6,275.5,758.8,273.7,760.3,272.8z"/>
<path class="st0" d="M414.4,133.4c-1.6-1.1-2.2-2.5-1.6-3.4c0.6-0.8,2-1,3.1-0.3c1.4,0.9,1.8,2.4,1,3.7
	C416.2,134.7,415.2,133.9,414.4,133.4z"/>
<path class="st1" d="M856.2,280.6c0,0.4,0,0.8,0,1.2C856.2,281.4,856.2,281,856.2,280.6z"/>
<path class="st1" d="M170.8,236.4c0-0.3,0-0.6-0.1-0.9C170.8,235.8,170.8,236.1,170.8,236.4z"/>
<path class="st1" d="M859.6,274.3c0,0.4-0.1,0.7-0.1,1.1C859.5,275,859.6,274.6,859.6,274.3z"/>
<path class="st1" d="M572.2,343.8c0.2,0.3,0.4,0.5,0.6,0.8"/>
<path class="st1" d="M-2.8,253.4c-0.2,0.1-0.4,0.3-0.5,0.4C-3.2,253.7-3,253.5-2.8,253.4z"/>
<path class="st1" d="M311.6,234.6c0.1,0.2,0.2,0.4,0.2,0.5C311.8,234.9,311.7,234.8,311.6,234.6z"/>
<path class="st1" d="M350,323.8c-0.6,0.2-1.2,0.3-1.8,0.5C348.9,324.2,349.5,324,350,323.8z"/>
<path class="st1" d="M859.2,276.6c0,0.4,0,0.7,0,1.1C859.2,277.3,859.2,277,859.2,276.6z"/>
<path class="st1" d="M859.1,279.3c0,0.3,0.1,0.6,0.1,0.9C859.2,279.9,859.2,279.6,859.1,279.3z"/>
<path class="st1" d="M336.5,166C336.5,166,336.5,166,336.5,166C336.5,166,336.5,166,336.5,166z"/>
<path class="st1" d="M0.8,249.4c-0.1,0-0.1-0.1-0.1-0.2C0.7,249.3,0.7,249.3,0.8,249.4z"/>
<path class="st1" d="M163.2,298.1c-0.3-0.1-0.6-0.3-0.8-0.4C162.7,297.8,163,297.9,163.2,298.1z"/>
<path class="st1" d="M566,351.7c-0.1-0.1-0.1-0.3-0.2-0.4C565.9,351.4,566,351.6,566,351.7z"/>
<path class="st1" d="M420,316.2C420,316.2,420,316.2,420,316.2C420,316.2,420,316.2,420,316.2z"/>
<path class="st1" d="M507,379c0.2-0.2,0.3-0.5,0.5-0.7C507.3,378.6,507.2,378.8,507,379z"/>
<path class="st1" d="M571.1,342.8C571.1,342.8,571,342.8,571.1,342.8C571,342.8,571.1,342.8,571.1,342.8z"/>
<path class="st1" d="M237.5,363.4c0.1,0.2,0.3,0.4,0.4,0.7C237.8,363.8,237.6,363.6,237.5,363.4z"/>
<path class="st1" d="M370.6,283.1c-0.1,0.2-0.3,0.4-0.4,0.6C370.3,283.5,370.4,283.3,370.6,283.1z"/>
<path class="st1" d="M500.2,333.7c-0.1,0.2-0.3,0.4-0.4,0.6C499.9,334.1,500.1,333.9,500.2,333.7z"/>
<path class="st1" d="M499.7,334.6c-0.1,0.2-0.3,0.4-0.4,0.5C499.4,334.9,499.6,334.7,499.7,334.6z"/>
<path class="st1" d="M278.6,299.2c-0.1,0.3-0.3,0.5-0.4,0.8C278.3,299.7,278.4,299.5,278.6,299.2z"/>
<path class="st1" d="M462.6,342.4c-0.2,0.3-0.4,0.5-0.6,0.8C462.2,342.9,462.4,342.6,462.6,342.4z"/>
<path class="st1" d="M627.7,224.9c-0.2,0.1-0.5,0.2-0.7,0.3"/>
<path class="st1" d="M425.7,125.7"/>
<path class="st1" d="M135.2,286"/>
<path class="st1" d="M629,295.2c0-0.1,0.1-0.2,0.2-0.3C629.1,295,629,295.1,629,295.2z"/>
<path class="st1" d="M-3.6,254c-0.1,0.1-0.1,0.1-0.2,0.2C-3.7,254.1-3.7,254-3.6,254z"/>
<path class="st1" d="M275.1,315.4c-0.1,0.1-0.2,0.2-0.3,0.2C274.9,315.6,275,315.5,275.1,315.4z"/>
<path class="st1" d="M275.4,315.1c0,0-0.1,0.1-0.1,0.1S275.4,315.1,275.4,315.1z"/>
<path class="st1" d="M412.9,380.3c-0.1,0.1-0.2,0.1-0.4,0.2C412.7,380.4,412.8,380.3,412.9,380.3z"/>
<path class="st1" d="M380.7,143.5c0.1,0.2,0.2,0.5,0.2,0.7C380.9,144,380.8,143.7,380.7,143.5z"/>
<path class="st1" d="M274.6,315.9c0,0-0.2,0.1-0.2,0.1C274.4,315.9,274.6,315.9,274.6,315.9z"/>
<path class="st1" d="M-7,252.1c-0.1,0.1-0.2,0.2-0.2,0.3C-7.2,252.3-7.1,252.2-7,252.1z"/>
<path class="st1" d="M133.8,293.7c0,0.2,0.1,0.4,0.1,0.6C133.9,294.2,133.9,294,133.8,293.7z"/>
<path class="st1" d="M-7.2,252.4c-0.1,0.1-0.2,0.2-0.3,0.4C-7.4,252.6-7.3,252.5-7.2,252.4z"/>
<path class="st1" d="M-7.6,253c-0.1,0.1-0.2,0.2-0.3,0.3C-7.9,253.2-7.7,253.1-7.6,253z"/>
<path class="st1" d="M-7.9,253.3c-0.1,0.1-0.2,0.2-0.3,0.4C-8.1,253.5-8,253.4-7.9,253.3z"/>
<path class="st1" d="M-8.8,254.2c-0.1,0.1-0.2,0.2-0.3,0.3C-9,254.4-8.9,254.3-8.8,254.2z"/>
<path class="st1" d="M859.2,278.5c0,0,0,0.2,0,0.2C859.2,278.7,859.2,278.5,859.2,278.5z"/>
<path class="st1" d="M859.4,275.9c-0.1,0.3-0.1,0.6-0.2,0.8C859.3,276.4,859.3,276.1,859.4,275.9z"/>
<path class="st1" d="M411.7,383.3c-0.1,0.1-0.3,0.3-0.4,0.4C411.4,383.6,411.5,383.4,411.7,383.3z"/>
<path class="st1" d="M624.8,315.6c-0.2,0.1-0.3,0.3-0.5,0.4C624.5,315.9,624.7,315.7,624.8,315.6z"/>
<path class="st1" d="M169.1,302c-0.2-0.1-0.3-0.2-0.5-0.4C168.7,301.7,168.9,301.8,169.1,302z"/>
<path class="st1" d="M170.8,303c-0.2-0.1-0.3-0.2-0.5-0.3C170.5,302.8,170.7,302.9,170.8,303z"/>
<path class="st1" d="M629.5,294.6c0-0.1,0.1-0.2,0.2-0.2C629.6,294.4,629.5,294.5,629.5,294.6z"/>
<path class="st1" d="M630.7,293.2c0.1-0.1,0.2-0.2,0.3-0.3C630.9,293,630.8,293.1,630.7,293.2z"/>
<path class="st1" d="M632,311c-0.2,0.1-0.3,0.2-0.5,0.3C631.6,311.2,631.8,311.1,632,311z"/>
<path class="st1" d="M571.9,343.6c0.1,0.1,0.2,0.2,0.4,0.3C572.1,343.8,572,343.7,571.9,343.6z"/>
<path class="st1" d="M498.8,335.6c-0.1,0.1-0.2,0.2-0.3,0.3C498.6,335.8,498.7,335.7,498.8,335.6z"/>
<path class="st1" d="M571.5,343.2c0.1,0,0.2,0.1,0.2,0.2C571.6,343.3,571.5,343.3,571.5,343.2z"/>
<path class="st1" d="M499.3,335.2c-0.1,0.1-0.3,0.2-0.4,0.4C499,335.4,499.1,335.3,499.3,335.2z"/>
<path class="st1" d="M348.4,324.3c-0.2,0.1-0.4,0.3-0.6,0.4C348,324.6,348.2,324.4,348.4,324.3z"/>
<path class="st1" d="M419.6,315.8c0.1,0,0.2,0.1,0.2,0.2C419.7,315.9,419.6,315.8,419.6,315.8z"/>
<path class="st1" d="M419,315.4c0.1,0.1,0.2,0.1,0.3,0.2C419.2,315.5,419.1,315.5,419,315.4z"/>
<path class="st1" d="M618.7,319.6c-0.2,0.1-0.4,0.2-0.6,0.3C618.3,319.8,618.5,319.7,618.7,319.6z"/>
<path class="st1" d="M337,157c0.2,0,0.3,0.1,0.5,0.1C337.4,157.1,337.2,157.1,337,157z"/>
<path class="st1" d="M650.7,296.4c-0.1,0.2-0.2,0.4-0.4,0.6C650.4,296.7,650.6,296.5,650.7,296.4z"/>
<path class="st1" d="M244.5,351.8c-0.1,0.1-0.3,0.2-0.4,0.3C244.2,352,244.3,351.9,244.5,351.8z"/>
<path class="st1" d="M226.5,315.3c-0.2,0.1-0.3,0.2-0.5,0.3C226.2,315.5,226.3,315.4,226.5,315.3z"/>
<path class="st1" d="M433.5,129.7c-0.2-0.1-0.3-0.2-0.5-0.4C433.2,129.5,433.4,129.6,433.5,129.7z"/>
<path class="st1" d="M3.4,248.3c-0.1,0.1-0.2,0.2-0.3,0.2C3.2,248.5,3.3,248.4,3.4,248.3z"/>
<path class="st1" d="M474.1,218c-0.1,0.2-0.3,0.3-0.4,0.5C473.8,218.3,474,218.1,474.1,218z"/>
<path class="st1" d="M632.4,291.1c0.2-0.1,0.3-0.3,0.5-0.4C632.7,290.8,632.5,290.9,632.4,291.1z"/>
<path class="st1" d="M639.9,305.7c0.2-0.1,0.3-0.3,0.5-0.4"/>
<path class="st1" d="M339.9,117c0-0.2,0.1-0.3,0.1-0.5C339.9,116.7,339.9,116.9,339.9,117z"/>
<path class="st1" d="M340,116.5c0.1-0.2,0.1-0.4,0.2-0.6C340.2,116.2,340.1,116.3,340,116.5z"/>
<path class="st0" d="M439.2,349.7c-0.4-1-1.2-2.2-1.1-2.8c0.5-1.8,1.8-1.3,3-0.5C440.5,347.5,439.8,348.6,439.2,349.7z"/>
<path class="st0" d="M777.9,303.1c0.1,0,0.2-0.1,0.2-0.1c0,0.1,0,0.3,0,0.4c-0.1,0-0.2,0-0.3,0C777.9,303.4,777.9,303.2,777.9,303.1
	z"/>
<path class="st0" d="M351.7,171.9c-0.3,0-0.7,0.1-1,0.1c-0.6-0.1-1.1-0.3-0.9-0.9c0.3-0.8,0.9-0.4,1.4-0.4c0.3,0,0.7,0.1,1,0.1
	C352,171.1,351.9,171.5,351.7,171.9z"/>
<path class="st0" d="M257.4,309.6c-0.2-0.1-0.3-0.2-0.2-0.4c0.1-0.1,0.4-0.1,0.6,0C257.7,309.4,257.5,309.5,257.4,309.6z"/>
<path class="st0" d="M-9.6,266.8c-0.1-0.2-0.2-0.3,0-0.5c0.2-0.2,0.4-0.1,0.6,0C-9.2,266.5-9.4,266.7-9.6,266.8z"/>
<path class="st0" d="M49.1,256.7c-0.8,0.5-1.7,0.3-2.4-0.4c-1.3-1.4-2.6-1.3-3.8-0.7c-3.6,1.7-7.6,2.8-11.8,3.6
	c-1.1,0.2-2.2,0.6-3.3,0.9c-0.4,0.1-0.7,0.2-1.1,0.3c-1,0.2-2.4,0.1-2.8-0.7c-0.6-1.2,0.9-1.1,1.8-1.3c2.6-0.6,4.8-1.8,7.2-2.8
	c2.1-0.9,4.4-1.5,5.9-3.1c0.8-0.8,1.6-1.6,0.3-3c-0.8-0.8-0.3-1.4,0.4-1.7c1.1-0.5,2.3-0.9,1.8-2.4c-0.4-1.1-2.7-2.5-4.1-2.5
	c-3.6,0.1-7.7,0.4-8.7,4.6c-0.2,0.8-0.5,1.6-0.8,2.4c-0.3,0.7-0.8,0.5-1.4,0.1c-0.8-0.6-1-1.4-1.2-2.2c-0.6-3-0.4-5.8,0.2-8.6
	c1.1-5,2.5-9.9,5.4-14.2c2.3-3.4,6.1-5.3,9.9-7.1c2.3-1.1,4.8-1.8,7.6-2.1c3.5-0.3,6.5-1.8,9.8-2.6c1-0.3,1.4-1,1.8-1.8
	c0.3-0.5,0.4-1.1,0.7-1.6c0.7-1.1,1.1-1.1,2.5,0c1.6,1.2,1.8,1.2,2.6-0.3c0.4-0.8,0.8-1.5,0.4-2.5c-0.3-0.9,0.2-1.4,0.9-1.6
	c0.7-0.2,0.9,0.6,1.3,1c1.1,0.9,1.7,0.6,2-0.3c0.4-1,0.4-2.2,0.3-3.3c-0.1-1.8,0.2-2.1,2.1-1.9c1.2,0.1,1.6-0.3,2-1
	c0.8-1.4,0.8-2.9,0.8-4.5c0-0.7,0.4-0.9,1-0.9c0.7,0,0.8,0.6,0.9,1c0.2,0.8,0.5,1.6,0.4,2.4c-0.5,3.5,0.5,7.2,0.6,10.8
	c0,1,0.1,2.1,1.2,3.1c-0.3,0.7,0,1.6-0.7,2.1c-3,2.3-4,5.7-4.6,9.3c0,0.4-0.1,0.8-0.1,1.2c-0.2,1.1-0.5,2.2-0.7,3.3
	c-0.1,0.3-0.1,0.7-0.2,1c-0.2,1-0.4,2-0.5,3c-0.1,0.4-0.1,0.7-0.2,1.1c-0.8,1.3-0.5,3.1-1.7,4.3c-0.4,0.1-0.8,0.2-1.2,0.3
	c-1.2,0.4-1.5,1.3-1.9,2.2c-0.7,1.5-1.4,3.1-2.4,4.4c-0.1,0.1-0.2,0.1-0.2,0.2c-1.8-0.5-2.8,0.1-3.2,1.6c-0.4,1.2-1,2.3-1.6,3.4
	c-0.3,0.5-1,1-1.7,0.4c-1.8-1.5-2-0.3-2.4,0.6c-0.3,0.7-0.5,1.4-0.9,2.1c-0.4,0.8-1.1,1.4-2.3,0.5c-1.3-1-1.8-0.5-2.2,0.4
	C50.3,254.5,49.7,255.6,49.1,256.7z M65.3,226c-2-1-3.9-1-5.6-0.7c-4.4,0.7-8.6,1.8-12.4,3.5c-3.3,1.4-6.4,3-9,5.3
	c-0.4,0.3-0.9,0.7-0.5,1.3c0.4,0.6,1.1,0.5,1.7,0.5c0.4,0,0.8,0,1.2-0.1c6.3-1.1,12.8-1.6,19.2-2.4c1.9-0.2,3.5-0.8,5.1-1.6
	c1.3-0.7,1.9-1.7,2.1-3C67.2,227.4,66.5,226.5,65.3,226z M70.3,217.4c0.4-0.7,0.6-1.4-0.2-2.1c-0.8-0.7-1.6-0.4-2.3-0.2
	c-5.3,1.7-10.6,3.2-15.6,5.3c-1.1,0.5-3,0.8-2.1,2.4c0.8,1.4,2.4,0.6,3.6,0.4c5.1-1,9.7-2.8,14.6-4.4
	C69.2,218.5,70,218.1,70.3,217.4z M48.1,239.1c1.3,0.5,2.7,1,4.1,1.4c1.7,0.5,3.4,1,5.1,1.2c1.8,0.2,2.4-0.9,1.4-2.4
	c-0.8-1.1-1.8-1.6-3.1-1.9c-2.6-0.6-5-0.4-7.5-0.4c-0.6,0-1.3,0.1-1.4,0.6C46.5,238.4,47.4,238.7,48.1,239.1z M47.1,244.1
	c-0.5,1.1-0.1,2.4,0,3.6c0.2,1.4,1,1.9,2.4,1.4c0.6-0.2,1-0.6,1.6-0.9c0.9-0.5,1.6-1.1,1.4-2.2c-0.3-1.3-1.5-2-2.8-2.6
	C48.3,242.7,47.5,243.1,47.1,244.1z"/>
<path class="st0" d="M518.7,269.6c-2.5,5.7-3,11.8-7.9,15.5c-3.2,2.4-4.5,7.4-4.9,12.4c-0.8,12.5-5.6,22.8-12.2,31.3
	c-5.1,6.6-12.2,10.2-19.6,11.8c-4.2,0.9-8.7,0.4-12.5,3.8c-0.9,0.8-2.4,0.8-3.2-0.7c-0.7-1.2,0-2.3,0.6-3.2c2.6-4,1.4-7.2-1.6-10.1
	c-0.2-0.2-0.4-0.4-0.5-0.6c-2.1-2.9-5.2-5.3-4-10c1.1-4.4,4.4-4,7.2-4.2c3.9-0.4,6.8-2.5,9.1-6.3c2.2-3.9,4.7-7.5,7-11.3
	c7.4-12.1,16.8-19.9,29.3-21.5c2.3-0.3,3.9-2.1,5.7-3.4C513.4,271.5,515.1,268.6,518.7,269.6z M469.9,332.5c3.9,0,6.4-1.9,8.7-3.9
	c2-1.7,4.4-3.6,3.5-7c-0.9-3.6-4.1-4-6.6-4.9c-1.3-0.4-2.4,0.2-3.4,1c-2.5,1.8-5,3.6-7.3,5.6c-2.4,2.2-2.3,5.3,0.4,7.1
	C466.9,331.5,468.9,332,469.9,332.5z M482.5,306.4c0.2,2.2,1.1,4,3.5,4.2c4.2,0.3,10-10.1,8.2-14.9c-0.3-0.8-0.9-1.3-1.7-1.4
	C488.3,293.9,482.3,300.8,482.5,306.4z"/>
<path class="st0" d="M344.1,164.6c-0.5,2.6-0.9,5.6-0.3,8.3c0.9,4.4,0.2,7.8-1.8,10.8c-1.1,1.6-2,3.4-1.9,5.6
	c0.3,7.7,1.4,15.3,6,22.1c0.5,0.7,1,1.3,1.2,2.2c1.4,6.3,0.4,11.9-2.1,16.9c-0.7,1.5-1.9,2.9-3.6,1.7c-1.6-1.2-0.8-2.9-0.4-4.4
	c0.6-2-0.1-4.1-1.5-5c-1.7-1.1-4-0.7-4.8,0.9c-1.7,3.1-1.3,6.8,1.4,10.1c1.7,2.1,2.9,4.3,3.5,6.9c0.3,1.3,0.4,2.5-0.9,3
	c-1.4,0.6-1.9-0.8-2.3-1.9c-0.8-2.3-1.9-3.7-4.1-4.1c-2.1-0.4-3.6-2.3-5.1-4.6c-3.7-5.8-5.1-12.3-6.3-18.8
	c-0.7-3.9-0.4-7.6-0.4-11.5c0.1-5.1,1-9.7,1.9-14.4c0.4-2.5,1.3-4.7,3.6-5.5c1.2-0.4,1.9-1.3,2.3-2.5c1.1-3.1,2.1-6.2,3.2-9.2
	c0.5-1.4,0.6-3.1,2.7-2.4c0.9,0.3,1.6-0.6,2.1-1.5c1.9-2.9,3.9-5.7,5.7-8.6c0.9-1.4,2-2.1,4.3-2
	C344.8,159.4,344.6,162.1,344.1,164.6z M336,204.7c-2.2-2.6-4.3-5.3-6-8.3c-1.2-2.1-1.9-2.1-2.6-0.2c-2.1,6-2.2,12.6-1.2,19.4
	c0.7,4.4,3.6,5.8,6.3,3.3c2.3-2.1,4.8-3.9,8.3-3.1c1.8,0.4,2.2-0.5,1.4-2.7C340.6,210,338.3,207.4,336,204.7z M333.8,194.1
	c0.2,0.4,0.3,0.8,0.5,1.1c0.6,1,1.3,2.1,2.3,1.8c1.1-0.3,0.3-1.6,0.2-2.5c-1.1-6.1-1.1-12-0.7-18.3
	C331.5,179.2,331.6,189.6,333.8,194.1z"/>
</svg>
