<?xml version="1.0" encoding="utf-8"?>
<!-- Generator: Adobe Illustrator 22.0.1, SVG Export Plug-In . SVG Version: 6.00 Build 0)  -->
<svg version="1.1" id="Layer_1" xmlns="http://www.w3.org/2000/svg" xmlns:xlink="http://www.w3.org/1999/xlink" x="0px" y="0px"
	 viewBox="0 0 850 500" style="enable-background:new 0 0 850 500;" xml:space="preserve">
<style type="text/css">
	.st0{fill:#FFFFFF;}
</style>
<path class="st0" d="M206.5,128.4c3.8,0.7,7.7,1.3,11.5,2.1c4.5,1,9.2,1.8,13.7,2.9c3.5,0.9,6.6,2.2,10.2,2.9c1.9,0.4,3.4,1.4,5.1,2
	c2.9,1,4.8,2.8,7.5,3.9c0.4,0.2,0.7,0.4,0.9,0.6c3.5,3,7.4,5.8,10.1,9.2c1.5,1.9,2.9,3.8,4.6,5.7c1.4,1.5,2.7,3,3.8,4.6
	c2.1,3,4.9,5.7,6.6,8.8c0.7,1.4,2,2.7,2.7,4.1c0.8,1.5,1.7,3,2.6,4.5c3.7,5.8,5.4,11.9,6.6,18.1c0.8,4,1.7,8,1.6,12.1
	c0,1.3-0.1,2.6-0.3,3.9c-0.3,2.3-0.4,4.7-1,7c-1,3.4-1.7,6.8-3.5,10.1c-2.7,5.1-6.6,9.9-9.5,15c-0.8,1.5-1.6,2.9-2.8,4.3
	c-1-0.1-0.7-0.8-1.4-1c-1.1,0.7-1.7,1.7-2.5,3.9c-0.5,1.4-1.1,2.8-1.7,4.2c-0.8,0.1-0.9-0.3-1.1-0.6c-0.4-0.6-0.8-1.3-1.3-1.9
	c-1.1-1.3-2.6-1.5-4.3-0.3c-1.7,1.2-3.3,2.5-3.6,4.2c-0.3,1.4-0.3,2.8,0.2,4.1c0.7,1.8,1.5,3.6,2.5,5.3c0.9,1.5,2.3,2.8,3.4,4.2
	c2.9,3.5,5.1,7.2,5.7,11.2c0.1,0.4,0.2,0.9,0.1,1.3c-0.4,3,1.2,5.7,2.6,8.4c1.4,2.6,2.7,5.3,3.4,8.1c0.5,2,1,4.1,1.2,6.2
	c0.2,1.7,1.7,3,2.6,4.5c0.8,1.4,1.6,2.9,1.9,4.4c0.2,0.9,0.4,1.8-0.1,2.7c-0.8,1.4-1.3,2.7-0.5,4c0.2,0.3,0,0.6-0.4,0.8
	c-0.4,0.2-0.8,0.3-1.3,0.2c-0.5-0.1-0.5-0.4-0.5-0.7c0.3-1.9-0.7-3.7-1.6-5.4c-0.1-0.2-0.3-0.3-0.8-0.3c-0.6,0.5-0.8,1.1-0.8,1.6
	c0,1.6,0.2,3.1,1.3,4.6c1,1.5,1.5,3.1,0.3,4.8c-0.2,0.3-0.3,0.6-1,0.7c0.2-1-0.6-1.9-1.2-2.7c-0.3-0.3-0.7-0.7-1.4-0.6
	c-0.7,0-1,0.5-1.2,0.9c-1.3,2.2-1.4,4.5-0.6,6.7c0.5,1.5,1.4,2.9,1.7,4.4c0.1,0.9,0.3,1.7-1,2.7c-0.5-1.5-1.1-2.7-1.9-3.9
	c-0.3-0.5-0.6-1-1-1.5c-0.6-0.8-1.3-0.8-2.1,0c-0.6,0.7-1.2,1.3-1.6,2.1c-1.7,3-4.1,5.7-6.5,8.5c-1.5,1.7-2.9,3.5-4.6,5.2
	c-2.5,2.6-5.2,5.1-8.3,7.5c-4,3-8.3,5.8-12.6,8.7c-2.3,1.5-4.8,2.7-7.3,4c-3.3,1.6-6.6,3.3-9.8,4.9c-0.3,0.2-0.7,0.3-0.8,0.5
	c-1.3,2.1-4.1,4-3.4,6.5c0.2,0.6-1.8,1.9-2.7,2c-0.7,0.1-1-0.2-1.1-0.5c-0.3-0.7-0.3-1.5-1.1-2c-0.3-0.2-0.2-0.5,0.1-0.7
	c1.1-0.9,0.8-1.8,0.7-2.7c-0.1-0.8,0.2-1.5,0.2-2.2c0-0.3,0.1-0.5,0.4-0.7c1.5-0.8,2.3-2,4.1-2.7c2-0.8,3.4-2,5.1-3
	c2.1-1.2,3.9-2.4,5.6-3.8c1.5-1.1,2.8-2.3,4.2-3.5c0.3-0.3,0.7-0.7,0.1-0.9c-0.4-0.2-0.8,0.2-1.2,0.4c-3,1.9-5.9,3.7-9.3,5.3
	c-3.5,1.7-6.9,3.3-10.7,4.7c-2.5,0.9-4.7,2.1-6.6,3.5c-1.2,0.9-2,1.8-1.8,3c0.1,0.4,0,0.8-0.8,0.9c-0.7,0.1-1.1,0.4-1.5,0.7
	c-0.3,0.3-0.6,0.5-1.2,0.3c-0.6-0.1-0.4-0.5-0.4-0.7c0.1-0.9-0.1-1.8,1.1-2.5c0.6-0.4,0.5-0.8,0.3-1.3c-0.2-0.4-0.3-0.8-0.3-1.3
	c0.1-1.1,0.5-1.9,2.3-2.5c3.6-1.3,7-2.8,9.5-5c0.8-0.8,1.1-1.6,1.8-2.4c0.5-0.6-0.3-1-1.4-0.9c-0.6,0.1-1.2,0.3-1.8,0.4
	c-0.6,0.2-1.1,0.4-1.7,0.5c-0.5,0.1-0.9,0-1.2-0.3c-0.2-0.2,0-0.5,0.3-0.7c0.8-0.6,1.6-1.3,2.5-1.9c3-1.8,4.3-4.1,5.5-6.4
	c0.7-1.3,1.1-2.7,1.5-4.1c0.3-0.9-0.1-1-1.5-0.8c-1.9,0.2-2.4,0.1-2.3-1.3c0.2-2.4,0.7-4.8,1.9-7.2c2.4-4.9,3.8-9.9,3-15
	c-0.4-2.6-1.8-5.1-3.7-7.4c-0.5-0.6-0.8-1.3-0.2-2c0.7-0.8,0.1-1.5-0.5-2.1c-3.8-3.6-7.4-7.3-10.4-11.2c-1.5-1.9-3-3.8-4.2-5.8
	c-1-1.5-1.6-3.1-2.3-4.7c-2-4.2-3.1-8.6-4-13c-0.7-3.6-0.7-7.2-0.5-10.9c0.2-2.9,0.2-5.8,1-8.7c0.6-2.1,0.9-4.2,1.9-6.3
	c0.4-0.9,0.1-1.8,0.5-2.6c1.4-2.7,2.9-5.3,4.9-7.8c1.2-1.6,2.3-3.3,3.3-5c1.8-3,4.5-5.7,6.9-8.6c1.3-1.5,2.5-3.1,4.2-4.4
	c2.2-1.8,3.9-3.7,6-5.5c1.9-1.6,4-3.2,6.2-4.7c1.7-1.2,3.1-2.5,4.4-3.8c0.9-1,1.3-1.9,0.5-3c-1.1-1.5-1-3-0.1-4.6
	c0.1-0.2,0.4-0.4,0.6-0.7c0.7,0.6,0.3,1.1,0.1,1.6c-0.6,1.1-0.3,2.1,0.7,3.1c2,2,1.8,4.3-0.7,6.2c-1.5,1.2-2.4,2.6-2.9,4
	c-1.3,3.1-1.4,6.4-1,9.5c0.3,2.3,1.4,4.6,2.7,6.8c2.2,3.8,5.4,7.3,8.9,10.7c2,1.9,3.9,3.7,6,5.5c2.1,1.8,4.4,3.5,6.5,5.3
	c0.8,0.7,1.3,1.5,2.6,2c1.1-0.9,0.9-1.9,0.8-2.8c-0.1-0.8-0.7-1.5-1.3-2.2c-0.3-0.3-1-0.2-1.5-0.2c-1.6,0.3-2.6-0.3-3.3-1
	c-0.8-0.7-1.5-1.5-2-2.4c-1.8-3.9-4.2-7.6-7.4-11c-1.1-1.2-1.9-2.5-2.6-3.9c-0.8-1.7-2-3.3-2.8-5c-1.3-2.7-1.1-5.4-0.4-8.2
	c0.2-1,1.2-1.9,2.4-2.6c2-1.2,2.8-2.7,2.6-4.4c-0.4-3.1,0.2-6.2,0.5-9.2c0-0.3,0.2-0.7,0.4-1c0.6-0.9,0.4-1.6-0.6-2.3
	c-1.1-0.8-0.9-2-0.8-3c0.1-0.8,0-1.7-0.1-2.5c0-0.3-0.2-0.7,0-1c1.4-2.4,1-4.9,2.4-7.3c0.1-0.2,0.2-0.5,0.5-0.7
	c1.3-1,1.1-2.1,0.5-3.1c-1.3-2.6-1.5-5.3-2.7-7.9c-0.2-0.3-0.3-0.7-0.4-1c-0.2-0.5-0.7-0.7-1.6-0.4c-0.8,0.3-1.6,0.7-2.4,1
	c-0.4,0.2-0.9,0.2-1.2,0c-0.4-0.3,0-0.5,0.3-0.7c2.6-1.7,2.6-3.7,2.1-5.8c-1.4,0.3-1.7,1.1-2.4,1.7c-0.3,0.3-0.5,0.6-1,0.5
	c-0.6-0.1-0.7-0.5-0.6-0.9c0.2-0.4,0.5-0.7,0.7-1.1c1.4-2.3,1.1-4.5-0.6-6.7c-0.7,0.6-1,1.2-1.3,1.8c-0.2,0.5-0.5,1.1-1.3,1.4
	c-0.3,0.1-0.6,0.2-0.9,0.1c-0.3-0.1-0.3-0.3-0.2-0.5c0.5-1.2,0.6-2.5,0.4-3.7c-0.2-1.4-0.5-2.7-1.5-4c-0.2-0.2-0.1-0.5-0.2-0.7
	c-0.1-1-0.8-1.8-1.7-2.7c-3-3-6.5-5.9-9.8-8.8c-2-1.7-3.8-3.6-5.8-5.3c-2-1.7-4.3-3.3-6.6-4.9c-5.9-4-12.4-7.6-18.5-11.5
	c-1.2-0.8-2.6-1.5-4-2.2c-0.3-0.2-0.7-0.4-1-0.6c-0.5-0.3-0.8-0.8-0.2-1.2c0.5-0.3,1.2-0.5,1.9-0.2c1.3,0.6,3.2,0.6,4.4,1.4
	c0.2,0.1,0.7,0.1,1.1,0.1c0.8,1,2.6,1,4,1.4c2.9,0.7,5.6,1.7,8.7,2.2C201.8,127.7,204.2,128,206.5,128.4z M236.2,154.3
	c-0.2,0.3,0,0.5,0.3,0.6c5.1,3.7,11.2,5.9,19.6,4.4c0.2,0,0.5-0.1,0.7-0.1c2.5-0.4,5.1-0.6,7.7-0.5c0.5,0,1.1,0.2,1.5-0.3
	c-0.6-1.2-2-2-3.3-2.9c-2.8-1.9-6.3-2.5-10.5-2.1c-4.9,0.5-9.8,1.2-14.7,0.6C237.1,154.1,236.6,154.3,236.2,154.3
	c-0.2,0-0.2,0-0.1,0.1C236.1,154.3,236.1,154.3,236.2,154.3z M276.6,307.6c-0.1-3.3-1.2-6.5-2.2-9.7c-0.9-2.9-1.8-5.8-3.7-8.5
	c-2.1-3-5.7-5-11.2-5.3c-2.3-0.1-4.6-0.3-6.9-0.4c-6.8-0.2-13.1-1.3-19-3.2c-0.9-0.3-1.7-0.6-2.6-0.9c-0.4-0.1-0.8-0.3-1.3-0.1
	c-0.4,0.2-0.3,0.6-0.1,0.8c0.1,0.2,0.2,0.4,0.3,0.5c1.9,2.9,4.3,5.6,7,8.2c2.9,2.8,6.1,5.5,9.4,8.2c2.2,1.8,4.9,3.4,7.2,5.3
	c4.2,3.4,9.5,5.9,14.5,8.8c1.3,0.7,2.9,1.2,4.7,1.5c2.6,0.4,4.2-0.4,4.2-2.1C276.8,309.7,276.7,308.6,276.6,307.6z M203.4,293.4
	c0.3,1.1,0.4,2.6,1.4,3.9c2.2,2.8,3.9,5.8,5.9,8.7c2.5,3.7,4.6,7.6,6.4,11.5c0.5,1.1,1.3,2.1,2.2,3c1.2,1.2,3.1,1.1,4.3-0.1
	c0.7-0.7,1.3-1.4,1.5-2.2c0.7-2.1,1.5-4.1,2.2-6.2c1.2-3.8,1.1-7.6,0.9-11.3c-0.3-3.8-0.6-7.6-2.6-11.2c-1.9-3.4-3.7-6.8-5.5-10.3
	c-0.1-0.3-0.4-0.5-0.7-0.8c-1.9-1.7-5.2-1.7-7.2,0.1c-2.5,2.3-4.8,4.7-6.5,7.3C204.2,288.1,203.2,290.5,203.4,293.4z M245.6,309.5
	c0.2-3.2-0.9-6.4-3.2-9.5c-1.6-2.2-3.9-4-5.9-6c-0.6-0.6-0.9-1.3-1.9-1.6c-0.7-0.2-1.4-0.8-2.3-0.5c-1,0.4-0.4,1-0.3,1.5
	c1,3.7,0.9,7.4,1.3,11.1c0.5,3.9-1,7.8-2,11.6c-1.4,4.9-4.3,9.4-8.8,13.5c-0.6,0.5-0.9,1.1-1.1,1.7c-0.6,2-1.2,3.9-1.8,5.9
	c-0.4,1.3,0,2.6,0.7,3.8c1,1.6,2.8,1.7,4.9,0.4c6.1-3.7,10.3-8.1,13.9-12.8c2.1-2.7,3.4-5.6,4.6-8.4
	C245.2,316.7,246,313.2,245.6,309.5z M252,187c-0.7,0.4-0.5,0.7-0.5,1c0.4,2.5,1.5,4.8,2.9,7.1c1.7,2.6,3.6,5.2,6.6,7.4
	c2.4,1.8,4.5,3.7,7,5.5c4.1,2.9,8.3,5.6,12.5,8.4c2.4,1.5,5.1,2.9,7.8,4.2c1.2,0.6,1.9,0.5,2.1-0.5c0.3-2.1,1.1-4.3,0.9-6.4
	c-0.7-7-6.4-12-14.9-15.7c-3.2-1.4-7-2.3-10.5-3.5c-4.1-1.4-7.9-3.1-10.7-5.5C254.4,188.1,253.2,187.6,252,187z M253.9,206.1
	c0.4,2.1,0.7,4.1,1.1,6.1c0.2,0.9,0.5,1.8,1.2,2.7c2.7,3.5,5.9,6.7,10.5,9.2c1.3,0.7,2.5,1.5,3.6,2.4c3.3,2.5,7,4.8,10.1,7.4
	c1.6,1.3,2.4,1.2,3.6-0.4c0.2-0.2,0.3-0.5,0.4-0.7c1-1.6,1.4-3.3,1.7-5c0.3-1.9-0.3-3.6-1.7-5.3c-1.9-2.3-4.6-4.2-7.4-6
	c-2.2-1.4-4.6-2.7-6.6-4.2c-4.1-3.1-8.8-5.9-12.7-9c-0.5-0.4-1.3-0.7-2-0.9c-0.8-0.3-1.3-0.1-1.5,0.5
	C253.9,204,253.9,205.1,253.9,206.1z M272.2,320.9c0.2-2.6-1-4.8-4.1-6.5c-2.8-1.5-5.4-3.1-8-4.7c-1.3-0.8-1.7-0.7-2.7,0.3
	c-1.5,1.6-2.8,3.2-3.9,4.9c-1.4,1.9-2.6,3.9-4.1,5.8c-2,2.5-2.5,5.1-2.9,7.7c-0.2,1.1,0.5,2,1.8,2.7c1.6,0.9,3.1,1.9,4.6,2.8
	c1.5,0.9,1.8,1,3.5,0c1.4-0.8,2.8-1.5,4.7-1.8c1.4-0.2,2.3-0.7,3-1.5c1.3-1.4,3-2.7,5.8-2.9c1.4-0.1,1.7-0.7,1.9-1.5
	C272,324.5,272.3,322.7,272.2,320.9z M249.6,177.8c-0.5,0.8,0.2,1.4,0.5,1.9c1,1.4,2.2,2.8,3.4,4.1c1.3,1.4,2.6,2.9,4.4,4
	c3.3,2.1,7.2,3.7,11.1,5.3c1.3,0.5,2.8,0.9,4.3,1.3c4.4,1,8.6,2.3,12.1,4.3c0.9,0.5,1.8,0.9,2.9,0.5c1-0.4,0.6-1.1,0.4-1.6
	c-0.8-2.9-1.6-5.8-3.2-8.6c-1.8-3.2-5.3-5.1-10.4-5.7c-6.6-0.9-12.8-2.4-19-3.9C254.1,178.8,251.9,178.3,249.6,177.8z M247.3,211.7
	c-1.3,2.3-2.3,4.7-3,7c-0.6,1.9-0.5,3.8,1.2,5.4c1.5,1.5,3.2,2.9,5.2,4.2c2.4,1.6,5,3.1,7.8,4.4c3,1.4,5.9,2.8,8.8,4.3
	c1.3,0.7,2.6,1.4,3.9,2c2.2,0.9,4.9,0.3,5.7-1.2c0.8-1.5,0.7-2.8-0.9-4c-2.3-1.7-4.8-3.3-7.4-4.9c-5-3.1-10.2-6.1-14.7-9.5
	c-2.7-2.1-5.5-4.2-5.8-7.1C248.2,212.1,248,211.8,247.3,211.7z M219.1,374.1c0.5,0.1,0.7,0.1,0.8,0.1c1-0.4,2.1-0.7,3.1-1.1
	c7.6-3.6,14.6-7.7,20.6-12.4c5.6-4.4,10.4-9.1,15-13.9c1.2-1.3,2.4-2.5,3.3-3.9c0.6-0.8,0.3-1.3-0.4-1.9c-2.7-2.1-3.1-2.1-6.5-0.2
	c-0.4,0.2-0.7,0.4-1,0.6c-3,2.2-5,4.7-6.5,7.4c-1.7,2.9-3.7,5.8-6.4,8.5c-4.9,4.9-10.1,9.7-16.8,13.7
	C222.6,372.1,220.9,373.1,219.1,374.1z M266.9,246c1.9-1.9,1.9-2.9,0.3-4.5c-0.4-0.4-0.9-0.8-1.5-1.1c-4.1-2.5-8.9-4.5-13-7
	c-2.3-1.4-4.7-2.8-6.5-4.4c-1.8-1.5-3.2-3.3-4.3-5.1c-0.2-0.4,0-1.1-1.1-1.1c-1,0-1.1,0.8-1.6,1.2c-0.2,0.2-0.3,0.5-0.4,0.7
	c-1.1,3.1-0.2,5.8,2.7,8.2c2.8,2.4,6.6,4.1,10.3,5.9c4.6,2.3,9.7,4.3,14.2,6.8C266.1,245.7,266.5,245.8,266.9,246z M212,266.8
	c-0.1-1.8,0.1-3.2-0.3-4.5c-0.5-1.6-1-3.2-1.7-4.7c-0.5-1.1-1.1-2.1-1.7-3.2c-0.3-0.6-1-0.8-2-0.7c-1,0.1-1.4,0.6-1.6,1.2
	c-0.1,0.4,0,0.8,0.1,1.2c0.4,1.4,0.8,2.7,1.3,4c1.6,4.2,1.2,8.4-0.6,12.7c-1.1,2.7-3.2,5.1-5.6,7.4c-0.8,0.8-1.6,1.5-2.2,2.4
	c-0.8,1,0,2.5,1.3,2.9c1,0.3,2.5-0.2,3.5-1.2c0.7-0.7,1.3-1.4,2-2.1c2.2-2,4-4.2,5.2-6.5C211.5,272.5,212.7,269.4,212,266.8z
	 M222.5,237.9c0.2,3.3,0.9,6.5,2.3,9.6c2.3,5.1,6,9.7,11.6,13.6c2.9,2,6.2,3.7,9.3,5.6c0.7,0.4,1.5,0.8,2.4,1.1
	c0.4,0.2,0.9,0.2,1.3-0.1c0.4-0.3,0.4-0.5,0.1-0.8c-0.2-0.2-0.4-0.3-0.6-0.4c-2.5-2-5.1-4.1-7.5-6.1c-2.1-1.8-3.9-3.7-5.9-5.5
	c-2.7-2.5-5.1-5.2-6.3-8.2c-1.7-4.2-3.7-8.4-4.2-12.8c-0.1-0.6,0.2-1.8-1.1-1.7c-1.4,0.1-1.1,1.2-1.1,1.9
	C222.6,235.2,222.3,236.6,222.5,237.9z M278.5,177c-0.7-1.4-1.7-2.6-2.6-3.9c-1.2-1.7-3.5-2-6.1-2.1c-1.2,0-2.3,0.2-3.5,0.3
	c-4.6,0.3-9.2,0.5-13.6-0.4c-2.3-0.5-4.7-0.9-7-1.4c-0.5-0.1-1.1-0.3-1.5,0.1c-0.4,0.3-0.1,0.7,0.2,1c1.1,1.2,2.2,2.3,4,3.1
	c3.5,1.6,7.5,2.3,11.6,2.9c3.7,0.5,7.5,0.7,11.3,0.6C273.6,177.1,275.9,177.6,278.5,177z M211.9,249.1c0,2.9,2,5.3,3.2,7.9
	c1.7,3.8,4.8,7.2,9.1,10.1c3.3,2.2,6.7,4.2,10.9,5.6c2.1,0.7,4.2,1.4,6.3,2c3.3,1,6.8,1.5,10.2,2.3c0.4,0.1,0.9,0.2,1.3-0.1
	c0.3-0.3,0.1-0.6-0.1-0.8c-0.2-0.2-0.5-0.3-0.8-0.5c-1.3-0.6-2.7-1-4.2-1.3c-4.5-0.9-8.5-2.5-12.2-4.2c-3.5-1.6-6.8-3.4-9.5-5.6
	c-4.7-3.7-7.6-8.1-9.7-12.6c-0.7-1.5-1.1-3-1.6-4.5c-0.2-0.5-0.5-0.9-1.3-0.8c-0.9,0.1-1.5,0.5-1.5,1
	C211.8,248.1,211.9,248.6,211.9,249.1z M215.9,244.2C215.9,244.2,215.9,244.2,215.9,244.2c0,0.2,0,0.5,0,0.7c0,0.2,0.1,0.4,0.1,0.6
	c1.2,5.5,3.8,10.6,8.5,15.2c2.3,2.2,5,4.3,8.2,6c4,2.2,8.7,3.7,13.6,5c0.6,0.1,1.2,0.3,1.8,0.3c1.1,0.1,1.6-0.4,1.2-1
	c-0.3-0.4-0.7-0.7-1.4-0.9c-0.9-0.3-1.8-0.6-2.7-0.9c-5.9-1.9-11.2-4.3-15.1-7.7c-4.9-4.2-7.9-8.9-9.7-14.1c-0.3-1-0.6-1.9-0.8-2.9
	c-0.4-1.5-0.4-3.2-1.3-4.6c-0.2-0.4-0.5-0.8-1.2-0.7c-0.6,0.1-0.7,0.5-0.9,0.8c-0.1,0.2-0.1,0.4-0.1,0.6
	C216,241.8,215.9,243,215.9,244.2z M238.7,160c0.4,1.2,0.8,2,1.7,2.8c1.9,1.6,4.5,2.7,7.3,3.6c1.4,0.5,2.8,0.6,4.4,0.6
	c2.5-0.1,5-0.1,7.5-0.1c4.2,0,8.4-0.2,12.5,0.6c0.4,0.1,0.9,0.2,1.3-0.2c-0.3-0.7-0.8-1.4-1.5-2.1c-1.9-1.7-4.1-2.9-7.6-3
	c-3.4-0.1-6.7,0.1-10.1,0.3c-4.3,0.2-8.4-0.2-12.1-1.5C241.1,160.7,240.1,160.4,238.7,160z M256.3,149.7c-0.8-1.1-1.9-1.6-2.8-2.1
	c-2.3-1.2-4.7-2.3-7.9-2.4c-1.7-0.1-3.4-0.1-5.1-0.1c-4.9,0-9.8,0.3-14.7,0.1c-0.9,0-1.3,0.4-0.8,0.9c1.9,1.6,3.7,3.2,7.1,3.6
	c3.7,0.5,7.4,0.3,11.1-0.1c3.4-0.3,6.8-0.4,10.2-0.2C254.3,149.5,255.1,149.6,256.3,149.7z M245.1,337.9c0.1-0.7-0.3-1.4-0.8-2
	c-1.2-1.5-4.5-1.7-6.2-0.4c-1.3,1-2.3,2.1-2.9,3.3c-1.4,3-2.4,6-3.3,9.1c-0.3,1.1-0.4,2.3-0.6,3.4c0,0.2,0,0.5,0.4,0.6
	c0.6,0.2,0.8-0.2,1.1-0.4c0.5-0.4,1.1-0.9,1.6-1.4c2.1-2,4.2-4.1,6.4-6.1c1.6-1.4,2.8-3,3.9-4.5C245,339.1,245.2,338.6,245.1,337.9z
	 M199.4,253.5c-0.8,0.3-0.8,0.7-0.9,1c-0.8,2.4-1.4,4.8-1.8,7.3c-0.7,3.8,0,7.5,1.4,11.2c0.4,1,0.9,2.1,1.4,3.1
	c0.1,0.2,0.3,0.4,0.7,0.3c0.2,0,0.4-0.2,0.4-0.3c1.6-2.2,2.4-4.6,2.8-7c0.6-3.9,0-7.6-1.7-11.3C201,256.3,200.6,254.9,199.4,253.5z
	 M262.5,250c-0.1-0.6-0.3-1.2-0.9-1.5c-1.3-0.8-2.7-1.7-4.1-2.5c-3.1-1.8-6.6-3.2-9.6-5.1c-1.9-1.2-3.9-2.3-5.6-3.6
	c-0.2-0.2-0.5-0.4-1-0.3c-0.6,0.2-0.5,0.5-0.3,0.8c0.6,1.1,1,2.2,1.9,3.1c2.1,2.5,4.2,4.9,7,7.1c1.7,1.4,3.5,2.7,5.4,3.9
	c0.7,0.5,1.6,0.9,2.8,0.9C259.4,252.9,262.6,250.8,262.5,250z M222,269.5c0,1.3,0,1.3,0.5,1.8c2.8,2.7,6.2,5,10.2,7
	c2.2,1.1,4.7,1.9,7.5,2.4c6.5,1.1,13.2,1.5,19.9,1.9c0.4,0,0.9,0.1,1.2-0.4c-0.8-0.5-1.8-0.8-2.8-1.1c-4.2-1.1-8.5-1.9-12.9-2.7
	c-5.5-1-10.6-2.5-15.3-4.5C227.4,272.6,224.9,271.1,222,269.5z M228.3,343.3c-2.2,1.5-4.4,3-6.6,4.5c-1.5,0.9-2.1,2-2.1,3.2
	c-0.1,2.8-0.4,5.6-1.6,8.3c-0.1,0.2-0.1,0.4-0.2,0.6c-0.1,0.7,0.4,0.9,1.4,0.7c0.7-0.2,1.2-0.5,1.7-0.8c1-0.8,1.9-1.6,2.6-2.6
	c3-4.2,4.4-8.5,5.4-12.9C229,343.9,229,343.6,228.3,343.3z M247.9,142.6c-1.1-0.7-1.7-1.7-3.2-1.9c-2.1-0.4-4.2-0.9-6.4-1.1
	c-7.4-0.9-15-1.4-22.3-2.6c-0.6-0.1-1.4-0.3-1.9,0.3c0.1,0.3,0.5,0.5,1,0.6c3.9,1.2,8,1.9,12.2,2.4c4.9,0.6,9.8,1.2,14.8,1.7
	C244,142.2,246,142.4,247.9,142.6z M238.9,352c0.1-0.4,0.1-0.6-0.3-0.8c-0.5-0.2-0.9,0.1-1.2,0.3c-0.3,0.2-0.6,0.5-0.9,0.7
	c-1.7,1.2-3.4,2.5-5,3.7c-3.4,2.5-6.9,5-10,7.7c-0.3,0.2-0.6,0.5-0.7,0.8c-0.3,0.4-0.1,0.8,0.4,1.1c0.5,0.3,1,0.2,1.5,0
	c1-0.3,1.9-0.8,2.7-1.3c2.9-1.8,5.3-3.8,7.8-5.8c2-1.6,3.5-3.4,5.1-5.2C238.6,352.8,238.9,352.4,238.9,352z M213.3,314.3
	c0.3-0.5,0-0.8-0.2-1.2c-0.8-1.4-1.7-2.7-2.6-4.1c-3.6-5.4-7.5-10.7-11.5-16c-0.3-0.4-0.5-1.1-1.5-0.9c-0.9,0.3-0.5,0.9-0.2,1.3
	c1,2.1,2.1,4.2,3.2,6.3c0.3,0.6,0.8,1.3,1.2,1.9c2.9,4,6.6,7.8,10.1,11.6C212.1,313.7,212.6,314,213.3,314.3z M250.6,265.1
	c-0.7-1.9-2-3.3-3.2-4.8c-1.2-1.5-2.4-2.9-3.8-4.3c-1.4-1.4-2.8-2.8-4.4-4.1c-1.5-1.2-2.3-2.9-4.4-4
	C234.1,251.1,244.8,262.8,250.6,265.1z M203.5,130.2c2.5,1.3,5,2.4,8,2.9c4,0.7,8.1,1.4,12.2,2.1c0.9,0.2,1.8,0.1,2.7-0.2
	c0.7-0.3,0.6-0.5,0-0.8c-0.4-0.1-0.9-0.2-1.3-0.3c-4.8-0.9-9.5-1.9-14.1-3c-1.6-0.4-3.2-0.7-4.8-0.9
	C205.5,130,204.8,129.8,203.5,130.2z M256.9,266.6c-0.2,2.9,1.8,5.2,3.2,7.5c1.8,3.1,6.5,7.5,8.2,7.9
	C268.1,280.2,259.3,268.1,256.9,266.6z M242.6,212.2c1.5-1.5,2.1-3.1,2.7-4.7c0.8-2.1,1.6-4.3,2.2-6.5c0.2-0.8,0.1-1.5-0.9-2
	c-0.3-0.2-0.6-0.5-1.1-0.4c-0.7,0.1-0.6,0.5-0.7,0.9c-0.7,2.5-1.5,4.9-2.1,7.4C242.2,208.6,242.1,210.4,242.6,212.2z M250.4,313.9
	c0.3,0,0.5-0.1,0.6-0.2c1.8-1.9,2.7-4,3.8-6c0.2-0.3,0.2-0.7-0.1-1c-1.2-1-2.7-1.9-4.5-2.7c-0.2,3.1,0.5,6,0,9
	C250.1,313.3,249.9,313.7,250.4,313.9z M243,193.9c-2.5,2.2-2.7,2.5-2.5,3.5C243.6,196,243.9,195.6,243,193.9z M216.1,377
	c-2.9,0.8-3.5,2-1.5,3.1C214.9,379,216.6,378.2,216.1,377z M242.1,199.3c-2,1.1-2.4,2.2-1.1,3.4
	C241.3,201.6,242.2,200.5,242.1,199.3z M241.4,192.7c1.7-1.3,1.7-1.3,1-2.2C241.6,191.2,241.9,191.9,241.4,192.7z"/>
<path class="st0" d="M832.2,237.1c0,0.3,0,0.7,0,1C832.2,237.8,832.2,237.5,832.2,237.1z"/>
<path class="st0" d="M826.7,241.2c0,0.2,0,0.4-0.1,0.6C826.7,241.6,826.7,241.4,826.7,241.2z"/>
<path class="st0" d="M18.7,170.4c0.2,0,0.5,0,0.7-0.1C19.2,170.3,19,170.3,18.7,170.4z"/>
<path class="st0" d="M826.5,242.6c0,0.2,0,0.4,0,0.6C826.5,243,826.5,242.8,826.5,242.6z"/>
<path class="st0" d="M826.5,244.1c0,0.2,0,0.4,0.1,0.5C826.5,244.5,826.5,244.3,826.5,244.1z"/>
<path class="st0" d="M17.9,170C17.9,170,17.9,170,17.9,170C17.9,170,17.9,170,17.9,170z"/>
<path class="st0" d="M19.6,170.4c0.2,0.1,0.4,0.2,0.5,0.2C20,170.5,19.8,170.4,19.6,170.4z"/>
<path class="st0" d="M826.5,243.7C826.5,243.7,826.5,243.8,826.5,243.7C826.5,243.8,826.5,243.7,826.5,243.7z"/>
<path class="st0" d="M826.6,242.1c0,0.2-0.1,0.3-0.1,0.5C826.5,242.4,826.6,242.3,826.6,242.1z"/>
<path class="st0" d="M76.1,125.5c0.2,0,0.4,0,0.6,0C76.5,125.5,76.3,125.5,76.1,125.5z"/>
<path class="st0" d="M67.9,125.2c0.2,0,0.3,0,0.5-0.1C68.2,125.1,68,125.2,67.9,125.2z"/>
<path class="st0" d="M386.4,116c3.8,0.7,7.7,1.3,11.5,2.1c4.5,1,9.2,1.8,13.7,2.9c3.5,0.9,6.6,2.2,10.2,2.9c1.9,0.4,3.4,1.4,5.1,2
	c2.9,1,4.8,2.8,7.5,3.9c0.4,0.2,0.7,0.4,0.9,0.6c3.5,3,7.4,5.8,10.1,9.2c1.5,1.9,2.9,3.8,4.6,5.7c1.4,1.5,2.7,3,3.8,4.6
	c2.1,3,4.9,5.7,6.6,8.8c0.7,1.4,2,2.7,2.7,4.1c0.8,1.5,1.7,3,2.6,4.5c3.7,5.8,5.4,11.9,6.6,18.1c0.8,4,1.7,8,1.6,12.1
	c0,1.3-0.1,2.6-0.3,3.9c-0.3,2.3-0.4,4.7-1,7c-1,3.4-1.7,6.8-3.5,10.1c-2.7,5.1-6.6,9.9-9.5,15c-0.8,1.5-1.6,2.9-2.8,4.3
	c-1-0.1-0.7-0.8-1.4-1c-1.1,0.7-1.7,1.7-2.5,3.9c-0.5,1.4-1.1,2.8-1.7,4.2c-0.8,0.1-0.9-0.3-1.1-0.6c-0.4-0.6-0.8-1.3-1.3-1.9
	c-1.1-1.3-2.6-1.5-4.3-0.3c-1.7,1.2-3.3,2.5-3.6,4.2c-0.3,1.4-0.3,2.8,0.2,4.1c0.7,1.8,1.5,3.6,2.5,5.3c0.9,1.5,2.3,2.8,3.4,4.2
	c2.9,3.5,5.1,7.2,5.7,11.2c0.1,0.4,0.2,0.9,0.1,1.3c-0.4,3,1.2,5.7,2.6,8.4c1.4,2.6,2.7,5.3,3.4,8.1c0.5,2,1,4.1,1.2,6.2
	c0.2,1.7,1.7,3,2.6,4.5c0.8,1.4,1.6,2.9,1.9,4.4c0.2,0.9,0.4,1.8-0.1,2.7c-0.8,1.4-1.3,2.7-0.5,4c0.2,0.3,0,0.6-0.4,0.8
	c-0.4,0.2-0.8,0.3-1.3,0.2c-0.5-0.1-0.5-0.4-0.5-0.7c0.3-1.9-0.7-3.7-1.6-5.4c-0.1-0.2-0.3-0.3-0.8-0.3c-0.6,0.5-0.8,1.1-0.8,1.6
	c0,1.6,0.2,3.1,1.3,4.6c1,1.5,1.5,3.1,0.3,4.8c-0.2,0.3-0.3,0.6-1,0.7c0.2-1-0.6-1.9-1.2-2.7c-0.3-0.3-0.7-0.7-1.4-0.6
	c-0.7,0-1,0.5-1.2,0.9c-1.3,2.2-1.4,4.5-0.6,6.7c0.5,1.5,1.4,2.9,1.7,4.4c0.1,0.9,0.3,1.7-1,2.7c-0.5-1.5-1.1-2.7-1.9-3.9
	c-0.3-0.5-0.6-1-1-1.5c-0.6-0.8-1.3-0.8-2.1,0c-0.6,0.7-1.2,1.3-1.6,2.1c-1.7,3-4.1,5.7-6.5,8.5c-1.5,1.7-2.9,3.5-4.6,5.2
	c-2.5,2.6-5.2,5.1-8.3,7.5c-4,3-8.3,5.8-12.6,8.7c-2.3,1.5-4.8,2.7-7.3,4c-3.3,1.6-6.6,3.3-9.8,4.9c-0.3,0.2-0.7,0.3-0.8,0.5
	c-1.3,2.1-4.1,4-3.4,6.5c0.2,0.6-1.8,1.9-2.7,2c-0.7,0.1-1-0.2-1.1-0.5c-0.3-0.7-0.3-1.5-1.1-2c-0.3-0.2-0.2-0.5,0.1-0.7
	c1.1-0.9,0.8-1.8,0.7-2.7c-0.1-0.8,0.2-1.5,0.2-2.2c0-0.3,0.1-0.5,0.4-0.7c1.5-0.8,2.3-2,4.1-2.7c2-0.8,3.4-2,5.1-3
	c2.1-1.2,3.9-2.4,5.6-3.8c1.5-1.1,2.8-2.3,4.2-3.5c0.3-0.3,0.7-0.7,0.1-0.9c-0.4-0.2-0.8,0.2-1.2,0.4c-3,1.9-5.9,3.7-9.3,5.3
	c-3.5,1.7-6.9,3.3-10.7,4.7c-2.5,0.9-4.7,2.1-6.6,3.5c-1.2,0.9-2,1.8-1.8,3c0.1,0.4,0,0.8-0.8,0.9c-0.7,0.1-1.1,0.4-1.5,0.7
	c-0.3,0.3-0.6,0.5-1.2,0.3c-0.6-0.1-0.4-0.5-0.4-0.7c0.1-0.9-0.1-1.8,1.1-2.5c0.6-0.4,0.5-0.8,0.3-1.3c-0.2-0.4-0.3-0.8-0.3-1.3
	c0.1-1.1,0.5-1.9,2.3-2.5c3.6-1.3,7-2.8,9.5-5c0.8-0.8,1.1-1.6,1.8-2.4c0.5-0.6-0.3-1-1.4-0.9c-0.6,0.1-1.2,0.3-1.8,0.4
	c-0.6,0.2-1.1,0.4-1.7,0.5c-0.5,0.1-0.9,0-1.2-0.3c-0.2-0.2,0-0.5,0.3-0.7c0.8-0.6,1.6-1.3,2.5-1.9c3-1.8,4.3-4.1,5.5-6.4
	c0.7-1.3,1.1-2.7,1.5-4.1c0.3-0.9-0.1-1-1.5-0.8c-1.9,0.2-2.4,0.1-2.3-1.3c0.2-2.4,0.7-4.8,1.9-7.2c2.4-4.9,3.8-9.9,3-15
	c-0.4-2.6-1.8-5.1-3.7-7.4c-0.5-0.6-0.8-1.3-0.2-2c0.7-0.8,0.1-1.5-0.5-2.1c-3.8-3.6-7.4-7.3-10.4-11.2c-1.5-1.9-3-3.8-4.2-5.8
	c-1-1.5-1.6-3.1-2.3-4.7c-2-4.2-3.1-8.6-4-13c-0.7-3.6-0.7-7.2-0.5-10.9c0.2-2.9,0.2-5.8,1-8.7c0.6-2.1,0.9-4.2,1.9-6.3
	c0.4-0.9,0.1-1.8,0.5-2.6c1.4-2.7,2.9-5.3,4.9-7.8c1.2-1.6,2.3-3.3,3.3-5c1.8-3,4.5-5.7,6.9-8.6c1.3-1.5,2.5-3.1,4.2-4.4
	c2.2-1.8,3.9-3.7,6-5.5c1.9-1.6,4-3.2,6.2-4.7c1.7-1.2,3.1-2.5,4.4-3.8c0.9-1,1.3-1.9,0.5-3c-1.1-1.5-1-3-0.1-4.6
	c0.1-0.2,0.4-0.4,0.6-0.7c0.7,0.6,0.3,1.1,0.1,1.6c-0.6,1.1-0.3,2.1,0.7,3.1c2,2,1.8,4.3-0.7,6.2c-1.5,1.2-2.4,2.6-2.9,4
	c-1.3,3.1-1.4,6.4-1,9.5c0.3,2.3,1.4,4.6,2.7,6.8c2.2,3.8,5.4,7.3,8.9,10.7c2,1.9,3.9,3.7,6,5.5c2.1,1.8,4.4,3.5,6.5,5.3
	c0.8,0.7,1.3,1.5,2.6,2c1.1-0.9,0.9-1.9,0.8-2.8c-0.1-0.8-0.7-1.5-1.3-2.2c-0.3-0.3-1-0.2-1.5-0.2c-1.6,0.3-2.6-0.3-3.3-1
	c-0.8-0.7-1.5-1.5-2-2.4c-1.8-3.9-4.2-7.6-7.4-11c-1.1-1.2-1.9-2.5-2.6-3.9c-0.8-1.7-2-3.3-2.8-5c-1.3-2.7-1.1-5.4-0.4-8.2
	c0.2-1,1.2-1.9,2.4-2.6c2-1.2,2.8-2.7,2.6-4.4c-0.4-3.1,0.2-6.2,0.5-9.2c0-0.3,0.2-0.7,0.4-1c0.6-0.9,0.4-1.6-0.6-2.3
	c-1.1-0.8-0.9-2-0.8-3c0.1-0.8,0-1.7-0.1-2.5c0-0.3-0.2-0.7,0-1c1.4-2.4,1-4.9,2.4-7.3c0.1-0.2,0.2-0.5,0.5-0.7
	c1.3-1,1.1-2.1,0.5-3.1c-1.3-2.6-1.5-5.3-2.7-7.9c-0.2-0.3-0.3-0.7-0.4-1c-0.2-0.5-0.7-0.7-1.6-0.4c-0.8,0.3-1.6,0.7-2.4,1
	c-0.4,0.2-0.9,0.2-1.2,0c-0.4-0.3,0-0.5,0.3-0.7c2.6-1.7,2.6-3.7,2.1-5.8c-1.4,0.3-1.7,1.1-2.4,1.7c-0.3,0.3-0.5,0.6-1,0.5
	c-0.6-0.1-0.7-0.5-0.6-0.9c0.2-0.4,0.5-0.7,0.7-1.1c1.4-2.3,1.1-4.5-0.6-6.7c-0.7,0.6-1,1.2-1.3,1.8c-0.2,0.5-0.5,1.1-1.3,1.4
	c-0.3,0.1-0.6,0.2-0.9,0.1c-0.3-0.1-0.3-0.3-0.2-0.5c0.5-1.2,0.6-2.5,0.4-3.7c-0.2-1.4-0.5-2.7-1.5-4c-0.2-0.2-0.1-0.5-0.2-0.7
	c-0.1-1-0.8-1.8-1.7-2.7c-3-3-6.5-5.9-9.8-8.8c-2-1.7-3.8-3.6-5.8-5.3c-2-1.7-4.3-3.3-6.6-4.9c-5.9-4-12.4-7.6-18.5-11.5
	c-1.2-0.8-2.6-1.5-4-2.2c-0.3-0.2-0.7-0.4-1-0.6c-0.5-0.3-0.8-0.8-0.2-1.2c0.5-0.3,1.2-0.5,1.9-0.2c1.3,0.6,3.2,0.6,4.4,1.4
	c0.2,0.1,0.7,0.1,1.1,0.1c0.8,1,2.6,1,4,1.4c2.9,0.7,5.6,1.7,8.7,2.2C381.7,115.3,384.1,115.6,386.4,116z M416,141.9
	c-0.2,0.3,0,0.5,0.3,0.6c5.1,3.7,11.2,5.9,19.6,4.4c0.2,0,0.5-0.1,0.7-0.1c2.5-0.4,5.1-0.6,7.7-0.5c0.5,0,1.1,0.2,1.5-0.3
	c-0.6-1.2-2-2-3.3-2.9c-2.8-1.9-6.3-2.5-10.5-2.1c-4.9,0.5-9.8,1.2-14.7,0.6C417,141.7,416.5,141.9,416,141.9c-0.2,0-0.2,0-0.1,0.1
	C415.9,141.9,416,141.9,416,141.9z M456.5,295.2c-0.1-3.3-1.2-6.5-2.2-9.7c-0.9-2.9-1.8-5.8-3.7-8.5c-2.1-3-5.7-5-11.2-5.3
	c-2.3-0.1-4.6-0.3-6.9-0.4c-6.8-0.2-13.1-1.3-19-3.2c-0.9-0.3-1.7-0.6-2.6-0.9c-0.4-0.1-0.8-0.3-1.3-0.1c-0.4,0.2-0.3,0.6-0.1,0.8
	c0.1,0.2,0.2,0.4,0.3,0.5c1.9,2.9,4.3,5.6,7,8.2c2.9,2.8,6.1,5.5,9.4,8.2c2.2,1.8,4.9,3.4,7.2,5.3c4.2,3.4,9.5,5.9,14.5,8.8
	c1.3,0.7,2.9,1.2,4.7,1.5c2.6,0.4,4.2-0.4,4.2-2.1C456.7,297.3,456.6,296.3,456.5,295.2z M383.3,281c0.3,1.1,0.4,2.6,1.4,3.9
	c2.2,2.8,3.9,5.8,5.9,8.7c2.5,3.7,4.6,7.6,6.4,11.5c0.5,1.1,1.3,2.1,2.2,3c1.2,1.2,3.1,1.1,4.3-0.1c0.7-0.7,1.3-1.4,1.5-2.2
	c0.7-2.1,1.5-4.1,2.2-6.2c1.2-3.8,1.1-7.6,0.9-11.3c-0.3-3.8-0.6-7.6-2.6-11.2c-1.9-3.4-3.7-6.8-5.5-10.3c-0.1-0.3-0.4-0.5-0.7-0.8
	c-1.9-1.7-5.2-1.7-7.2,0.1c-2.5,2.3-4.8,4.7-6.5,7.3C384.1,275.8,383.1,278.1,383.3,281z M425.5,297.1c0.2-3.2-0.9-6.4-3.2-9.5
	c-1.6-2.2-3.9-4-5.9-6c-0.6-0.6-0.9-1.3-1.9-1.6c-0.7-0.2-1.4-0.8-2.3-0.5c-1,0.4-0.4,1-0.3,1.5c1,3.7,0.9,7.4,1.3,11.1
	c0.5,3.9-1,7.8-2,11.6c-1.4,4.9-4.3,9.4-8.8,13.5c-0.6,0.5-0.9,1.1-1.1,1.7c-0.6,2-1.2,3.9-1.8,5.9c-0.4,1.3,0,2.6,0.7,3.8
	c1,1.6,2.8,1.7,4.9,0.4c6.1-3.7,10.3-8.1,13.9-12.8c2.1-2.7,3.4-5.6,4.6-8.4C425.1,304.3,425.9,300.9,425.5,297.1z M431.9,174.6
	c-0.7,0.4-0.5,0.7-0.5,1c0.4,2.5,1.5,4.8,2.9,7.1c1.7,2.6,3.6,5.2,6.6,7.4c2.4,1.8,4.5,3.7,7,5.5c4.1,2.9,8.3,5.6,12.5,8.4
	c2.4,1.5,5.1,2.9,7.8,4.2c1.2,0.6,1.9,0.5,2.1-0.5c0.3-2.1,1.1-4.3,0.9-6.4c-0.7-7-6.4-12-14.9-15.7c-3.2-1.4-7-2.3-10.5-3.5
	c-4.1-1.4-7.9-3.1-10.7-5.5C434.2,175.7,433.1,175.2,431.9,174.6z M433.8,193.7c0.4,2.1,0.7,4.1,1.1,6.1c0.2,0.9,0.5,1.8,1.2,2.7
	c2.7,3.5,5.9,6.7,10.5,9.2c1.3,0.7,2.5,1.5,3.6,2.4c3.3,2.5,7,4.8,10.1,7.4c1.6,1.3,2.4,1.2,3.6-0.4c0.2-0.2,0.3-0.5,0.4-0.7
	c1-1.6,1.4-3.3,1.7-5c0.3-1.9-0.3-3.6-1.7-5.3c-1.9-2.3-4.6-4.2-7.4-6c-2.2-1.4-4.6-2.7-6.6-4.2c-4.1-3.1-8.8-5.9-12.7-9
	c-0.5-0.4-1.3-0.7-2-0.9c-0.8-0.3-1.3-0.1-1.5,0.5C433.8,191.6,433.7,192.7,433.8,193.7z M452.1,308.5c0.2-2.6-1-4.8-4.1-6.5
	c-2.8-1.5-5.4-3.1-8-4.7c-1.3-0.8-1.7-0.7-2.7,0.3c-1.5,1.6-2.8,3.2-3.9,4.9c-1.4,1.9-2.6,3.9-4.1,5.8c-2,2.5-2.5,5.1-2.9,7.7
	c-0.2,1.1,0.5,2,1.8,2.7c1.6,0.9,3.1,1.9,4.6,2.8c1.5,0.9,1.8,1,3.5,0c1.4-0.8,2.8-1.5,4.7-1.8c1.4-0.2,2.3-0.7,3-1.5
	c1.3-1.4,3-2.7,5.8-2.9c1.4-0.1,1.7-0.7,1.9-1.5C451.9,312.1,452.2,310.4,452.1,308.5z M429.5,165.4c-0.5,0.8,0.2,1.4,0.5,1.9
	c1,1.4,2.2,2.8,3.4,4.1c1.3,1.4,2.6,2.9,4.4,4c3.3,2.1,7.2,3.7,11.1,5.3c1.3,0.5,2.8,0.9,4.3,1.3c4.4,1,8.6,2.3,12.1,4.3
	c0.9,0.5,1.8,0.9,2.9,0.5c1-0.4,0.6-1.1,0.4-1.6c-0.8-2.9-1.6-5.8-3.2-8.6c-1.8-3.2-5.3-5.1-10.4-5.7c-6.6-0.9-12.8-2.4-19-3.9
	C434,166.4,431.8,165.9,429.5,165.4z M427.2,199.3c-1.3,2.3-2.3,4.7-3,7c-0.6,1.9-0.5,3.8,1.2,5.4c1.5,1.5,3.2,2.9,5.2,4.2
	c2.4,1.6,5,3.1,7.8,4.4c3,1.4,5.9,2.8,8.8,4.3c1.3,0.7,2.6,1.4,3.9,2c2.2,0.9,4.9,0.3,5.7-1.2c0.8-1.5,0.7-2.8-0.9-4
	c-2.3-1.7-4.8-3.3-7.4-4.9c-5-3.1-10.2-6.1-14.7-9.5c-2.7-2.1-5.5-4.2-5.8-7.1C428,199.7,427.9,199.4,427.2,199.3z M399,361.7
	c0.5,0.1,0.7,0.1,0.8,0.1c1-0.4,2.1-0.7,3.1-1.1c7.6-3.6,14.6-7.7,20.6-12.4c5.6-4.4,10.4-9.1,15-13.9c1.2-1.3,2.4-2.5,3.3-3.9
	c0.6-0.8,0.3-1.3-0.4-1.9c-2.7-2.1-3.1-2.1-6.5-0.2c-0.4,0.2-0.7,0.4-1,0.6c-3,2.2-5,4.7-6.5,7.4c-1.7,2.9-3.7,5.8-6.4,8.5
	c-4.9,4.9-10.1,9.7-16.8,13.7C402.5,359.7,400.8,360.7,399,361.7z M446.8,233.6c1.9-1.9,1.9-2.9,0.3-4.5c-0.4-0.4-0.9-0.8-1.5-1.1
	c-4.1-2.5-8.9-4.5-13-7c-2.3-1.4-4.7-2.8-6.5-4.4c-1.8-1.5-3.2-3.3-4.3-5.1c-0.2-0.4,0-1.1-1.1-1.1c-1,0-1.1,0.8-1.6,1.2
	c-0.2,0.2-0.3,0.5-0.4,0.7c-1.1,3.1-0.2,5.8,2.7,8.2c2.8,2.4,6.6,4.1,10.3,5.9c4.6,2.3,9.7,4.3,14.2,6.8
	C446,233.3,446.4,233.4,446.8,233.6z M391.9,254.4c-0.1-1.8,0.1-3.2-0.3-4.5c-0.5-1.6-1-3.2-1.7-4.7c-0.5-1.1-1.1-2.1-1.7-3.2
	c-0.3-0.6-1-0.8-2-0.7c-1,0.1-1.4,0.6-1.6,1.2c-0.1,0.4,0,0.8,0.1,1.2c0.4,1.4,0.8,2.7,1.3,4c1.6,4.2,1.2,8.4-0.6,12.7
	c-1.1,2.7-3.2,5.1-5.6,7.4c-0.8,0.8-1.6,1.5-2.2,2.4c-0.8,1,0,2.5,1.3,2.9c1,0.3,2.5-0.2,3.5-1.2c0.7-0.7,1.3-1.4,2-2.1
	c2.2-2,4-4.2,5.2-6.5C391.4,260.1,392.6,257,391.9,254.4z M402.4,225.5c0.2,3.3,0.9,6.5,2.3,9.6c2.3,5.1,6,9.7,11.6,13.6
	c2.9,2,6.2,3.7,9.3,5.6c0.7,0.4,1.5,0.8,2.4,1.1c0.4,0.2,0.9,0.2,1.3-0.1c0.4-0.3,0.4-0.5,0.1-0.8c-0.2-0.2-0.4-0.3-0.6-0.4
	c-2.5-2-5.1-4.1-7.5-6.1c-2.1-1.8-3.9-3.7-5.9-5.5c-2.7-2.5-5.1-5.2-6.3-8.2c-1.7-4.2-3.7-8.4-4.2-12.8c-0.1-0.6,0.2-1.8-1.1-1.7
	c-1.4,0.1-1.1,1.2-1.1,1.9C402.5,222.8,402.2,224.2,402.4,225.5z M458.4,164.6c-0.7-1.4-1.7-2.6-2.6-3.9c-1.2-1.7-3.5-2-6.1-2.1
	c-1.2,0-2.3,0.2-3.5,0.3c-4.6,0.3-9.2,0.5-13.6-0.4c-2.3-0.5-4.7-0.9-7-1.4c-0.5-0.1-1.1-0.3-1.5,0.1c-0.4,0.3-0.1,0.7,0.2,1
	c1.1,1.2,2.2,2.3,4,3.1c3.5,1.6,7.5,2.3,11.6,2.9c3.7,0.5,7.5,0.7,11.3,0.6C453.5,164.7,455.8,165.2,458.4,164.6z M391.8,236.7
	c0,2.9,2,5.3,3.2,7.9c1.7,3.8,4.8,7.2,9.1,10.1c3.3,2.2,6.7,4.2,10.9,5.6c2.1,0.7,4.2,1.4,6.3,2c3.3,1,6.8,1.5,10.2,2.3
	c0.4,0.1,0.9,0.2,1.3-0.1c0.3-0.3,0.1-0.6-0.1-0.8c-0.2-0.2-0.5-0.3-0.8-0.5c-1.3-0.6-2.7-1-4.2-1.3c-4.5-0.9-8.5-2.5-12.2-4.2
	c-3.5-1.6-6.8-3.4-9.5-5.6c-4.7-3.7-7.6-8.1-9.7-12.6c-0.7-1.5-1.1-3-1.6-4.5c-0.2-0.5-0.5-0.9-1.3-0.8c-0.9,0.1-1.5,0.5-1.5,1
	C391.7,235.7,391.8,236.2,391.8,236.7z M395.8,231.8C395.8,231.8,395.8,231.8,395.8,231.8c0,0.2,0,0.5,0,0.7c0,0.2,0.1,0.4,0.1,0.6
	c1.2,5.5,3.8,10.6,8.5,15.2c2.3,2.2,5,4.3,8.2,6c4,2.2,8.7,3.7,13.6,5c0.6,0.1,1.2,0.3,1.8,0.3c1.1,0.1,1.6-0.4,1.2-1
	c-0.3-0.4-0.7-0.7-1.4-0.9c-0.9-0.3-1.8-0.6-2.7-0.9c-5.9-1.9-11.2-4.3-15.1-7.7c-4.9-4.2-7.9-8.9-9.7-14.1c-0.3-1-0.6-1.9-0.8-2.9
	c-0.4-1.5-0.4-3.2-1.3-4.6c-0.2-0.4-0.5-0.8-1.2-0.7c-0.6,0.1-0.7,0.5-0.9,0.8c-0.1,0.2-0.1,0.4-0.1,0.6
	C395.8,229.4,395.8,230.6,395.8,231.8z M418.6,147.6c0.4,1.2,0.8,2,1.7,2.8c1.9,1.6,4.5,2.7,7.3,3.6c1.4,0.5,2.8,0.6,4.4,0.6
	c2.5-0.1,5-0.1,7.5-0.1c4.2,0,8.4-0.2,12.5,0.6c0.4,0.1,0.9,0.2,1.3-0.2c-0.3-0.7-0.8-1.4-1.5-2.1c-1.9-1.7-4.1-2.9-7.6-3
	c-3.4-0.1-6.7,0.1-10.1,0.3c-4.3,0.2-8.4-0.2-12.1-1.5C421,148.3,420,148,418.6,147.6z M436.2,137.4c-0.8-1.1-1.9-1.6-2.8-2.1
	c-2.3-1.2-4.7-2.3-7.9-2.4c-1.7-0.1-3.4-0.1-5.1-0.1c-4.9,0-9.8,0.3-14.7,0.1c-0.9,0-1.3,0.4-0.8,0.9c1.9,1.6,3.7,3.2,7.1,3.6
	c3.7,0.5,7.4,0.3,11.1-0.1c3.4-0.3,6.8-0.4,10.2-0.2C434.2,137.1,435,137.2,436.2,137.4z M425,325.5c0.1-0.7-0.3-1.4-0.8-2
	c-1.2-1.5-4.5-1.7-6.2-0.4c-1.3,1-2.3,2.1-2.9,3.3c-1.4,3-2.4,6-3.3,9.1c-0.3,1.1-0.4,2.3-0.6,3.4c0,0.2,0,0.5,0.4,0.6
	c0.6,0.2,0.8-0.2,1.1-0.4c0.5-0.4,1.1-0.9,1.6-1.4c2.1-2,4.2-4.1,6.4-6.1c1.6-1.4,2.8-3,3.9-4.5C424.9,326.7,425.1,326.2,425,325.5z
	 M379.3,241.1c-0.8,0.3-0.8,0.7-0.9,1c-0.8,2.4-1.4,4.8-1.8,7.3c-0.7,3.8,0,7.5,1.4,11.2c0.4,1,0.9,2.1,1.4,3.1
	c0.1,0.2,0.3,0.4,0.7,0.3c0.2,0,0.4-0.2,0.4-0.3c1.6-2.2,2.4-4.6,2.8-7c0.6-3.9,0-7.6-1.7-11.3C380.9,243.9,380.5,242.5,379.3,241.1
	z M442.4,237.6c-0.1-0.6-0.3-1.2-0.9-1.5c-1.3-0.8-2.7-1.7-4.1-2.5c-3.1-1.8-6.6-3.2-9.6-5.1c-1.9-1.2-3.9-2.3-5.6-3.6
	c-0.2-0.2-0.5-0.4-1-0.3c-0.6,0.2-0.5,0.5-0.3,0.8c0.6,1.1,1,2.2,1.9,3.1c2.1,2.5,4.2,4.9,7,7.1c1.7,1.4,3.5,2.7,5.4,3.9
	c0.7,0.5,1.6,0.9,2.8,0.9C439.2,240.5,442.5,238.4,442.4,237.6z M401.9,257.1c0,1.3,0,1.3,0.5,1.8c2.8,2.7,6.2,5,10.2,7
	c2.2,1.1,4.7,1.9,7.5,2.4c6.5,1.1,13.2,1.5,19.9,1.9c0.4,0,0.9,0.1,1.2-0.4c-0.8-0.5-1.8-0.8-2.8-1.1c-4.2-1.1-8.5-1.9-12.9-2.7
	c-5.5-1-10.6-2.5-15.3-4.5C407.3,260.2,404.8,258.7,401.9,257.1z M408.2,330.9c-2.2,1.5-4.4,3-6.6,4.5c-1.5,0.9-2.1,2-2.1,3.2
	c-0.1,2.8-0.4,5.6-1.6,8.3c-0.1,0.2-0.1,0.4-0.2,0.6c-0.1,0.7,0.4,0.9,1.4,0.7c0.7-0.2,1.2-0.5,1.7-0.8c1-0.8,1.9-1.6,2.6-2.6
	c3-4.2,4.4-8.5,5.4-12.9C408.8,331.5,408.9,331.2,408.2,330.9z M427.8,130.2c-1.1-0.7-1.7-1.7-3.2-1.9c-2.1-0.4-4.2-0.9-6.4-1.1
	c-7.4-0.9-15-1.4-22.3-2.6c-0.6-0.1-1.4-0.3-1.9,0.3c0.1,0.3,0.5,0.5,1,0.6c3.9,1.2,8,1.9,12.2,2.4c4.9,0.6,9.8,1.2,14.8,1.7
	C423.9,129.8,425.9,130,427.8,130.2z M418.8,339.6c0.1-0.4,0.1-0.6-0.3-0.8c-0.5-0.2-0.9,0.1-1.2,0.3c-0.3,0.2-0.6,0.5-0.9,0.7
	c-1.7,1.2-3.4,2.5-5,3.7c-3.4,2.5-6.9,5-10,7.7c-0.3,0.2-0.6,0.5-0.7,0.8c-0.3,0.4-0.1,0.8,0.4,1.1c0.5,0.3,1,0.2,1.5,0
	c1-0.3,1.9-0.8,2.7-1.3c2.9-1.8,5.3-3.8,7.8-5.8c2-1.6,3.5-3.4,5.1-5.2C418.5,340.4,418.8,340,418.8,339.6z M393.2,301.9
	c0.3-0.5,0-0.8-0.2-1.2c-0.8-1.4-1.7-2.7-2.6-4.1c-3.6-5.4-7.5-10.7-11.5-16c-0.3-0.4-0.5-1.1-1.5-0.9c-0.9,0.3-0.5,0.9-0.2,1.3
	c1,2.1,2.1,4.2,3.2,6.3c0.3,0.6,0.8,1.3,1.2,1.9c2.9,4,6.6,7.8,10.1,11.6C392,301.3,392.5,301.6,393.2,301.9z M430.5,252.7
	c-0.7-1.9-2-3.3-3.2-4.8c-1.2-1.5-2.4-2.9-3.8-4.3c-1.4-1.4-2.8-2.8-4.4-4.1c-1.5-1.2-2.3-2.9-4.4-4
	C414,238.7,424.7,250.4,430.5,252.7z M383.4,117.9c2.5,1.3,5,2.4,8,2.9c4,0.7,8.1,1.4,12.2,2.1c0.9,0.2,1.8,0.1,2.7-0.2
	c0.7-0.3,0.6-0.5,0-0.8c-0.4-0.1-0.9-0.2-1.3-0.3c-4.8-0.9-9.5-1.9-14.1-3c-1.6-0.4-3.2-0.7-4.8-0.9
	C385.4,117.7,384.6,117.4,383.4,117.9z M436.8,254.2c-0.2,2.9,1.8,5.2,3.2,7.5c1.8,3.1,6.5,7.5,8.2,7.9
	C447.9,267.8,439.2,255.7,436.8,254.2z M422.5,199.8c1.5-1.5,2.1-3.1,2.7-4.7c0.8-2.1,1.6-4.3,2.2-6.5c0.2-0.8,0.1-1.5-0.9-2
	c-0.3-0.2-0.6-0.5-1.1-0.4c-0.7,0.1-0.6,0.5-0.7,0.9c-0.7,2.5-1.5,4.9-2.1,7.4C422.1,196.2,422,198,422.5,199.8z M430.3,301.5
	c0.3,0,0.5-0.1,0.6-0.2c1.8-1.9,2.7-4,3.8-6c0.2-0.3,0.2-0.7-0.1-1c-1.2-1-2.7-1.9-4.5-2.7c-0.2,3.1,0.5,6,0,9
	C430,300.9,429.8,301.3,430.3,301.5z M422.9,181.5c-2.5,2.2-2.7,2.5-2.5,3.5C423.4,183.7,423.8,183.2,422.9,181.5z M396,364.7
	c-2.9,0.8-3.5,2-1.5,3.1C394.8,366.6,396.5,365.9,396,364.7z M422,186.9c-2,1.1-2.4,2.2-1.1,3.4C421.2,189.2,422.1,188.1,422,186.9z
	 M421.3,180.4c1.7-1.3,1.7-1.3,1-2.2C421.5,178.8,421.8,179.5,421.3,180.4z"/>
<path class="st0" d="M295.4,122.4c3.8,0.7,7.7,1.3,11.5,2.1c4.5,1,9.2,1.8,13.7,2.9c3.5,0.9,6.6,2.2,10.2,2.9c1.9,0.4,3.4,1.4,5.1,2
	c2.9,1,4.8,2.8,7.5,3.9c0.4,0.2,0.7,0.4,0.9,0.6c3.5,3,7.4,5.8,10.1,9.2c1.5,1.9,2.9,3.8,4.6,5.7c1.4,1.5,2.7,3,3.8,4.6
	c2.1,3,4.9,5.7,6.6,8.8c0.7,1.4,2,2.7,2.7,4.1c0.8,1.5,1.7,3,2.6,4.5c3.7,5.8,5.4,11.9,6.6,18.1c0.8,4,1.7,8,1.6,12.1
	c0,1.3-0.1,2.6-0.3,3.9c-0.3,2.3-0.4,4.7-1,7c-1,3.4-1.7,6.8-3.5,10.1c-2.7,5.1-6.6,9.9-9.5,15c-0.8,1.5-1.6,2.9-2.8,4.3
	c-1-0.1-0.7-0.8-1.4-1c-1.1,0.7-1.7,1.7-2.5,3.9c-0.5,1.4-1.1,2.8-1.7,4.2c-0.8,0.1-0.9-0.3-1.1-0.6c-0.4-0.6-0.8-1.3-1.3-1.9
	c-1.1-1.3-2.6-1.5-4.3-0.3c-1.7,1.2-3.3,2.5-3.6,4.2c-0.3,1.4-0.3,2.8,0.2,4.1c0.7,1.8,1.5,3.6,2.5,5.3c0.9,1.5,2.3,2.8,3.4,4.2
	c2.9,3.5,5.1,7.2,5.7,11.2c0.1,0.4,0.2,0.9,0.1,1.3c-0.4,3,1.2,5.7,2.6,8.4c1.4,2.6,2.7,5.3,3.4,8.1c0.5,2,1,4.1,1.2,6.2
	c0.2,1.7,1.7,3,2.6,4.5c0.8,1.4,1.6,2.9,1.9,4.4c0.2,0.9,0.4,1.8-0.1,2.7c-0.8,1.4-1.3,2.7-0.5,4c0.2,0.3,0,0.6-0.4,0.8
	c-0.4,0.2-0.8,0.3-1.3,0.2c-0.5-0.1-0.5-0.4-0.5-0.7c0.3-1.9-0.7-3.7-1.6-5.4c-0.1-0.2-0.3-0.3-0.8-0.3c-0.6,0.5-0.8,1.1-0.8,1.6
	c0,1.6,0.2,3.1,1.3,4.6c1,1.5,1.5,3.1,0.3,4.8c-0.2,0.3-0.3,0.6-1,0.7c0.2-1-0.6-1.9-1.2-2.7c-0.3-0.3-0.7-0.7-1.4-0.6
	c-0.7,0-1,0.5-1.2,0.9c-1.3,2.2-1.4,4.5-0.6,6.7c0.5,1.5,1.4,2.9,1.7,4.4c0.1,0.9,0.3,1.7-1,2.7c-0.5-1.5-1.1-2.7-1.9-3.9
	c-0.3-0.5-0.6-1-1-1.5c-0.6-0.8-1.3-0.8-2.1,0c-0.6,0.7-1.2,1.3-1.6,2.1c-1.7,3-4.1,5.7-6.5,8.5c-1.5,1.7-2.9,3.5-4.6,5.2
	c-2.5,2.6-5.2,5.1-8.3,7.5c-4,3-8.3,5.8-12.6,8.7c-2.3,1.5-4.8,2.7-7.3,4c-3.3,1.6-6.6,3.3-9.8,4.9c-0.3,0.2-0.7,0.3-0.8,0.5
	c-1.3,2.1-4.1,4-3.4,6.5c0.2,0.6-1.8,1.9-2.7,2c-0.7,0.1-1-0.2-1.1-0.5c-0.3-0.7-0.3-1.5-1.1-2c-0.3-0.2-0.2-0.5,0.1-0.7
	c1.1-0.9,0.8-1.8,0.7-2.7c-0.1-0.8,0.2-1.5,0.2-2.2c0-0.3,0.1-0.5,0.4-0.7c1.5-0.8,2.3-2,4.1-2.7c2-0.8,3.4-2,5.1-3
	c2.1-1.2,3.9-2.4,5.6-3.8c1.5-1.1,2.8-2.3,4.2-3.5c0.3-0.3,0.7-0.7,0.1-0.9c-0.4-0.2-0.8,0.2-1.2,0.4c-3,1.9-5.9,3.7-9.3,5.3
	c-3.5,1.7-6.9,3.3-10.7,4.7c-2.5,0.9-4.7,2.1-6.6,3.5c-1.2,0.9-2,1.8-1.8,3c0.1,0.4,0,0.8-0.8,0.9c-0.7,0.1-1.1,0.4-1.5,0.7
	c-0.3,0.3-0.6,0.5-1.2,0.3c-0.6-0.1-0.4-0.5-0.4-0.7c0.1-0.9-0.1-1.8,1.1-2.5c0.6-0.4,0.5-0.8,0.3-1.3c-0.2-0.4-0.3-0.8-0.3-1.3
	c0.1-1.1,0.5-1.9,2.3-2.5c3.6-1.3,7-2.8,9.5-5c0.8-0.8,1.1-1.6,1.8-2.4c0.5-0.6-0.3-1-1.4-0.9c-0.6,0.1-1.2,0.3-1.8,0.4
	c-0.6,0.2-1.1,0.4-1.7,0.5c-0.5,0.1-0.9,0-1.2-0.3c-0.2-0.2,0-0.5,0.3-0.7c0.8-0.6,1.6-1.3,2.5-1.9c3-1.8,4.3-4.1,5.5-6.4
	c0.7-1.3,1.1-2.7,1.5-4.1c0.3-0.9-0.1-1-1.5-0.8c-1.9,0.2-2.4,0.1-2.3-1.3c0.2-2.4,0.7-4.8,1.9-7.2c2.4-4.9,3.8-9.9,3-15
	c-0.4-2.6-1.8-5.1-3.7-7.4c-0.5-0.6-0.8-1.3-0.2-2c0.7-0.8,0.1-1.5-0.5-2.1c-3.8-3.6-7.4-7.3-10.4-11.2c-1.5-1.9-3-3.8-4.2-5.8
	c-1-1.5-1.6-3.1-2.3-4.7c-2-4.2-3.1-8.6-4-13c-0.7-3.6-0.7-7.2-0.5-10.9c0.2-2.9,0.2-5.8,1-8.7c0.6-2.1,0.9-4.2,1.9-6.3
	c0.4-0.9,0.1-1.8,0.5-2.6c1.4-2.7,2.9-5.3,4.9-7.8c1.2-1.6,2.3-3.3,3.3-5c1.8-3,4.5-5.7,6.9-8.6c1.3-1.5,2.5-3.1,4.2-4.4
	c2.2-1.8,3.9-3.7,6-5.5c1.9-1.6,4-3.2,6.2-4.7c1.7-1.2,3.1-2.5,4.4-3.8c0.9-1,1.3-1.9,0.5-3c-1.1-1.5-1-3-0.1-4.6
	c0.1-0.2,0.4-0.4,0.6-0.7c0.7,0.6,0.3,1.1,0.1,1.6c-0.6,1.1-0.3,2.1,0.7,3.1c2,2,1.8,4.3-0.7,6.2c-1.5,1.2-2.4,2.6-2.9,4
	c-1.3,3.1-1.4,6.4-1,9.5c0.3,2.3,1.4,4.6,2.7,6.8c2.2,3.8,5.4,7.3,8.9,10.7c2,1.9,3.9,3.7,6,5.5c2.1,1.8,4.4,3.5,6.5,5.3
	c0.8,0.7,1.3,1.5,2.6,2c1.1-0.9,0.9-1.9,0.8-2.8c-0.1-0.8-0.7-1.5-1.3-2.2c-0.3-0.3-1-0.2-1.5-0.2c-1.6,0.3-2.6-0.3-3.3-1
	c-0.8-0.7-1.5-1.5-2-2.4c-1.8-3.9-4.2-7.6-7.4-11c-1.1-1.2-1.9-2.5-2.6-3.9c-0.8-1.7-2-3.3-2.8-5c-1.3-2.7-1.1-5.4-0.4-8.2
	c0.2-1,1.2-1.9,2.4-2.6c2-1.2,2.8-2.7,2.6-4.4c-0.4-3.1,0.2-6.2,0.5-9.2c0-0.3,0.2-0.7,0.4-1c0.6-0.9,0.4-1.6-0.6-2.3
	c-1.1-0.8-0.9-2-0.8-3c0.1-0.8,0-1.7-0.1-2.5c0-0.3-0.2-0.7,0-1c1.4-2.4,1-4.9,2.4-7.3c0.1-0.2,0.2-0.5,0.5-0.7
	c1.3-1,1.1-2.1,0.5-3.1c-1.3-2.6-1.5-5.3-2.7-7.9c-0.2-0.3-0.3-0.7-0.4-1c-0.2-0.5-0.7-0.7-1.6-0.4c-0.8,0.3-1.6,0.7-2.4,1
	c-0.4,0.2-0.9,0.2-1.2,0c-0.4-0.3,0-0.5,0.3-0.7c2.6-1.7,2.6-3.7,2.1-5.8c-1.4,0.3-1.7,1.1-2.4,1.7c-0.3,0.3-0.5,0.6-1,0.5
	c-0.6-0.1-0.7-0.5-0.6-0.9c0.2-0.4,0.5-0.7,0.7-1.1c1.4-2.3,1.1-4.5-0.6-6.7c-0.7,0.6-1,1.2-1.3,1.8c-0.2,0.5-0.5,1.1-1.3,1.4
	c-0.3,0.1-0.6,0.2-0.9,0.1c-0.3-0.1-0.3-0.3-0.2-0.5c0.5-1.2,0.6-2.5,0.4-3.7c-0.2-1.4-0.5-2.7-1.5-4c-0.2-0.2-0.1-0.5-0.2-0.7
	c-0.1-1-0.8-1.8-1.7-2.7c-3-3-6.5-5.9-9.8-8.8c-2-1.7-3.8-3.6-5.8-5.3c-2-1.7-4.3-3.3-6.6-4.9c-5.9-4-12.4-7.6-18.5-11.5
	c-1.2-0.8-2.6-1.5-4-2.2c-0.3-0.2-0.7-0.4-1-0.6c-0.5-0.3-0.8-0.8-0.2-1.2c0.5-0.3,1.2-0.5,1.9-0.2c1.3,0.6,3.2,0.6,4.4,1.4
	c0.2,0.1,0.7,0.1,1.1,0.1c0.8,1,2.6,1,4,1.4c2.9,0.7,5.6,1.7,8.7,2.2C290.7,121.7,293,122.1,295.4,122.4z M325,148.3
	c-0.2,0.3,0,0.5,0.3,0.6c5.1,3.7,11.2,5.9,19.6,4.4c0.2,0,0.5-0.1,0.7-0.1c2.5-0.4,5.1-0.6,7.7-0.5c0.5,0,1.1,0.2,1.5-0.3
	c-0.6-1.2-2-2-3.3-2.9c-2.8-1.9-6.3-2.5-10.5-2.1c-4.9,0.5-9.8,1.2-14.7,0.6C325.9,148.2,325.4,148.3,325,148.3
	c-0.2,0-0.2,0-0.1,0.1C324.9,148.4,325,148.4,325,148.3z M365.5,301.6c-0.1-3.3-1.2-6.5-2.2-9.7c-0.9-2.9-1.8-5.8-3.7-8.5
	c-2.1-3-5.7-5-11.2-5.3c-2.3-0.1-4.6-0.3-6.9-0.4c-6.8-0.2-13.1-1.3-19-3.2c-0.9-0.3-1.7-0.6-2.6-0.9c-0.4-0.1-0.8-0.3-1.3-0.1
	c-0.4,0.2-0.3,0.6-0.1,0.8c0.1,0.2,0.2,0.4,0.3,0.5c1.9,2.9,4.3,5.6,7,8.2c2.9,2.8,6.1,5.5,9.4,8.2c2.2,1.8,4.9,3.4,7.2,5.3
	c4.2,3.4,9.5,5.9,14.5,8.8c1.3,0.7,2.9,1.2,4.7,1.5c2.6,0.4,4.2-0.4,4.2-2.1C365.7,303.7,365.5,302.7,365.5,301.6z M292.2,287.4
	c0.3,1.1,0.4,2.6,1.4,3.9c2.2,2.8,3.9,5.8,5.9,8.7c2.5,3.7,4.6,7.6,6.4,11.5c0.5,1.1,1.3,2.1,2.2,3c1.2,1.2,3.1,1.1,4.3-0.1
	c0.7-0.7,1.3-1.4,1.5-2.2c0.7-2.1,1.5-4.1,2.2-6.2c1.2-3.8,1.1-7.6,0.9-11.3c-0.3-3.8-0.6-7.6-2.6-11.2c-1.9-3.4-3.7-6.8-5.5-10.3
	c-0.1-0.3-0.4-0.5-0.7-0.8c-1.9-1.7-5.2-1.7-7.2,0.1c-2.5,2.3-4.8,4.7-6.5,7.3C293.1,282.2,292.1,284.6,292.2,287.4z M334.5,303.5
	c0.2-3.2-0.9-6.4-3.2-9.5c-1.6-2.2-3.9-4-5.9-6c-0.6-0.6-0.9-1.3-1.9-1.6c-0.7-0.2-1.4-0.8-2.3-0.5c-1,0.4-0.4,1-0.3,1.5
	c1,3.7,0.9,7.4,1.3,11.1c0.5,3.9-1,7.8-2,11.6c-1.4,4.9-4.3,9.4-8.8,13.5c-0.6,0.5-0.9,1.1-1.1,1.7c-0.6,2-1.2,3.9-1.8,5.9
	c-0.4,1.3,0,2.6,0.7,3.8c1,1.6,2.8,1.7,4.9,0.4c6.1-3.7,10.3-8.1,13.9-12.8c2.1-2.7,3.4-5.6,4.6-8.4
	C334.1,310.8,334.9,307.3,334.5,303.5z M340.9,181c-0.7,0.4-0.5,0.7-0.5,1c0.4,2.5,1.5,4.8,2.9,7.1c1.7,2.6,3.6,5.2,6.6,7.4
	c2.4,1.8,4.5,3.7,7,5.5c4.1,2.9,8.3,5.6,12.5,8.4c2.4,1.5,5.1,2.9,7.8,4.2c1.2,0.6,1.9,0.5,2.1-0.5c0.3-2.1,1.1-4.3,0.9-6.4
	c-0.7-7-6.4-12-14.9-15.7c-3.2-1.4-7-2.3-10.5-3.5c-4.1-1.4-7.9-3.1-10.7-5.5C343.2,182.1,342,181.6,340.9,181z M342.7,200.2
	c0.4,2.1,0.7,4.1,1.1,6.1c0.2,0.9,0.5,1.8,1.2,2.7c2.7,3.5,5.9,6.7,10.5,9.2c1.3,0.7,2.5,1.5,3.6,2.4c3.3,2.5,7,4.8,10.1,7.4
	c1.6,1.3,2.4,1.2,3.6-0.4c0.2-0.2,0.3-0.5,0.4-0.7c1-1.6,1.4-3.3,1.7-5c0.3-1.9-0.3-3.6-1.7-5.3c-1.9-2.3-4.6-4.2-7.4-6
	c-2.2-1.4-4.6-2.7-6.6-4.2c-4.1-3.1-8.8-5.9-12.7-9c-0.5-0.4-1.3-0.7-2-0.9c-0.8-0.3-1.3-0.1-1.5,0.5
	C342.7,198.1,342.7,199.2,342.7,200.2z M361.1,314.9c0.2-2.6-1-4.8-4.1-6.5c-2.8-1.5-5.4-3.1-8-4.7c-1.3-0.8-1.7-0.7-2.7,0.3
	c-1.5,1.6-2.8,3.2-3.9,4.9c-1.4,1.9-2.6,3.9-4.1,5.8c-2,2.5-2.5,5.1-2.9,7.7c-0.2,1.1,0.5,2,1.8,2.7c1.6,0.9,3.1,1.9,4.6,2.8
	c1.5,0.9,1.8,1,3.5,0c1.4-0.8,2.8-1.5,4.7-1.8c1.4-0.2,2.3-0.7,3-1.5c1.3-1.4,3-2.7,5.8-2.9c1.4-0.1,1.7-0.7,1.9-1.5
	C360.8,318.6,361.1,316.8,361.1,314.9z M338.5,171.8c-0.5,0.8,0.2,1.4,0.5,1.9c1,1.4,2.2,2.8,3.4,4.1c1.3,1.4,2.6,2.9,4.4,4
	c3.3,2.1,7.2,3.7,11.1,5.3c1.3,0.5,2.8,0.9,4.3,1.3c4.4,1,8.6,2.3,12.1,4.3c0.9,0.5,1.8,0.9,2.9,0.5c1-0.4,0.6-1.1,0.4-1.6
	c-0.8-2.9-1.6-5.8-3.2-8.6c-1.8-3.2-5.3-5.1-10.4-5.7c-6.6-0.9-12.8-2.4-19-3.9C343,172.8,340.7,172.3,338.5,171.8z M336.2,205.7
	c-1.3,2.3-2.3,4.7-3,7c-0.6,1.9-0.5,3.8,1.2,5.4c1.5,1.5,3.2,2.9,5.2,4.2c2.4,1.6,5,3.1,7.8,4.4c3,1.4,5.9,2.8,8.8,4.3
	c1.3,0.7,2.6,1.4,3.9,2c2.2,0.9,4.9,0.3,5.7-1.2c0.8-1.5,0.7-2.8-0.9-4c-2.3-1.7-4.8-3.3-7.4-4.9c-5-3.1-10.2-6.1-14.7-9.5
	c-2.7-2.1-5.5-4.2-5.8-7.1C337,206.1,336.9,205.9,336.2,205.7z M307.9,368.2c0.5,0.1,0.7,0.1,0.8,0.1c1-0.4,2.1-0.7,3.1-1.1
	c7.6-3.6,14.6-7.7,20.6-12.4c5.6-4.4,10.4-9.1,15-13.9c1.2-1.3,2.4-2.5,3.3-3.9c0.6-0.8,0.3-1.3-0.4-1.9c-2.7-2.1-3.1-2.1-6.5-0.2
	c-0.4,0.2-0.7,0.4-1,0.6c-3,2.2-5,4.7-6.5,7.4c-1.7,2.9-3.7,5.8-6.4,8.5c-4.9,4.9-10.1,9.7-16.8,13.7
	C311.4,366.1,309.8,367.1,307.9,368.2z M355.8,240c1.9-1.9,1.9-2.9,0.3-4.5c-0.4-0.4-0.9-0.8-1.5-1.1c-4.1-2.5-8.9-4.5-13-7
	c-2.3-1.4-4.7-2.8-6.5-4.4c-1.8-1.5-3.2-3.3-4.3-5.1c-0.2-0.4,0-1.1-1.1-1.1c-1,0-1.1,0.8-1.6,1.2c-0.2,0.2-0.3,0.5-0.4,0.7
	c-1.1,3.1-0.2,5.8,2.7,8.2c2.8,2.4,6.6,4.1,10.3,5.9c4.6,2.3,9.7,4.3,14.2,6.8C355,239.8,355.4,239.9,355.8,240z M300.9,260.8
	c-0.1-1.8,0.1-3.2-0.3-4.5c-0.5-1.6-1-3.2-1.7-4.7c-0.5-1.1-1.1-2.1-1.7-3.2c-0.3-0.6-1-0.8-2-0.7c-1,0.1-1.4,0.6-1.6,1.2
	c-0.1,0.4,0,0.8,0.1,1.2c0.4,1.4,0.8,2.7,1.3,4c1.6,4.2,1.2,8.4-0.6,12.7c-1.1,2.7-3.2,5.1-5.6,7.4c-0.8,0.8-1.6,1.5-2.2,2.4
	c-0.8,1,0,2.5,1.3,2.9c1,0.3,2.5-0.2,3.5-1.2c0.7-0.7,1.3-1.4,2-2.1c2.2-2,4-4.2,5.2-6.5C300.3,266.6,301.6,263.5,300.9,260.8z
	 M311.3,232c0.2,3.3,0.9,6.5,2.3,9.6c2.3,5.1,6,9.7,11.6,13.6c2.9,2,6.2,3.7,9.3,5.6c0.7,0.4,1.5,0.8,2.4,1.1
	c0.4,0.2,0.9,0.2,1.3-0.1c0.4-0.3,0.4-0.5,0.1-0.8c-0.2-0.2-0.4-0.3-0.6-0.4c-2.5-2-5.1-4.1-7.5-6.1c-2.1-1.8-3.9-3.7-5.9-5.5
	c-2.7-2.5-5.1-5.2-6.3-8.2c-1.7-4.2-3.7-8.4-4.2-12.8c-0.1-0.6,0.2-1.8-1.1-1.7c-1.4,0.1-1.1,1.2-1.1,1.9
	C311.4,229.3,311.1,230.6,311.3,232z M367.4,171c-0.7-1.4-1.7-2.6-2.6-3.9c-1.2-1.7-3.5-2-6.1-2.1c-1.2,0-2.3,0.2-3.5,0.3
	c-4.6,0.3-9.2,0.5-13.6-0.4c-2.3-0.5-4.7-0.9-7-1.4c-0.5-0.1-1.1-0.3-1.5,0.1c-0.4,0.3-0.1,0.7,0.2,1c1.1,1.2,2.2,2.3,4,3.1
	c3.5,1.6,7.5,2.3,11.6,2.9c3.7,0.5,7.5,0.7,11.3,0.6C362.5,171.2,364.8,171.6,367.4,171z M300.8,243.1c0,2.9,2,5.3,3.2,7.9
	c1.7,3.8,4.8,7.2,9.1,10.1c3.3,2.2,6.7,4.2,10.9,5.6c2.1,0.7,4.2,1.4,6.3,2c3.3,1,6.8,1.5,10.2,2.3c0.4,0.1,0.9,0.2,1.3-0.1
	c0.3-0.3,0.1-0.6-0.1-0.8c-0.2-0.2-0.5-0.3-0.8-0.5c-1.3-0.6-2.7-1-4.2-1.3c-4.5-0.9-8.5-2.5-12.2-4.2c-3.5-1.6-6.8-3.4-9.5-5.6
	c-4.7-3.7-7.6-8.1-9.7-12.6c-0.7-1.5-1.1-3-1.6-4.5c-0.2-0.5-0.5-0.9-1.3-0.8c-0.9,0.1-1.5,0.5-1.5,1
	C300.6,242.1,300.7,242.6,300.8,243.1z M304.7,238.2C304.7,238.2,304.7,238.2,304.7,238.2c0,0.2,0,0.5,0,0.7c0,0.2,0.1,0.4,0.1,0.6
	c1.2,5.5,3.8,10.6,8.5,15.2c2.3,2.2,5,4.3,8.2,6c4,2.2,8.7,3.7,13.6,5c0.6,0.1,1.2,0.3,1.8,0.3c1.1,0.1,1.6-0.4,1.2-1
	c-0.3-0.4-0.7-0.7-1.4-0.9c-0.9-0.3-1.8-0.6-2.7-0.9c-5.9-1.9-11.2-4.3-15.1-7.7c-4.9-4.2-7.9-8.9-9.7-14.1c-0.3-1-0.6-1.9-0.8-2.9
	c-0.4-1.5-0.4-3.2-1.3-4.6c-0.2-0.4-0.5-0.8-1.2-0.7c-0.6,0.1-0.7,0.5-0.9,0.8c-0.1,0.2-0.1,0.4-0.1,0.6
	C304.8,235.8,304.8,237,304.7,238.2z M327.6,154c0.4,1.2,0.8,2,1.7,2.8c1.9,1.6,4.5,2.7,7.3,3.6c1.4,0.5,2.8,0.6,4.4,0.6
	c2.5-0.1,5-0.1,7.5-0.1c4.2,0,8.4-0.2,12.5,0.6c0.4,0.1,0.9,0.2,1.3-0.2c-0.3-0.7-0.8-1.4-1.5-2.1c-1.9-1.7-4.1-2.9-7.6-3
	c-3.4-0.1-6.7,0.1-10.1,0.3c-4.3,0.2-8.4-0.2-12.1-1.5C330,154.7,329,154.4,327.6,154z M345.2,143.8c-0.8-1.1-1.9-1.6-2.8-2.1
	c-2.3-1.2-4.7-2.3-7.9-2.4c-1.7-0.1-3.4-0.1-5.1-0.1c-4.9,0-9.8,0.3-14.7,0.1c-0.9,0-1.3,0.4-0.8,0.9c1.9,1.6,3.7,3.2,7.1,3.6
	c3.7,0.5,7.4,0.3,11.1-0.1c3.4-0.3,6.8-0.4,10.2-0.2C343.1,143.5,343.9,143.6,345.2,143.8z M333.9,332c0.1-0.7-0.3-1.4-0.8-2
	c-1.2-1.5-4.5-1.7-6.2-0.4c-1.3,1-2.3,2.1-2.9,3.3c-1.4,3-2.4,6-3.3,9.1c-0.3,1.1-0.4,2.3-0.6,3.4c0,0.2,0,0.5,0.4,0.6
	c0.6,0.2,0.8-0.2,1.1-0.4c0.5-0.4,1.1-0.9,1.6-1.4c2.1-2,4.2-4.1,6.4-6.1c1.6-1.4,2.8-3,3.9-4.5C333.9,333.2,334.1,332.6,333.9,332z
	 M288.3,247.5c-0.8,0.3-0.8,0.7-0.9,1c-0.8,2.4-1.4,4.8-1.8,7.3c-0.7,3.8,0,7.5,1.4,11.2c0.4,1,0.9,2.1,1.4,3.1
	c0.1,0.2,0.3,0.4,0.7,0.3c0.2,0,0.4-0.2,0.4-0.3c1.6-2.2,2.4-4.6,2.8-7c0.6-3.9,0-7.6-1.7-11.3C289.8,250.4,289.5,248.9,288.3,247.5
	z M351.4,244.1c-0.1-0.6-0.3-1.2-0.9-1.5c-1.3-0.8-2.7-1.7-4.1-2.5c-3.1-1.8-6.6-3.2-9.6-5.1c-1.9-1.2-3.9-2.3-5.6-3.6
	c-0.2-0.2-0.5-0.4-1-0.3c-0.6,0.2-0.5,0.5-0.3,0.8c0.6,1.1,1,2.2,1.9,3.1c2.1,2.5,4.2,4.9,7,7.1c1.7,1.4,3.5,2.7,5.4,3.9
	c0.7,0.5,1.6,0.9,2.8,0.9C348.2,247,351.4,244.9,351.4,244.1z M310.9,263.5c0,1.3,0,1.3,0.5,1.8c2.8,2.7,6.2,5,10.2,7
	c2.2,1.1,4.7,1.9,7.5,2.4c6.5,1.1,13.2,1.5,19.9,1.9c0.4,0,0.9,0.1,1.2-0.4c-0.8-0.5-1.8-0.8-2.8-1.1c-4.2-1.1-8.5-1.9-12.9-2.7
	c-5.5-1-10.6-2.5-15.3-4.5C316.3,266.6,313.8,265.1,310.9,263.5z M317.2,337.3c-2.2,1.5-4.4,3-6.6,4.5c-1.5,0.9-2.1,2-2.1,3.2
	c-0.1,2.8-0.4,5.6-1.6,8.3c-0.1,0.2-0.1,0.4-0.2,0.6c-0.1,0.7,0.4,0.9,1.4,0.7c0.7-0.2,1.2-0.5,1.7-0.8c1-0.8,1.9-1.6,2.6-2.6
	c3-4.2,4.4-8.5,5.4-12.9C317.8,338,317.9,337.6,317.2,337.3z M336.8,136.6c-1.1-0.7-1.7-1.7-3.2-1.9c-2.1-0.4-4.2-0.9-6.4-1.1
	c-7.4-0.9-15-1.4-22.3-2.6c-0.6-0.1-1.4-0.3-1.9,0.3c0.1,0.3,0.5,0.5,1,0.6c3.9,1.2,8,1.9,12.2,2.4c4.9,0.6,9.8,1.2,14.8,1.7
	C332.9,136.2,334.8,136.4,336.8,136.6z M327.8,346c0.1-0.4,0.1-0.6-0.3-0.8c-0.5-0.2-0.9,0.1-1.2,0.3c-0.3,0.2-0.6,0.5-0.9,0.7
	c-1.7,1.2-3.4,2.5-5,3.7c-3.4,2.5-6.9,5-10,7.7c-0.3,0.2-0.6,0.5-0.7,0.8c-0.3,0.4-0.1,0.8,0.4,1.1c0.5,0.3,1,0.2,1.5,0
	c1-0.3,1.9-0.8,2.7-1.3c2.9-1.8,5.3-3.8,7.8-5.8c2-1.6,3.5-3.4,5.1-5.2C327.5,346.8,327.7,346.4,327.8,346z M302.1,308.3
	c0.3-0.5,0-0.8-0.2-1.2c-0.8-1.4-1.7-2.7-2.6-4.1c-3.6-5.4-7.5-10.7-11.5-16c-0.3-0.4-0.5-1.1-1.5-0.9c-0.9,0.3-0.5,0.9-0.2,1.3
	c1,2.1,2.1,4.2,3.2,6.3c0.3,0.6,0.8,1.3,1.2,1.9c2.9,4,6.6,7.8,10.1,11.6C301,307.7,301.4,308.1,302.1,308.3z M339.4,259.2
	c-0.7-1.9-2-3.3-3.2-4.8c-1.2-1.5-2.4-2.9-3.8-4.3c-1.4-1.4-2.8-2.8-4.4-4.1c-1.5-1.2-2.3-2.9-4.4-4
	C323,245.2,333.7,256.8,339.4,259.2z M292.4,124.3c2.5,1.3,5,2.4,8,2.9c4,0.7,8.1,1.4,12.2,2.1c0.9,0.2,1.8,0.1,2.7-0.2
	c0.7-0.3,0.6-0.5,0-0.8c-0.4-0.1-0.9-0.2-1.3-0.3c-4.8-0.9-9.5-1.9-14.1-3c-1.6-0.4-3.2-0.7-4.8-0.9
	C294.4,124.1,293.6,123.9,292.4,124.3z M345.8,260.6c-0.2,2.9,1.8,5.2,3.2,7.5c1.8,3.1,6.5,7.5,8.2,7.9
	C356.9,274.2,348.2,262.1,345.8,260.6z M331.4,206.2c1.5-1.5,2.1-3.1,2.7-4.7c0.8-2.1,1.6-4.3,2.2-6.5c0.2-0.8,0.1-1.5-0.9-2
	c-0.3-0.2-0.6-0.5-1.1-0.4c-0.7,0.1-0.6,0.5-0.7,0.9c-0.7,2.5-1.5,4.9-2.1,7.4C331,202.7,331,204.5,331.4,206.2z M339.3,308
	c0.3,0,0.5-0.1,0.6-0.2c1.8-1.9,2.7-4,3.8-6c0.2-0.3,0.2-0.7-0.1-1c-1.2-1-2.7-1.9-4.5-2.7c-0.2,3.1,0.5,6,0,9
	C338.9,307.4,338.7,307.8,339.3,308z M331.9,187.9c-2.5,2.2-2.7,2.5-2.5,3.5C332.4,190.1,332.8,189.6,331.9,187.9z M304.9,371.1
	c-2.9,0.8-3.5,2-1.5,3.1C303.8,373.1,305.5,372.3,304.9,371.1z M331,193.4c-2,1.1-2.4,2.2-1.1,3.4
	C330.1,195.6,331.1,194.6,331,193.4z M330.3,186.8c1.7-1.3,1.7-1.3,1-2.2C330.5,185.2,330.7,185.9,330.3,186.8z"/>
<path class="st0" d="M482.8,119.4c3.8,0.7,7.7,1.3,11.5,2.1c4.5,1,9.2,1.8,13.7,2.9c3.5,0.9,6.6,2.2,10.2,2.9c1.9,0.4,3.4,1.4,5.1,2
	c2.9,1,4.8,2.8,7.5,3.9c0.4,0.2,0.7,0.4,0.9,0.6c3.5,3,7.4,5.8,10.1,9.2c1.5,1.9,2.9,3.8,4.6,5.7c1.4,1.5,2.7,3,3.8,4.6
	c2.1,3,4.9,5.7,6.6,8.8c0.7,1.4,2,2.7,2.7,4.1c0.8,1.5,1.7,3,2.6,4.5c3.7,5.8,5.4,11.9,6.6,18.1c0.8,4,1.7,8,1.6,12.1
	c0,1.3-0.1,2.6-0.3,3.9c-0.3,2.3-0.4,4.7-1,7c-1,3.4-1.7,6.8-3.5,10.1c-2.7,5.1-6.6,9.9-9.5,15c-0.8,1.5-1.6,2.9-2.8,4.3
	c-1-0.1-0.7-0.8-1.4-1c-1.1,0.7-1.7,1.7-2.5,3.9c-0.5,1.4-1.1,2.8-1.7,4.2c-0.8,0.1-0.9-0.3-1.1-0.6c-0.4-0.6-0.8-1.3-1.3-1.9
	c-1.1-1.3-2.6-1.5-4.3-0.3c-1.7,1.2-3.3,2.5-3.6,4.2c-0.3,1.4-0.3,2.8,0.2,4.1c0.7,1.8,1.5,3.6,2.5,5.3c0.9,1.5,2.3,2.8,3.4,4.2
	c2.9,3.5,5.1,7.2,5.7,11.2c0.1,0.4,0.2,0.9,0.1,1.3c-0.4,3,1.2,5.7,2.6,8.4c1.4,2.6,2.7,5.3,3.4,8.1c0.5,2,1,4.1,1.2,6.2
	c0.2,1.7,1.7,3,2.6,4.5c0.8,1.4,1.6,2.9,1.9,4.4c0.2,0.9,0.4,1.8-0.1,2.7c-0.8,1.4-1.3,2.7-0.5,4c0.2,0.3,0,0.6-0.4,0.8
	c-0.4,0.2-0.8,0.3-1.3,0.2c-0.5-0.1-0.5-0.4-0.5-0.7c0.3-1.9-0.7-3.7-1.6-5.4c-0.1-0.2-0.3-0.3-0.8-0.3c-0.6,0.5-0.8,1.1-0.8,1.6
	c0,1.6,0.2,3.1,1.3,4.6c1,1.5,1.5,3.1,0.3,4.8c-0.2,0.3-0.3,0.6-1,0.7c0.2-1-0.6-1.9-1.2-2.7c-0.3-0.3-0.7-0.7-1.4-0.6
	c-0.7,0-1,0.5-1.2,0.9c-1.3,2.2-1.4,4.5-0.6,6.7c0.5,1.5,1.4,2.9,1.7,4.4c0.1,0.9,0.3,1.7-1,2.7c-0.5-1.5-1.1-2.7-1.9-3.9
	c-0.3-0.5-0.6-1-1-1.5c-0.6-0.8-1.3-0.8-2.1,0c-0.6,0.7-1.2,1.3-1.6,2.1c-1.7,3-4.1,5.7-6.5,8.5c-1.5,1.7-2.9,3.5-4.6,5.2
	c-2.5,2.6-5.2,5.1-8.3,7.5c-4,3-8.3,5.8-12.6,8.7c-2.3,1.5-4.8,2.7-7.3,4c-3.3,1.6-6.6,3.3-9.8,4.9c-0.3,0.2-0.7,0.3-0.8,0.5
	c-1.3,2.1-4.1,4-3.4,6.5c0.2,0.6-1.8,1.9-2.7,2c-0.7,0.1-1-0.2-1.1-0.5c-0.3-0.7-0.3-1.5-1.1-2c-0.3-0.2-0.2-0.5,0.1-0.7
	c1.1-0.9,0.8-1.8,0.7-2.7c-0.1-0.8,0.2-1.5,0.2-2.2c0-0.3,0.1-0.5,0.4-0.7c1.5-0.8,2.3-2,4.1-2.7c2-0.8,3.4-2,5.1-3
	c2.1-1.2,3.9-2.4,5.6-3.8c1.5-1.1,2.8-2.3,4.2-3.5c0.3-0.3,0.7-0.7,0.1-0.9c-0.4-0.2-0.8,0.2-1.2,0.4c-3,1.9-5.9,3.7-9.3,5.3
	c-3.5,1.7-6.9,3.3-10.7,4.7c-2.5,0.9-4.7,2.1-6.6,3.5c-1.2,0.9-2,1.8-1.8,3c0.1,0.4,0,0.8-0.8,0.9c-0.7,0.1-1.1,0.4-1.5,0.7
	c-0.3,0.3-0.6,0.5-1.2,0.3c-0.6-0.1-0.4-0.5-0.4-0.7c0.1-0.9-0.1-1.8,1.1-2.5c0.6-0.4,0.5-0.8,0.3-1.3c-0.2-0.4-0.3-0.8-0.3-1.3
	c0.1-1.1,0.5-1.9,2.3-2.5c3.6-1.3,7-2.8,9.5-5c0.8-0.8,1.1-1.6,1.8-2.4c0.5-0.6-0.3-1-1.4-0.9c-0.6,0.1-1.2,0.3-1.8,0.4
	c-0.6,0.2-1.1,0.4-1.7,0.5c-0.5,0.1-0.9,0-1.2-0.3c-0.2-0.2,0-0.5,0.3-0.7c0.8-0.6,1.6-1.3,2.5-1.9c3-1.8,4.3-4.1,5.5-6.4
	c0.7-1.3,1.1-2.7,1.5-4.1c0.3-0.9-0.1-1-1.5-0.8c-1.9,0.2-2.4,0.1-2.3-1.3c0.2-2.4,0.7-4.8,1.9-7.2c2.4-4.9,3.8-9.9,3-15
	c-0.4-2.6-1.8-5.1-3.7-7.4c-0.5-0.6-0.8-1.3-0.2-2c0.7-0.8,0.1-1.5-0.5-2.1c-3.8-3.6-7.4-7.3-10.4-11.2c-1.5-1.9-3-3.8-4.2-5.8
	c-1-1.5-1.6-3.1-2.3-4.7c-2-4.2-3.1-8.6-4-13c-0.7-3.6-0.7-7.2-0.5-10.9c0.2-2.9,0.2-5.8,1-8.7c0.6-2.1,0.9-4.2,1.9-6.3
	c0.4-0.9,0.1-1.8,0.5-2.6c1.4-2.7,2.9-5.3,4.9-7.8c1.2-1.6,2.3-3.3,3.3-5c1.8-3,4.5-5.7,6.9-8.6c1.3-1.5,2.5-3.1,4.2-4.4
	c2.2-1.8,3.9-3.7,6-5.5c1.9-1.6,4-3.2,6.2-4.7c1.7-1.2,3.1-2.5,4.4-3.8c0.9-1,1.3-1.9,0.5-3c-1.1-1.5-1-3-0.1-4.6
	c0.1-0.2,0.4-0.4,0.6-0.7c0.7,0.6,0.3,1.1,0.1,1.6c-0.6,1.1-0.3,2.1,0.7,3.1c2,2,1.8,4.3-0.7,6.2c-1.5,1.2-2.4,2.6-2.9,4
	c-1.3,3.1-1.4,6.4-1,9.5c0.3,2.3,1.4,4.6,2.7,6.8c2.2,3.8,5.4,7.3,8.9,10.7c2,1.9,3.9,3.7,6,5.5c2.1,1.8,4.4,3.5,6.5,5.3
	c0.8,0.7,1.3,1.5,2.6,2c1.1-0.9,0.9-1.9,0.8-2.8c-0.1-0.8-0.7-1.5-1.3-2.2c-0.3-0.3-1-0.2-1.5-0.2c-1.6,0.3-2.6-0.3-3.3-1
	c-0.8-0.7-1.5-1.5-2-2.4c-1.8-3.9-4.2-7.6-7.4-11c-1.1-1.2-1.9-2.5-2.6-3.9c-0.8-1.7-2-3.3-2.8-5c-1.3-2.7-1.1-5.4-0.4-8.2
	c0.2-1,1.2-1.9,2.4-2.6c2-1.2,2.8-2.7,2.6-4.4c-0.4-3.1,0.2-6.2,0.5-9.2c0-0.3,0.2-0.7,0.4-1c0.6-0.9,0.4-1.6-0.6-2.3
	c-1.1-0.8-0.9-2-0.8-3c0.1-0.8,0-1.7-0.1-2.5c0-0.3-0.2-0.7,0-1c1.4-2.4,1-4.9,2.4-7.3c0.1-0.2,0.2-0.5,0.5-0.7
	c1.3-1,1.1-2.1,0.5-3.1c-1.3-2.6-1.5-5.3-2.7-7.9c-0.2-0.3-0.3-0.7-0.4-1c-0.2-0.5-0.7-0.7-1.6-0.4c-0.8,0.3-1.6,0.7-2.4,1
	c-0.4,0.2-0.9,0.2-1.2,0c-0.4-0.3,0-0.5,0.3-0.7c2.6-1.7,2.6-3.7,2.1-5.8c-1.4,0.3-1.7,1.1-2.4,1.7c-0.3,0.3-0.5,0.6-1,0.5
	c-0.6-0.1-0.7-0.5-0.6-0.9c0.2-0.4,0.5-0.7,0.7-1.1c1.4-2.3,1.1-4.5-0.6-6.7c-0.7,0.6-1,1.2-1.3,1.8c-0.2,0.5-0.5,1.1-1.3,1.4
	c-0.3,0.1-0.6,0.2-0.9,0.1c-0.3-0.1-0.3-0.3-0.2-0.5c0.5-1.2,0.6-2.5,0.4-3.7c-0.2-1.4-0.5-2.7-1.5-4c-0.2-0.2-0.1-0.5-0.2-0.7
	c-0.1-1-0.8-1.8-1.7-2.7c-3-3-6.5-5.9-9.8-8.8c-2-1.7-3.8-3.6-5.8-5.3c-2-1.7-4.3-3.3-6.6-4.9c-5.9-4-12.4-7.6-18.5-11.5
	c-1.2-0.8-2.6-1.5-4-2.2c-0.3-0.2-0.7-0.4-1-0.6c-0.5-0.3-0.8-0.8-0.2-1.2c0.5-0.3,1.2-0.5,1.9-0.2c1.3,0.6,3.2,0.6,4.4,1.4
	c0.2,0.1,0.7,0.1,1.1,0.1c0.8,1,2.6,1,4,1.4c2.9,0.7,5.6,1.7,8.7,2.2C478.1,118.7,480.4,119,482.8,119.4z M512.4,145.3
	c-0.2,0.3,0,0.5,0.3,0.6c5.1,3.7,11.2,5.9,19.6,4.4c0.2,0,0.5-0.1,0.7-0.1c2.5-0.4,5.1-0.6,7.7-0.5c0.5,0,1.1,0.2,1.5-0.3
	c-0.6-1.2-2-2-3.3-2.9c-2.8-1.9-6.3-2.5-10.5-2.1c-4.9,0.5-9.8,1.2-14.7,0.6C513.3,145.1,512.8,145.3,512.4,145.3
	c-0.2,0-0.2,0-0.1,0.1C512.3,145.3,512.4,145.3,512.4,145.3z M552.9,298.6c-0.1-3.3-1.2-6.5-2.2-9.7c-0.9-2.9-1.8-5.8-3.7-8.5
	c-2.1-3-5.7-5-11.2-5.3c-2.3-0.1-4.6-0.3-6.9-0.4c-6.8-0.2-13.1-1.3-19-3.2c-0.9-0.3-1.7-0.6-2.6-0.9c-0.4-0.1-0.8-0.3-1.3-0.1
	c-0.4,0.2-0.3,0.6-0.1,0.8c0.1,0.2,0.2,0.4,0.3,0.5c1.9,2.9,4.3,5.6,7,8.2c2.9,2.8,6.1,5.5,9.4,8.2c2.2,1.8,4.9,3.4,7.2,5.3
	c4.2,3.4,9.5,5.9,14.5,8.8c1.3,0.7,2.9,1.2,4.7,1.5c2.6,0.4,4.2-0.4,4.2-2.1C553.1,300.7,553,299.6,552.9,298.6z M479.6,284.4
	c0.3,1.1,0.4,2.6,1.4,3.9c2.2,2.8,3.9,5.8,5.9,8.7c2.5,3.7,4.6,7.6,6.4,11.5c0.5,1.1,1.3,2.1,2.2,3c1.2,1.2,3.1,1.1,4.3-0.1
	c0.7-0.7,1.3-1.4,1.5-2.2c0.7-2.1,1.5-4.1,2.2-6.2c1.2-3.8,1.1-7.6,0.9-11.3c-0.3-3.8-0.6-7.6-2.6-11.2c-1.9-3.4-3.7-6.8-5.5-10.3
	c-0.1-0.3-0.4-0.5-0.7-0.8c-1.9-1.7-5.2-1.7-7.2,0.1c-2.5,2.3-4.8,4.7-6.5,7.3C480.5,279.2,479.5,281.5,479.6,284.4z M521.9,300.5
	c0.2-3.2-0.9-6.4-3.2-9.5c-1.6-2.2-3.9-4-5.9-6c-0.6-0.6-0.9-1.3-1.9-1.6c-0.7-0.2-1.4-0.8-2.3-0.5c-1,0.4-0.4,1-0.3,1.5
	c1,3.7,0.9,7.4,1.3,11.1c0.5,3.9-1,7.8-2,11.6c-1.4,4.9-4.3,9.4-8.8,13.5c-0.6,0.5-0.9,1.1-1.1,1.7c-0.6,2-1.2,3.9-1.8,5.9
	c-0.4,1.3,0,2.6,0.7,3.8c1,1.6,2.8,1.7,4.9,0.4c6.1-3.7,10.3-8.1,13.9-12.8c2.1-2.7,3.4-5.6,4.6-8.4
	C521.5,307.7,522.3,304.2,521.9,300.5z M528.3,178c-0.7,0.4-0.5,0.7-0.5,1c0.4,2.5,1.5,4.8,2.9,7.1c1.7,2.6,3.6,5.2,6.6,7.4
	c2.4,1.8,4.5,3.7,7,5.5c4.1,2.9,8.3,5.6,12.5,8.4c2.4,1.5,5.1,2.9,7.8,4.2c1.2,0.6,1.9,0.5,2.1-0.5c0.3-2.1,1.1-4.3,0.9-6.4
	c-0.7-7-6.4-12-14.9-15.7c-3.2-1.4-7-2.3-10.5-3.5c-4.1-1.4-7.9-3.1-10.7-5.5C530.6,179.1,529.4,178.6,528.3,178z M530.1,197.1
	c0.4,2.1,0.7,4.1,1.1,6.1c0.2,0.9,0.5,1.8,1.2,2.7c2.7,3.5,5.9,6.7,10.5,9.2c1.3,0.7,2.5,1.5,3.6,2.4c3.3,2.5,7,4.8,10.1,7.4
	c1.6,1.3,2.4,1.2,3.6-0.4c0.2-0.2,0.3-0.5,0.4-0.7c1-1.6,1.4-3.3,1.7-5c0.3-1.9-0.3-3.6-1.7-5.3c-1.9-2.3-4.6-4.2-7.4-6
	c-2.2-1.4-4.6-2.7-6.6-4.2c-4.1-3.1-8.8-5.9-12.7-9c-0.5-0.4-1.3-0.7-2-0.9c-0.8-0.3-1.3-0.1-1.5,0.5
	C530.1,195,530.1,196.1,530.1,197.1z M548.5,311.9c0.2-2.6-1-4.8-4.1-6.5c-2.8-1.5-5.4-3.1-8-4.7c-1.3-0.8-1.7-0.7-2.7,0.3
	c-1.5,1.6-2.8,3.2-3.9,4.9c-1.4,1.9-2.6,3.9-4.1,5.8c-2,2.5-2.5,5.1-2.9,7.7c-0.2,1.1,0.5,2,1.8,2.7c1.6,0.9,3.1,1.9,4.6,2.8
	c1.5,0.9,1.8,1,3.5,0c1.4-0.8,2.8-1.5,4.7-1.8c1.4-0.2,2.3-0.7,3-1.5c1.3-1.4,3-2.7,5.8-2.9c1.4-0.1,1.7-0.7,1.9-1.5
	C548.3,315.5,548.5,313.8,548.5,311.9z M525.9,168.8c-0.5,0.8,0.2,1.4,0.5,1.9c1,1.4,2.2,2.8,3.4,4.1c1.3,1.4,2.6,2.9,4.4,4
	c3.3,2.1,7.2,3.7,11.1,5.3c1.3,0.5,2.8,0.9,4.3,1.3c4.4,1,8.6,2.3,12.1,4.3c0.9,0.5,1.8,0.9,2.9,0.5c1-0.4,0.6-1.1,0.4-1.6
	c-0.8-2.9-1.6-5.8-3.2-8.6c-1.8-3.2-5.3-5.1-10.4-5.7c-6.6-0.9-12.8-2.4-19-3.9C530.4,169.8,528.1,169.3,525.9,168.8z M523.6,202.7
	c-1.3,2.3-2.3,4.7-3,7c-0.6,1.9-0.5,3.8,1.2,5.4c1.5,1.5,3.2,2.9,5.2,4.2c2.4,1.6,5,3.1,7.8,4.4c3,1.4,5.9,2.8,8.8,4.3
	c1.3,0.7,2.6,1.4,3.9,2c2.2,0.9,4.9,0.3,5.7-1.2c0.8-1.5,0.7-2.8-0.9-4c-2.3-1.7-4.8-3.3-7.4-4.9c-5-3.1-10.2-6.1-14.7-9.5
	c-2.7-2.1-5.5-4.2-5.8-7.1C524.4,203.1,524.3,202.8,523.6,202.7z M495.3,365.1c0.5,0.1,0.7,0.1,0.8,0.1c1-0.4,2.1-0.7,3.1-1.1
	c7.6-3.6,14.6-7.7,20.6-12.4c5.6-4.4,10.4-9.1,15-13.9c1.2-1.3,2.4-2.5,3.3-3.9c0.6-0.8,0.3-1.3-0.4-1.9c-2.7-2.1-3.1-2.1-6.5-0.2
	c-0.4,0.2-0.7,0.4-1,0.6c-3,2.2-5,4.7-6.5,7.4c-1.7,2.9-3.7,5.8-6.4,8.5c-4.9,4.9-10.1,9.7-16.8,13.7
	C498.8,363.1,497.2,364.1,495.3,365.1z M543.2,237c1.9-1.9,1.9-2.9,0.3-4.5c-0.4-0.4-0.9-0.8-1.5-1.1c-4.1-2.5-8.9-4.5-13-7
	c-2.3-1.4-4.7-2.8-6.5-4.4c-1.8-1.5-3.2-3.3-4.3-5.1c-0.2-0.4,0-1.1-1.1-1.1c-1,0-1.1,0.8-1.6,1.2c-0.2,0.2-0.3,0.5-0.4,0.7
	c-1.1,3.1-0.2,5.8,2.7,8.2c2.8,2.4,6.6,4.1,10.3,5.9c4.6,2.3,9.7,4.3,14.2,6.8C542.4,236.7,542.8,236.8,543.2,237z M488.3,257.8
	c-0.1-1.8,0.1-3.2-0.3-4.5c-0.5-1.6-1-3.2-1.7-4.7c-0.5-1.1-1.1-2.1-1.7-3.2c-0.3-0.6-1-0.8-2-0.7c-1,0.1-1.4,0.6-1.6,1.2
	c-0.1,0.4,0,0.8,0.1,1.2c0.4,1.4,0.8,2.7,1.3,4c1.6,4.2,1.2,8.4-0.6,12.7c-1.1,2.7-3.2,5.1-5.6,7.4c-0.8,0.8-1.6,1.5-2.2,2.4
	c-0.8,1,0,2.5,1.3,2.9c1,0.3,2.5-0.2,3.5-1.2c0.7-0.7,1.3-1.4,2-2.1c2.2-2,4-4.2,5.2-6.5C487.7,263.5,489,260.4,488.3,257.8z
	 M498.7,228.9c0.2,3.3,0.9,6.5,2.3,9.6c2.3,5.1,6,9.7,11.6,13.6c2.9,2,6.2,3.7,9.3,5.6c0.7,0.4,1.5,0.8,2.4,1.1
	c0.4,0.2,0.9,0.2,1.3-0.1c0.4-0.3,0.4-0.5,0.1-0.8c-0.2-0.2-0.4-0.3-0.6-0.4c-2.5-2-5.1-4.1-7.5-6.1c-2.1-1.8-3.9-3.7-5.9-5.5
	c-2.7-2.5-5.1-5.2-6.3-8.2c-1.7-4.2-3.7-8.4-4.2-12.8c-0.1-0.6,0.2-1.8-1.1-1.7c-1.4,0.1-1.1,1.2-1.1,1.9
	C498.8,226.2,498.5,227.6,498.7,228.9z M554.8,168c-0.7-1.4-1.7-2.6-2.6-3.9c-1.2-1.7-3.5-2-6.1-2.1c-1.2,0-2.3,0.2-3.5,0.3
	c-4.6,0.3-9.2,0.5-13.6-0.4c-2.3-0.5-4.7-0.9-7-1.4c-0.5-0.1-1.1-0.3-1.5,0.1c-0.4,0.3-0.1,0.7,0.2,1c1.1,1.2,2.2,2.3,4,3.1
	c3.5,1.6,7.5,2.3,11.6,2.9c3.7,0.5,7.5,0.7,11.3,0.6C549.9,168.1,552.2,168.6,554.8,168z M488.2,240.1c0,2.9,2,5.3,3.2,7.9
	c1.7,3.8,4.8,7.2,9.1,10.1c3.3,2.2,6.7,4.2,10.9,5.6c2.1,0.7,4.2,1.4,6.3,2c3.3,1,6.8,1.5,10.2,2.3c0.4,0.1,0.9,0.2,1.3-0.1
	c0.3-0.3,0.1-0.6-0.1-0.8c-0.2-0.2-0.5-0.3-0.8-0.5c-1.3-0.6-2.7-1-4.2-1.3c-4.5-0.9-8.5-2.5-12.2-4.2c-3.5-1.6-6.8-3.4-9.5-5.6
	c-4.7-3.7-7.6-8.1-9.7-12.6c-0.7-1.5-1.1-3-1.6-4.5c-0.2-0.5-0.5-0.9-1.3-0.8c-0.9,0.1-1.5,0.5-1.5,1
	C488,239.1,488.1,239.6,488.2,240.1z M492.1,235.2C492.1,235.2,492.1,235.2,492.1,235.2c0,0.2,0,0.5,0,0.7c0,0.2,0.1,0.4,0.1,0.6
	c1.2,5.5,3.8,10.6,8.5,15.2c2.3,2.2,5,4.3,8.2,6c4,2.2,8.7,3.7,13.6,5c0.6,0.1,1.2,0.3,1.8,0.3c1.1,0.1,1.6-0.4,1.2-1
	c-0.3-0.4-0.7-0.7-1.4-0.9c-0.9-0.3-1.8-0.6-2.7-0.9c-5.9-1.9-11.2-4.3-15.1-7.7c-4.9-4.2-7.9-8.9-9.7-14.1c-0.3-1-0.6-1.9-0.8-2.9
	c-0.4-1.5-0.4-3.2-1.3-4.6c-0.2-0.4-0.5-0.8-1.2-0.7c-0.6,0.1-0.7,0.5-0.9,0.8c-0.1,0.2-0.1,0.4-0.1,0.6
	C492.2,232.8,492.2,234,492.1,235.2z M515,151c0.4,1.2,0.8,2,1.7,2.8c1.9,1.6,4.5,2.7,7.3,3.6c1.4,0.5,2.8,0.6,4.4,0.6
	c2.5-0.1,5-0.1,7.5-0.1c4.2,0,8.4-0.2,12.5,0.6c0.4,0.1,0.9,0.2,1.3-0.2c-0.3-0.7-0.8-1.4-1.5-2.1c-1.9-1.7-4.1-2.9-7.6-3
	c-3.4-0.1-6.7,0.1-10.1,0.3c-4.3,0.2-8.4-0.2-12.1-1.5C517.4,151.7,516.4,151.4,515,151z M532.6,140.7c-0.8-1.1-1.9-1.6-2.8-2.1
	c-2.3-1.2-4.7-2.3-7.9-2.4c-1.7-0.1-3.4-0.1-5.1-0.1c-4.9,0-9.8,0.3-14.7,0.1c-0.9,0-1.3,0.4-0.8,0.9c1.9,1.6,3.7,3.2,7.1,3.6
	c3.7,0.5,7.4,0.3,11.1-0.1c3.4-0.3,6.8-0.4,10.2-0.2C530.5,140.5,531.3,140.6,532.6,140.7z M521.3,328.9c0.1-0.7-0.3-1.4-0.8-2
	c-1.2-1.5-4.5-1.7-6.2-0.4c-1.3,1-2.3,2.1-2.9,3.3c-1.4,3-2.4,6-3.3,9.1c-0.3,1.1-0.4,2.3-0.6,3.4c0,0.2,0,0.5,0.4,0.6
	c0.6,0.2,0.8-0.2,1.1-0.4c0.5-0.4,1.1-0.9,1.6-1.4c2.1-2,4.2-4.1,6.4-6.1c1.6-1.4,2.8-3,3.9-4.5
	C521.3,330.1,521.5,329.6,521.3,328.9z M475.7,244.5c-0.8,0.3-0.8,0.7-0.9,1c-0.8,2.4-1.4,4.8-1.8,7.3c-0.7,3.8,0,7.5,1.4,11.2
	c0.4,1,0.9,2.1,1.4,3.1c0.1,0.2,0.3,0.4,0.7,0.3c0.2,0,0.4-0.2,0.4-0.3c1.6-2.2,2.4-4.6,2.8-7c0.6-3.9,0-7.6-1.7-11.3
	C477.2,247.3,476.9,245.9,475.7,244.5z M538.8,241c-0.1-0.6-0.3-1.2-0.9-1.5c-1.3-0.8-2.7-1.7-4.1-2.5c-3.1-1.8-6.6-3.2-9.6-5.1
	c-1.9-1.2-3.9-2.3-5.6-3.6c-0.2-0.2-0.5-0.4-1-0.3c-0.6,0.2-0.5,0.5-0.3,0.8c0.6,1.1,1,2.2,1.9,3.1c2.1,2.5,4.2,4.9,7,7.1
	c1.7,1.4,3.5,2.7,5.4,3.9c0.7,0.5,1.6,0.9,2.8,0.9C535.6,243.9,538.8,241.8,538.8,241z M498.3,260.5c0,1.3,0,1.3,0.5,1.8
	c2.8,2.7,6.2,5,10.2,7c2.2,1.1,4.7,1.9,7.5,2.4c6.5,1.1,13.2,1.5,19.9,1.9c0.4,0,0.9,0.1,1.2-0.4c-0.8-0.5-1.8-0.8-2.8-1.1
	c-4.2-1.1-8.5-1.9-12.9-2.7c-5.5-1-10.6-2.5-15.3-4.5C503.7,263.6,501.2,262.1,498.3,260.5z M504.6,334.3c-2.2,1.5-4.4,3-6.6,4.5
	c-1.5,0.9-2.1,2-2.1,3.2c-0.1,2.8-0.4,5.6-1.6,8.3c-0.1,0.2-0.1,0.4-0.2,0.6c-0.1,0.7,0.4,0.9,1.4,0.7c0.7-0.2,1.2-0.5,1.7-0.8
	c1-0.8,1.9-1.6,2.6-2.6c3-4.2,4.4-8.5,5.4-12.9C505.2,334.9,505.3,334.6,504.6,334.3z M524.2,133.6c-1.1-0.7-1.7-1.7-3.2-1.9
	c-2.1-0.4-4.2-0.9-6.4-1.1c-7.4-0.9-15-1.4-22.3-2.6c-0.6-0.1-1.4-0.3-1.9,0.3c0.1,0.3,0.5,0.5,1,0.6c3.9,1.2,8,1.9,12.2,2.4
	c4.9,0.6,9.8,1.2,14.8,1.7C520.3,133.2,522.2,133.4,524.2,133.6z M515.2,343c0.1-0.4,0.1-0.6-0.3-0.8c-0.5-0.2-0.9,0.1-1.2,0.3
	c-0.3,0.2-0.6,0.5-0.9,0.7c-1.7,1.2-3.4,2.5-5,3.7c-3.4,2.5-6.9,5-10,7.7c-0.3,0.2-0.6,0.5-0.7,0.8c-0.3,0.4-0.1,0.8,0.4,1.1
	c0.5,0.3,1,0.2,1.5,0c1-0.3,1.9-0.8,2.7-1.3c2.9-1.8,5.3-3.8,7.8-5.8c2-1.6,3.5-3.4,5.1-5.2C514.9,343.8,515.1,343.4,515.2,343z
	 M489.5,305.3c0.3-0.5,0-0.8-0.2-1.2c-0.8-1.4-1.7-2.7-2.6-4.1c-3.6-5.4-7.5-10.7-11.5-16c-0.3-0.4-0.5-1.1-1.5-0.9
	c-0.9,0.3-0.5,0.9-0.2,1.3c1,2.1,2.1,4.2,3.2,6.3c0.3,0.6,0.8,1.3,1.2,1.9c2.9,4,6.6,7.8,10.1,11.6
	C488.4,304.7,488.8,305,489.5,305.3z M526.8,256.1c-0.7-1.9-2-3.3-3.2-4.8c-1.2-1.5-2.4-2.9-3.8-4.3c-1.4-1.4-2.8-2.8-4.4-4.1
	c-1.5-1.2-2.3-2.9-4.4-4C510.4,242.1,521.1,253.8,526.8,256.1z M479.8,121.3c2.5,1.3,5,2.4,8,2.9c4,0.7,8.1,1.4,12.2,2.1
	c0.9,0.2,1.8,0.1,2.7-0.2c0.7-0.3,0.6-0.5,0-0.8c-0.4-0.1-0.9-0.2-1.3-0.3c-4.8-0.9-9.5-1.9-14.1-3c-1.6-0.4-3.2-0.7-4.8-0.9
	C481.8,121.1,481,120.8,479.8,121.3z M533.2,257.6c-0.2,2.9,1.8,5.2,3.2,7.5c1.8,3.1,6.5,7.5,8.2,7.9
	C544.3,271.2,535.6,259.1,533.2,257.6z M518.8,203.2c1.5-1.5,2.1-3.1,2.7-4.7c0.8-2.1,1.6-4.3,2.2-6.5c0.2-0.8,0.1-1.5-0.9-2
	c-0.3-0.2-0.6-0.5-1.1-0.4c-0.7,0.1-0.6,0.5-0.7,0.9c-0.7,2.5-1.5,4.9-2.1,7.4C518.5,199.6,518.4,201.4,518.8,203.2z M526.7,304.9
	c0.3,0,0.5-0.1,0.6-0.2c1.8-1.9,2.7-4,3.8-6c0.2-0.3,0.2-0.7-0.1-1c-1.2-1-2.7-1.9-4.5-2.7c-0.2,3.1,0.5,6,0,9
	C526.3,304.3,526.1,304.7,526.7,304.9z M519.3,184.9c-2.5,2.2-2.7,2.5-2.5,3.5C519.8,187,520.2,186.6,519.3,184.9z M492.4,368
	c-2.9,0.8-3.5,2-1.5,3.1C491.2,370,492.9,369.2,492.4,368z M518.4,190.3c-2,1.1-2.4,2.2-1.1,3.4
	C517.5,192.6,518.5,191.5,518.4,190.3z M517.7,183.8c1.7-1.3,1.7-1.3,1-2.2C517.9,182.2,518.1,182.9,517.7,183.8z"/>
<path class="st0" d="M574.9,122.3c3.8,0.7,7.7,1.3,11.5,2.1c4.5,1,9.2,1.8,13.7,2.9c3.5,0.9,6.6,2.2,10.2,2.9c1.9,0.4,3.4,1.4,5.1,2
	c2.9,1,4.8,2.8,7.5,3.9c0.4,0.2,0.7,0.4,0.9,0.6c3.5,3,7.4,5.8,10.1,9.2c1.5,1.9,2.9,3.8,4.6,5.7c1.4,1.5,2.7,3,3.8,4.6
	c2.1,3,4.9,5.7,6.6,8.8c0.7,1.4,2,2.7,2.7,4.1c0.8,1.5,1.7,3,2.6,4.5c3.7,5.8,5.4,11.9,6.6,18.1c0.8,4,1.7,8,1.6,12.1
	c0,1.3-0.1,2.6-0.3,3.9c-0.3,2.3-0.4,4.7-1,7c-1,3.4-1.7,6.8-3.5,10.1c-2.7,5.1-6.6,9.9-9.5,15c-0.8,1.5-1.6,2.9-2.8,4.3
	c-1-0.1-0.7-0.8-1.4-1c-1.1,0.7-1.7,1.7-2.5,3.9c-0.5,1.4-1.1,2.8-1.7,4.2c-0.8,0.1-0.9-0.3-1.1-0.6c-0.4-0.6-0.8-1.3-1.3-1.9
	c-1.1-1.3-2.6-1.5-4.3-0.3c-1.7,1.2-3.3,2.5-3.6,4.2c-0.3,1.4-0.3,2.8,0.2,4.1c0.7,1.8,1.5,3.6,2.5,5.3c0.9,1.5,2.3,2.8,3.4,4.2
	c2.9,3.5,5.1,7.2,5.7,11.2c0.1,0.4,0.2,0.9,0.1,1.3c-0.4,3,1.2,5.7,2.6,8.4c1.4,2.6,2.7,5.3,3.4,8.1c0.5,2,1,4.1,1.2,6.2
	c0.2,1.7,1.7,3,2.6,4.5c0.8,1.4,1.6,2.9,1.9,4.4c0.2,0.9,0.4,1.8-0.1,2.7c-0.8,1.4-1.3,2.7-0.5,4c0.2,0.3,0,0.6-0.4,0.8
	c-0.4,0.2-0.8,0.3-1.3,0.2c-0.5-0.1-0.5-0.4-0.5-0.7c0.3-1.9-0.7-3.7-1.6-5.4c-0.1-0.2-0.3-0.3-0.8-0.3c-0.6,0.5-0.8,1.1-0.8,1.6
	c0,1.6,0.2,3.1,1.3,4.6c1,1.5,1.5,3.1,0.3,4.8c-0.2,0.3-0.3,0.6-1,0.7c0.2-1-0.5-1.9-1.2-2.7c-0.3-0.3-0.7-0.7-1.4-0.6
	c-0.7,0-1,0.5-1.2,0.9c-1.3,2.2-1.4,4.5-0.6,6.7c0.5,1.5,1.4,2.9,1.7,4.4c0.1,0.9,0.3,1.7-1,2.7c-0.5-1.5-1.1-2.7-1.9-3.9
	c-0.3-0.5-0.6-1-1-1.5c-0.6-0.8-1.3-0.8-2.1,0c-0.6,0.7-1.2,1.3-1.6,2.1c-1.7,3-4.1,5.7-6.5,8.5c-1.5,1.7-2.9,3.5-4.6,5.2
	c-2.5,2.6-5.2,5.1-8.3,7.5c-4,3-8.3,5.8-12.6,8.7c-2.3,1.5-4.8,2.7-7.3,4c-3.3,1.6-6.6,3.3-9.8,4.9c-0.3,0.2-0.7,0.3-0.8,0.5
	c-1.3,2.1-4.1,4-3.4,6.5c0.2,0.6-1.8,1.9-2.7,2c-0.7,0.1-1-0.2-1.1-0.5c-0.3-0.7-0.3-1.5-1.1-2c-0.3-0.2-0.2-0.5,0.1-0.7
	c1.1-0.9,0.8-1.8,0.7-2.7c-0.1-0.8,0.2-1.5,0.2-2.2c0-0.3,0.1-0.5,0.4-0.7c1.5-0.8,2.3-2,4.1-2.7c2-0.8,3.4-2,5.1-3
	c2.1-1.2,3.9-2.4,5.6-3.8c1.5-1.1,2.8-2.3,4.2-3.5c0.3-0.3,0.7-0.7,0.1-0.9c-0.4-0.2-0.8,0.2-1.2,0.4c-3,1.9-5.9,3.7-9.3,5.3
	c-3.5,1.7-6.9,3.3-10.7,4.7c-2.5,0.9-4.7,2.1-6.6,3.5c-1.2,0.9-2,1.8-1.8,3c0.1,0.4,0,0.8-0.8,0.9c-0.7,0.1-1.1,0.4-1.5,0.7
	c-0.3,0.3-0.6,0.5-1.2,0.3c-0.6-0.1-0.4-0.5-0.4-0.7c0.1-0.9-0.1-1.8,1.1-2.5c0.6-0.4,0.5-0.8,0.3-1.3c-0.2-0.4-0.3-0.8-0.3-1.3
	c0.1-1.1,0.5-1.9,2.3-2.5c3.6-1.3,7-2.8,9.5-5c0.8-0.8,1.1-1.6,1.8-2.4c0.5-0.6-0.3-1-1.4-0.9c-0.6,0.1-1.2,0.3-1.8,0.4
	c-0.6,0.2-1.1,0.4-1.7,0.5c-0.5,0.1-0.9,0-1.2-0.3c-0.2-0.2,0-0.5,0.3-0.7c0.8-0.6,1.6-1.3,2.5-1.9c3-1.8,4.3-4.1,5.5-6.4
	c0.7-1.3,1.1-2.7,1.5-4.1c0.3-0.9-0.1-1-1.5-0.8c-1.9,0.2-2.4,0.1-2.3-1.3c0.2-2.4,0.7-4.8,1.9-7.2c2.4-4.9,3.8-9.9,3-15
	c-0.4-2.6-1.8-5.1-3.7-7.4c-0.5-0.6-0.8-1.3-0.2-2c0.7-0.8,0.1-1.5-0.5-2.1c-3.8-3.6-7.4-7.3-10.4-11.2c-1.5-1.9-3-3.8-4.2-5.8
	c-1-1.5-1.6-3.1-2.3-4.7c-2-4.2-3.1-8.6-4-13c-0.7-3.6-0.7-7.2-0.5-10.9c0.2-2.9,0.2-5.8,1-8.7c0.6-2.1,0.9-4.2,1.9-6.3
	c0.4-0.9,0.1-1.8,0.5-2.6c1.4-2.7,2.9-5.3,4.9-7.8c1.2-1.6,2.3-3.3,3.3-5c1.8-3,4.5-5.7,6.9-8.6c1.3-1.5,2.5-3.1,4.2-4.4
	c2.2-1.8,3.9-3.7,6-5.5c1.9-1.6,4-3.2,6.2-4.7c1.7-1.2,3.1-2.5,4.4-3.8c0.9-1,1.3-1.9,0.5-3c-1.1-1.5-1-3-0.1-4.6
	c0.1-0.2,0.4-0.4,0.6-0.7c0.7,0.6,0.3,1.1,0.1,1.6c-0.6,1.1-0.3,2.1,0.7,3.1c2,2,1.8,4.3-0.7,6.2c-1.5,1.2-2.4,2.6-2.9,4
	c-1.3,3.1-1.4,6.4-1,9.5c0.3,2.3,1.4,4.6,2.7,6.8c2.2,3.8,5.4,7.3,8.9,10.7c2,1.9,3.9,3.7,6,5.5c2.1,1.8,4.4,3.5,6.5,5.3
	c0.8,0.7,1.3,1.5,2.6,2c1.1-0.9,0.9-1.9,0.8-2.8c-0.1-0.8-0.7-1.5-1.3-2.2c-0.3-0.3-1-0.2-1.5-0.2c-1.6,0.3-2.6-0.3-3.3-1
	c-0.8-0.7-1.5-1.5-2-2.4c-1.8-3.9-4.2-7.6-7.4-11c-1.1-1.2-1.9-2.5-2.6-3.9c-0.8-1.7-2-3.3-2.8-5c-1.3-2.7-1.1-5.4-0.4-8.2
	c0.2-1,1.2-1.9,2.4-2.6c2-1.2,2.8-2.7,2.6-4.4c-0.4-3.1,0.2-6.2,0.5-9.2c0-0.3,0.2-0.7,0.4-1c0.6-0.9,0.4-1.6-0.6-2.3
	c-1.1-0.8-0.9-2-0.8-3c0.1-0.8,0-1.7-0.1-2.5c0-0.3-0.2-0.7,0-1c1.4-2.4,1-4.9,2.4-7.3c0.1-0.2,0.2-0.5,0.5-0.7
	c1.3-1,1.1-2.1,0.5-3.1c-1.3-2.6-1.5-5.3-2.7-7.9c-0.2-0.3-0.3-0.7-0.4-1c-0.2-0.5-0.7-0.7-1.6-0.4c-0.8,0.3-1.6,0.7-2.4,1
	c-0.4,0.2-0.9,0.2-1.2,0c-0.4-0.3,0-0.5,0.3-0.7c2.6-1.7,2.6-3.7,2.1-5.8c-1.4,0.3-1.7,1.1-2.4,1.7c-0.3,0.3-0.5,0.6-1,0.5
	c-0.6-0.1-0.7-0.5-0.6-0.9c0.2-0.4,0.5-0.7,0.7-1.1c1.4-2.3,1.1-4.5-0.6-6.7c-0.7,0.6-1,1.2-1.3,1.8c-0.2,0.5-0.5,1.1-1.3,1.4
	c-0.3,0.1-0.6,0.2-0.9,0.1c-0.3-0.1-0.3-0.3-0.2-0.5c0.5-1.2,0.6-2.5,0.4-3.7c-0.2-1.4-0.5-2.7-1.5-4c-0.2-0.2-0.1-0.5-0.2-0.7
	c-0.1-1-0.8-1.8-1.7-2.7c-3-3-6.5-5.9-9.8-8.8c-2-1.7-3.8-3.6-5.8-5.3c-2-1.7-4.3-3.3-6.6-4.9c-5.9-4-12.4-7.6-18.5-11.5
	c-1.2-0.8-2.6-1.5-4-2.2c-0.3-0.2-0.7-0.4-1-0.6c-0.5-0.3-0.8-0.8-0.2-1.2c0.5-0.3,1.2-0.5,1.9-0.2c1.3,0.6,3.2,0.6,4.4,1.4
	c0.2,0.1,0.7,0.1,1.1,0.1c0.8,1,2.6,1,4,1.4c2.9,0.7,5.6,1.7,8.7,2.2C570.2,121.6,572.6,122,574.9,122.3z M604.6,148.2
	c-0.2,0.3,0,0.5,0.3,0.6c5.1,3.7,11.2,5.9,19.6,4.4c0.2,0,0.5-0.1,0.7-0.1c2.5-0.4,5.1-0.6,7.7-0.5c0.5,0,1.1,0.2,1.5-0.3
	c-0.6-1.2-2-2-3.3-2.9c-2.8-1.9-6.3-2.5-10.5-2.1c-4.9,0.5-9.8,1.2-14.7,0.6C605.5,148.1,605,148.2,604.6,148.2
	c-0.2,0-0.2,0-0.1,0.1C604.5,148.3,604.5,148.3,604.6,148.2z M645,301.5c-0.1-3.3-1.2-6.5-2.2-9.7c-0.9-2.9-1.8-5.8-3.7-8.5
	c-2.1-3-5.7-5-11.2-5.3c-2.3-0.1-4.6-0.3-6.9-0.4c-6.8-0.2-13.1-1.3-19-3.2c-0.9-0.3-1.7-0.6-2.6-0.9c-0.4-0.1-0.8-0.3-1.3-0.1
	c-0.4,0.2-0.3,0.6-0.1,0.8c0.1,0.2,0.2,0.4,0.3,0.5c1.9,2.9,4.3,5.6,7,8.2c2.9,2.8,6.1,5.5,9.4,8.2c2.2,1.8,4.9,3.4,7.2,5.3
	c4.2,3.4,9.5,5.9,14.5,8.8c1.3,0.7,2.9,1.2,4.7,1.5c2.6,0.4,4.2-0.4,4.2-2.1C645.2,303.6,645.1,302.6,645,301.5z M571.8,287.3
	c0.3,1.1,0.4,2.6,1.4,3.9c2.2,2.8,3.9,5.8,5.9,8.7c2.5,3.7,4.6,7.6,6.4,11.5c0.5,1.1,1.3,2.1,2.2,3c1.2,1.2,3.1,1.1,4.3-0.1
	c0.7-0.7,1.3-1.4,1.5-2.2c0.7-2.1,1.5-4.1,2.2-6.2c1.2-3.8,1.1-7.6,0.9-11.3c-0.3-3.8-0.6-7.6-2.6-11.2c-1.9-3.4-3.7-6.8-5.5-10.3
	c-0.1-0.3-0.4-0.5-0.7-0.8c-1.9-1.7-5.2-1.7-7.2,0.1c-2.5,2.3-4.8,4.7-6.5,7.3C572.6,282.1,571.6,284.5,571.8,287.3z M614,303.4
	c0.2-3.2-0.9-6.4-3.2-9.5c-1.6-2.2-3.9-4-5.9-6c-0.6-0.6-0.9-1.3-1.9-1.6c-0.7-0.2-1.4-0.8-2.3-0.5c-1,0.4-0.4,1-0.3,1.5
	c1,3.7,0.9,7.4,1.3,11.1c0.5,3.9-1,7.8-2,11.6c-1.4,4.9-4.3,9.4-8.8,13.5c-0.6,0.5-0.9,1.1-1.1,1.7c-0.6,2-1.2,3.9-1.8,5.9
	c-0.4,1.3,0,2.6,0.7,3.8c1,1.6,2.8,1.7,4.9,0.4c6.1-3.7,10.3-8.1,13.9-12.8c2.1-2.7,3.4-5.6,4.6-8.4
	C613.6,310.7,614.4,307.2,614,303.4z M620.4,180.9c-0.7,0.4-0.5,0.7-0.5,1c0.4,2.5,1.5,4.8,2.9,7.1c1.7,2.6,3.6,5.2,6.6,7.4
	c2.4,1.8,4.5,3.7,7,5.5c4.1,2.9,8.3,5.6,12.5,8.4c2.4,1.5,5.1,2.9,7.8,4.2c1.2,0.6,1.9,0.5,2.1-0.5c0.3-2.1,1.1-4.3,0.9-6.4
	c-0.7-7-6.4-12-14.9-15.7c-3.2-1.4-7-2.3-10.5-3.5c-4.1-1.4-7.9-3.1-10.7-5.5C622.8,182,621.6,181.5,620.4,180.9z M622.3,200.1
	c0.4,2.1,0.7,4.1,1.1,6.1c0.2,0.9,0.5,1.8,1.2,2.7c2.7,3.5,5.9,6.7,10.5,9.2c1.3,0.7,2.5,1.5,3.6,2.4c3.3,2.5,7,4.8,10.1,7.4
	c1.6,1.3,2.4,1.2,3.6-0.4c0.2-0.2,0.3-0.5,0.4-0.7c1-1.6,1.4-3.3,1.7-5c0.3-1.9-0.3-3.6-1.7-5.3c-1.9-2.3-4.6-4.2-7.4-6
	c-2.2-1.4-4.6-2.7-6.6-4.2c-4.1-3.1-8.8-5.9-12.7-9c-0.5-0.4-1.3-0.7-2-0.9c-0.8-0.3-1.3-0.1-1.5,0.5
	C622.3,198,622.3,199.1,622.3,200.1z M640.6,314.8c0.2-2.6-1-4.8-4.1-6.5c-2.8-1.5-5.4-3.1-8-4.7c-1.3-0.8-1.7-0.7-2.7,0.3
	c-1.5,1.6-2.8,3.2-3.9,4.9c-1.4,1.9-2.6,3.9-4.1,5.8c-2,2.5-2.5,5.1-2.9,7.7c-0.2,1.1,0.5,2,1.8,2.7c1.6,0.9,3.1,1.9,4.6,2.8
	c1.5,0.9,1.8,1,3.5,0c1.4-0.8,2.8-1.5,4.7-1.8c1.4-0.2,2.3-0.7,3-1.5c1.3-1.4,3-2.7,5.8-2.9c1.4-0.1,1.7-0.7,1.9-1.5
	C640.4,318.5,640.7,316.7,640.6,314.8z M618,171.7c-0.5,0.8,0.2,1.4,0.5,1.9c1,1.4,2.2,2.8,3.4,4.1c1.3,1.4,2.6,2.9,4.4,4
	c3.3,2.1,7.2,3.7,11.1,5.3c1.3,0.5,2.8,0.9,4.3,1.3c4.4,1,8.6,2.3,12.1,4.3c0.9,0.5,1.8,0.9,2.9,0.5c1-0.4,0.6-1.1,0.4-1.6
	c-0.8-2.9-1.6-5.8-3.2-8.6c-1.8-3.2-5.3-5.1-10.4-5.7c-6.6-0.9-12.8-2.4-19-3.9C622.5,172.7,620.3,172.2,618,171.7z M615.7,205.6
	c-1.3,2.3-2.3,4.7-3,7c-0.6,1.9-0.5,3.8,1.2,5.4c1.5,1.5,3.2,2.9,5.2,4.2c2.4,1.6,5,3.1,7.8,4.4c3,1.4,5.9,2.8,8.8,4.3
	c1.3,0.7,2.6,1.4,3.9,2c2.2,0.9,4.9,0.3,5.7-1.2c0.8-1.5,0.7-2.8-0.9-4c-2.3-1.7-4.8-3.3-7.4-4.9c-5-3.1-10.2-6.1-14.7-9.5
	c-2.7-2.1-5.5-4.2-5.8-7.1C616.6,206,616.4,205.8,615.7,205.6z M587.5,368.1c0.5,0.1,0.7,0.1,0.8,0.1c1-0.4,2.1-0.7,3.1-1.1
	c7.6-3.6,14.6-7.7,20.6-12.4c5.6-4.4,10.4-9.1,15-13.9c1.2-1.3,2.4-2.5,3.3-3.9c0.6-0.8,0.3-1.3-0.4-1.9c-2.7-2.1-3.1-2.1-6.5-0.2
	c-0.4,0.2-0.7,0.4-1,0.6c-3,2.2-5,4.7-6.5,7.4c-1.7,2.9-3.7,5.8-6.4,8.5c-4.9,4.9-10.1,9.7-16.8,13.7C591,366,589.3,367,587.5,368.1
	z M635.3,239.9c1.9-1.9,1.9-2.9,0.3-4.5c-0.4-0.4-0.9-0.8-1.5-1.1c-4.1-2.5-8.9-4.5-13-7c-2.3-1.4-4.7-2.8-6.5-4.4
	c-1.8-1.5-3.2-3.3-4.3-5.1c-0.2-0.4,0-1.1-1.1-1.1c-1,0-1.1,0.8-1.6,1.2c-0.2,0.2-0.3,0.5-0.4,0.7c-1.1,3.1-0.2,5.8,2.7,8.2
	c2.8,2.4,6.6,4.1,10.3,5.9c4.6,2.3,9.7,4.3,14.2,6.8C634.5,239.7,634.9,239.8,635.3,239.9z M580.4,260.7c-0.1-1.8,0.1-3.2-0.3-4.5
	c-0.5-1.6-1-3.2-1.7-4.7c-0.5-1.1-1.1-2.1-1.7-3.2c-0.3-0.6-1-0.8-2-0.7c-1,0.1-1.4,0.6-1.6,1.2c-0.1,0.4,0,0.8,0.1,1.2
	c0.4,1.4,0.8,2.7,1.3,4c1.6,4.2,1.2,8.4-0.6,12.7c-1.1,2.7-3.2,5.1-5.6,7.4c-0.8,0.8-1.6,1.5-2.2,2.4c-0.8,1,0,2.5,1.3,2.9
	c1,0.3,2.5-0.2,3.5-1.2c0.7-0.7,1.3-1.4,2-2.1c2.2-2,4-4.2,5.2-6.5C579.9,266.4,581.1,263.4,580.4,260.7z M590.9,231.9
	c0.2,3.3,0.9,6.5,2.3,9.6c2.3,5.1,6,9.7,11.6,13.6c2.9,2,6.2,3.7,9.3,5.6c0.7,0.4,1.5,0.8,2.4,1.1c0.4,0.2,0.9,0.2,1.3-0.1
	c0.4-0.3,0.4-0.5,0.1-0.8c-0.2-0.2-0.4-0.3-0.6-0.4c-2.5-2-5.1-4.1-7.5-6.1c-2.1-1.8-3.9-3.7-5.9-5.5c-2.7-2.5-5.1-5.2-6.3-8.2
	c-1.7-4.2-3.7-8.4-4.2-12.8c-0.1-0.6,0.2-1.8-1.1-1.7c-1.4,0.1-1.1,1.2-1.1,1.9C591,229.2,590.7,230.5,590.9,231.9z M646.9,170.9
	c-0.7-1.4-1.7-2.6-2.6-3.9c-1.2-1.7-3.5-2-6.1-2.1c-1.2,0-2.3,0.2-3.5,0.3c-4.6,0.3-9.2,0.5-13.6-0.4c-2.3-0.5-4.7-0.9-7-1.4
	c-0.5-0.1-1.1-0.3-1.5,0.1c-0.4,0.3-0.1,0.7,0.2,1c1.1,1.2,2.2,2.3,4,3.1c3.5,1.6,7.5,2.3,11.6,2.9c3.7,0.5,7.5,0.7,11.3,0.6
	C642,171.1,644.3,171.5,646.9,170.9z M580.3,243c0,2.9,2,5.3,3.2,7.9c1.7,3.8,4.8,7.2,9.1,10.1c3.3,2.2,6.7,4.2,10.9,5.6
	c2.1,0.7,4.2,1.4,6.3,2c3.3,1,6.8,1.5,10.2,2.3c0.4,0.1,0.9,0.2,1.3-0.1c0.3-0.3,0.1-0.6-0.1-0.8c-0.2-0.2-0.5-0.3-0.8-0.5
	c-1.3-0.6-2.7-1-4.2-1.3c-4.5-0.9-8.5-2.5-12.2-4.2c-3.5-1.6-6.8-3.4-9.5-5.6c-4.7-3.7-7.6-8.1-9.7-12.6c-0.7-1.5-1.1-3-1.6-4.5
	c-0.2-0.5-0.5-0.9-1.3-0.8c-0.9,0.1-1.5,0.5-1.5,1C580.2,242,580.3,242.5,580.3,243z M584.3,238.1
	C584.3,238.1,584.3,238.1,584.3,238.1c0,0.2,0,0.5,0,0.7c0,0.2,0.1,0.4,0.1,0.6c1.2,5.5,3.8,10.6,8.5,15.2c2.3,2.2,5,4.3,8.2,6
	c4,2.2,8.7,3.7,13.6,5c0.6,0.1,1.2,0.3,1.8,0.3c1.1,0.1,1.6-0.4,1.2-1c-0.3-0.4-0.7-0.7-1.4-0.9c-0.9-0.3-1.8-0.6-2.7-0.9
	c-5.9-1.9-11.2-4.3-15.1-7.7c-4.9-4.2-7.9-8.9-9.7-14.1c-0.3-1-0.6-1.9-0.8-2.9c-0.4-1.5-0.4-3.2-1.3-4.6c-0.2-0.4-0.5-0.8-1.2-0.7
	c-0.6,0.1-0.7,0.5-0.9,0.8c-0.1,0.2-0.1,0.4-0.1,0.6C584.4,235.7,584.3,236.9,584.3,238.1z M607.1,153.9c0.4,1.2,0.8,2,1.7,2.8
	c1.9,1.6,4.5,2.7,7.3,3.6c1.4,0.5,2.8,0.6,4.4,0.6c2.5-0.1,5-0.1,7.5-0.1c4.2,0,8.4-0.2,12.5,0.6c0.4,0.1,0.9,0.2,1.3-0.2
	c-0.3-0.7-0.8-1.4-1.5-2.1c-1.9-1.7-4.1-2.9-7.6-3c-3.4-0.1-6.7,0.1-10.1,0.3c-4.3,0.2-8.4-0.2-12.1-1.5
	C609.5,154.6,608.5,154.3,607.1,153.9z M624.7,143.7c-0.8-1.1-1.9-1.6-2.8-2.1c-2.3-1.2-4.7-2.3-7.9-2.4c-1.7-0.1-3.4-0.1-5.1-0.1
	c-4.9,0-9.8,0.3-14.7,0.1c-0.9,0-1.3,0.4-0.8,0.9c1.9,1.6,3.7,3.2,7.1,3.6c3.7,0.5,7.4,0.3,11.1-0.1c3.4-0.3,6.8-0.4,10.2-0.2
	C622.7,143.4,623.5,143.5,624.7,143.7z M613.5,331.9c0.1-0.7-0.3-1.4-0.8-2c-1.2-1.5-4.5-1.7-6.2-0.4c-1.3,1-2.3,2.1-2.9,3.3
	c-1.4,3-2.4,6-3.3,9.1c-0.3,1.1-0.4,2.3-0.6,3.4c0,0.2,0,0.5,0.4,0.6c0.6,0.2,0.8-0.2,1.1-0.4c0.5-0.4,1.1-0.9,1.6-1.4
	c2.1-2,4.2-4.1,6.4-6.1c1.6-1.4,2.8-3,3.9-4.5C613.4,333.1,613.6,332.5,613.5,331.9z M567.8,247.4c-0.8,0.3-0.8,0.7-0.9,1
	c-0.8,2.4-1.4,4.8-1.8,7.3c-0.7,3.8,0,7.5,1.4,11.2c0.4,1,0.9,2.1,1.4,3.1c0.1,0.2,0.3,0.4,0.7,0.3c0.2,0,0.4-0.2,0.4-0.3
	c1.6-2.2,2.4-4.6,2.8-7c0.6-3.9,0-7.6-1.7-11.3C569.4,250.3,569,248.8,567.8,247.4z M630.9,244c-0.1-0.6-0.3-1.2-0.9-1.5
	c-1.3-0.8-2.7-1.7-4.1-2.5c-3.1-1.8-6.6-3.2-9.6-5.1c-1.9-1.2-3.9-2.3-5.6-3.6c-0.2-0.2-0.5-0.4-1-0.3c-0.6,0.2-0.5,0.5-0.3,0.8
	c0.6,1.1,1,2.2,1.9,3.1c2.1,2.5,4.2,4.9,7,7.1c1.7,1.4,3.5,2.7,5.4,3.9c0.7,0.5,1.6,0.9,2.8,0.9C627.8,246.9,631,244.8,630.9,244z
	 M590.4,263.4c0,1.3,0,1.3,0.5,1.8c2.8,2.7,6.2,5,10.2,7c2.2,1.1,4.7,1.9,7.5,2.4c6.5,1.1,13.2,1.5,19.9,1.9c0.4,0,0.9,0.1,1.2-0.4
	c-0.8-0.5-1.8-0.8-2.8-1.1c-4.2-1.1-8.5-1.9-12.9-2.7c-5.5-1-10.6-2.5-15.3-4.5C595.9,266.5,593.3,265,590.4,263.4z M596.8,337.2
	c-2.2,1.5-4.4,3-6.6,4.5c-1.5,0.9-2.1,2-2.1,3.2c-0.1,2.8-0.4,5.6-1.6,8.3c-0.1,0.2-0.1,0.4-0.2,0.6c-0.1,0.7,0.4,0.9,1.4,0.7
	c0.7-0.2,1.2-0.5,1.7-0.8c1-0.8,1.9-1.6,2.6-2.6c3-4.2,4.4-8.5,5.4-12.9C597.4,337.9,597.4,337.5,596.8,337.2z M616.3,136.5
	c-1.1-0.7-1.7-1.7-3.2-1.9c-2.1-0.4-4.2-0.9-6.4-1.1c-7.4-0.9-15-1.4-22.3-2.6c-0.6-0.1-1.4-0.3-1.9,0.3c0.1,0.3,0.5,0.5,1,0.6
	c3.9,1.2,8,1.9,12.2,2.4c4.9,0.6,9.8,1.2,14.8,1.7C612.4,136.1,614.4,136.3,616.3,136.5z M607.3,345.9c0.1-0.4,0.1-0.6-0.3-0.8
	c-0.5-0.2-0.9,0.1-1.2,0.3c-0.3,0.2-0.6,0.5-0.9,0.7c-1.7,1.2-3.4,2.5-5,3.7c-3.4,2.5-6.9,5-10,7.7c-0.3,0.2-0.6,0.5-0.7,0.8
	c-0.3,0.4-0.1,0.8,0.4,1.1c0.5,0.3,1,0.2,1.5,0c1-0.3,1.9-0.8,2.7-1.3c2.9-1.8,5.3-3.8,7.8-5.8c2-1.6,3.5-3.4,5.1-5.2
	C607,346.7,607.3,346.3,607.3,345.9z M581.7,308.2c0.3-0.5,0-0.8-0.2-1.2c-0.8-1.4-1.7-2.7-2.6-4.1c-3.6-5.4-7.5-10.7-11.5-16
	c-0.3-0.4-0.5-1.1-1.5-0.9c-0.9,0.3-0.5,0.9-0.2,1.3c1,2.1,2.1,4.2,3.2,6.3c0.3,0.6,0.8,1.3,1.2,1.9c2.9,4,6.6,7.8,10.1,11.6
	C580.5,307.6,581,308,581.7,308.2z M619,259.1c-0.7-1.9-2-3.3-3.2-4.8c-1.2-1.5-2.4-2.9-3.8-4.3c-1.4-1.4-2.8-2.8-4.4-4.1
	c-1.5-1.2-2.3-2.9-4.4-4C602.5,245.1,613.2,256.7,619,259.1z M572,124.2c2.5,1.3,5,2.4,8,2.9c4,0.7,8.1,1.4,12.2,2.1
	c0.9,0.2,1.8,0.1,2.7-0.2c0.7-0.3,0.6-0.5,0-0.8c-0.4-0.1-0.9-0.2-1.3-0.3c-4.8-0.9-9.5-1.9-14.1-3c-1.6-0.4-3.2-0.7-4.8-0.9
	C573.9,124,573.2,123.8,572,124.2z M625.3,260.5c-0.2,2.9,1.8,5.2,3.2,7.5c1.8,3.1,6.5,7.5,8.2,7.9
	C636.5,274.1,627.7,262,625.3,260.5z M611,206.1c1.5-1.5,2.1-3.1,2.7-4.7c0.8-2.1,1.6-4.3,2.2-6.5c0.2-0.8,0.1-1.5-0.9-2
	c-0.3-0.2-0.6-0.5-1.1-0.4c-0.7,0.1-0.6,0.5-0.7,0.9c-0.7,2.5-1.5,4.9-2.1,7.4C610.6,202.6,610.5,204.4,611,206.1z M618.8,307.9
	c0.3,0,0.5-0.1,0.6-0.2c1.8-1.9,2.7-4,3.8-6c0.2-0.3,0.2-0.7-0.1-1c-1.2-1-2.7-1.9-4.5-2.7c-0.2,3.1,0.5,6,0,9
	C618.5,307.3,618.3,307.7,618.8,307.9z M611.4,187.8c-2.5,2.2-2.7,2.5-2.5,3.5C612,190,612.3,189.5,611.4,187.8z M584.5,371
	c-2.9,0.8-3.5,2-1.5,3.1C583.3,373,585,372.2,584.5,371z M610.5,193.3c-2,1.1-2.4,2.2-1.1,3.4C609.7,195.5,610.6,194.5,610.5,193.3z
	 M609.8,186.7c1.7-1.3,1.7-1.3,1-2.2C610,185.1,610.3,185.8,609.8,186.7z"/>
<path class="st0" d="M112.7,121.7c3.8,0.7,7.7,1.3,11.5,2.1c4.5,1,9.2,1.8,13.7,2.9c3.5,0.9,6.6,2.2,10.2,2.9c1.9,0.4,3.4,1.4,5.1,2
	c2.9,1,4.8,2.8,7.5,3.9c0.4,0.2,0.7,0.4,0.9,0.6c3.5,3,7.4,5.8,10.1,9.2c1.5,1.9,2.9,3.8,4.6,5.7c1.4,1.5,2.7,3,3.8,4.6
	c2.1,3,4.9,5.7,6.6,8.8c0.7,1.4,2,2.7,2.7,4.1c0.8,1.5,1.7,3,2.6,4.5c3.7,5.8,5.4,11.9,6.6,18.1c0.8,4,1.7,8,1.6,12.1
	c0,1.3-0.1,2.6-0.3,3.9c-0.3,2.3-0.4,4.7-1,7c-1,3.4-1.7,6.8-3.5,10.1c-2.7,5.1-6.6,9.9-9.5,15c-0.8,1.5-1.6,2.9-2.8,4.3
	c-1-0.1-0.7-0.8-1.4-1c-1.1,0.7-1.7,1.7-2.5,3.9c-0.5,1.4-1.1,2.8-1.7,4.2c-0.8,0.1-0.9-0.3-1.1-0.6c-0.4-0.6-0.8-1.3-1.3-1.9
	c-1.1-1.3-2.6-1.5-4.3-0.3c-1.7,1.2-3.3,2.5-3.6,4.2c-0.3,1.4-0.3,2.8,0.2,4.1c0.7,1.8,1.5,3.6,2.5,5.3c0.9,1.5,2.3,2.8,3.4,4.2
	c2.9,3.5,5.1,7.2,5.7,11.2c0.1,0.4,0.2,0.9,0.1,1.3c-0.4,3,1.2,5.7,2.6,8.4c1.4,2.6,2.7,5.3,3.4,8.1c0.5,2,1,4.1,1.2,6.2
	c0.2,1.7,1.7,3,2.6,4.5c0.8,1.4,1.6,2.9,1.9,4.4c0.2,0.9,0.4,1.8-0.1,2.7c-0.8,1.4-1.3,2.7-0.5,4c0.2,0.3,0,0.6-0.4,0.8
	c-0.4,0.2-0.8,0.3-1.3,0.2c-0.5-0.1-0.5-0.4-0.5-0.7c0.3-1.9-0.7-3.7-1.6-5.4c-0.1-0.2-0.3-0.3-0.8-0.3c-0.6,0.5-0.8,1.1-0.8,1.6
	c0,1.6,0.2,3.1,1.3,4.6c1,1.5,1.5,3.1,0.3,4.8c-0.2,0.3-0.3,0.6-1,0.7c0.2-1-0.6-1.9-1.2-2.7c-0.3-0.3-0.7-0.7-1.4-0.6
	c-0.7,0-1,0.5-1.2,0.9c-1.3,2.2-1.4,4.5-0.6,6.7c0.5,1.5,1.4,2.9,1.7,4.4c0.1,0.9,0.3,1.7-1,2.7c-0.5-1.5-1.1-2.7-1.9-3.9
	c-0.3-0.5-0.6-1-1-1.5c-0.6-0.8-1.3-0.8-2.1,0c-0.6,0.7-1.2,1.3-1.6,2.1c-1.7,3-4.1,5.7-6.5,8.5c-1.5,1.7-2.9,3.5-4.6,5.2
	c-2.5,2.6-5.2,5.1-8.3,7.5c-4,3-8.3,5.8-12.6,8.7c-2.3,1.5-4.8,2.7-7.3,4c-3.3,1.6-6.6,3.3-9.8,4.9c-0.3,0.2-0.7,0.3-0.8,0.5
	c-1.3,2.1-4.1,4-3.4,6.5c0.2,0.6-1.8,1.9-2.7,2c-0.7,0.1-1-0.2-1.1-0.5c-0.3-0.7-0.3-1.5-1.1-2c-0.3-0.2-0.2-0.5,0.1-0.7
	c1.1-0.9,0.8-1.8,0.7-2.7c-0.1-0.8,0.2-1.5,0.2-2.2c0-0.3,0.1-0.5,0.4-0.7c1.5-0.8,2.3-2,4.1-2.7c2-0.8,3.4-2,5.1-3
	c2.1-1.2,3.9-2.4,5.6-3.8c1.5-1.1,2.8-2.3,4.2-3.5c0.3-0.3,0.7-0.7,0.1-0.9c-0.4-0.2-0.8,0.2-1.2,0.4c-3,1.9-5.9,3.7-9.3,5.3
	c-3.5,1.7-6.9,3.3-10.7,4.7c-2.5,0.9-4.7,2.1-6.6,3.5c-1.2,0.9-2,1.8-1.8,3c0.1,0.4,0,0.8-0.8,0.9c-0.7,0.1-1.1,0.4-1.5,0.7
	c-0.3,0.3-0.6,0.5-1.2,0.3c-0.6-0.1-0.4-0.5-0.4-0.7c0.1-0.9-0.1-1.8,1.1-2.5c0.6-0.4,0.5-0.8,0.3-1.3c-0.2-0.4-0.3-0.8-0.3-1.3
	c0.1-1.1,0.5-1.9,2.3-2.5c3.6-1.3,7-2.8,9.5-5c0.8-0.8,1.1-1.6,1.8-2.4c0.5-0.6-0.3-1-1.4-0.9c-0.6,0.1-1.2,0.3-1.8,0.4
	c-0.6,0.2-1.1,0.4-1.7,0.5c-0.5,0.1-0.9,0-1.2-0.3c-0.2-0.2,0-0.5,0.3-0.7c0.8-0.6,1.6-1.3,2.5-1.9c3-1.8,4.3-4.1,5.5-6.4
	c0.7-1.3,1.1-2.7,1.5-4.1c0.3-0.9-0.1-1-1.5-0.8c-1.9,0.2-2.4,0.1-2.3-1.3c0.2-2.4,0.7-4.8,1.9-7.2c2.4-4.9,3.8-9.9,3-15
	c-0.4-2.6-1.8-5.1-3.7-7.4c-0.5-0.6-0.8-1.3-0.2-2c0.7-0.8,0.1-1.5-0.5-2.1c-3.8-3.6-7.4-7.3-10.4-11.2c-1.5-1.9-3-3.8-4.2-5.8
	c-1-1.5-1.6-3.1-2.3-4.7c-2-4.2-3.1-8.6-4-13c-0.7-3.6-0.7-7.2-0.5-10.9c0.2-2.9,0.2-5.8,1-8.7c0.6-2.1,0.9-4.2,1.9-6.3
	c0.4-0.9,0.1-1.8,0.5-2.6c1.4-2.7,2.9-5.3,4.9-7.8c1.2-1.6,2.3-3.3,3.3-5c1.8-3,4.5-5.7,6.9-8.6c1.3-1.5,2.5-3.1,4.2-4.4
	c2.2-1.8,3.9-3.7,6-5.5c1.9-1.6,4-3.2,6.2-4.7c1.7-1.2,3.1-2.5,4.4-3.8c0.9-1,1.3-1.9,0.5-3c-1.1-1.5-1-3-0.1-4.6
	c0.1-0.2,0.4-0.4,0.6-0.7c0.7,0.6,0.3,1.1,0.1,1.6c-0.6,1.1-0.3,2.1,0.7,3.1c2,2,1.8,4.3-0.7,6.2c-1.5,1.2-2.4,2.6-2.9,4
	c-1.3,3.1-1.4,6.4-1,9.5c0.3,2.3,1.4,4.6,2.7,6.8c2.2,3.8,5.4,7.3,8.9,10.7c2,1.9,3.9,3.7,6,5.5c2.1,1.8,4.4,3.5,6.5,5.3
	c0.8,0.7,1.3,1.5,2.6,2c1.1-0.9,0.9-1.9,0.8-2.8c-0.1-0.8-0.7-1.5-1.3-2.2c-0.3-0.3-1-0.2-1.5-0.2c-1.6,0.3-2.6-0.3-3.3-1
	c-0.8-0.7-1.5-1.5-2-2.4c-1.8-3.9-4.2-7.6-7.4-11c-1.1-1.2-1.9-2.5-2.6-3.9c-0.8-1.7-2-3.3-2.8-5c-1.3-2.7-1.1-5.4-0.4-8.2
	c0.2-1,1.2-1.9,2.4-2.6c2-1.2,2.8-2.7,2.6-4.4c-0.4-3.1,0.2-6.2,0.5-9.2c0-0.3,0.2-0.7,0.4-1c0.6-0.9,0.4-1.6-0.6-2.3
	c-1.1-0.8-0.9-2-0.8-3c0.1-0.8,0-1.7-0.1-2.5c0-0.3-0.2-0.7,0-1c1.4-2.4,1-4.9,2.4-7.3c0.1-0.2,0.2-0.5,0.5-0.7
	c1.3-1,1.1-2.1,0.5-3.1c-1.3-2.6-1.5-5.3-2.7-7.9c-0.2-0.3-0.3-0.7-0.4-1c-0.2-0.5-0.7-0.7-1.6-0.4c-0.8,0.3-1.6,0.7-2.4,1
	c-0.4,0.2-0.9,0.2-1.2,0c-0.4-0.3,0-0.5,0.3-0.7c2.6-1.7,2.6-3.7,2.1-5.8c-1.4,0.3-1.7,1.1-2.4,1.7c-0.3,0.3-0.5,0.6-1,0.5
	c-0.6-0.1-0.7-0.5-0.6-0.9c0.2-0.4,0.5-0.7,0.7-1.1c1.4-2.3,1.1-4.5-0.6-6.7c-0.7,0.6-1,1.2-1.3,1.8c-0.2,0.5-0.5,1.1-1.3,1.4
	c-0.3,0.1-0.6,0.2-0.9,0.1c-0.3-0.1-0.3-0.3-0.2-0.5c0.5-1.2,0.6-2.5,0.4-3.7c-0.2-1.4-0.5-2.7-1.5-4c-0.2-0.2-0.1-0.5-0.2-0.7
	c-0.1-1-0.8-1.8-1.7-2.7c-3-3-6.5-5.9-9.8-8.8c-2-1.7-3.8-3.6-5.8-5.3c-2-1.7-4.3-3.3-6.6-4.9c-5.9-4-12.4-7.6-18.5-11.5
	c-1.2-0.8-2.6-1.5-4-2.2c-0.3-0.2-0.7-0.4-1-0.6c-0.5-0.3-0.8-0.8-0.2-1.2c0.5-0.3,1.2-0.5,1.9-0.2c1.3,0.6,3.2,0.6,4.4,1.4
	c0.2,0.1,0.7,0.1,1.1,0.1c0.8,1,2.6,1,4,1.4c2.9,0.7,5.6,1.7,8.7,2.2C107.9,121,110.3,121.3,112.7,121.7z M142.3,147.6
	c-0.2,0.3,0,0.5,0.3,0.6c5.1,3.7,11.2,5.9,19.6,4.4c0.2,0,0.5-0.1,0.7-0.1c2.5-0.4,5.1-0.6,7.7-0.5c0.5,0,1.1,0.2,1.5-0.3
	c-0.6-1.2-2-2-3.3-2.9c-2.8-1.9-6.3-2.5-10.5-2.1c-4.9,0.5-9.8,1.2-14.7,0.6C143.2,147.4,142.7,147.6,142.3,147.6
	c-0.2,0-0.2,0-0.1,0.1C142.2,147.7,142.2,147.6,142.3,147.6z M182.8,300.9c-0.1-3.3-1.2-6.5-2.2-9.7c-0.9-2.9-1.8-5.8-3.7-8.5
	c-2.1-3-5.7-5-11.2-5.3c-2.3-0.1-4.6-0.3-6.9-0.4c-6.8-0.2-13.1-1.3-19-3.2c-0.9-0.3-1.7-0.6-2.6-0.9c-0.4-0.1-0.8-0.3-1.3-0.1
	c-0.4,0.2-0.3,0.6-0.1,0.8c0.1,0.2,0.2,0.4,0.3,0.5c1.9,2.9,4.3,5.6,7,8.2c2.9,2.8,6.1,5.5,9.4,8.2c2.2,1.8,4.9,3.4,7.2,5.3
	c4.2,3.4,9.5,5.9,14.5,8.8c1.3,0.7,2.9,1.2,4.7,1.5c2.6,0.4,4.2-0.4,4.2-2.1C183,303,182.8,302,182.8,300.9z M109.5,286.7
	c0.3,1.1,0.4,2.6,1.4,3.9c2.2,2.8,3.9,5.8,5.9,8.7c2.5,3.7,4.6,7.6,6.4,11.5c0.5,1.1,1.3,2.1,2.2,3c1.2,1.2,3.1,1.1,4.3-0.1
	c0.7-0.7,1.3-1.4,1.5-2.2c0.7-2.1,1.5-4.1,2.2-6.2c1.2-3.8,1.1-7.6,0.9-11.3c-0.3-3.8-0.6-7.6-2.6-11.2c-1.9-3.4-3.7-6.8-5.5-10.3
	c-0.1-0.3-0.4-0.5-0.7-0.8c-1.9-1.7-5.2-1.7-7.2,0.1c-2.5,2.3-4.8,4.7-6.5,7.3C110.4,281.5,109.3,283.9,109.5,286.7z M151.7,302.8
	c0.2-3.2-0.9-6.4-3.2-9.5c-1.6-2.2-3.9-4-5.9-6c-0.6-0.6-0.9-1.3-1.9-1.6c-0.7-0.2-1.4-0.8-2.3-0.5c-1,0.4-0.4,1-0.3,1.5
	c1,3.7,0.9,7.4,1.3,11.1c0.5,3.9-1,7.8-2,11.6c-1.4,4.9-4.3,9.4-8.8,13.5c-0.6,0.5-0.9,1.1-1.1,1.7c-0.6,2-1.2,3.9-1.8,5.9
	c-0.4,1.3,0,2.6,0.7,3.8c1,1.6,2.8,1.7,4.9,0.4c6.1-3.7,10.3-8.1,13.9-12.8c2.1-2.7,3.4-5.6,4.6-8.4
	C151.4,310.1,152.1,306.6,151.7,302.8z M158.2,180.3c-0.7,0.4-0.5,0.7-0.5,1c0.4,2.5,1.5,4.8,2.9,7.1c1.7,2.6,3.6,5.2,6.6,7.4
	c2.4,1.8,4.5,3.7,7,5.5c4.1,2.9,8.3,5.6,12.5,8.4c2.4,1.5,5.1,2.9,7.8,4.2c1.2,0.6,1.9,0.5,2.1-0.5c0.3-2.1,1.1-4.3,0.9-6.4
	c-0.7-7-6.4-12-14.9-15.7c-3.2-1.4-7-2.3-10.5-3.5c-4.1-1.4-7.9-3.1-10.7-5.5C160.5,181.4,159.3,180.9,158.2,180.3z M160,199.4
	c0.4,2.1,0.7,4.1,1.1,6.1c0.2,0.9,0.5,1.8,1.2,2.7c2.7,3.5,5.9,6.7,10.5,9.2c1.3,0.7,2.5,1.5,3.6,2.4c3.3,2.5,7,4.8,10.1,7.4
	c1.6,1.3,2.4,1.2,3.6-0.4c0.2-0.2,0.3-0.5,0.4-0.7c1-1.6,1.4-3.3,1.7-5c0.3-1.9-0.3-3.6-1.7-5.3c-1.9-2.3-4.6-4.2-7.4-6
	c-2.2-1.4-4.6-2.7-6.6-4.2c-4.1-3.1-8.8-5.9-12.7-9c-0.5-0.4-1.3-0.7-2-0.9c-0.8-0.3-1.3-0.1-1.5,0.5C160,197.4,160,198.4,160,199.4
	z M178.4,314.2c0.2-2.6-1-4.8-4.1-6.5c-2.8-1.5-5.4-3.1-8-4.7c-1.3-0.8-1.7-0.7-2.7,0.3c-1.5,1.6-2.8,3.2-3.9,4.9
	c-1.4,1.9-2.6,3.9-4.1,5.8c-2,2.5-2.5,5.1-2.9,7.7c-0.2,1.1,0.5,2,1.8,2.7c1.6,0.9,3.1,1.9,4.6,2.8c1.5,0.9,1.8,1,3.5,0
	c1.4-0.8,2.8-1.5,4.7-1.8c1.4-0.2,2.3-0.7,3-1.5c1.3-1.4,3-2.7,5.8-2.9c1.4-0.1,1.7-0.7,1.9-1.5
	C178.1,317.9,178.4,316.1,178.4,314.2z M155.7,171.1c-0.5,0.8,0.2,1.4,0.5,1.9c1,1.4,2.2,2.8,3.4,4.1c1.3,1.4,2.6,2.9,4.4,4
	c3.3,2.1,7.2,3.7,11.1,5.3c1.3,0.5,2.8,0.9,4.3,1.3c4.4,1,8.6,2.3,12.1,4.3c0.9,0.5,1.8,0.9,2.9,0.5c1-0.4,0.6-1.1,0.4-1.6
	c-0.8-2.9-1.6-5.8-3.2-8.6c-1.8-3.2-5.3-5.1-10.4-5.7c-6.6-0.9-12.8-2.4-19-3.9C160.2,172.1,158,171.6,155.7,171.1z M153.5,205
	c-1.3,2.3-2.3,4.7-3,7c-0.6,1.9-0.5,3.8,1.2,5.4c1.5,1.5,3.2,2.9,5.2,4.2c2.4,1.6,5,3.1,7.8,4.4c3,1.4,5.9,2.8,8.8,4.3
	c1.3,0.7,2.6,1.4,3.9,2c2.2,0.9,4.9,0.3,5.7-1.2c0.8-1.5,0.7-2.8-0.9-4c-2.3-1.7-4.8-3.3-7.4-4.9c-5-3.1-10.2-6.1-14.7-9.5
	c-2.7-2.1-5.5-4.2-5.8-7.1C154.3,205.4,154.1,205.1,153.5,205z M125.2,367.5c0.5,0.1,0.7,0.1,0.8,0.1c1-0.4,2.1-0.7,3.1-1.1
	c7.6-3.6,14.6-7.7,20.6-12.4c5.6-4.4,10.4-9.1,15-13.9c1.2-1.3,2.4-2.5,3.3-3.9c0.6-0.8,0.3-1.3-0.4-1.9c-2.7-2.1-3.1-2.1-6.5-0.2
	c-0.4,0.2-0.7,0.4-1,0.6c-3,2.2-5,4.7-6.5,7.4c-1.7,2.9-3.7,5.8-6.4,8.5c-4.9,4.9-10.1,9.7-16.8,13.7
	C128.7,365.4,127.1,366.4,125.2,367.5z M173,239.3c1.9-1.9,1.9-2.9,0.3-4.5c-0.4-0.4-0.9-0.8-1.5-1.1c-4.1-2.5-8.9-4.5-13-7
	c-2.3-1.4-4.7-2.8-6.5-4.4c-1.8-1.5-3.2-3.3-4.3-5.1c-0.2-0.4,0-1.1-1.1-1.1c-1,0-1.1,0.8-1.6,1.2c-0.2,0.2-0.3,0.5-0.4,0.7
	c-1.1,3.1-0.2,5.8,2.7,8.2c2.8,2.4,6.6,4.1,10.3,5.9c4.6,2.3,9.7,4.3,14.2,6.8C172.3,239.1,172.6,239.1,173,239.3z M118.1,260.1
	c-0.1-1.8,0.1-3.2-0.3-4.5c-0.5-1.6-1-3.2-1.7-4.7c-0.5-1.1-1.1-2.1-1.7-3.2c-0.3-0.6-1-0.8-2-0.7c-1,0.1-1.4,0.6-1.6,1.2
	c-0.1,0.4,0,0.8,0.1,1.2c0.4,1.4,0.8,2.7,1.3,4c1.6,4.2,1.2,8.4-0.6,12.7c-1.1,2.7-3.2,5.1-5.6,7.4c-0.8,0.8-1.6,1.5-2.2,2.4
	c-0.8,1,0,2.5,1.3,2.9c1,0.3,2.5-0.2,3.5-1.2c0.7-0.7,1.3-1.4,2-2.1c2.2-2,4-4.2,5.2-6.5C117.6,265.8,118.9,262.7,118.1,260.1z
	 M128.6,231.2c0.2,3.3,0.9,6.5,2.3,9.6c2.3,5.1,6,9.7,11.6,13.6c2.9,2,6.2,3.7,9.3,5.6c0.7,0.4,1.5,0.8,2.4,1.1
	c0.4,0.2,0.9,0.2,1.3-0.1c0.4-0.3,0.4-0.5,0.1-0.8c-0.2-0.2-0.4-0.3-0.6-0.4c-2.5-2-5.1-4.1-7.5-6.1c-2.1-1.8-3.9-3.7-5.9-5.5
	c-2.7-2.5-5.1-5.2-6.3-8.2c-1.7-4.2-3.7-8.4-4.2-12.8c-0.1-0.6,0.2-1.8-1.1-1.7c-1.4,0.1-1.1,1.2-1.1,1.9
	C128.7,228.6,128.4,229.9,128.6,231.2z M184.6,170.3c-0.7-1.4-1.7-2.6-2.6-3.9c-1.2-1.7-3.5-2-6.1-2.1c-1.2,0-2.3,0.2-3.5,0.3
	c-4.6,0.3-9.2,0.5-13.6-0.4c-2.3-0.5-4.7-0.9-7-1.4c-0.5-0.1-1.1-0.3-1.5,0.1c-0.4,0.3-0.1,0.7,0.2,1c1.1,1.2,2.2,2.3,4,3.1
	c3.5,1.6,7.5,2.3,11.6,2.9c3.7,0.5,7.5,0.7,11.3,0.6C179.7,170.5,182,170.9,184.6,170.3z M118,242.4c0,2.9,2,5.3,3.2,7.9
	c1.7,3.8,4.8,7.2,9.1,10.1c3.3,2.2,6.7,4.2,10.9,5.6c2.1,0.7,4.2,1.4,6.3,2c3.3,1,6.8,1.5,10.2,2.3c0.4,0.1,0.9,0.2,1.3-0.1
	c0.3-0.3,0.1-0.6-0.1-0.8c-0.2-0.2-0.5-0.3-0.8-0.5c-1.3-0.6-2.7-1-4.2-1.3c-4.5-0.9-8.5-2.5-12.2-4.2c-3.5-1.6-6.8-3.4-9.5-5.6
	c-4.7-3.7-7.6-8.1-9.7-12.6c-0.7-1.5-1.1-3-1.6-4.5c-0.2-0.5-0.5-0.9-1.3-0.8c-0.9,0.1-1.5,0.5-1.5,1
	C117.9,241.4,118,241.9,118,242.4z M122,237.5C122,237.5,122,237.5,122,237.5c0,0.2,0,0.5,0,0.7c0,0.2,0.1,0.4,0.1,0.6
	c1.2,5.5,3.8,10.6,8.5,15.2c2.3,2.2,5,4.3,8.2,6c4,2.2,8.7,3.7,13.6,5c0.6,0.1,1.2,0.3,1.8,0.3c1.1,0.1,1.6-0.4,1.2-1
	c-0.3-0.4-0.7-0.7-1.4-0.9c-0.9-0.3-1.8-0.6-2.7-0.9c-5.9-1.9-11.2-4.3-15.1-7.7c-4.9-4.2-7.9-8.9-9.7-14.1c-0.3-1-0.6-1.9-0.8-2.9
	c-0.4-1.5-0.4-3.2-1.3-4.6c-0.2-0.4-0.5-0.8-1.2-0.7c-0.6,0.1-0.7,0.5-0.9,0.8c-0.1,0.2-0.1,0.4-0.1,0.6
	C122.1,235.1,122,236.3,122,237.5z M144.9,153.3c0.4,1.2,0.8,2,1.7,2.8c1.9,1.6,4.5,2.7,7.3,3.6c1.4,0.5,2.8,0.6,4.4,0.6
	c2.5-0.1,5-0.1,7.5-0.1c4.2,0,8.4-0.2,12.5,0.6c0.4,0.1,0.9,0.2,1.3-0.2c-0.3-0.7-0.8-1.4-1.5-2.1c-1.9-1.7-4.1-2.9-7.6-3
	c-3.4-0.1-6.7,0.1-10.1,0.3c-4.3,0.2-8.4-0.2-12.1-1.5C147.2,154,146.2,153.7,144.9,153.3z M162.5,143.1c-0.8-1.1-1.9-1.6-2.8-2.1
	c-2.3-1.2-4.7-2.3-7.9-2.4c-1.7-0.1-3.4-0.1-5.1-0.1c-4.9,0-9.8,0.3-14.7,0.1c-0.9,0-1.3,0.4-0.8,0.9c1.9,1.6,3.7,3.2,7.1,3.6
	c3.7,0.5,7.4,0.3,11.1-0.1c3.4-0.3,6.8-0.4,10.2-0.2C160.4,142.8,161.2,142.9,162.5,143.1z M151.2,331.3c0.1-0.7-0.3-1.4-0.8-2
	c-1.2-1.5-4.5-1.7-6.2-0.4c-1.3,1-2.3,2.1-2.9,3.3c-1.4,3-2.4,6-3.3,9.1c-0.3,1.1-0.4,2.3-0.6,3.4c0,0.2,0,0.5,0.4,0.6
	c0.6,0.2,0.8-0.2,1.1-0.4c0.5-0.4,1.1-0.9,1.6-1.4c2.1-2,4.2-4.1,6.4-6.1c1.6-1.4,2.8-3,3.9-4.5
	C151.1,332.4,151.4,331.9,151.2,331.3z M105.5,246.8c-0.8,0.3-0.8,0.7-0.9,1c-0.8,2.4-1.4,4.8-1.8,7.3c-0.7,3.8,0,7.5,1.4,11.2
	c0.4,1,0.9,2.1,1.4,3.1c0.1,0.2,0.3,0.4,0.7,0.3c0.2,0,0.4-0.2,0.4-0.3c1.6-2.2,2.4-4.6,2.8-7c0.6-3.9,0-7.6-1.7-11.3
	C107.1,249.7,106.8,248.2,105.5,246.8z M168.7,243.3c-0.1-0.6-0.3-1.2-0.9-1.5c-1.3-0.8-2.7-1.7-4.1-2.5c-3.1-1.8-6.6-3.2-9.6-5.1
	c-1.9-1.2-3.9-2.3-5.6-3.6c-0.2-0.2-0.5-0.4-1-0.3c-0.6,0.2-0.5,0.5-0.3,0.8c0.6,1.1,1,2.2,1.9,3.1c2.1,2.5,4.2,4.9,7,7.1
	c1.7,1.4,3.5,2.7,5.4,3.9c0.7,0.5,1.6,0.9,2.8,0.9C165.5,246.3,168.7,244.1,168.7,243.3z M128.1,262.8c0,1.3,0,1.3,0.5,1.8
	c2.8,2.7,6.2,5,10.2,7c2.2,1.1,4.7,1.9,7.5,2.4c6.5,1.1,13.2,1.5,19.9,1.9c0.4,0,0.9,0.1,1.2-0.4c-0.8-0.5-1.8-0.8-2.8-1.1
	c-4.2-1.1-8.5-1.9-12.9-2.7c-5.5-1-10.6-2.5-15.3-4.5C133.6,265.9,131,264.4,128.1,262.8z M134.5,336.6c-2.2,1.5-4.4,3-6.6,4.5
	c-1.5,0.9-2.1,2-2.1,3.2c-0.1,2.8-0.4,5.6-1.6,8.3c-0.1,0.2-0.1,0.4-0.2,0.6c-0.1,0.7,0.4,0.9,1.4,0.7c0.7-0.2,1.2-0.5,1.7-0.8
	c1-0.8,1.9-1.6,2.6-2.6c3-4.2,4.4-8.5,5.4-12.9C135.1,337.2,135.1,336.9,134.5,336.6z M154.1,135.9c-1.1-0.7-1.7-1.7-3.2-1.9
	c-2.1-0.4-4.2-0.9-6.4-1.1c-7.4-0.9-15-1.4-22.3-2.6c-0.6-0.1-1.4-0.3-1.9,0.3c0.1,0.3,0.5,0.5,1,0.6c3.9,1.2,8,1.9,12.2,2.4
	c4.9,0.6,9.8,1.2,14.8,1.7C150.1,135.5,152.1,135.7,154.1,135.9z M145,345.3c0.1-0.4,0.1-0.6-0.3-0.8c-0.5-0.2-0.9,0.1-1.2,0.3
	c-0.3,0.2-0.6,0.5-0.9,0.7c-1.7,1.2-3.4,2.5-5,3.7c-3.4,2.5-6.9,5-10,7.7c-0.3,0.2-0.6,0.5-0.7,0.8c-0.3,0.4-0.1,0.8,0.4,1.1
	c0.5,0.3,1,0.2,1.5,0c1-0.3,1.9-0.8,2.7-1.3c2.9-1.8,5.3-3.8,7.8-5.8c2-1.6,3.5-3.4,5.1-5.2C144.8,346.1,145,345.7,145,345.3z
	 M119.4,307.6c0.3-0.5,0-0.8-0.2-1.2c-0.8-1.4-1.7-2.7-2.6-4.1c-3.6-5.4-7.5-10.7-11.5-16c-0.3-0.4-0.5-1.1-1.5-0.9
	c-0.9,0.3-0.5,0.9-0.2,1.3c1,2.1,2.1,4.2,3.2,6.3c0.3,0.6,0.8,1.3,1.2,1.9c2.9,4,6.6,7.8,10.1,11.6
	C118.2,307,118.7,307.4,119.4,307.6z M156.7,258.4c-0.7-1.9-2-3.3-3.2-4.8c-1.2-1.5-2.4-2.9-3.8-4.3c-1.4-1.4-2.8-2.8-4.4-4.1
	c-1.5-1.2-2.3-2.9-4.4-4C140.3,244.4,150.9,256.1,156.7,258.4z M109.7,123.6c2.5,1.3,5,2.4,8,2.9c4,0.7,8.1,1.4,12.2,2.1
	c0.9,0.2,1.8,0.1,2.7-0.2c0.7-0.3,0.6-0.5,0-0.8c-0.4-0.1-0.9-0.2-1.3-0.3c-4.8-0.9-9.5-1.9-14.1-3c-1.6-0.4-3.2-0.7-4.8-0.9
	C111.6,123.4,110.9,123.1,109.7,123.6z M163.1,259.9c-0.2,2.9,1.8,5.2,3.2,7.5c1.8,3.1,6.5,7.5,8.2,7.9
	C174.2,273.5,165.5,261.4,163.1,259.9z M148.7,205.5c1.5-1.5,2.1-3.1,2.7-4.7c0.8-2.1,1.6-4.3,2.2-6.5c0.2-0.8,0.1-1.5-0.9-2
	c-0.3-0.2-0.6-0.5-1.1-0.4c-0.7,0.1-0.6,0.5-0.7,0.9c-0.7,2.5-1.5,4.9-2.1,7.4C148.3,202,148.2,203.7,148.7,205.5z M156.5,307.3
	c0.3,0,0.5-0.1,0.6-0.2c1.8-1.9,2.7-4,3.8-6c0.2-0.3,0.2-0.7-0.1-1c-1.2-1-2.7-1.9-4.5-2.7c-0.2,3.1,0.5,6,0,9
	C156.2,306.7,156,307,156.5,307.3z M149.2,187.2c-2.5,2.2-2.7,2.5-2.5,3.5C149.7,189.4,150,188.9,149.2,187.2z M122.2,370.4
	c-2.9,0.8-3.5,2-1.5,3.1C121.1,372.4,122.7,371.6,122.2,370.4z M148.2,192.7c-2,1.1-2.4,2.2-1.1,3.4
	C147.4,194.9,148.3,193.9,148.2,192.7z M147.5,186.1c1.7-1.3,1.7-1.3,1-2.2C147.7,184.5,148,185.2,147.5,186.1z"/>
<path class="st0" d="M673.3,133c3.8,0.7,7.7,1.3,11.5,2.1c4.5,1,9.2,1.8,13.7,2.9c3.5,0.9,6.6,2.2,10.2,2.9c1.9,0.4,3.4,1.4,5.1,2
	c2.9,1,4.8,2.8,7.5,3.9c0.4,0.2,0.7,0.4,0.9,0.6c3.5,3,7.4,5.8,10.1,9.2c1.5,1.9,2.9,3.8,4.6,5.7c1.4,1.5,2.7,3,3.8,4.6
	c2.1,3,4.9,5.7,6.6,8.8c0.7,1.4,2,2.7,2.7,4.1c0.8,1.5,1.7,3,2.6,4.5c3.7,5.8,5.4,11.9,6.6,18.1c0.8,4,1.7,8,1.6,12.1
	c0,1.3-0.1,2.6-0.3,3.9c-0.3,2.3-0.4,4.7-1,7c-1,3.4-1.7,6.8-3.5,10.1c-2.7,5.1-6.6,9.9-9.5,15c-0.8,1.5-1.6,2.9-2.8,4.3
	c-1-0.1-0.7-0.8-1.4-1c-1.1,0.7-1.7,1.7-2.5,3.9c-0.5,1.4-1.1,2.8-1.7,4.2c-0.8,0.1-0.9-0.3-1.1-0.6c-0.4-0.6-0.8-1.3-1.3-1.9
	c-1.1-1.3-2.6-1.5-4.3-0.3c-1.7,1.2-3.3,2.5-3.6,4.2c-0.3,1.4-0.3,2.8,0.2,4.1c0.7,1.8,1.5,3.6,2.5,5.3c0.9,1.5,2.3,2.8,3.4,4.2
	c2.9,3.5,5.1,7.2,5.7,11.2c0.1,0.4,0.2,0.9,0.1,1.3c-0.4,3,1.2,5.7,2.6,8.4c1.4,2.6,2.7,5.3,3.4,8.1c0.5,2,1,4.1,1.2,6.2
	c0.2,1.7,1.7,3,2.6,4.5c0.8,1.4,1.6,2.9,1.9,4.4c0.2,0.9,0.4,1.8-0.1,2.7c-0.8,1.4-1.3,2.7-0.5,4c0.2,0.3,0,0.6-0.4,0.8
	c-0.4,0.2-0.8,0.3-1.3,0.2c-0.5-0.1-0.5-0.4-0.5-0.7c0.3-1.9-0.7-3.7-1.6-5.4c-0.1-0.2-0.3-0.3-0.8-0.3c-0.6,0.5-0.8,1.1-0.8,1.6
	c0,1.6,0.2,3.1,1.3,4.6c1,1.5,1.5,3.1,0.3,4.8c-0.2,0.3-0.3,0.6-1,0.7c0.2-1-0.6-1.9-1.2-2.7c-0.3-0.3-0.7-0.7-1.4-0.6
	c-0.7,0-1,0.5-1.2,0.9c-1.3,2.2-1.4,4.5-0.6,6.7c0.5,1.5,1.4,2.9,1.7,4.4c0.1,0.9,0.3,1.7-1,2.7c-0.5-1.5-1.1-2.7-1.9-3.9
	c-0.3-0.5-0.6-1-1-1.5c-0.6-0.8-1.3-0.8-2.1,0c-0.6,0.7-1.2,1.3-1.6,2.1c-1.7,3-4.1,5.7-6.5,8.5c-1.5,1.7-2.9,3.5-4.6,5.2
	c-2.5,2.6-5.2,5.1-8.3,7.5c-4,3-8.3,5.8-12.6,8.7c-2.3,1.5-4.8,2.7-7.3,4c-3.3,1.6-6.6,3.3-9.8,4.9c-0.3,0.2-0.7,0.3-0.8,0.5
	c-1.3,2.1-4.1,4-3.4,6.5c0.2,0.6-1.8,1.9-2.7,2c-0.7,0.1-1-0.2-1.1-0.5c-0.3-0.7-0.3-1.5-1.1-2c-0.3-0.2-0.2-0.5,0.1-0.7
	c1.1-0.9,0.8-1.8,0.7-2.7c-0.1-0.8,0.2-1.5,0.2-2.2c0-0.3,0.1-0.5,0.4-0.7c1.5-0.8,2.3-2,4.1-2.7c2-0.8,3.4-2,5.1-3
	c2.1-1.2,3.9-2.4,5.6-3.8c1.5-1.1,2.8-2.3,4.2-3.5c0.3-0.3,0.7-0.7,0.1-0.9c-0.4-0.2-0.8,0.2-1.2,0.4c-3,1.9-5.9,3.7-9.3,5.3
	c-3.5,1.7-6.9,3.3-10.7,4.7c-2.5,0.9-4.7,2.1-6.6,3.5c-1.2,0.9-2,1.8-1.8,3c0.1,0.4,0,0.8-0.8,0.9c-0.7,0.1-1.1,0.4-1.5,0.7
	c-0.3,0.3-0.6,0.5-1.2,0.3c-0.6-0.1-0.4-0.5-0.4-0.7c0.1-0.9-0.1-1.8,1.1-2.5c0.6-0.4,0.5-0.8,0.3-1.3c-0.2-0.4-0.3-0.8-0.3-1.3
	c0.1-1.1,0.5-1.9,2.3-2.5c3.6-1.3,7-2.8,9.5-5c0.8-0.8,1.1-1.6,1.8-2.4c0.5-0.6-0.3-1-1.4-0.9c-0.6,0.1-1.2,0.3-1.8,0.4
	c-0.6,0.2-1.1,0.4-1.7,0.5c-0.5,0.1-0.9,0-1.2-0.3c-0.2-0.2,0-0.5,0.3-0.7c0.8-0.6,1.6-1.3,2.5-1.9c3-1.8,4.3-4.1,5.5-6.4
	c0.7-1.3,1.1-2.7,1.5-4.1c0.3-0.9-0.1-1-1.5-0.8c-1.9,0.2-2.4,0.1-2.3-1.3c0.2-2.4,0.7-4.8,1.9-7.2c2.4-4.9,3.8-9.9,3-15
	c-0.4-2.6-1.8-5.1-3.7-7.4c-0.5-0.6-0.8-1.3-0.2-2c0.7-0.8,0.1-1.5-0.5-2.1c-3.8-3.6-7.4-7.3-10.4-11.2c-1.5-1.9-3-3.8-4.2-5.8
	c-1-1.5-1.6-3.1-2.3-4.7c-2-4.2-3.1-8.6-4-13c-0.7-3.6-0.7-7.2-0.5-10.9c0.2-2.9,0.2-5.8,1-8.7c0.6-2.1,0.9-4.2,1.9-6.3
	c0.4-0.9,0.1-1.8,0.5-2.6c1.4-2.7,2.9-5.3,4.9-7.8c1.2-1.6,2.3-3.3,3.3-5c1.8-3,4.5-5.7,6.9-8.6c1.3-1.5,2.5-3.1,4.2-4.4
	c2.2-1.8,3.9-3.7,6-5.5c1.9-1.6,4-3.2,6.2-4.7c1.7-1.2,3.1-2.5,4.4-3.8c0.9-1,1.3-1.9,0.5-3c-1.1-1.5-1-3-0.1-4.6
	c0.1-0.2,0.4-0.4,0.6-0.7c0.7,0.6,0.3,1.1,0.1,1.6c-0.6,1.1-0.3,2.1,0.7,3.1c2,2,1.8,4.3-0.7,6.2c-1.5,1.2-2.4,2.6-2.9,4
	c-1.3,3.1-1.4,6.4-1,9.5c0.3,2.3,1.4,4.6,2.7,6.8c2.2,3.8,5.4,7.3,8.9,10.7c2,1.9,3.9,3.7,6,5.5c2.1,1.8,4.4,3.5,6.5,5.3
	c0.8,0.7,1.3,1.5,2.6,2c1.1-0.9,0.9-1.9,0.8-2.8c-0.1-0.8-0.7-1.5-1.3-2.2c-0.3-0.3-1-0.2-1.5-0.2c-1.6,0.3-2.6-0.3-3.3-1
	c-0.8-0.7-1.5-1.5-2-2.4c-1.8-3.9-4.2-7.6-7.4-11c-1.1-1.2-1.9-2.5-2.6-3.9c-0.8-1.7-2-3.3-2.8-5c-1.3-2.7-1.1-5.4-0.4-8.2
	c0.2-1,1.2-1.9,2.4-2.6c2-1.2,2.8-2.7,2.6-4.4c-0.4-3.1,0.2-6.2,0.5-9.2c0-0.3,0.2-0.7,0.4-1c0.6-0.9,0.4-1.6-0.6-2.3
	c-1.1-0.8-0.9-2-0.8-3c0.1-0.8,0-1.7-0.1-2.5c0-0.3-0.2-0.7,0-1c1.4-2.4,1-4.9,2.4-7.3c0.1-0.2,0.2-0.5,0.5-0.7
	c1.3-1,1.1-2.1,0.5-3.1c-1.3-2.6-1.5-5.3-2.7-7.9c-0.2-0.3-0.3-0.7-0.4-1c-0.2-0.5-0.7-0.7-1.6-0.4c-0.8,0.3-1.6,0.7-2.4,1
	c-0.4,0.2-0.9,0.2-1.2,0c-0.4-0.3,0-0.5,0.3-0.7c2.6-1.7,2.6-3.7,2.1-5.8c-1.4,0.3-1.7,1.1-2.4,1.7c-0.3,0.3-0.5,0.6-1,0.5
	c-0.6-0.1-0.7-0.5-0.6-0.9c0.2-0.4,0.5-0.7,0.7-1.1c1.4-2.3,1.1-4.5-0.6-6.7c-0.7,0.6-1,1.2-1.3,1.8c-0.2,0.5-0.5,1.1-1.3,1.4
	c-0.3,0.1-0.6,0.2-0.9,0.1c-0.3-0.1-0.3-0.3-0.2-0.5c0.5-1.2,0.6-2.5,0.4-3.7c-0.2-1.4-0.5-2.7-1.5-4c-0.2-0.2-0.1-0.5-0.2-0.7
	c-0.1-1-0.8-1.8-1.7-2.7c-3-3-6.5-5.9-9.8-8.8c-2-1.7-3.8-3.6-5.8-5.3c-2-1.7-4.3-3.3-6.6-4.9c-5.9-4-12.4-7.6-18.5-11.5
	c-1.2-0.8-2.6-1.5-4-2.2c-0.3-0.2-0.7-0.4-1-0.6c-0.5-0.3-0.8-0.8-0.2-1.2c0.5-0.3,1.2-0.5,1.9-0.2c1.3,0.6,3.2,0.6,4.4,1.4
	c0.2,0.1,0.7,0.1,1.1,0.1c0.8,1,2.6,1,4,1.4c2.9,0.7,5.6,1.7,8.7,2.2C668.6,132.3,671,132.7,673.3,133z M703,159
	c-0.2,0.3,0,0.5,0.3,0.6c5.1,3.7,11.2,5.9,19.6,4.4c0.2,0,0.5-0.1,0.7-0.1c2.5-0.4,5.1-0.6,7.7-0.5c0.5,0,1.1,0.2,1.5-0.3
	c-0.6-1.2-2-2-3.3-2.9c-2.8-1.9-6.3-2.5-10.5-2.1c-4.9,0.5-9.8,1.2-14.7,0.6C703.9,158.8,703.4,158.9,703,159c-0.2,0-0.2,0-0.1,0.1
	C702.9,159,702.9,159,703,159z M743.4,312.3c-0.1-3.3-1.2-6.5-2.2-9.7c-0.9-2.9-1.8-5.8-3.7-8.5c-2.1-3-5.7-5-11.2-5.3
	c-2.3-0.1-4.6-0.3-6.9-0.4c-6.8-0.2-13.1-1.3-19-3.2c-0.9-0.3-1.7-0.6-2.6-0.9c-0.4-0.1-0.8-0.3-1.3-0.1c-0.4,0.2-0.3,0.6-0.1,0.8
	c0.1,0.2,0.2,0.4,0.3,0.5c1.9,2.9,4.3,5.6,7,8.2c2.9,2.8,6.1,5.5,9.4,8.2c2.2,1.8,4.9,3.4,7.2,5.3c4.2,3.4,9.5,5.9,14.5,8.8
	c1.3,0.7,2.9,1.2,4.7,1.5c2.6,0.4,4.2-0.4,4.2-2.1C743.6,314.4,743.5,313.3,743.4,312.3z M670.2,298.1c0.3,1.1,0.4,2.6,1.4,3.9
	c2.2,2.8,3.9,5.8,5.9,8.7c2.5,3.7,4.6,7.6,6.4,11.5c0.5,1.1,1.3,2.1,2.2,3c1.2,1.2,3.1,1.1,4.3-0.1c0.7-0.7,1.3-1.4,1.5-2.2
	c0.7-2.1,1.5-4.1,2.2-6.2c1.2-3.8,1.1-7.6,0.9-11.3c-0.3-3.8-0.6-7.6-2.6-11.2c-1.9-3.4-3.7-6.8-5.5-10.3c-0.1-0.3-0.4-0.5-0.7-0.8
	c-1.9-1.7-5.2-1.7-7.2,0.1c-2.5,2.3-4.8,4.7-6.5,7.3C671,292.8,670,295.2,670.2,298.1z M712.4,314.1c0.2-3.2-0.9-6.4-3.2-9.5
	c-1.6-2.2-3.9-4-5.9-6c-0.6-0.6-0.9-1.3-1.9-1.6c-0.7-0.2-1.4-0.8-2.3-0.5c-1,0.4-0.4,1-0.3,1.5c1,3.7,0.9,7.4,1.3,11.1
	c0.5,3.9-1,7.8-2,11.6c-1.4,4.9-4.3,9.4-8.8,13.5c-0.6,0.5-0.9,1.1-1.1,1.7c-0.6,2-1.2,3.9-1.8,5.9c-0.4,1.3,0,2.6,0.7,3.8
	c1,1.6,2.8,1.7,4.9,0.4c6.1-3.7,10.3-8.1,13.9-12.8c2.1-2.7,3.4-5.6,4.6-8.4C712,321.4,712.8,317.9,712.4,314.1z M718.9,191.7
	c-0.7,0.4-0.5,0.7-0.5,1c0.4,2.5,1.5,4.8,2.9,7.1c1.7,2.6,3.6,5.2,6.6,7.4c2.4,1.8,4.5,3.7,7,5.5c4.1,2.9,8.3,5.6,12.5,8.4
	c2.4,1.5,5.1,2.9,7.8,4.2c1.2,0.6,1.9,0.5,2.1-0.5c0.3-2.1,1.1-4.3,0.9-6.4c-0.7-7-6.4-12-14.9-15.7c-3.2-1.4-7-2.3-10.5-3.5
	c-4.1-1.4-7.9-3.1-10.7-5.5C721.2,192.7,720,192.2,718.9,191.7z M720.7,210.8c0.4,2.1,0.7,4.1,1.1,6.1c0.2,0.9,0.5,1.8,1.2,2.7
	c2.7,3.5,5.9,6.7,10.5,9.2c1.3,0.7,2.5,1.5,3.6,2.4c3.3,2.5,7,4.8,10.1,7.4c1.6,1.3,2.4,1.2,3.6-0.4c0.2-0.2,0.3-0.5,0.4-0.7
	c1-1.6,1.4-3.3,1.7-5c0.3-1.9-0.3-3.6-1.7-5.3c-1.9-2.3-4.6-4.2-7.4-6c-2.2-1.4-4.6-2.7-6.6-4.2c-4.1-3.1-8.8-5.9-12.7-9
	c-0.5-0.4-1.3-0.7-2-0.9c-0.8-0.3-1.3-0.1-1.5,0.5C720.7,208.7,720.7,209.8,720.7,210.8z M739,325.6c0.2-2.6-1-4.8-4.1-6.5
	c-2.8-1.5-5.4-3.1-8-4.7c-1.3-0.8-1.7-0.7-2.7,0.3c-1.5,1.6-2.8,3.2-3.9,4.9c-1.4,1.9-2.6,3.9-4.1,5.8c-2,2.5-2.5,5.1-2.9,7.7
	c-0.2,1.1,0.5,2,1.8,2.7c1.6,0.9,3.1,1.9,4.6,2.8c1.5,0.9,1.8,1,3.5,0c1.4-0.8,2.8-1.5,4.7-1.8c1.4-0.2,2.3-0.7,3-1.5
	c1.3-1.4,3-2.7,5.8-2.9c1.4-0.1,1.7-0.7,1.9-1.5C738.8,329.2,739.1,327.4,739,325.6z M716.4,182.4c-0.5,0.8,0.2,1.4,0.5,1.9
	c1,1.4,2.2,2.8,3.4,4.1c1.3,1.4,2.6,2.9,4.4,4c3.3,2.1,7.2,3.7,11.1,5.3c1.3,0.5,2.8,0.9,4.3,1.3c4.4,1,8.6,2.3,12.1,4.3
	c0.9,0.5,1.8,0.9,2.9,0.5c1-0.4,0.6-1.1,0.4-1.6c-0.8-2.9-1.6-5.8-3.2-8.6c-1.8-3.2-5.3-5.1-10.4-5.7c-6.6-0.9-12.8-2.4-19-3.9
	C720.9,183.4,718.7,182.9,716.4,182.4z M714.2,216.3c-1.3,2.3-2.3,4.7-3,7c-0.6,1.9-0.5,3.8,1.2,5.4c1.5,1.5,3.2,2.9,5.2,4.2
	c2.4,1.6,5,3.1,7.8,4.4c3,1.4,5.9,2.8,8.8,4.3c1.3,0.7,2.6,1.4,3.9,2c2.2,0.9,4.9,0.3,5.7-1.2c0.8-1.5,0.7-2.8-0.9-4
	c-2.3-1.7-4.8-3.3-7.4-4.9c-5-3.1-10.2-6.1-14.7-9.5c-2.7-2.1-5.5-4.2-5.8-7.1C715,216.7,714.8,216.5,714.2,216.3z M685.9,378.8
	c0.5,0.1,0.7,0.1,0.8,0.1c1-0.4,2.1-0.7,3.1-1.1c7.6-3.6,14.6-7.7,20.6-12.4c5.6-4.4,10.4-9.1,15-13.9c1.2-1.3,2.4-2.5,3.3-3.9
	c0.6-0.8,0.3-1.3-0.4-1.9c-2.7-2.1-3.1-2.1-6.5-0.2c-0.4,0.2-0.7,0.4-1,0.6c-3,2.2-5,4.7-6.5,7.4c-1.7,2.9-3.7,5.8-6.4,8.5
	c-4.9,4.9-10.1,9.7-16.8,13.7C689.4,376.8,687.7,377.7,685.9,378.8z M733.7,250.7c1.9-1.9,1.9-2.9,0.3-4.5c-0.4-0.4-0.9-0.8-1.5-1.1
	c-4.1-2.5-8.9-4.5-13-7c-2.3-1.4-4.7-2.8-6.5-4.4c-1.8-1.5-3.2-3.3-4.3-5.1c-0.2-0.4,0-1.1-1.1-1.1c-1,0-1.1,0.8-1.6,1.2
	c-0.2,0.2-0.3,0.5-0.4,0.7c-1.1,3.1-0.2,5.8,2.7,8.2c2.8,2.4,6.6,4.1,10.3,5.9c4.6,2.3,9.7,4.3,14.2,6.8
	C733,250.4,733.3,250.5,733.7,250.7z M678.8,271.4c-0.1-1.8,0.1-3.2-0.3-4.5c-0.5-1.6-1-3.2-1.7-4.7c-0.5-1.1-1.1-2.1-1.7-3.2
	c-0.3-0.6-1-0.8-2-0.7c-1,0.1-1.4,0.6-1.6,1.2c-0.1,0.4,0,0.8,0.1,1.2c0.4,1.4,0.8,2.7,1.3,4c1.6,4.2,1.2,8.4-0.6,12.7
	c-1.1,2.7-3.2,5.1-5.6,7.4c-0.8,0.8-1.6,1.5-2.2,2.4c-0.8,1,0,2.5,1.3,2.9c1,0.3,2.5-0.2,3.5-1.2c0.7-0.7,1.3-1.4,2-2.1
	c2.2-2,4-4.2,5.2-6.5C678.3,277.2,679.5,274.1,678.8,271.4z M689.3,242.6c0.2,3.3,0.9,6.5,2.3,9.6c2.3,5.1,6,9.7,11.6,13.6
	c2.9,2,6.2,3.7,9.3,5.6c0.7,0.4,1.5,0.8,2.4,1.1c0.4,0.2,0.9,0.2,1.3-0.1c0.4-0.3,0.4-0.5,0.1-0.8c-0.2-0.2-0.4-0.3-0.6-0.4
	c-2.5-2-5.1-4.1-7.5-6.1c-2.1-1.8-3.9-3.7-5.9-5.5c-2.7-2.5-5.1-5.2-6.3-8.2c-1.7-4.2-3.7-8.4-4.2-12.8c-0.1-0.6,0.2-1.8-1.1-1.7
	c-1.4,0.1-1.1,1.2-1.1,1.9C689.4,239.9,689.1,241.3,689.3,242.6z M745.3,181.7c-0.7-1.4-1.7-2.6-2.6-3.9c-1.2-1.7-3.5-2-6.1-2.1
	c-1.2,0-2.3,0.2-3.5,0.3c-4.6,0.3-9.2,0.5-13.6-0.4c-2.3-0.5-4.7-0.9-7-1.4c-0.5-0.1-1.1-0.3-1.5,0.1c-0.4,0.3-0.1,0.7,0.2,1
	c1.1,1.2,2.2,2.3,4,3.1c3.5,1.6,7.5,2.3,11.6,2.9c3.7,0.5,7.5,0.7,11.3,0.6C740.4,181.8,742.7,182.2,745.3,181.7z M678.7,253.8
	c0,2.9,2,5.3,3.2,7.9c1.7,3.8,4.8,7.2,9.1,10.1c3.3,2.2,6.7,4.2,10.9,5.6c2.1,0.7,4.2,1.4,6.3,2c3.3,1,6.8,1.5,10.2,2.3
	c0.4,0.1,0.9,0.2,1.3-0.1c0.3-0.3,0.1-0.6-0.1-0.8c-0.2-0.2-0.5-0.3-0.8-0.5c-1.3-0.6-2.7-1-4.2-1.3c-4.5-0.9-8.5-2.5-12.2-4.2
	c-3.5-1.6-6.8-3.4-9.5-5.6c-4.7-3.7-7.6-8.1-9.7-12.6c-0.7-1.5-1.1-3-1.6-4.5c-0.2-0.5-0.5-0.9-1.3-0.8c-0.9,0.1-1.5,0.5-1.5,1
	C678.6,252.8,678.7,253.3,678.7,253.8z M682.7,248.8C682.7,248.8,682.7,248.8,682.7,248.8c0,0.2,0,0.5,0,0.7c0,0.2,0.1,0.4,0.1,0.6
	c1.2,5.5,3.8,10.6,8.5,15.2c2.3,2.2,5,4.3,8.2,6c4,2.2,8.7,3.7,13.6,5c0.6,0.1,1.2,0.3,1.8,0.3c1.1,0.1,1.6-0.4,1.2-1
	c-0.3-0.4-0.7-0.7-1.4-0.9c-0.9-0.3-1.8-0.6-2.7-0.9c-5.9-1.9-11.2-4.3-15.1-7.7c-4.9-4.2-7.9-8.9-9.7-14.1c-0.3-1-0.6-1.9-0.8-2.9
	c-0.4-1.5-0.4-3.2-1.3-4.6c-0.2-0.4-0.5-0.8-1.2-0.7c-0.6,0.1-0.7,0.5-0.9,0.8c-0.1,0.2-0.1,0.4-0.1,0.6
	C682.8,246.5,682.7,247.6,682.7,248.8z M705.6,164.6c0.4,1.2,0.8,2,1.7,2.8c1.9,1.6,4.5,2.7,7.3,3.6c1.4,0.5,2.8,0.6,4.4,0.6
	c2.5-0.1,5-0.1,7.5-0.1c4.2,0,8.4-0.2,12.5,0.6c0.4,0.1,0.9,0.2,1.3-0.2c-0.3-0.7-0.8-1.4-1.5-2.1c-1.9-1.7-4.1-2.9-7.6-3
	c-3.4-0.1-6.7,0.1-10.1,0.3c-4.3,0.2-8.4-0.2-12.1-1.5C707.9,165.3,706.9,165,705.6,164.6z M723.1,154.4c-0.8-1.1-1.9-1.6-2.8-2.1
	c-2.3-1.2-4.7-2.3-7.9-2.4c-1.7-0.1-3.4-0.1-5.1-0.1c-4.9,0-9.8,0.3-14.7,0.1c-0.9,0-1.3,0.4-0.8,0.9c1.9,1.6,3.7,3.2,7.1,3.6
	c3.7,0.5,7.4,0.3,11.1-0.1c3.4-0.3,6.8-0.4,10.2-0.2C721.1,154.1,721.9,154.3,723.1,154.4z M711.9,342.6c0.1-0.7-0.3-1.4-0.8-2
	c-1.2-1.5-4.5-1.7-6.2-0.4c-1.3,1-2.3,2.1-2.9,3.3c-1.4,3-2.4,6-3.3,9.1c-0.3,1.1-0.4,2.3-0.6,3.4c0,0.2,0,0.5,0.4,0.6
	c0.6,0.2,0.8-0.2,1.1-0.4c0.5-0.4,1.1-0.9,1.6-1.4c2.1-2,4.2-4.1,6.4-6.1c1.6-1.4,2.8-3,3.9-4.5C711.8,343.8,712,343.3,711.9,342.6z
	 M666.2,258.2c-0.8,0.3-0.8,0.7-0.9,1c-0.8,2.4-1.4,4.8-1.8,7.3c-0.7,3.8,0,7.5,1.4,11.2c0.4,1,0.9,2.1,1.4,3.1
	c0.1,0.2,0.3,0.4,0.7,0.3c0.2,0,0.4-0.2,0.4-0.3c1.6-2.2,2.4-4.6,2.8-7c0.6-3.9,0-7.6-1.7-11.3C667.8,261,667.5,259.5,666.2,258.2z
	 M729.4,254.7c-0.1-0.6-0.3-1.2-0.9-1.5c-1.3-0.8-2.7-1.7-4.1-2.5c-3.1-1.8-6.6-3.2-9.6-5.1c-1.9-1.2-3.9-2.3-5.6-3.6
	c-0.2-0.2-0.5-0.4-1-0.3c-0.6,0.2-0.5,0.5-0.3,0.8c0.6,1.1,1,2.2,1.9,3.1c2.1,2.5,4.2,4.9,7,7.1c1.7,1.4,3.5,2.7,5.4,3.9
	c0.7,0.5,1.6,0.9,2.8,0.9C726.2,257.6,729.4,255.5,729.4,254.7z M688.8,274.1c0,1.3,0,1.3,0.5,1.8c2.8,2.7,6.2,5,10.2,7
	c2.2,1.1,4.7,1.9,7.5,2.4c6.5,1.1,13.2,1.5,19.9,1.9c0.4,0,0.9,0.1,1.2-0.4c-0.8-0.5-1.8-0.8-2.8-1.1c-4.2-1.1-8.5-1.9-12.9-2.7
	c-5.5-1-10.6-2.5-15.3-4.5C694.3,277.3,691.7,275.7,688.8,274.1z M695.2,347.9c-2.2,1.5-4.4,3-6.6,4.5c-1.5,0.9-2.1,2-2.1,3.2
	c-0.1,2.8-0.4,5.6-1.6,8.3c-0.1,0.2-0.1,0.4-0.2,0.6c-0.1,0.7,0.4,0.9,1.4,0.7c0.7-0.2,1.2-0.5,1.7-0.8c1-0.8,1.9-1.6,2.6-2.6
	c3-4.2,4.4-8.5,5.4-12.9C695.8,348.6,695.8,348.3,695.2,347.9z M714.7,147.2c-1.1-0.7-1.7-1.7-3.2-1.9c-2.1-0.4-4.2-0.9-6.4-1.1
	c-7.4-0.9-15-1.4-22.3-2.6c-0.6-0.1-1.4-0.3-1.9,0.3c0.1,0.3,0.5,0.5,1,0.6c3.9,1.2,8,1.9,12.2,2.4c4.9,0.6,9.8,1.2,14.8,1.7
	C710.8,146.8,712.8,147,714.7,147.2z M705.7,356.7c0.1-0.4,0.1-0.6-0.3-0.8c-0.5-0.2-0.9,0.1-1.2,0.3c-0.3,0.2-0.6,0.5-0.9,0.7
	c-1.7,1.2-3.4,2.5-5,3.7c-3.4,2.5-6.9,5-10,7.7c-0.3,0.2-0.6,0.5-0.7,0.8c-0.3,0.4-0.1,0.8,0.4,1.1c0.5,0.3,1,0.2,1.5,0
	c1-0.3,1.9-0.8,2.7-1.3c2.9-1.8,5.3-3.8,7.8-5.8c2-1.6,3.5-3.4,5.1-5.2C705.4,357.4,705.7,357,705.7,356.7z M680.1,318.9
	c0.3-0.5,0-0.8-0.2-1.2c-0.8-1.4-1.7-2.7-2.6-4.1c-3.6-5.4-7.5-10.7-11.5-16c-0.3-0.4-0.5-1.1-1.5-0.9c-0.9,0.3-0.5,0.9-0.2,1.3
	c1,2.1,2.1,4.2,3.2,6.3c0.3,0.6,0.8,1.3,1.2,1.9c2.9,4,6.6,7.8,10.1,11.6C678.9,318.3,679.4,318.7,680.1,318.9z M717.4,269.8
	c-0.7-1.9-2-3.3-3.2-4.8c-1.2-1.5-2.4-2.9-3.8-4.3c-1.4-1.4-2.8-2.8-4.4-4.1c-1.5-1.2-2.3-2.9-4.4-4
	C701,255.8,711.6,267.5,717.4,269.8z M670.4,134.9c2.5,1.3,5,2.4,8,2.9c4,0.7,8.1,1.4,12.2,2.1c0.9,0.2,1.8,0.1,2.7-0.2
	c0.7-0.3,0.6-0.5,0-0.8c-0.4-0.1-0.9-0.2-1.3-0.3c-4.8-0.9-9.5-1.9-14.1-3c-1.6-0.4-3.2-0.7-4.8-0.9
	C672.3,134.7,671.6,134.5,670.4,134.9z M723.7,271.2c-0.2,2.9,1.8,5.2,3.2,7.5c1.8,3.1,6.5,7.5,8.2,7.9
	C734.9,284.8,726.1,272.8,723.7,271.2z M709.4,216.9c1.5-1.5,2.1-3.1,2.7-4.7c0.8-2.1,1.6-4.3,2.2-6.5c0.2-0.8,0.1-1.5-0.9-2
	c-0.3-0.2-0.6-0.5-1.1-0.4c-0.7,0.1-0.6,0.5-0.7,0.9c-0.7,2.5-1.5,4.9-2.1,7.4C709,213.3,708.9,215.1,709.4,216.9z M717.2,318.6
	c0.3,0,0.5-0.1,0.6-0.2c1.8-1.9,2.7-4,3.8-6c0.2-0.3,0.2-0.7-0.1-1c-1.2-1-2.7-1.9-4.5-2.7c-0.2,3.1,0.5,6,0,9
	C716.9,318,716.7,318.4,717.2,318.6z M709.8,198.6c-2.5,2.2-2.7,2.5-2.5,3.5C710.4,200.7,710.7,200.2,709.8,198.6z M682.9,381.7
	c-2.9,0.8-3.5,2-1.5,3.1C681.7,383.7,683.4,382.9,682.9,381.7z M708.9,204c-2,1.1-2.4,2.2-1.1,3.4C708.1,206.2,709,205.2,708.9,204z
	 M708.2,197.4c1.7-1.3,1.7-1.3,1-2.2C708.4,195.8,708.7,196.6,708.2,197.4z"/>
</svg>
